<svg width="90" height="90" fill="none" xmlns="http://www.w3.org/2000/svg"><path fill-rule="evenodd" clip-rule="evenodd" d="M30 0C18.954 0 10 8.954 10 20v40c0 11.046 8.954 20 20 20h40c11.046 0 20-8.954 20-20V20C90 8.954 81.046 0 70 0H30Z" fill="#CBE5C7"/><path d="M28.335 73.333h-1.667c-13.333 0-20-3.333-20-20V36.667c0-13.334 6.667-20 20-20h26.667c13.333 0 20 6.666 20 20v16.666c0 13.334-6.667 20-20 20h-1.667a3.38 3.38 0 0 0-2.667 1.334l-5 6.666c-2.2 2.934-5.8 2.934-8 0l-5-6.666c-.533-.734-1.766-1.334-2.666-1.334Z" stroke="#19191B" stroke-width="3" stroke-miterlimit="10" stroke-linecap="round" stroke-linejoin="round"/><path d="M23.332 36.667h33.333M23.332 53.333h20" stroke="#19191B" stroke-width="3" stroke-linecap="round" stroke-linejoin="round"/></svg>