<svg width="167" height="32" fill="none" xmlns="http://www.w3.org/2000/svg"><path d="M46.88 9.707v4.847h6.573v3.564H46.88v4.947h8.582v3.707H42V6h13.462v3.707H46.88Zm30.547 6.672c0 1.502-.263 2.89-.79 4.163a9.724 9.724 0 0 1-2.195 3.293c-.947.922-2.09 1.644-3.43 2.167-1.33.513-2.808.77-4.435.77h-8.123V6h8.123c1.627 0 3.105.261 4.435.784 1.34.523 2.483 1.245 3.43 2.167a9.542 9.542 0 0 1 2.196 3.293c.526 1.264.789 2.643.789 4.135Zm-4.966 0c0-1.027-.134-1.953-.401-2.78-.268-.827-.656-1.526-1.163-2.096a4.847 4.847 0 0 0-1.837-1.326c-.727-.313-1.555-.47-2.483-.47h-3.243v13.358h3.243c.928 0 1.756-.152 2.483-.456a5.06 5.06 0 0 0 1.837-1.326c.507-.58.895-1.283 1.162-2.11.268-.827.402-1.758.402-2.794Zm16.555 6.586c.65 0 1.23-.104 1.736-.313a3.587 3.587 0 0 0 1.306-.927c.354-.4.622-.884.804-1.454.191-.58.287-1.236.287-1.968V6H98v12.303c0 1.274-.21 2.443-.632 3.508a7.778 7.778 0 0 1-1.78 2.751c-.774.77-1.716 1.369-2.826 1.796-1.11.428-2.359.642-3.746.642-1.397 0-2.65-.214-3.76-.642-1.11-.427-2.053-1.026-2.828-1.796a7.778 7.778 0 0 1-1.78-2.751c-.41-1.065-.616-2.234-.616-3.508V6h4.85v12.29c0 .731.091 1.387.273 1.967.192.57.464 1.06.818 1.468.354.4.785.708 1.292.927.517.209 1.1.313 1.75.313Z" fill="#19191B"/><rect x="104" width="63" height="32" rx="6" fill="#FE5233"/><path d="M120.005 13.793a6.045 6.045 0 0 1 1.613-1.256c.59-.312 1.27-.468 2.039-.468.62 0 1.165.106 1.635.32.478.205.874.502 1.188.89.321.38.564.841.728 1.382.164.54.246 1.138.246 1.792v7.364h-2.005v-7.364c0-.875-.198-1.553-.593-2.032-.389-.487-.982-.73-1.782-.73a3.33 3.33 0 0 0-1.657.433 5.51 5.51 0 0 0-1.412 1.176v8.517H118V7h2.005v6.793Zm19.819-1.541v11.565h-1.187c-.284 0-.463-.14-.538-.422l-.157-1.245a6.355 6.355 0 0 1-1.658 1.347c-.612.335-1.314.503-2.106.503-.62 0-1.169-.103-1.647-.308a3.328 3.328 0 0 1-1.187-.891 3.845 3.845 0 0 1-.728-1.381 6.412 6.412 0 0 1-.235-1.793v-7.375h1.994v7.375c0 .875.194 1.553.582 2.032.396.48.997.72 1.804.72.59 0 1.139-.141 1.646-.423.516-.29.99-.685 1.423-1.187v-8.517h1.994Zm5.167 8.779c.366.503.765.857 1.198 1.062a3.38 3.38 0 0 0 1.445.308c1.068 0 1.886-.384 2.454-1.153.567-.768.851-1.914.851-3.436 0-1.416-.254-2.455-.762-3.117-.5-.67-1.217-1.005-2.151-1.005-.649 0-1.217.152-1.702.457-.478.304-.923.734-1.333 1.29v5.594Zm0-7.112a5.884 5.884 0 0 1 1.613-1.348c.605-.335 1.299-.502 2.083-.502.665 0 1.262.13 1.793.388.537.259.993.636 1.366 1.13.374.488.657 1.081.852 1.781.201.7.302 1.489.302 2.364 0 .936-.112 1.788-.336 2.557-.224.769-.549 1.427-.975 1.975-.418.54-.929.963-1.534 1.268-.605.296-1.285.445-2.039.445-.747 0-1.378-.14-1.893-.422a4.24 4.24 0 0 1-1.333-1.222l-.101 1.05c-.06.29-.232.434-.515.434h-1.289V7h2.006v6.918Z" fill="#fff"/><path d="M27.961 13.243a1.377 1.377 0 0 0-.793 1.239v5.763a3.877 3.877 0 0 1-1.934 3.337l-6.164 3.622a4.09 4.09 0 0 1-4.13.002l-6.172-3.624a3.877 3.877 0 0 1-1.936-3.338v-5.762c0-.527-.308-1.008-.793-1.24-.941-.448-2.039.22-2.039 1.24v7.427c0 1.365.733 2.631 1.933 3.336l9.005 5.295a4.09 4.09 0 0 0 4.135 0l8.995-5.294A3.877 3.877 0 0 0 30 21.91v-7.428c0-1.02-1.098-1.688-2.039-1.24Z" fill="#19191B"/><path d="M25 19.324c0 1.243-.715 2.386-1.863 2.978l-4.445 2.29a3.713 3.713 0 0 1-3.384 0l-4.444-2.29C9.715 21.71 9 20.567 9 19.324V14.68c0-1.242.714-2.384 1.86-2.976l4.445-2.296a3.713 3.713 0 0 1 3.39 0l4.444 2.295C24.286 12.297 25 13.44 25 14.681v4.643Z" fill="#FE5233"/><path d="M16.24.146 1.286 6.106c-1.715.684-1.715 3.104 0 3.787l14.954 5.961a2.053 2.053 0 0 0 1.52 0l14.954-5.96c1.715-.684 1.715-3.104 0-3.787L17.76.146a2.053 2.053 0 0 0-1.52 0Z" fill="#19191B"/></svg>