<?xml version="1.0" encoding="utf-8"?><svg viewBox="0 0 26 20" xmlns="http://www.w3.org/2000/svg" xmlns:xlink="http://www.w3.org/1999/xlink"><style>:root>svg{display:none}:root>svg:target{display:block}</style><svg fill="none" viewBox="0 0 14 12" id="arr_left" xmlns="http://www.w3.org/2000/svg"><path d="M12.832 6h-10M6.168 1l-5 5 5 5" stroke="#7D7D7D" stroke-width="2" stroke-linecap="round" stroke-linejoin="round"/></svg><svg fill="none" viewBox="0 0 14 12" id="arr_right" xmlns="http://www.w3.org/2000/svg"><path d="M1.168 6h10M7.832 11l5-5-5-5" stroke="#7D7D7D" stroke-width="2" stroke-linecap="round" stroke-linejoin="round"/></svg><svg fill="none" viewBox="0 0 26 18" id="burger" xmlns="http://www.w3.org/2000/svg"><path d="M1 1h24M1 9h24M1 17h24" stroke="#19191B" stroke-width="2" stroke-linecap="round"/></svg><svg fill="none" viewBox="0 0 10 6" id="chevron_down" xmlns="http://www.w3.org/2000/svg"><path d="M.75.75L5 5.25 9.25.75" stroke="#19191B" stroke-width="1.5" stroke-linecap="round" stroke-linejoin="round"/></svg><svg fill="none" viewBox="0 0 16 20" id="user" xmlns="http://www.w3.org/2000/svg"><path fill-rule="evenodd" clip-rule="evenodd" d="M8 1.538c-1.853 0-3.355 1.493-3.355 3.334 0 1.84 1.502 3.333 3.355 3.333s3.355-1.492 3.355-3.333c0-1.841-1.502-3.334-3.355-3.334zM3.097 4.872C3.097 2.182 5.292 0 8 0c2.708 0 4.903 2.181 4.903 4.872 0 2.69-2.195 4.872-4.903 4.872-2.708 0-4.903-2.182-4.903-4.872zM5.466 13.333c-2.164 0-3.918 1.743-3.918 3.893 0 .113.021.193.043.239.018.04.034.05.047.057.602.326 2.289.94 6.362.94s5.76-.614 6.362-.94c.013-.007.029-.018.047-.057a.58.58 0 00.043-.239c0-2.15-1.754-3.893-3.918-3.893H5.466zM0 17.226c0-3 2.447-5.431 5.466-5.431h5.068c3.019 0 5.466 2.431 5.466 5.431 0 .55-.2 1.27-.898 1.648C14.178 19.374 12.196 20 8 20s-6.178-.627-7.102-1.126C.201 18.497 0 17.777 0 17.226z" fill="#19191B"/></svg></svg>