<svg width="595" height="355" fill="none" xmlns="http://www.w3.org/2000/svg"><path d="M264.056 288.508H105.607l-36.763-95.207h158.449l36.763 95.207Z" fill="#D7C0FF"/><path d="M250.651 281.289H92.201c-.24 0-.48-.161-.641-.401L56.08 188.97c-.16-.321 0-.722.401-.883.322-.16.723 0 .883.401l35.318 91.437h157.005l-36.201-93.843H124.55a.632.632 0 0 1-.642-.641c0-.402.321-.642.642-.642h89.338c.241 0 .482.16.642.401l36.763 95.207c.08.24.08.401-.08.641-.161.08-.321.241-.562.241Z" fill="#fff"/><path d="M203.374 222.818H99.024a.633.633 0 0 1-.641-.642c0-.401.32-.642.642-.642h104.349c.401 0 .642.321.642.642.08.321-.241.642-.642.642Zm2.648 19.17H101.673a.633.633 0 0 1-.642-.642c0-.401.321-.642.642-.642h104.349c.401 0 .642.321.642.642a.633.633 0 0 1-.642.642ZM90.111 129.055c-.08 0-.16 0-.32-.081-.322-.16-.482-.561-.322-.882 0-.08.803-1.684 2.569-4.652.16-.321.562-.401.883-.241.32.161.401.562.24.883-1.685 2.887-2.488 4.571-2.488 4.571a.604.604 0 0 1-.562.402Zm8.189-13.556c-.161 0-.241 0-.402-.08-.32-.241-.401-.642-.16-.882 1.926-2.888 4.013-5.775 6.18-8.663a.655.655 0 0 1 .883-.16.653.653 0 0 1 .161.882 252.767 252.767 0 0 0-6.18 8.582c-.081.241-.322.321-.482.321Zm12.762-16.843a.613.613 0 0 1-.401-.16c-.241-.241-.321-.642-.08-.963a216.805 216.805 0 0 1 7.063-7.94c.241-.241.642-.322.963 0 .241.24.321.64 0 .962-2.408 2.566-4.735 5.293-6.983 7.94-.16.08-.321.16-.562.16Zm180.523-.562c-.321 0-.642-.32-.642-.641 0-.401.321-.642.642-.642 3.291-.08 6.823-.24 10.515-.562.402 0 .642.241.723.562a.77.77 0 0 1-.562.722c-3.693.32-7.305.481-10.676.561Zm-10.515-.24c-.08 0-.08 0 0 0-4.013-.321-7.545-.883-10.595-1.605-.321-.08-.562-.48-.482-.802.08-.32.482-.561.803-.48 2.97.721 6.501 1.282 10.354 1.603.402 0 .642.321.642.722-.16.321-.401.562-.722.562Zm31.626-1.524c-.321 0-.562-.241-.642-.562-.081-.32.16-.722.561-.722 3.532-.48 6.984-1.123 10.355-1.845.321-.08.722.161.803.482.08.32-.161.722-.482.802a217.813 217.813 0 0 1-10.435 1.925c-.08-.08-.08-.08-.16-.08Zm-51.773-4.332c-.161 0-.241-.08-.402-.16-2.729-2.085-4.174-4.732-4.174-7.62 0-.722.081-1.524.322-2.326.08-.32.481-.561.802-.481.321.08.562.481.482.802a8.535 8.535 0 0 0-.241 2.005c0 2.487 1.204 4.652 3.692 6.577.321.24.321.642.081.883-.161.24-.321.32-.562.32Zm72.482-.16c-.321 0-.562-.16-.642-.481-.081-.321.08-.722.401-.802 3.371-1.043 6.743-2.166 9.953-3.45.321-.16.723 0 .883.402.161.32 0 .722-.401.882-3.291 1.283-6.662 2.406-10.034 3.449h-.16Zm19.666-7.78a.603.603 0 0 1-.562-.401c-.161-.321 0-.722.321-.882 3.21-1.605 6.261-3.289 9.15-5.134.321-.16.723-.08.883.24.161.322.081.723-.241.883-2.969 1.845-6.1 3.61-9.311 5.214 0 .08-.16.08-.24.08Zm-227.641-.963c-.16 0-.321-.08-.481-.16-.241-.24-.241-.642 0-.963 2.488-2.486 5.056-4.892 7.705-7.298a.662.662 0 0 1 .964.08.66.66 0 0 1-.081.962c-2.568 2.407-5.217 4.813-7.625 7.3-.081 0-.241.08-.482.08Zm311.039-.802c-.08 0-.16 0-.241-.08-3.21-1.444-6.501-2.807-9.712-4.09-.321-.161-.482-.482-.401-.883.16-.32.481-.481.883-.4a321.69 321.69 0 0 1 9.792 4.09c.321.16.482.561.321.882-.16.32-.401.481-.642.481Zm-19.666-7.86c-.08 0-.16 0-.24-.08-3.291-1.203-6.663-2.407-9.954-3.45-.321-.08-.561-.48-.401-.801.08-.321.482-.562.803-.401 3.291 1.123 6.662 2.246 10.033 3.449.321.16.482.48.402.802-.161.32-.402.48-.643.48Zm-153.472-.08c-.161 0-.402-.08-.482-.24a.66.66 0 0 1 .08-.963c2.408-2.086 5.459-4.091 8.99-5.856.322-.16.723 0 .883.321.161.321 0 .722-.321.883-3.451 1.764-6.341 3.69-8.749 5.694a.613.613 0 0 1-.401.16Zm107.639-1.524c-.16 0-.401-.08-.481-.24-.241-.322-.161-.723.08-.883a83.352 83.352 0 0 0 7.786-7.059c.241-.24.642-.24.963 0 .241.241.241.642 0 .963a84.08 84.08 0 0 1-7.866 7.139c-.161 0-.321.08-.482.08Zm-229.807-3.93c-.161 0-.402-.08-.482-.241-.241-.24-.16-.722.08-.963 2.729-2.245 5.459-4.491 8.268-6.657.321-.24.722-.16.883.16.241.321.16.722-.161.883a330.49 330.49 0 0 0-8.267 6.577c-.08.16-.161.24-.321.24Zm255.493-1.123h-.16a483.634 483.634 0 0 0-10.194-2.808c-.322-.08-.562-.48-.482-.802.08-.32.482-.561.803-.481 3.371.882 6.822 1.765 10.274 2.807.321.08.562.482.482.802-.161.321-.402.482-.723.482Zm-114.783-3.37c-.241 0-.562-.16-.642-.4-.081-.321.08-.722.401-.802 3.211-1.123 6.662-2.166 10.194-2.968.321-.08.722.16.803.481.08.321-.161.722-.482.802-3.532.883-6.903 1.845-10.114 2.968 0-.08-.08-.08-.16-.08Zm94.235-1.764h-.161c-3.452-.722-6.983-1.363-10.355-2.005a.77.77 0 0 1-.561-.722.77.77 0 0 1 .722-.561c3.451.561 6.983 1.283 10.435 2.005.321.08.562.401.481.802 0 .24-.24.481-.561.481Zm-73.687-3.288c-.321 0-.562-.24-.642-.562-.08-.32.161-.721.562-.721 3.371-.562 6.983-.963 10.595-1.284a.77.77 0 0 1 .723.562.77.77 0 0 1-.562.722c-3.532.32-7.064.721-10.435 1.283h-.241Zm52.817-.24h-.08c-3.532-.402-7.064-.803-10.516-1.043-.401 0-.642-.321-.642-.722 0-.401.321-.642.723-.642 3.451.24 7.063.642 10.595 1.043.321.08.642.4.562.721a.633.633 0 0 1-.642.642Zm30.261-1.605c-.161 0-.241 0-.401-.08-.322-.24-.402-.642-.161-.883a51.381 51.381 0 0 0 4.977-9.143c.16-.321.481-.481.883-.401.321.16.481.481.401.882a54.29 54.29 0 0 1-5.057 9.465c-.241.08-.401.16-.642.16Zm-51.372-.08a233.28 233.28 0 0 0-10.595 0c-.401 0-.642-.24-.642-.642 0-.4.241-.642.642-.642 1.686-.08 3.451-.08 5.217-.08 1.766 0 3.612 0 5.378.08.402 0 .642.321.642.642a.633.633 0 0 1-.642.642Zm-176.188-1.444a.728.728 0 0 1-.562-.24c-.241-.321-.161-.722.16-.883 2.89-2.005 5.86-4.01 8.83-5.935.321-.16.722-.08.883.16.16.321.08.722-.161.882-2.97 1.925-5.859 3.93-8.749 5.936-.16 0-.241.08-.401.08Zm17.739-11.55c-.241 0-.482-.08-.562-.32-.16-.322-.08-.723.241-.883 3.05-1.764 6.1-3.53 9.231-5.213.321-.16.722-.08.883.24.16.321.08.722-.241.882a341.612 341.612 0 0 0-9.151 5.214c-.16.08-.24.08-.401.08Zm217.286-6.497s-.08 0 0 0c-.402 0-.642-.32-.642-.721.08-.642.08-1.284.08-1.925 0-2.888-.482-5.615-1.365-8.262-.08-.32.081-.722.402-.802.321-.08.722.08.802.401.964 2.727 1.445 5.695 1.445 8.662 0 .642 0 1.364-.08 2.006a.633.633 0 0 1-.642.641ZM194.3 34.33a.604.604 0 0 1-.562-.401c-.16-.32 0-.722.321-.882 3.131-1.524 6.342-3.128 9.552-4.572.321-.16.723 0 .883.32.161.322 0 .723-.321.883a348.052 348.052 0 0 0-9.552 4.492c-.16.16-.241.16-.321.16Zm19.265-8.743c-.241 0-.482-.16-.643-.4-.16-.322 0-.723.321-.883 3.211-1.364 6.582-2.647 9.873-3.85.322-.16.723.08.883.401.161.32-.08.722-.401.882a250.668 250.668 0 0 0-9.873 3.85h-.16Zm172.737-7.058c-.161 0-.402-.08-.482-.24-2.167-2.407-4.816-4.653-7.947-6.578-.321-.16-.401-.561-.24-.882.16-.32.561-.401.883-.24 3.21 2.005 6.02 4.33 8.267 6.817a.66.66 0 0 1-.08.963.613.613 0 0 1-.401.16Zm-152.831-.32c-.241 0-.562-.161-.642-.482-.08-.32.08-.722.401-.802 3.291-1.123 6.743-2.166 10.114-3.208.321-.08.722.08.803.48.08.322-.081.723-.482.803-3.371.962-6.742 2.085-10.114 3.208h-.08Zm20.308-6.016c-.321 0-.562-.16-.642-.482-.081-.32.08-.722.481-.802 3.372-.882 6.823-1.764 10.275-2.566.321-.08.722.16.802.48.081.322-.16.723-.481.803-3.452.802-6.903 1.604-10.275 2.486-.08.08-.16.08-.16.08Zm20.629-4.733c-.321 0-.562-.24-.642-.561-.081-.32.16-.722.481-.802 3.452-.642 6.984-1.364 10.435-1.925.321-.08.723.16.723.561.08.321-.161.722-.562.722a237.661 237.661 0 0 0-10.435 1.925c.08.08 0 .08 0 .08Zm94.235-.32c-.081 0-.161 0-.241-.08a82.155 82.155 0 0 0-10.034-2.968.666.666 0 0 1-.481-.802c.08-.321.401-.562.802-.482 3.693.802 7.064 1.845 10.275 2.968.321.16.481.481.401.882-.161.321-.482.482-.722.482Zm-73.366-3.21c-.321 0-.642-.24-.642-.561-.08-.321.241-.722.562-.722 3.612-.481 7.144-.963 10.515-1.283.321 0 .723.24.723.561 0 .32-.241.722-.562.722-3.371.32-6.903.802-10.515 1.283h-.081Zm52.817-1.524h-.08a135.746 135.746 0 0 0-10.515-.882c-.402 0-.643-.32-.643-.722 0-.401.321-.642.723-.642 3.692.16 7.224.482 10.595.883.321.08.642.4.562.722-.08.4-.321.641-.642.641Zm-31.786-.641a.633.633 0 0 1-.642-.642c0-.401.24-.642.642-.722C319.92.161 323.532 0 326.903 0c.321 0 .642.32.642.642a.633.633 0 0 1-.642.641c-3.371.16-6.903.321-10.595.482.08 0 .08 0 0 0ZM450.996 89.03c-.081 0-.161 0-.321-.08a126.977 126.977 0 0 0-4.736-2.245c-.321-.16-.482-.562-.321-.882.16-.321.562-.482.883-.321 1.605.722 3.13 1.524 4.735 2.246.322.16.482.56.322.882a.605.605 0 0 1-.562.4ZM367.28 346.658H201.125v7.059H367.28v-7.059Z" fill="#fff"/><path d="M177.686 186.082c-.241 0-.562-.16-.642-.481l-18.542-54.221c-.08-.16 0-.401.08-.561a.731.731 0 0 1 .562-.241h51.051c.401 0 .642.321.642.642a.633.633 0 0 1-.642.642h-50.088l18.221 53.418c.08.321-.08.722-.401.802h-.241Z" fill="#19191B"/><path d="M217.579 153.278h-51.05a.633.633 0 0 1-.642-.642c0-.401.321-.642.642-.642h51.05c.402 0 .643.321.643.642a.633.633 0 0 1-.643.642Zm15.01-16.123h-13.645c-.321 0-.562-.16-.642-.481l-4.495-13.635c-.081-.161 0-.401.08-.562a.73.73 0 0 1 .562-.24h13.645c.321 0 .562.16.643.481l4.495 13.635c.08.161 0 .401-.081.562a.729.729 0 0 1-.562.24Zm-13.083-1.283h12.2l-4.013-12.272h-12.201l4.014 12.272Zm20.63 24.544h-13.645c-.321 0-.562-.161-.642-.482l-4.495-13.635c-.081-.16 0-.401.08-.561a.726.726 0 0 1 .562-.241h13.645c.321 0 .562.16.642.481l4.495 13.636c.081.16 0 .401-.08.561a.726.726 0 0 1-.562.241Zm-13.083-1.284h12.2l-4.013-12.271h-12.201l4.014 12.271Z" fill="#19191B"/><path d="M237.006 158.411H223.44l-4.495-13.556h13.646l4.415 13.556Zm-7.547-23.18h-13.646l-4.415-13.636h13.566l4.495 13.636Z" fill="#FFCCA1"/><path d="M286.852 130.98h-47.198a.633.633 0 0 1-.642-.642c0-.401.321-.642.642-.642h47.198c.401 0 .642.321.642.642s-.321.642-.642.642Zm-4.016 16.844h-36.682a.633.633 0 0 1-.642-.642c0-.401.321-.642.642-.642h36.682c.402 0 .643.321.643.642a.634.634 0 0 1-.643.642Zm13.086 6.417h-47.198a.633.633 0 0 1-.642-.643c0-.401.321-.642.642-.642h47.198c.401 0 .642.321.642.642.08.402-.241.643-.642.643Zm-22.234-29.677h-36.683a.633.633 0 0 1-.642-.642c0-.402.321-.642.642-.642h36.683c.401 0 .642.321.642.642a.633.633 0 0 1-.642.642Zm243.133 230.357H94.611a.633.633 0 0 1-.642-.642c0-.402.32-.643.642-.643h422.21c.402 0 .642.322.642.643s-.321.642-.642.642Z" fill="#19191B"/><path d="M317.353 353.717H165.646l-30.341-85.021c.24-.641.481-1.203.722-1.764 2.007-3.77 5.94-6.497 10.676-6.497h130.114c4.816 0 9.071 3.048 10.676 7.54l29.86 85.742Z" fill="#fff"/><path d="M367.282 354.358H201.127a.633.633 0 0 1-.643-.641v-7.059c0-.401.321-.641.643-.641h166.155c.401 0 .642.32.642.641v7.059c0 .401-.241.641-.642.641Zm-165.513-1.283h164.87V347.3h-164.87v5.775Z" fill="#19191B"/><path d="M317.352 354.358H165.645c-.241 0-.562-.16-.642-.401l-30.341-85.02c-.081-.16-.081-.321 0-.401.241-.642.481-1.283.802-1.845 2.168-4.251 6.502-6.817 11.318-6.817h130.115c5.057 0 9.632 3.208 11.237 8.02l29.86 85.743c.08.24 0 .401-.08.561-.161.08-.321.16-.562.16Zm-151.225-1.283h150.342l-29.539-84.86c-1.444-4.251-5.538-7.138-10.033-7.138H146.782c-4.254 0-8.107 2.326-10.114 6.176-.24.481-.481.962-.642 1.443l30.101 84.379Z" fill="#19191B"/><path d="M309.647 353.717H162.596l-27.853-79.888c-.161-1.764 0-3.529.561-5.133.241-.641.482-1.203.723-1.764h138.222c3.531 0 6.582 2.245 7.705 5.534l27.693 81.251Z" fill="#19191B"/><path d="M104.963 129.215H4.387l18.381 51.333H116.2l10.194 8.582-21.431-59.915Zm-59.88 28.233a3.938 3.938 0 0 1-3.933-3.93 3.938 3.938 0 0 1 3.933-3.93 3.938 3.938 0 0 1 3.933 3.93c.08 2.165-1.686 3.93-3.933 3.93Zm18.14 0a3.938 3.938 0 0 1-3.933-3.93 3.938 3.938 0 0 1 3.933-3.93 3.938 3.938 0 0 1 3.933 3.93c.08 2.165-1.685 3.93-3.933 3.93Zm18.14 0a3.938 3.938 0 0 1-3.932-3.93 3.938 3.938 0 0 1 3.933-3.93 3.938 3.938 0 0 1 3.933 3.93c.08 2.165-1.686 3.93-3.933 3.93Z" fill="#FFDF4A"/><path d="M122.702 198.033a.614.614 0 0 1-.401-.16l-10.033-8.422H19.076c-.24 0-.562-.16-.642-.401L.053 137.717c-.08-.241-.08-.401.08-.562a.73.73 0 0 1 .562-.24H101.27c.241 0 .562.16.642.401l21.432 59.995c.08.241 0 .562-.241.722-.081-.08-.241 0-.402 0Zm-103.144-9.946h92.95c.161 0 .321.081.402.161l8.348 7.058-20.469-57.268H1.659l17.899 50.049Zm58.194-21.896a4.658 4.658 0 0 1-4.655-4.652 4.657 4.657 0 0 1 4.655-4.652 4.657 4.657 0 0 1 4.656 4.652c-.08 2.566-2.167 4.652-4.656 4.652Zm0-7.941c-1.846 0-3.29 1.524-3.29 3.289 0 1.844 1.524 3.288 3.29 3.288s3.291-1.524 3.291-3.288c0-1.765-1.525-3.289-3.29-3.289Zm-18.14 7.941a4.658 4.658 0 0 1-4.656-4.652 4.657 4.657 0 0 1 4.656-4.652 4.657 4.657 0 0 1 4.655 4.652c-.08 2.566-2.167 4.652-4.655 4.652Zm0-7.941c-1.846 0-3.291 1.524-3.291 3.289 0 1.844 1.525 3.288 3.29 3.288 1.847 0 3.292-1.524 3.292-3.288 0-1.765-1.525-3.289-3.291-3.289Zm-18.14 7.941a4.658 4.658 0 0 1-4.657-4.652 4.657 4.657 0 0 1 4.656-4.652 4.657 4.657 0 0 1 4.656 4.652c-.08 2.566-2.168 4.652-4.656 4.652Zm0-7.941c-1.847 0-3.292 1.524-3.292 3.289 0 1.844 1.525 3.288 3.291 3.288 1.846 0 3.291-1.524 3.291-3.288 0-1.765-1.525-3.289-3.29-3.289Z" fill="#19191B"/><path d="M384.338 196.589s-7.143 1.524-9.23-1.604c-.803-1.283-2.248-4.812-3.291-8.823-1.365-4.812-2.328-10.186-1.365-12.833.642-1.684 2.167-2.165 3.853-2.085 3.05.16 6.742 2.085 6.742 2.085l3.291 23.26Z" fill="#D7C0FF"/><path d="M371.817 186.162c-1.365-4.812-2.328-10.186-1.365-12.833.642-1.684 2.167-2.165 3.853-2.085-1.525 2.005-3.05 6.176-2.488 14.918Z" fill="#fff"/><path d="M380.726 197.632c-2.248 0-4.897-.481-6.101-2.326-1.926-2.887-6.582-17.164-4.736-22.217.402-1.123 1.124-1.845 2.168-2.246 3.371-1.283 9.07 1.764 9.311 1.925.16.08.321.24.321.481l3.291 23.26c.08.321-.161.642-.482.722-.16.08-1.846.401-3.772.401Zm-6.743-25.746c-.562 0-1.043.08-1.445.24-.722.241-1.123.722-1.444 1.444-1.686 4.492 2.889 18.448 4.575 21.014 1.364 2.086 5.699 1.845 7.946 1.444l-3.13-22.298c-1.365-.641-4.254-1.844-6.502-1.844Z" fill="#19191B"/><path d="M510.199 354.278h-146.73c.562-9.946 1.204-19.33 2.087-28.153 2.729-29.276 6.823-51.734 9.953-66.091 2.649-11.951 4.575-18.368 4.575-18.368a75.656 75.656 0 0 1 7.144-4.973c15.813-9.705 34.435-13.956 34.435-13.956s18.462-6.015 48.322 6.417c29.859 12.432 34.756 23.822 43.826 71.786 4.977 25.907 1.365 42.67-3.612 53.338Z" fill="#FE5233"/><path d="M308.324 252.575s-.642-32.645-.722-38.26c-.161-5.694-6.582-18.127-2.649-22.779 3.933-4.652 11.318 2.487 12.762 17.406 0 0 3.051-2.006-2.006-22.378 0 0-.482-3.048 4.254-4.572 4.816-1.524 11.237 2.005 10.595 26.308 0 0 2.489-5.695 2.168-14.518-.402-8.823-1.526-12.272 4.655-12.111 6.181.16 7.786 13.876 5.94 34.65 0 0 3.692-7.059 11.478-6.016 7.786 1.043 5.137 8.582-7.304 19.25 0 0-1.766 8.582-3.291 20.613l-35.88 2.407Z" fill="#fff"/><path d="M308.323 253.216c-.16 0-.321-.08-.481-.16-.161-.161-.241-.321-.241-.482 0-.32-.642-32.644-.723-38.259-.08-1.925-.882-4.652-1.685-7.62-1.686-5.774-3.532-12.271-.803-15.56 1.204-1.444 2.89-2.005 4.575-1.444 3.372 1.043 7.305 6.417 8.91 15.801v-.882c0-4.01-.963-10.026-2.889-17.966v-.081c0-.16-.562-3.609 4.735-5.293 2.087-.642 4.014-.321 5.699.882 3.693 2.807 5.619 9.946 5.78 21.415.562-2.406.963-5.775.802-9.785-.08-1.123-.08-2.246-.16-3.208-.241-4.332-.401-6.898 1.043-8.422.883-.882 2.248-1.283 4.415-1.203 1.365 0 2.488.641 3.532 1.764 4.334 4.813 4.254 19.17 3.291 31.281 1.846-2.085 5.298-5.053 10.676-4.331 3.291.401 4.414 1.925 4.816 3.128 1.123 3.61-3.051 9.705-11.639 17.085-.321 1.443-1.846 9.544-3.211 20.372 0 .321-.321.562-.642.562l-35.8 2.406Zm-.722-62.482c-.803 0-1.606.401-2.248 1.203-2.327 2.727-.562 8.903 1.044 14.357.883 3.048 1.685 5.936 1.766 7.941.08 5.133.642 32.885.722 37.617l34.515-2.326c1.445-11.71 3.211-20.052 3.211-20.132 0-.16.08-.24.241-.401 8.027-6.898 12.281-12.833 11.398-15.881-.401-1.203-1.605-2.005-3.692-2.246-7.224-.962-10.676 5.454-10.836 5.695a.764.764 0 0 1-.803.321c-.321-.08-.482-.401-.482-.722 1.606-17.325.562-28.875-2.729-32.645-.722-.802-1.605-1.283-2.568-1.283-1.766-.08-2.89.241-3.452.802-1.043 1.123-.883 3.609-.642 7.379.08.963.08 2.005.16 3.209.402 8.903-2.087 14.517-2.167 14.758-.16.321-.401.481-.722.401-.321-.08-.482-.321-.482-.642.482-17.084-2.568-23.019-5.217-24.944-1.285-.963-2.81-1.204-4.495-.722-4.014 1.283-3.853 3.529-3.853 3.769 4.896 19.812 2.328 22.699 1.766 23.1-.161.161-.402.161-.642.081-.241-.081-.322-.321-.402-.562-.963-10.427-4.976-17.004-8.428-18.047-.321 0-.642-.08-.963-.08Z" fill="#19191B"/><path d="M353.996 295.245s1.124-43.152-6.02-58.231c0 0-34.756 15.56-43.104 0 0 0-.722 93.683 15.091 99.378 15.893 5.694 34.033-41.147 34.033-41.147Z" fill="#FE5233"/><path d="m387.468 236.773-5.218 68.819c-5.619 8.823-11.157 15.56-16.455 20.613-25.365 23.902-46.315 10.026-46.315 10.026 43.506-86.464 60.844-94.404 60.844-94.404 2.247-1.925 4.655-3.53 7.144-5.054Z" fill="#FE5233"/><path d="M335.051 340.803c-.642 0-1.364 0-2.006-.08-8.509-.481-13.726-3.93-13.967-4.091-.321-.24-.401-.641-.161-.882.241-.321.642-.401.883-.16.081 0 5.218 3.449 13.405 3.85 7.545.401 19.184-1.605 32.107-13.796.241-.241.642-.241.964 0 .24.24.24.641 0 .962-7.064 6.577-17.981 14.197-31.225 14.197Zm18.224-64.968c-.161 0-.241 0-.321-.08-.321-.161-.401-.562-.241-.883 18.06-28.393 26.328-33.206 27.211-33.687a85.522 85.522 0 0 1 7.144-4.973c.321-.16.722-.08.883.241.16.321.08.722-.241.882-2.569 1.604-4.977 3.208-7.064 4.893-.08 0-.08.08-.16.08s-8.268 4.171-26.729 33.206c0 .241-.241.321-.482.321Z" fill="#19191B"/><path d="M320.043 337.034h-.241c-6.822-2.407-11.558-20.052-13.966-52.376-1.766-23.902-1.606-47.403-1.606-47.644 0-.32.241-.561.482-.641.321-.08.562.08.722.321 7.947 14.838 41.9-.161 42.221-.321.321-.161.723 0 .883.321 3.051 6.336 4.977 18.127 5.78 34.97.642 12.513.321 23.421.321 23.501a.633.633 0 0 1-.642.642.633.633 0 0 1-.643-.642c0-.401 1.044-42.109-5.699-57.349-2.167.883-9.712 3.931-17.98 5.615-5.699 1.123-10.675 1.364-14.689.722-4.174-.722-7.384-2.406-9.471-5.053 0 6.336.16 25.747 1.605 45.317 2.97 39.543 8.749 49.729 13.084 51.253.321.161.481.481.401.802-.08.401-.321.562-.562.562Zm190.154 17.886H363.466c-.16 0-.321-.081-.481-.241-.161-.16-.161-.321-.161-.481a636.01 636.01 0 0 1 2.087-28.153c1.927-20.694 4.736-40.345 8.348-58.391.08-.321.401-.562.803-.482.321.08.562.401.481.802-3.612 18.047-6.421 37.618-8.348 58.311-.882 8.984-1.525 18.208-2.006 27.432h145.606c6.341-13.636 7.465-31.281 3.452-52.456-8.99-47.483-13.726-58.873-43.425-71.305-29.298-12.192-47.68-6.497-47.92-6.417h-.081c-.16.08-18.782 4.331-34.274 13.876-2.569 1.604-4.977 3.208-7.064 4.893-.321.24-.722.16-.883-.08-.241-.321-.16-.722.081-.883a75.764 75.764 0 0 1 7.224-4.973c15.411-9.464 33.793-13.795 34.675-13.956.482-.16 5.057-1.524 13.164-1.524 7.706.081 20.067 1.444 35.639 7.941 16.054 6.737 24.161 12.913 30.021 22.859 6.1 10.347 9.552 24.784 14.207 49.408 4.094 21.656 2.81 39.703-3.772 53.659-.161 0-.402.161-.642.161Z" fill="#19191B"/><path d="M468.54 354.92h-.161c-.321-.08-.562-.482-.481-.802 6.18-23.662 4.495-45.799 1.926-60.236-2.809-15.641-7.064-25.747-7.144-25.827-.16-.321 0-.722.321-.883.321-.16.723 0 .883.321.08.08 4.415 10.347 7.224 26.148 2.569 14.518 4.335 36.896-1.926 60.797-.08.321-.401.482-.642.482Zm-72.647-42.43-.081-.321h.241l.081.321h-.241Z" fill="#19191B"/><path d="M415.722 354.278h-37.967s-13.003-37.136 18.141-41.949c31.144-4.812 37.084 29.998 19.826 41.949Z" fill="#19191B"/><path d="M415.885 354.92h-38.689l-.161-.401c-.08-.161-1.686-4.893-2.408-11.149-.642-5.855-.642-14.197 3.371-20.854 3.532-5.855 9.472-9.465 17.74-10.748 13.485-2.085 24.08 3.128 28.334 13.876 4.254 10.588.723 23.18-8.027 29.196l-.16.08Zm-37.726-1.283h37.324c8.188-5.775 11.399-17.566 7.385-27.512-1.846-4.652-5.057-8.341-9.311-10.667-4.816-2.647-10.756-3.449-17.659-2.407-7.866 1.204-13.485 4.652-16.776 10.107-6.582 11.068-1.846 27.591-.963 30.479Z" fill="#19191B"/><path d="M386.102 329.735s-3.933-5.855-9.552-6.577c-5.619-.722-5.94 10.186-9.151 14.437-3.21 4.251-8.428 8.181-7.384 10.668 1.043 2.486 8.909 9.464 17.739-1.123 8.91-10.588 8.348-17.405 8.348-17.405Z" fill="#fff"/><path d="M367.964 353.396c-.481 0-.963 0-1.364-.08-3.692-.562-6.422-3.209-7.144-4.813-.883-2.085 1.445-4.572 4.094-7.459 1.123-1.283 2.327-2.567 3.371-3.85 1.043-1.444 1.846-3.77 2.569-6.096 1.444-4.491 2.97-9.144 7.143-8.582 5.86.802 9.873 6.657 10.034 6.898.08.08.08.24.08.321 0 .32.482 7.218-8.428 17.886-2.328 2.647-5.94 5.775-10.355 5.775Zm8.027-29.677c-2.729 0-4.013 3.77-5.297 7.78-.803 2.406-1.606 4.893-2.81 6.497-1.043 1.364-2.247 2.727-3.451 4.01-2.168 2.326-4.415 4.733-3.853 6.016.481 1.123 2.809 3.529 6.1 4.091 3.532.561 7.144-1.284 10.596-5.374 7.786-9.304 8.187-15.641 8.187-16.764-.642-.882-4.254-5.534-8.99-6.176-.161-.08-.321-.08-.482-.08Z" fill="#19191B"/><path d="M397.102 327.81s-.482-4.412-7.305-4.171c-6.823.241-3.933 8.983-7.946 15.721-4.014 6.657-7.786 9.625-3.131 12.271 4.656 2.647 10.274.321 14.448-7.138 4.174-7.459 3.934-16.683 3.934-16.683Z" fill="#fff"/><path d="M382.57 353.316c-1.444 0-2.889-.401-4.174-1.123-1.364-.802-2.167-1.684-2.408-2.647-.401-1.845.964-3.85 2.81-6.577.802-1.123 1.605-2.406 2.488-3.85 1.525-2.567 2.007-5.454 2.488-8.021.723-4.01 1.365-7.86 6.021-8.021 7.304-.24 7.946 4.652 7.946 4.733v.08c0 .401.241 9.464-4.013 17.004-2.489 4.492-5.619 7.299-8.91 8.181-.723.161-1.525.241-2.248.241Zm7.786-29.035h-.561c-3.452.16-4.014 2.566-4.736 6.897-.482 2.647-.964 5.695-2.649 8.502-.883 1.524-1.766 2.808-2.569 3.931-1.685 2.486-2.889 4.251-2.649 5.534.161.642.723 1.283 1.766 1.845 1.766.962 3.532 1.203 5.459.722 2.969-.802 5.779-3.449 8.107-7.62 3.933-6.978 3.853-15.641 3.853-16.282 0-.321-.643-3.529-6.021-3.529Z" fill="#19191B"/><path d="M428.808 331.259s-21.512-7.941-28.736-6.658c-7.224 1.284-4.174 9.786-5.458 15.641-1.285 5.775-5.78 9.304-2.408 12.191 3.371 2.888 10.113-.721 11.558-7.7 0 0 1.606-.721 2.168-6.577 0 0-3.372 14.358 9.632 16.122 13.164 1.765 13.244-23.019 13.244-23.019Z" fill="#fff"/><path d="M417.007 355c-.481 0-.883 0-1.364-.08-3.773-.481-6.582-2.086-8.429-4.732-1.284-1.845-1.846-3.931-2.087-5.856-.24.401-.481.642-.642.802-.963 4.091-3.772 7.46-7.144 8.583-2.087.722-4.013.401-5.458-.802-2.568-2.166-1.284-4.733.08-7.46.803-1.524 1.686-3.368 2.087-5.374.322-1.604.322-3.609.322-5.454 0-4.572 0-9.705 5.618-10.667 7.305-1.284 28.174 6.416 29.057 6.737.241.08.402.321.402.642 0 .641-.161 15.881-6.743 21.656-1.685 1.283-3.532 2.005-5.699 2.005Zm-10.676-14.277c-.16 2.326 0 5.935 1.927 8.743 1.605 2.326 4.094 3.689 7.465 4.17 2.328.321 4.334-.24 6.1-1.764 5.539-4.813 6.261-17.566 6.341-20.212-3.05-1.123-21.511-7.62-27.933-6.497-4.495.802-4.495 4.732-4.495 9.384 0 1.925 0 3.93-.401 5.695-.482 2.165-1.365 4.01-2.167 5.695-1.445 2.967-2.087 4.491-.402 5.935 1.044.882 2.488 1.123 4.174.561 3.452-1.203 5.699-4.812 6.341-7.86.081-.241.161-.401.321-.481.161-.08.883-.802 1.445-3.449.08-1.524.321-2.487.321-2.647.081-.321.402-.561.723-.481a.77.77 0 0 1 .562.722c-.081.962-.161 1.764-.322 2.486Z" fill="#19191B"/><path d="M509.475 354.278h-93.753s11.318-16.683 3.131-30.88c-7.546-12.994-20.629-11.47-22.716-11.069 3.692-.721 43.104-7.459 77.619 9.545 13.405 6.577 26.167 16.764 35.719 32.404Z" fill="#FE5233"/><path d="M509.474 354.92h-93.753c-.241 0-.481-.161-.562-.321-.08-.241-.08-.481 0-.642 0-.08 2.81-4.171 4.576-9.946 1.605-5.293 2.649-13.073-1.445-20.212-7.224-12.512-19.586-11.149-21.994-10.748-.321.08-.722-.16-.722-.561-.08-.321.161-.722.562-.722 2.007-.401 12.682-2.246 27.371-1.925 19.024.481 36.121 4.331 50.649 11.47a93.19 93.19 0 0 1 14.208 8.662.652.652 0 0 1 .16.882.654.654 0 0 1-.883.161 91.09 91.09 0 0 0-14.046-8.582c-14.368-7.059-31.225-10.909-50.088-11.31-7.786-.16-14.448.241-19.264.802 4.896.963 10.916 3.77 15.251 11.229 3.451 5.936 4.013 13.315 1.605 21.255a41.389 41.389 0 0 1-4.093 9.305h92.629c.401 0 .642.32.642.641-.16.241-.481.562-.803.562Z" fill="#19191B"/><path d="M404.242 204.931v37.217s.723 4.572 7.626 4.732c4.575.16 14.609-6.898 20.869-11.55 3.291-2.486 5.298-6.417 5.298-10.587v-55.665l-33.793 35.853Z" fill="#fff"/><path d="M412.03 247.441h-.161c-7.384-.24-8.267-5.053-8.267-5.293v-37.297c0-.16.08-.321.16-.481l33.793-35.853a.77.77 0 0 1 .722-.161c.241.081.402.321.402.642v55.664c0 4.332-2.087 8.502-5.539 11.149-7.063 5.294-16.455 11.63-21.11 11.63Zm-7.144-5.374c.08.482 1.043 3.931 6.983 4.091h.08c3.372 0 10.596-4.091 20.308-11.47a12.8 12.8 0 0 0 4.977-10.106v-53.98l-32.428 34.49v36.975h.08Z" fill="#19191B"/><path d="M443.173 171.003s-4.576 27.672-19.184 38.58c-14.609 10.989-21.191 10.427-27.372 8.181-6.18-2.245-16.455-14.758-20.067-31.201-3.612-16.442-8.107-44.194 2.649-51.333 10.916-7.218 61.325-9.624 63.974 35.773Z" fill="#fff"/><path d="M403.36 219.77c-2.408 0-4.656-.482-6.904-1.364-6.18-2.246-16.695-14.518-20.468-31.682-6.341-29.035-5.378-46.521 2.89-52.055 3.532-2.326 10.595-3.93 18.06-4.091 9.07-.24 18.06 1.685 25.285 5.214 6.1 3.048 10.996 7.299 14.608 12.673 4.094 6.176 6.422 13.715 6.984 22.538 0 .401-.241.642-.642.722-.402 0-.643-.24-.723-.642-.481-8.582-2.809-15.961-6.742-21.896-3.452-5.134-8.188-9.304-14.128-12.192-6.983-3.449-15.732-5.294-24.642-5.053-7.224.16-14.047 1.684-17.338 3.93-7.706 5.134-8.508 22.619-2.408 50.692 1.605 7.298 4.816 14.678 8.91 20.693 3.532 5.134 7.545 8.903 10.676 10.026 5.618 2.086 11.879 2.968 26.729-8.101 1.043-.802 2.087-1.684 3.05-2.727.241-.24.642-.24.963 0 .241.241.241.642 0 .963-1.043 1.042-2.087 2.005-3.21 2.807-9.392 7.058-15.653 9.545-20.95 9.545Z" fill="#19191B"/><path d="M447.105 168.677c-.803 4.412-2.087 8.502-3.933 11.871 0 0-2.97 1.845-6.502 3.77-4.174 2.246-8.99 4.572-10.355 3.85-2.488-1.284-2.087-9.465-2.087-9.465s-9.792 1.925-34.033-12.673c0 0-.723 3.048 0 6.577 0 0-6.02-2.486-8.348-6.577 0 0-.562 8.021-7.786 7.7 0 0-6.823-4.652-5.699-12.191v-.562s-4.736.401-6.823-7.379c0 0 5.458-2.085 6.823-6.577.883-2.968 2.568-10.668 9.231-17.164 3.612-3.53 8.588-6.738 15.732-8.663 20.228-5.454 38.529 5.294 42.863 12.432 0 0 1.686-2.967 6.823-2.326 4.174.401 7.305 20.854 4.094 37.377Z" fill="#19191B"/><path d="m449.355 178.142-6.181.962c-3.772-23.581-12.12-39.462-24.803-47.082-9.15-5.534-22.475-6.898-34.836-4.01a66.511 66.511 0 0 0-5.699 1.684s3.853-9.224 18.622-9.465h.08c4.977 0 9.793.642 14.208 1.845 3.933 1.043 7.625 2.647 10.916 4.572 14.208 8.663 23.599 25.987 27.693 51.494Z" fill="#D7C0FF"/><path d="M406.729 175.254c.562 1.364-1.445 3.369-4.335 4.572-2.969 1.123-5.779.962-6.26-.401-.562-1.364 1.444-3.369 4.334-4.572 2.89-1.203 5.699-.962 6.261.401Zm-20.145 7.058c-.24 1.444-2.889 2.246-6.02 1.845-3.13-.401-5.538-1.925-5.297-3.449.24-1.443 2.889-2.246 6.02-1.844 3.13.481 5.458 2.005 5.297 3.448Zm16.855 12.353c1.152 0 2.087-1.904 2.087-4.251 0-2.348-.935-4.251-2.087-4.251-1.153 0-2.087 1.903-2.087 4.251 0 2.347.934 4.251 2.087 4.251Zm-17.255-1.845c.321 2.326-.321 4.331-1.445 4.491-1.123.161-2.327-1.604-2.649-3.93-.321-2.326.322-4.331 1.445-4.491 1.124-.161 2.328 1.604 2.649 3.93Zm16.455 14.598c-.321 0-.562-.161-.642-.482-.081-.321.08-.722.481-.802 5.378-1.444 8.107-6.497 8.107-6.577.161-.321.562-.401.883-.24.321.16.402.561.241.882-.16.24-3.05 5.534-8.91 7.219h-.16Zm39.33-92.32c-2.649-.722-7.946 11.63-3.612 12.593 4.816 1.043 6.261-11.871 3.612-12.593Z" fill="#19191B"/><path d="M410.664 122.076c-.482-.08-18.542-2.727-27.211 5.936a66.511 66.511 0 0 0-5.699 1.684s3.853-9.224 18.622-9.465h.08c5.057 0 9.793.642 14.208 1.845Z" fill="#fff"/><path d="M443.094 179.826c-.161 0-.241-.08-.401-.16a.442.442 0 0 1-.241-.401c-3.773-23.421-11.96-39.062-24.482-46.601-5.057-3.048-11.559-4.893-18.783-5.294-7.144-.401-14.528.642-21.191 3.048-.24.08-.481 0-.722-.16a.77.77 0 0 1-.16-.722c.16-.401 4.254-9.625 19.264-9.866h.08c9.632 0 18.382 2.246 25.365 6.497 14.528 8.743 23.92 26.228 28.013 51.975.081.321-.16.722-.561.722l-6.181.962c.08 0 .08 0 0 0Zm-46.877-53.9c1.044 0 2.007 0 3.051.081 7.384.401 14.127 2.326 19.424 5.534 12.763 7.7 21.111 23.501 24.964 46.922l4.896-.803c-4.094-24.944-13.324-41.868-27.371-50.37-6.823-4.091-15.332-6.337-24.723-6.337h-.08c-10.596.161-15.412 5.134-17.178 7.62 5.459-1.764 11.238-2.647 17.017-2.647Z" fill="#19191B"/><path d="M447.105 168.677c-.803 4.412-2.087 8.502-3.933 11.871 0 0-2.97 1.845-6.502 3.77-4.174 2.245-8.99 4.571-10.355 3.85-2.488-1.284-2.087-9.465-2.087-9.465s-9.792 1.925-34.033-12.673c0 0-.723 3.048 0 6.577 0 0-6.02-2.486-8.348-6.577 0 0-.562 8.021-7.786 7.7 0 0-6.823-4.652-5.699-12.191v-.562s-4.736.401-6.823-7.379c0 0 5.458-2.085 6.823-6.577.883-2.968 2.568-10.668 9.231-17.165-2.649 3.61-5.057 12.513-6.02 19.09-.964 6.577-5.298 6.978-5.298 6.978 4.736 2.246 6.1 0 6.1 0-1.284 7.54 2.168 11.149 2.168 11.149 5.217-1.203 5.297-7.941 5.297-7.941 2.087 3.77 5.458 3.931 5.458 3.931-.16-4.572 3.773-7.139 3.773-7.139 16.054 15.881 42.944 19.33 42.944 19.33s8.909-4.812 15.09-6.577Z" fill="#fff"/><path d="M427.038 188.89c-.562 0-.803-.161-.963-.241-2.328-1.283-2.489-7.138-2.408-9.304-2.81.16-12.763-.401-32.83-12.352a16.023 16.023 0 0 0 .16 5.454c.081.241 0 .481-.24.642-.161.16-.482.16-.643.08-.24-.08-4.976-2.086-7.705-5.534-.642 2.406-2.408 6.657-7.626 6.657h-.562c-.08 0-.24-.08-.321-.08-.321-.161-7.063-4.893-6.02-12.673-1.525-.241-5.057-1.364-6.742-7.78-.081-.321.08-.642.401-.802.08 0 5.217-2.006 6.421-6.176a9.74 9.74 0 0 0 .241-.803c.963-3.448 2.97-10.507 9.151-16.683a.631.631 0 0 1 .883 0c.241.241.321.642.08.883-2.569 3.529-4.977 12.271-5.86 18.768-.642 4.251-2.568 6.096-4.093 6.978 2.809.882 3.692-.321 3.692-.401.161-.24.482-.401.803-.24.321.08.481.401.401.721-.642 3.69 0 6.417.562 8.021.401 1.123.963 1.925 1.204 2.326 4.254-1.283 4.415-7.138 4.415-7.218 0-.321.241-.562.481-.642.321-.08.562.08.723.321 1.364 2.406 3.291 3.208 4.254 3.529.241-4.331 3.933-6.818 4.094-6.978.24-.161.642-.161.802.08 15.011 14.758 39.813 18.769 42.302 19.17 1.364-.722 9.07-4.733 14.849-6.417.241-.08.482 0 .642.16a.91.91 0 0 1 .241.642c-.883 4.732-2.247 8.823-4.013 12.031l-.241.241s-3.05 1.845-6.502 3.77c-6.261 3.208-8.909 3.85-10.033 3.85Zm-2.729-10.909c.16 0 .321.081.401.161.161.16.241.321.241.561-.161 2.968.241 8.021 1.766 8.823.241.08 1.766.481 9.712-3.85a133.992 133.992 0 0 0 6.261-3.609c1.525-2.888 2.729-6.337 3.612-10.427-5.94 1.925-13.645 6.015-13.726 6.096-.16.08-.241.08-.401.08-.08 0-6.903-.883-15.572-3.77-7.866-2.567-19.024-7.379-27.291-15.4-.963.802-3.211 3.048-3.05 6.256 0 .161-.081.401-.161.482-.16.16-.321.16-.482.16-.16 0-2.809-.16-5.056-2.807-.402 2.245-1.686 5.855-5.539 6.737a.625.625 0 0 1-.642-.16c-.161-.161-3.211-3.449-2.569-10.187-1.043.401-2.809.482-5.538-.802a.842.842 0 0 1-.402-.722c.081-.32.322-.481.562-.561.161 0 3.853-.481 4.736-6.417.803-5.614 2.167-10.667 3.612-14.357-3.291 4.732-4.575 9.384-5.297 11.951-.081.321-.161.562-.241.802-1.124 3.93-5.137 6.096-6.662 6.818.802 2.647 2.086 4.572 3.692 5.614 1.284.802 2.328.722 2.328.722.16 0 .401.08.481.161.161.16.241.32.161.481v.561c-.963 6.497 4.334 10.748 5.297 11.47 2.569.08 4.576-1.043 5.78-3.369a10.975 10.975 0 0 0 1.124-3.689c0-.321.24-.562.481-.562.321-.08.562.081.723.321 1.525 2.888 5.056 4.893 6.903 5.775-.402-3.128.16-5.534.24-5.614.081-.241.161-.401.402-.482.241-.08.401-.08.562.081 23.598 14.196 33.471 12.592 33.552 12.592-.081.08-.081.08 0 .08Z" fill="#19191B"/><path d="M458.102 178.463c0 .641 0 1.363-.08 2.005-.723 8.903-6.02 16.041-12.763 17.244-.722.161-1.364.161-2.087.161-8.267 0-14.93-8.663-14.93-19.41 0-10.748 6.663-19.411 14.93-19.411.723 0 1.445.08 2.087.161 6.743 1.203 12.04 8.341 12.763 17.244.08.642.08 1.284.08 2.006Z" fill="#fff"/><path d="M443.174 198.514c-8.589 0-15.572-8.983-15.572-20.052 0-11.068 6.983-20.052 15.572-20.052.722 0 1.525.081 2.247.241 7.064 1.283 12.522 8.662 13.244 17.806.081.722.081 1.364.081 2.005 0 .642 0 1.284-.081 2.006-.722 9.223-6.18 16.522-13.324 17.886-.642.08-1.365.16-2.167.16Zm0-38.82c-7.867 0-14.288 8.422-14.288 18.768 0 10.347 6.421 18.769 14.288 18.769.642 0 1.364-.08 2.006-.16 6.502-1.204 11.559-8.021 12.201-16.684.08-.641.08-1.283.08-1.925 0-.641 0-1.283-.08-1.925-.642-8.582-5.699-15.48-12.201-16.683-.642-.16-1.364-.16-2.006-.16Z" fill="#19191B"/><path d="M458.104 178.463c0 .641 0 1.363-.08 2.005-.723 8.903-6.02 16.041-12.763 17.244-5.458-1.363-9.632-9.464-9.632-19.249 0-9.786 4.174-17.887 9.632-19.25 5.378.962 9.793 5.694 11.719 12.031.482 1.684.883 3.369.963 5.213.161.642.161 1.284.161 2.006Z" fill="#D7C0FF"/><path d="M457.141 171.404c-.161-.24-5.458-8.341-10.756-8.582-5.298-.161-10.676 14.357-10.756 14.598.241-9.385 4.334-17.004 9.632-18.288 5.458 1.043 9.953 5.856 11.88 12.272Z" fill="#fff"/><path d="M456.415 176.858c0 3.128-.883 5.695-1.926 5.695-1.044 0-1.927-2.567-1.927-5.695s.883-5.694 1.927-5.694c1.043 0 1.926 2.566 1.926 5.694Z" fill="#fff"/><path d="M454.493 183.195c-1.766 0-2.649-3.289-2.649-6.337 0-3.048.802-6.336 2.649-6.336 1.766 0 2.648 3.288 2.648 6.336-.08 3.048-.882 6.337-2.648 6.337Zm0-11.309c-.321 0-1.285 1.764-1.285 5.053 0 3.288.964 5.053 1.285 5.053.321 0 1.284-1.765 1.284-5.053 0-3.369-.963-5.053-1.284-5.053Z" fill="#19191B"/><path d="M445.259 198.354h-.161c-5.859-1.444-10.114-9.785-10.114-19.891v-.963c.241-9.625 4.495-17.565 10.114-18.929h.241c5.538 1.043 10.274 5.855 12.361 12.673v.08a27.51 27.51 0 0 1 .963 5.133c0 .642.081 1.364.081 2.006 0 .641 0 1.363-.081 2.005-.722 9.224-6.18 16.603-13.324 17.886h-.08Zm.08-38.5c-4.977 1.364-8.749 8.743-8.99 17.646v.882c0 9.224 3.853 17.165 8.99 18.528 6.421-1.283 11.398-8.101 12.04-16.603 0-.641.08-1.283.08-1.925 0-.641 0-1.283-.08-1.925-.16-1.684-.401-3.288-.883-4.812v-.08c-1.846-6.257-6.18-10.748-11.157-11.711Zm-51.611 42.51c-.321 0-.642-.24-.642-.561l-.321-1.925a3.46 3.46 0 0 0-.963-.16c-2.729-.562-3.933-.883-4.174-1.685-.081-.321 0-.722.241-.962 1.204-1.203 2.568-2.086 3.852-2.888.402-.24.723-.481 1.044-.722.321-.24.722-.08.883.161.241.321.08.722-.161.882-.401.241-.722.481-1.123.722-1.124.722-2.328 1.524-3.372 2.486.723.321 2.248.562 2.97.722.803.161 1.285.241 1.525.321.241.08.402.241.402.481.321 1.845.401 2.407.401 2.407.161.401-.08.721-.562.721.08 0 .08 0 0 0Zm18.62-.321c-.321 0-.562-.16-.642-.481-.402-1.524-2.007-2.566-2.007-2.566-.321-.161-.401-.562-.161-.883.161-.321.562-.401.883-.16.081.08 2.007 1.283 2.569 3.369.08.32-.08.721-.482.802-.08-.081-.16-.081-.16-.081Z" fill="#19191B"/><path d="M584.89 101.062h-91.425c-4.495 0-8.188 3.69-8.188 8.181v60.477l10.194-12.833h89.419c4.495 0 8.187-3.69 8.187-8.182v-39.462c0-4.491-3.692-8.181-8.187-8.181Zm-62.529 29.998a3.938 3.938 0 0 1-3.933-3.93 3.939 3.939 0 0 1 3.933-3.931 3.939 3.939 0 0 1 3.933 3.931c.081 2.165-1.685 3.93-3.933 3.93Zm18.141 0a3.938 3.938 0 0 1-3.933-3.93 3.939 3.939 0 0 1 3.933-3.931 3.939 3.939 0 0 1 3.933 3.931c.08 2.165-1.686 3.93-3.933 3.93Zm18.14 0a3.938 3.938 0 0 1-3.933-3.93 3.939 3.939 0 0 1 3.933-3.931 3.939 3.939 0 0 1 3.934 3.931c.08 2.165-1.686 3.93-3.934 3.93Z" fill="#FFCCA1"/><path d="M479.978 165.87h-.241c-.241-.08-.401-.321-.401-.642v-60.476a8.8 8.8 0 0 1 8.829-8.823h91.426a8.8 8.8 0 0 1 8.829 8.823v39.462a8.8 8.8 0 0 1-8.829 8.823h-89.098l-10.033 12.512c-.081.241-.241.321-.482.321Zm8.187-68.658a7.534 7.534 0 0 0-7.545 7.54v58.551l9.071-11.309c.16-.16.321-.241.481-.241h89.419a7.533 7.533 0 0 0 7.545-7.539v-39.462a7.534 7.534 0 0 0-7.545-7.54h-91.426Zm65.258 30.078a4.657 4.657 0 0 1-4.655-4.652 4.657 4.657 0 0 1 4.655-4.652 4.657 4.657 0 0 1 4.656 4.652 4.657 4.657 0 0 1-4.656 4.652Zm0-7.941c-1.846 0-3.291 1.524-3.291 3.289 0 1.845 1.526 3.288 3.291 3.288 1.847 0 3.291-1.524 3.291-3.288a3.254 3.254 0 0 0-3.291-3.289Zm-18.14 7.941a4.657 4.657 0 0 1-4.656-4.652 4.657 4.657 0 0 1 4.656-4.652 4.657 4.657 0 0 1 4.655 4.652 4.657 4.657 0 0 1-4.655 4.652Zm0-7.941c-1.846 0-3.291 1.524-3.291 3.289 0 1.845 1.525 3.288 3.291 3.288 1.846 0 3.291-1.524 3.291-3.288a3.254 3.254 0 0 0-3.291-3.289Zm-18.141 7.941a4.657 4.657 0 0 1-4.655-4.652 4.657 4.657 0 0 1 4.655-4.652 4.657 4.657 0 0 1 4.656 4.652 4.657 4.657 0 0 1-4.656 4.652Zm0-7.941c-1.846 0-3.291 1.524-3.291 3.289 0 1.845 1.525 3.288 3.291 3.288 1.846 0 3.291-1.524 3.291-3.288a3.254 3.254 0 0 0-3.291-3.289Z" fill="#19191B"/><path d="M595 267.092h-52.656v52.536H595v-52.536Z" fill="#82DC74"/><path d="M539.857 259.312a2.705 2.705 0 0 1-2.729 2.727 2.706 2.706 0 0 1-2.73-2.727 2.706 2.706 0 0 1 2.73-2.727c1.525 0 2.729 1.283 2.729 2.727Zm23.679 0a2.705 2.705 0 0 1-2.729 2.727 2.705 2.705 0 0 1-2.729-2.727 2.705 2.705 0 0 1 2.729-2.727c1.525.08 2.729 1.283 2.729 2.727Zm23.598 0a2.705 2.705 0 0 1-2.729 2.727 2.705 2.705 0 0 1-2.729-2.727 2.705 2.705 0 0 1 2.729-2.727c1.525 0 2.729 1.283 2.729 2.727Zm-47.277 23.581a2.705 2.705 0 0 1-2.729 2.727 2.706 2.706 0 0 1-2.73-2.727 2.706 2.706 0 0 1 2.73-2.727 2.705 2.705 0 0 1 2.729 2.727Zm23.679 0a2.705 2.705 0 0 1-2.729 2.727 2.705 2.705 0 0 1-2.729-2.727 2.705 2.705 0 0 1 2.729-2.727 2.705 2.705 0 0 1 2.729 2.727Zm23.598 0a2.705 2.705 0 0 1-2.729 2.727 2.705 2.705 0 0 1-2.729-2.727 2.705 2.705 0 0 1 2.729-2.727 2.705 2.705 0 0 1 2.729 2.727Zm-47.277 23.581a2.705 2.705 0 0 1-2.729 2.727 2.706 2.706 0 0 1-2.73-2.727 2.706 2.706 0 0 1 2.73-2.727 2.705 2.705 0 0 1 2.729 2.727Zm23.679 0a2.705 2.705 0 0 1-2.729 2.727 2.705 2.705 0 0 1-2.729-2.727 2.705 2.705 0 0 1 2.729-2.727 2.705 2.705 0 0 1 2.729 2.727Zm23.598 0a2.705 2.705 0 0 1-2.729 2.727 2.705 2.705 0 0 1-2.729-2.727 2.705 2.705 0 0 1 2.729-2.727 2.705 2.705 0 0 1 2.729 2.727Z" fill="#fff"/><path d="m40.188 41.788 16.776-10.507-16.776-10.507v21.014Zm32.347 0 16.856-10.507-16.856-10.507v21.014Zm32.43 0 16.776-10.507-16.776-10.507v21.014Z" fill="#FE5233"/><path d="M45.404 42.67c-.08 0-.241 0-.321-.08-.241-.08-.321-.32-.321-.561V21.094c0-.24.16-.48.32-.56.242-.081.482-.081.643 0L62.5 31.04c.16.08.321.321.321.562 0 .24-.08.4-.321.561L45.725 42.67h-.321Zm.642-20.453v18.609l14.93-9.305-14.93-9.304ZM77.834 42.67c-.08 0-.241 0-.322-.08-.24-.08-.32-.32-.32-.561V21.094c0-.24.16-.48.32-.56.241-.081.482-.081.643 0L94.93 31.04c.16.08.32.321.32.562 0 .24-.08.4-.32.561L78.155 42.67h-.321Zm.642-20.453v18.609l14.93-9.305-14.93-9.304Zm31.705 20.453c-.08 0-.241 0-.321-.08-.241-.08-.321-.32-.321-.561V21.094c0-.24.161-.48.321-.56.241-.081.482-.081.642 0l16.776 10.506c.161.08.321.321.321.562 0 .24-.08.4-.321.561L110.502 42.67h-.321Zm.723-20.453v18.609l14.929-9.305-14.929-9.304Z" fill="#fff"/></svg>