<svg width="570" height="80" fill="none" xmlns="http://www.w3.org/2000/svg"><path fill="#fff" d="M108 0h333v80H108z"/><path fill-rule="evenodd" clip-rule="evenodd" d="M570 40c0-22.091-17.909-40-40-40H40C17.909 0 0 17.909 0 40s17.909 40 40 40h155c22.091 0 39.076-20.217 54.013-36.493C258.107 33.6 270.869 27.436 285 27.436s26.893 6.163 35.987 16.071C335.924 59.783 352.909 80 375 80h155c22.091 0 40-17.909 40-40Z" fill="#9D68F8"/><path fill-rule="evenodd" clip-rule="evenodd" d="M570 40c0-22.091-17.909-40-40-40H40C17.909 0 0 17.909 0 40s17.909 40 40 40h128.423c27.449 0 49.315-25.298 69.522-43.876C250.129 24.92 266.904 18 285.421 18c18.518 0 35.292 6.92 47.477 18.124C353.105 54.702 374.97 80 402.42 80H530c22.091 0 40-17.909 40-40Z" fill="#9D68F8"/></svg>