<svg width="312" height="311" viewBox="0 0 312 311" fill="none" xmlns="http://www.w3.org/2000/svg">
<path d="M311 304.464L221.637 304.464L207.939 304.464L196.572 304.464L194.298 304.464L1 304.464" stroke="white" stroke-width="1.45168" stroke-miterlimit="10" stroke-linecap="round" stroke-linejoin="round"/>
<path d="M271.859 303.688L158.365 300.668L44.8713 303.688C26.8495 272.844 42.0822 229.599 76.302 194.442C93.5729 176.648 115.242 169.207 132.405 166.187C144.098 164.138 153.645 164.138 158.365 164.354C162.656 164.138 171.131 164.138 181.643 165.756C199.129 168.452 222.192 175.785 240.429 194.442C274.648 229.599 289.881 272.844 271.859 303.688Z" fill="#9D68F8"/>
<path d="M271.859 303.688L158.365 300.668L44.8713 303.688C26.8495 272.844 42.0822 229.599 76.302 194.442C93.5729 176.648 115.242 169.207 132.405 166.187C144.098 164.138 153.645 164.138 158.365 164.354C162.656 164.138 171.131 164.138 181.643 165.756C199.129 168.452 222.192 175.785 240.429 194.442C274.648 229.599 289.881 272.844 271.859 303.688Z" stroke="#19191B" stroke-width="1.45168" stroke-miterlimit="10" stroke-linecap="round" stroke-linejoin="round"/>
<path d="M41.6484 248.903C41.6484 248.903 52.912 237.256 67.1792 241.57C81.0173 245.776 90.1355 263.354 88.741 273.06C87.9901 278.129 80.5883 280.933 72.7574 274.893C64.8192 268.746 41.6484 248.903 41.6484 248.903Z" fill="#1F1F1F"/>
<path d="M41.6484 248.903C41.6484 248.903 52.912 237.256 67.1792 241.57C81.0173 245.776 90.1355 263.354 88.741 273.06C87.9901 278.129 80.5883 280.933 72.7574 274.893C64.8192 268.746 41.6484 248.903 41.6484 248.903Z" stroke="#19191B" stroke-width="1.45168" stroke-miterlimit="10" stroke-linecap="round" stroke-linejoin="round"/>
<path d="M275.171 248.903C275.171 248.903 263.907 237.256 249.64 241.57C235.802 245.776 226.683 263.354 228.078 273.06C228.829 278.129 236.231 280.933 244.062 274.893C252 268.746 275.171 248.903 275.171 248.903Z" fill="#1F1F1F"/>
<path d="M275.171 248.903C275.171 248.903 263.907 237.256 249.64 241.57C235.802 245.776 226.683 263.354 228.078 273.06C228.829 278.129 236.231 280.933 244.062 274.893C252 268.746 275.171 248.903 275.171 248.903Z" stroke="#19191B" stroke-width="1.45168" stroke-miterlimit="10" stroke-linecap="round" stroke-linejoin="round"/>
<path d="M161.469 184.305C160.396 184.413 159.216 184.413 158.036 184.413C157.071 184.413 156.212 184.413 155.247 184.305C131.325 183.119 132.398 166.079 132.398 166.079C144.091 164.03 153.638 164.03 158.358 164.246C162.649 164.03 171.123 164.03 181.636 165.648C181.636 165.756 184.532 182.795 161.469 184.305Z" fill="#1F1F1F"/>
<path d="M171.99 153.785V171.687C171.99 171.687 167.806 177.511 157.186 177.511C146.566 177.511 142.383 171.687 142.383 171.687V153.785H171.99Z" fill="white"/>
<path d="M171.99 153.785V171.687C171.99 171.687 167.806 177.511 157.186 177.511C146.566 177.511 142.383 171.687 142.383 171.687V153.785H171.99Z" stroke="#19191B" stroke-width="1.45168" stroke-miterlimit="10" stroke-linecap="round" stroke-linejoin="round"/>
<path d="M186.245 125.854C186.245 147.099 172.943 163.167 156.423 163.167C139.903 163.167 126.602 147.099 126.602 125.854C126.602 104.608 139.903 84.118 156.423 84.118C172.836 84.118 186.245 104.608 186.245 125.854Z" fill="white"/>
<path d="M186.245 125.854C186.245 147.099 172.943 163.167 156.423 163.167C139.903 163.167 126.602 147.099 126.602 125.854C126.602 104.608 139.903 84.118 156.423 84.118C172.836 84.118 186.245 104.608 186.245 125.854Z" stroke="#19191B" stroke-width="1.45168" stroke-miterlimit="10" stroke-linecap="round" stroke-linejoin="round"/>
<path d="M192.142 117.657C191.927 118.197 191.713 118.736 191.606 119.167C190.962 120.569 190.426 121.648 189.889 122.402C189.353 123.265 188.924 123.697 188.924 123.697C188.709 123.804 188.495 123.912 188.173 124.02C187.851 124.236 187.422 124.344 187.1 124.559C186.778 124.667 186.564 124.775 186.349 124.883C186.135 124.991 185.92 125.099 185.598 125.206C157.708 135.667 137.862 102.02 137.862 102.02C137.755 117.226 130.46 126.069 127.779 128.873C127.35 129.304 127.028 129.628 126.92 129.736C126.813 129.844 126.813 129.844 126.813 129.844C126.277 129.197 125.74 128.55 125.311 127.902C125.204 127.795 125.097 127.579 124.99 127.471C124.453 126.716 123.81 125.853 123.38 125.099C122.522 123.804 121.771 122.51 121.128 121.216C120.484 120.03 120.055 118.951 119.519 117.765C118.017 114.098 117.266 110.54 117.051 107.089C115.657 86.3826 134 69.0198 151.164 67.4022C174.335 65.1375 178.84 76.8924 178.84 76.8924C181.844 76.0297 194.502 79.265 194.824 98.4611C194.824 107.52 193.537 113.667 192.142 117.657Z" fill="#9D68F8"/>
<path d="M123.924 132.324L120.062 131.354L121.243 126.501C120.813 123.05 118.346 100.618 130.146 86.7062C136.153 79.6964 144.735 76.1376 155.677 76.1376C168.013 76.1376 177.346 80.0199 183.568 87.7847C195.689 102.991 190.755 127.363 190.111 130.167L186.249 129.304C186.786 126.716 191.399 104.069 180.457 90.3729C175.093 83.6866 166.726 80.2356 155.677 80.2356C145.915 80.2356 138.406 83.2552 133.257 89.2945C121.886 102.559 125.319 125.961 125.319 126.285L125.426 126.716L123.924 132.324Z" fill="white"/>
<path d="M123.924 132.324L120.062 131.354L121.243 126.501C120.813 123.05 118.346 100.618 130.146 86.7062C136.153 79.6964 144.735 76.1376 155.677 76.1376C168.013 76.1376 177.346 80.0199 183.568 87.7847C195.689 102.991 190.755 127.363 190.111 130.167L186.249 129.304C186.786 126.716 191.399 104.069 180.457 90.3729C175.093 83.6866 166.726 80.2356 155.677 80.2356C145.915 80.2356 138.406 83.2552 133.257 89.2945C121.886 102.559 125.319 125.961 125.319 126.285L125.426 126.716L123.924 132.324Z" stroke="#19191B" stroke-width="1.45168" stroke-miterlimit="10" stroke-linecap="round" stroke-linejoin="round"/>
<path d="M164.368 120.461C163.831 121.324 170.268 124.02 171.126 123.05C172.091 122.187 165.119 119.167 164.368 120.461Z" fill="#19191B"/>
<path d="M166.196 132.971C165.552 132.971 165.016 132.432 165.016 131.785V128.873C165.016 128.226 165.552 127.687 166.196 127.687C166.839 127.687 167.376 128.226 167.376 128.873V131.785C167.376 132.432 166.839 132.971 166.196 132.971Z" fill="#19191B"/>
<path d="M148.164 132.971C147.521 132.971 146.984 132.432 146.984 131.785V128.873C146.984 128.226 147.521 127.687 148.164 127.687C148.808 127.687 149.344 128.226 149.344 128.873V131.785C149.344 132.432 148.808 132.971 148.164 132.971Z" fill="#19191B"/>
<path d="M164.586 132.97C164.586 132.97 165.98 131.894 167.804 132.97" stroke="#19191B" stroke-width="1.45168" stroke-miterlimit="10" stroke-linecap="round" stroke-linejoin="round"/>
<path d="M166.609 144.51C166.609 144.51 157.813 145.265 153.308 151.844" stroke="#19191B" stroke-width="1.45168" stroke-miterlimit="10" stroke-linecap="round" stroke-linejoin="round"/>
<path d="M149.99 120.461C150.527 121.324 144.09 124.02 143.232 123.05C142.267 122.187 149.239 119.167 149.99 120.461Z" fill="#19191B"/>
<path d="M149.773 132.97C149.773 132.97 148.378 131.894 146.555 132.97" stroke="#19191B" stroke-width="1.45168" stroke-miterlimit="10" stroke-linecap="round" stroke-linejoin="round"/>
<path d="M154.402 134.265C154.402 134.265 153.758 137.824 157.083 137.393C160.516 137.069 160.516 133.403 158.156 133.295" stroke="#19191B" stroke-width="1.45168" stroke-miterlimit="10" stroke-linecap="round" stroke-linejoin="round"/>
<path d="M64.7117 241.57C85.6298 248.364 83.3771 294.09 71.1481 303.688H26.0937C26.0937 303.688 24.1628 276.835 32.2083 261.413C40.2537 245.991 54.4136 238.227 64.7117 241.57Z" fill="white"/>
<path d="M64.7117 241.57C85.6298 248.364 83.3771 294.09 71.1481 303.688H26.0937C26.0937 303.688 24.1628 276.835 32.2083 261.413C40.2537 245.991 54.4136 238.227 64.7117 241.57Z" stroke="#19191B" stroke-width="1.45168" stroke-miterlimit="10" stroke-linecap="round" stroke-linejoin="round"/>
<path d="M40.6797 303.688H65.8887C67.8196 308.756 77.3668 308.972 86.8067 303.688L86.9141 303.58C89.8104 301.962 91.5267 298.835 91.5267 295.492V294.413C91.5267 291.07 89.8104 287.943 86.9141 286.325C86.9141 286.325 86.914 286.325 86.8067 286.325C84.6613 285.139 78.225 286.756 74.685 285.786C71.2523 284.923 65.3523 280.717 63.636 278.884C63.636 278.884 63.636 278.884 63.5287 278.776C61.9196 277.05 56.3415 272.09 48.5106 276.403C43.4688 279.423 41.4306 294.09 40.6797 303.688Z" fill="white"/>
<path d="M40.6797 303.688H65.8887C67.8196 308.756 77.3668 308.972 86.8067 303.688L86.9141 303.58C89.8104 301.962 91.5267 298.835 91.5267 295.492V294.413C91.5267 291.07 89.8104 287.943 86.9141 286.325C86.9141 286.325 86.914 286.325 86.8067 286.325C84.6613 285.139 78.225 286.756 74.685 285.786C71.2523 284.923 65.3523 280.717 63.636 278.884C63.636 278.884 63.636 278.884 63.5287 278.776C61.9196 277.05 56.3415 272.09 48.5106 276.403C43.4688 279.423 41.4306 294.09 40.6797 303.688Z" stroke="#19191B" stroke-width="1.45168" stroke-miterlimit="10" stroke-linecap="round" stroke-linejoin="round"/>
<path d="M87.3431 303.472C87.2358 303.58 87.0213 303.688 86.9141 303.688C77.4741 308.972 67.9269 308.756 65.996 303.688C65.5669 302.501 65.4596 300.992 65.996 299.266C69.1069 288.913 79.7268 289.452 79.7268 289.452" stroke="#19191B" stroke-width="1.45168" stroke-miterlimit="10" stroke-linecap="round" stroke-linejoin="round"/>
<path d="M252.112 241.57C231.194 248.364 233.447 294.09 245.676 303.688H290.623C290.623 303.688 292.554 276.835 284.509 261.413C276.57 245.991 262.41 238.227 252.112 241.57Z" fill="white"/>
<path d="M252.112 241.57C231.194 248.364 233.447 294.09 245.676 303.688H290.623C290.623 303.688 292.554 276.835 284.509 261.413C276.57 245.991 262.41 238.227 252.112 241.57Z" stroke="#19191B" stroke-width="1.45168" stroke-miterlimit="10" stroke-linecap="round" stroke-linejoin="round"/>
<path d="M276.144 303.688H250.935C249.004 308.756 239.457 308.972 230.017 303.688L229.91 303.58C227.013 301.962 225.297 298.835 225.297 295.492V294.413C225.297 291.07 227.013 287.943 229.91 286.325C229.91 286.325 229.91 286.325 230.017 286.325C232.162 285.139 238.599 286.756 242.139 285.786C245.571 284.923 251.471 280.717 253.188 278.884C253.188 278.884 253.188 278.884 253.295 278.776C254.904 277.05 260.482 272.09 268.313 276.403C273.355 279.423 275.393 294.09 276.144 303.688Z" fill="white"/>
<path d="M276.144 303.688H250.935C249.004 308.756 239.457 308.972 230.017 303.688L229.91 303.58C227.013 301.962 225.297 298.835 225.297 295.492V294.413C225.297 291.07 227.013 287.943 229.91 286.325C229.91 286.325 229.91 286.325 230.017 286.325C232.162 285.139 238.599 286.756 242.139 285.786C245.571 284.923 251.471 280.717 253.188 278.884C253.188 278.884 253.188 278.884 253.295 278.776C254.904 277.05 260.482 272.09 268.313 276.403C273.355 279.423 275.393 294.09 276.144 303.688Z" stroke="#19191B" stroke-width="1.45168" stroke-miterlimit="10" stroke-linecap="round" stroke-linejoin="round"/>
<path d="M237.202 289.452C237.202 289.452 247.822 288.913 250.933 299.266C251.469 300.992 251.362 302.501 250.933 303.688C249.002 308.756 239.455 308.972 230.015 303.688C229.908 303.58 229.693 303.472 229.586 303.472" stroke="#19191B" stroke-width="1.45168" stroke-miterlimit="10" stroke-linecap="round" stroke-linejoin="round"/>
<path d="M285.582 304.658C285.582 304.658 290.946 307.678 292.984 300.56C295.451 292.364 291.375 276.295 286.977 275.433C282.579 274.57 280.219 280.825 280.219 280.825L285.582 304.658Z" fill="white"/>
<path d="M285.582 304.658C285.582 304.658 290.946 307.678 292.984 300.56C295.451 292.364 291.375 276.295 286.977 275.433C282.579 274.57 280.219 280.825 280.219 280.825L285.582 304.658Z" stroke="#19191B" stroke-width="1.45168" stroke-miterlimit="10" stroke-linecap="round" stroke-linejoin="round"/>
<path d="M266.383 279.531C266.383 279.531 269.279 273.599 277.003 274.139C284.726 274.678 287.73 302.178 286.657 305.629C285.692 309.08 274.857 311.237 273.463 304.766C271.961 298.296 266.383 279.531 266.383 279.531Z" fill="white"/>
<path d="M266.383 279.531C266.383 279.531 269.279 273.599 277.003 274.139C284.726 274.678 287.73 302.178 286.657 305.629C285.692 309.08 274.857 311.237 273.463 304.766C271.961 298.296 266.383 279.531 266.383 279.531Z" stroke="#19191B" stroke-width="1.45168" stroke-miterlimit="10" stroke-linecap="round" stroke-linejoin="round"/>
<path d="M274.648 303.688C274.54 304.766 274.326 305.629 274.004 306.276C271.215 311.56 259.951 311.345 257.27 303.688C257.27 303.58 257.162 303.472 257.162 303.256C255.553 297.648 253.837 285.678 253.086 278.884C253.086 278.884 253.086 278.884 253.193 278.776C254.802 277.05 260.38 272.09 268.211 276.403C270.786 279.639 275.506 296.031 274.648 303.688Z" fill="white"/>
<path d="M253.086 278.992C253.086 278.884 253.193 278.884 253.086 278.992C254.802 277.158 260.273 272.305 268.211 276.619C270.786 279.746 275.506 296.139 274.755 303.796C274.648 304.874 274.433 305.737 274.111 306.384C271.322 311.668 260.059 311.453 257.377 303.796C257.377 303.688 257.27 303.58 257.27 303.364C256.197 299.59 255.124 293.119 254.266 287.188" stroke="#19191B" stroke-width="1.45168" stroke-miterlimit="10" stroke-linecap="round" stroke-linejoin="round"/>
<path d="M31.2418 304.658C31.2418 304.658 25.8782 307.678 23.84 300.56C21.3728 292.364 25.4491 276.295 29.8473 275.433C34.2454 274.57 36.6054 280.825 36.6054 280.825L31.2418 304.658Z" fill="white"/>
<path d="M31.2418 304.658C31.2418 304.658 25.8782 307.678 23.84 300.56C21.3728 292.364 25.4491 276.295 29.8473 275.433C34.2454 274.57 36.6054 280.825 36.6054 280.825L31.2418 304.658Z" stroke="#19191B" stroke-width="1.45168" stroke-miterlimit="10" stroke-linecap="round" stroke-linejoin="round"/>
<path d="M50.4457 279.531C50.4457 279.531 47.5493 273.599 39.8257 274.139C32.1021 274.678 29.0985 302.178 30.1712 305.629C31.1367 309.08 41.9711 311.237 43.3657 304.766C44.8675 298.296 50.4457 279.531 50.4457 279.531Z" fill="white"/>
<path d="M50.4457 279.531C50.4457 279.531 47.5493 273.599 39.8257 274.139C32.1021 274.678 29.0985 302.178 30.1712 305.629C31.1367 309.08 41.9711 311.237 43.3657 304.766C44.8675 298.296 50.4457 279.531 50.4457 279.531Z" stroke="#19191B" stroke-width="1.45168" stroke-miterlimit="10" stroke-linecap="round" stroke-linejoin="round"/>
<path d="M42.181 303.688C42.2882 304.766 42.5028 305.629 42.8246 306.276C45.6137 311.56 56.8773 311.345 59.5591 303.688C59.5591 303.58 59.6663 303.472 59.6663 303.256C61.2754 297.648 62.9918 285.678 63.7427 278.884C63.7427 278.884 63.7427 278.884 63.6354 278.776C62.0263 277.05 56.4482 272.09 48.6173 276.403C46.0428 279.639 41.3228 296.031 42.181 303.688Z" fill="white"/>
<path d="M63.7411 278.992C63.7411 278.884 63.7411 278.884 63.7411 278.992C62.0247 277.158 56.5539 272.305 48.6157 276.619C46.0412 279.746 41.3212 296.139 42.0721 303.796C42.1794 304.874 42.3939 305.737 42.7158 306.384C45.5048 311.668 56.7684 311.453 59.4502 303.796C59.4502 303.688 59.5575 303.58 59.5575 303.364C60.523 299.913 61.5957 293.982 62.4539 288.482" stroke="#19191B" stroke-width="1.45168" stroke-miterlimit="10" stroke-linecap="round" stroke-linejoin="round"/>
<path d="M178.528 76.7847C162.866 64.4905 124.784 64.7062 116.739 107.089C115.344 86.3828 133.688 69.02 150.851 67.4023C174.022 65.0298 178.528 76.7847 178.528 76.7847Z" fill="white"/>
<path d="M192.142 117.657C191.927 118.197 191.713 118.736 191.606 119.167C190.962 120.569 190.426 121.648 189.889 122.402C189.353 123.265 188.924 123.697 188.924 123.697C188.709 123.804 188.495 123.912 188.173 124.02C187.851 124.236 187.422 124.344 187.1 124.559C186.778 124.667 186.564 124.775 186.349 124.883C186.135 124.991 185.92 125.099 185.598 125.206C157.708 135.667 137.862 102.02 137.862 102.02C137.755 117.226 130.46 126.069 127.779 128.873C127.35 129.304 127.028 129.628 126.92 129.736C126.813 129.844 126.813 129.844 126.813 129.844C126.277 129.197 125.74 128.55 125.311 127.902C125.204 127.795 125.097 127.579 124.99 127.471C124.453 126.716 123.81 125.853 123.38 125.099C122.522 123.804 121.771 122.51 121.128 121.216C120.484 120.03 120.055 118.951 119.519 117.765C118.017 114.098 117.266 110.54 117.051 107.089C115.657 86.3826 134 69.0198 151.164 67.4022C174.335 65.1375 178.84 76.8924 178.84 76.8924C181.844 76.0297 194.502 79.265 194.824 98.4611C194.824 107.52 193.537 113.667 192.142 117.657Z" stroke="#19191B" stroke-width="1.45168" stroke-miterlimit="10" stroke-linecap="round" stroke-linejoin="round"/>
<path d="M188.603 140.844L186.672 140.628L188.71 117.226L194.717 117.765C197.399 117.981 199.33 120.354 199.115 122.942L198.257 132.648C197.828 137.716 193.43 141.275 188.603 140.844Z" fill="white"/>
<path d="M188.608 140.844L187.106 140.736C185.819 140.628 184.961 139.55 184.961 138.363V130.167C184.961 125.638 186.355 121.108 188.715 117.334L190.646 117.55C190.646 117.442 188.501 127.471 188.608 140.844Z" fill="#19191B"/>
<path d="M124.04 140.844L125.971 140.628L123.825 117.226L117.818 117.765C115.136 117.981 113.205 120.354 113.527 123.05L114.385 132.756C114.814 137.716 119.213 141.383 124.04 140.844Z" fill="white"/>
<path d="M188.603 140.844L186.672 140.628L188.71 117.226L194.717 117.765C197.399 117.981 199.33 120.354 199.115 122.942L198.257 132.648C197.828 137.716 193.43 141.275 188.603 140.844Z" stroke="#19191B" stroke-width="1.45168" stroke-miterlimit="10" stroke-linecap="round" stroke-linejoin="round"/>
<path d="M124.04 140.844L125.971 140.628L123.825 117.226L117.818 117.765C115.136 117.981 113.205 120.354 113.527 123.05L114.385 132.756C114.814 137.716 119.213 141.383 124.04 140.844Z" stroke="#19191B" stroke-width="1.45168" stroke-miterlimit="10" stroke-linecap="round" stroke-linejoin="round"/>
<path d="M124.026 140.844L125.528 140.736C126.815 140.628 127.673 139.55 127.673 138.363L127.566 130.167C127.566 125.638 126.172 121.108 123.704 117.334L121.773 117.55C121.881 117.442 124.026 127.471 124.026 140.844Z" fill="#19191B"/>
<path d="M188.608 140.844L187.106 140.736C185.819 140.628 184.961 139.55 184.961 138.363V130.167C184.961 125.638 186.355 121.108 188.715 117.334L190.646 117.55C190.646 117.442 188.501 127.471 188.608 140.844Z" stroke="#19191B" stroke-width="1.45168" stroke-miterlimit="10" stroke-linecap="round" stroke-linejoin="round"/>
<path d="M124.026 140.844L125.528 140.736C126.815 140.628 127.673 139.55 127.673 138.363L127.566 130.167C127.566 125.638 126.172 121.108 123.704 117.334L121.773 117.55C121.881 117.442 124.026 127.471 124.026 140.844Z" stroke="#19191B" stroke-width="1.45168" stroke-miterlimit="10" stroke-linecap="round" stroke-linejoin="round"/>
<path d="M222.176 297.972H93.9856L83.5802 219.462C83.2584 217.413 84.8675 215.687 86.9057 215.687H229.149C231.187 215.687 232.796 217.521 232.474 219.462L222.176 297.972Z" fill="#1F1F1F"/>
<path d="M222.176 297.972H93.9856L83.5802 219.462C83.2584 217.413 84.8675 215.687 86.9057 215.687H229.149C231.187 215.687 232.796 217.521 232.474 219.462L222.176 297.972Z" stroke="#19191B" stroke-width="1.45168" stroke-miterlimit="10" stroke-linecap="round" stroke-linejoin="round"/>
<path d="M222.183 295.276H93.9922V303.58H222.183V295.276Z" fill="white"/>
<path d="M222.183 295.276H93.9922V303.58H222.183V295.276Z" stroke="#19191B" stroke-width="1.45168" stroke-miterlimit="10" stroke-linecap="round" stroke-linejoin="round"/>
<path d="M84.4451 0H145.161C147.521 0 149.452 1.94119 149.452 4.4216V36.3433C149.452 38.8237 147.414 40.7649 145.054 40.7649V54.2453C145.054 55.3238 143.767 55.7552 143.123 55.0003L131.001 40.7649H84.4451C81.9778 40.7649 80.0469 38.7159 80.0469 36.3433V4.4216C80.0469 1.94119 82.0851 0 84.4451 0Z" fill="#9D68F8"/>
<path d="M78.6559 4.42163H139.372C141.732 4.42163 143.663 6.36279 143.663 8.84319V40.7649C143.663 43.2453 141.625 45.1865 139.265 45.1865V58.667C139.265 59.7454 137.978 60.1768 137.334 59.4219L125.212 45.1865H78.6559C76.1887 45.1865 74.2578 43.1375 74.2578 40.7649V8.84319C74.2578 6.36279 76.296 4.42163 78.6559 4.42163Z" stroke="white" stroke-width="1.45168" stroke-miterlimit="10" stroke-linecap="round" stroke-linejoin="round"/>
<path d="M96.4433 31.6506V28.9502H90.0781V26.5713L97.0006 16.5412H99.701V26.3355H101.758V28.9502H99.701V31.6506H96.4433ZM96.4433 26.3355V21.4062L93.1 26.3355H96.4433ZM108.587 31.8864C106.758 31.8864 105.358 31.2077 104.386 29.8504C103.429 28.493 102.95 26.557 102.95 24.0423C102.95 21.5277 103.429 19.6131 104.386 18.2986C105.358 16.9698 106.758 16.3055 108.587 16.3055C110.416 16.3055 111.809 16.9698 112.766 18.2986C113.738 19.6131 114.223 21.5277 114.223 24.0423C114.223 26.557 113.738 28.493 112.766 29.8504C111.809 31.2077 110.416 31.8864 108.587 31.8864ZM108.587 29.186C109.416 29.186 110.03 28.7788 110.43 27.9644C110.83 27.1357 111.03 25.8283 111.03 24.0423C111.03 22.2564 110.83 20.9705 110.43 20.1846C110.03 19.3988 109.416 19.0059 108.587 19.0059C107.758 19.0059 107.144 19.3988 106.744 20.1846C106.344 20.9705 106.144 22.2564 106.144 24.0423C106.144 25.8283 106.344 27.1357 106.744 27.9644C107.144 28.7788 107.758 29.186 108.587 29.186ZM122.145 31.6506V28.9502H115.78V26.5713L122.702 16.5412H125.402V26.3355H127.46V28.9502H125.402V31.6506H122.145ZM122.145 26.3355V21.4062L118.801 26.3355H122.145Z" fill="white"/>
</svg>
