<svg width="728" height="508" viewBox="0 0 728 508" fill="none" xmlns="http://www.w3.org/2000/svg">
<path d="M214.093 385.151H129.891V417.54H214.093V385.151Z" stroke="white" stroke-width="2.38309" stroke-miterlimit="10" stroke-linecap="round" stroke-linejoin="round"/>
<path d="M210.564 422.117H127.243C125.129 422.117 123.367 420.356 123.367 418.244C123.367 416.132 125.129 414.371 127.243 414.371H210.564C211.797 414.371 212.854 413.315 212.854 412.083V390.432C212.854 389.199 211.797 388.143 210.564 388.143H127.243C125.129 388.143 123.367 386.383 123.367 384.271C123.367 382.158 125.129 380.398 127.243 380.398H210.564C216.201 380.398 220.605 384.975 220.605 390.432V412.083C220.605 417.54 216.025 422.117 210.564 422.117Z" fill="#1F1F1F"/>
<path d="M210.564 422.117H127.243C125.129 422.117 123.367 420.356 123.367 418.244C123.367 416.132 125.129 414.371 127.243 414.371H210.564C211.797 414.371 212.854 413.315 212.854 412.083V390.432C212.854 389.199 211.797 388.143 210.564 388.143H127.243C125.129 388.143 123.367 386.383 123.367 384.271C123.367 382.158 125.129 380.398 127.243 380.398H210.564C216.201 380.398 220.605 384.975 220.605 390.432V412.083C220.605 417.54 216.025 422.117 210.564 422.117Z" stroke="white" stroke-width="2.38309" stroke-miterlimit="10" stroke-linecap="round" stroke-linejoin="round"/>
<path d="M215.858 395.008H168.648" stroke="white" stroke-width="2.38309" stroke-miterlimit="10" stroke-linecap="round" stroke-linejoin="round"/>
<path d="M215.84 404.866H162.641" stroke="white" stroke-width="2.38309" stroke-miterlimit="10" stroke-linecap="round" stroke-linejoin="round"/>
<path d="M215.862 430.39H38.2969V488.831H215.862V430.39Z" fill="white"/>
<path d="M215.862 430.39H38.2969V488.831H215.862V430.39Z" stroke="#19191B" stroke-width="2.38309" stroke-miterlimit="10" stroke-linecap="round" stroke-linejoin="round"/>
<path d="M38.2969 450.281H115.277" stroke="#19191B" stroke-width="2.38309" stroke-miterlimit="10" stroke-linecap="round" stroke-linejoin="round"/>
<path d="M38.2969 468.764H136.768" stroke="#19191B" stroke-width="2.38309" stroke-miterlimit="10" stroke-linecap="round" stroke-linejoin="round"/>
<path d="M221.507 494.464H45.7039C38.4815 494.464 32.4922 488.479 32.4922 481.262V436.375C32.4922 429.158 38.4815 423.173 45.7039 423.173H221.507C224.678 423.173 227.32 425.813 227.32 428.982C227.32 432.15 224.678 434.791 221.507 434.791H45.7039C44.8231 434.791 44.1184 435.495 44.1184 436.375V481.262C44.1184 482.142 44.8231 482.847 45.7039 482.847H221.507C224.678 482.847 227.32 485.487 227.32 488.656C227.32 491.824 224.678 494.464 221.507 494.464Z" fill="#FE5233"/>
<path d="M221.507 494.464H45.7039C38.4815 494.464 32.4922 488.479 32.4922 481.262V436.375C32.4922 429.158 38.4815 423.173 45.7039 423.173H221.507C224.678 423.173 227.32 425.813 227.32 428.982C227.32 432.15 224.678 434.791 221.507 434.791H45.7039C44.8231 434.791 44.1184 435.495 44.1184 436.375V481.262C44.1184 482.142 44.8231 482.847 45.7039 482.847H221.507C224.678 482.847 227.32 485.487 227.32 488.656C227.32 491.824 224.678 494.464 221.507 494.464Z" stroke="#19191B" stroke-width="2.38309" stroke-miterlimit="10" stroke-linecap="round" stroke-linejoin="round"/>
<path d="M726 496.401H517.295H485.302H458.754H453.445H2" stroke="white" stroke-width="2.38309" stroke-miterlimit="10" stroke-linecap="round" stroke-linejoin="round"/>
<path d="M661.724 495.697L475.351 490.768L288.978 495.697C259.384 445.353 284.398 374.765 340.592 317.38C368.953 288.335 404.536 276.189 432.721 271.26C451.922 267.916 467.6 267.916 475.351 268.268C482.397 267.916 496.314 267.916 513.577 270.556C542.29 274.957 580.164 286.927 610.11 317.38C666.304 374.765 691.318 445.353 661.724 495.697Z" fill="#9D68F8"/>
<path d="M661.724 495.697L475.351 490.768L288.978 495.697C259.384 445.353 284.398 374.765 340.592 317.38C368.953 288.335 404.536 276.189 432.721 271.26C451.922 267.916 467.6 267.916 475.351 268.268C482.397 267.916 496.314 267.916 513.577 270.556C542.29 274.957 580.164 286.927 610.11 317.38C666.304 374.765 691.318 445.353 661.724 495.697Z" stroke="#19191B" stroke-width="2.38309" stroke-miterlimit="10" stroke-linecap="round" stroke-linejoin="round"/>
<path d="M283.688 406.274C283.688 406.274 302.184 387.263 325.613 394.304C348.337 401.169 363.31 429.862 361.02 445.705C359.787 453.978 347.632 458.555 334.773 448.697C321.737 438.664 283.688 406.274 283.688 406.274Z" fill="#1F1F1F"/>
<path d="M283.688 406.274C283.688 406.274 302.184 387.263 325.613 394.304C348.337 401.169 363.31 429.862 361.02 445.705C359.787 453.978 347.632 458.555 334.773 448.697C321.737 438.664 283.688 406.274 283.688 406.274Z" stroke="#19191B" stroke-width="2.38309" stroke-miterlimit="10" stroke-linecap="round" stroke-linejoin="round"/>
<path d="M667.165 406.274C667.165 406.274 648.668 387.263 625.24 394.304C602.516 401.169 587.542 429.862 589.832 445.705C591.065 453.978 603.22 458.555 616.079 448.697C629.115 438.664 667.165 406.274 667.165 406.274Z" fill="#1F1F1F"/>
<path d="M667.165 406.274C667.165 406.274 648.668 387.263 625.24 394.304C602.516 401.169 587.542 429.862 589.832 445.705C591.065 453.978 603.22 458.555 616.079 448.697C629.115 438.664 667.165 406.274 667.165 406.274Z" stroke="#19191B" stroke-width="2.38309" stroke-miterlimit="10" stroke-linecap="round" stroke-linejoin="round"/>
<path d="M480.453 300.833C478.692 301.009 476.754 301.009 474.816 301.009C473.231 301.009 471.822 301.009 470.236 300.833C430.954 298.897 432.715 271.084 432.715 271.084C451.916 267.74 467.594 267.74 475.345 268.092C482.391 267.74 496.307 267.74 513.571 270.38C513.571 270.556 518.327 298.369 480.453 300.833Z" fill="#1F1F1F"/>
<path d="M497.72 251.017V280.238C497.72 280.238 490.85 289.743 473.411 289.743C455.972 289.743 449.102 280.238 449.102 280.238V251.017H497.72Z" fill="white"/>
<path d="M497.72 251.017V280.238C497.72 280.238 490.85 289.743 473.411 289.743C455.972 289.743 449.102 280.238 449.102 280.238V251.017H497.72Z" stroke="#19191B" stroke-width="2.38309" stroke-miterlimit="10" stroke-linecap="round" stroke-linejoin="round"/>
<path d="M521.138 205.426C521.138 240.103 499.295 266.331 472.167 266.331C445.039 266.331 423.195 240.103 423.195 205.426C423.195 170.748 445.039 137.302 472.167 137.302C499.118 137.302 521.138 170.748 521.138 205.426Z" fill="white"/>
<path d="M521.138 205.426C521.138 240.103 499.295 266.331 472.167 266.331C445.039 266.331 423.195 240.103 423.195 205.426C423.195 170.748 445.039 137.302 472.167 137.302C499.118 137.302 521.138 170.748 521.138 205.426Z" stroke="#19191B" stroke-width="2.38309" stroke-miterlimit="10" stroke-linecap="round" stroke-linejoin="round"/>
<path d="M530.823 192.047C530.47 192.928 530.118 193.808 529.942 194.512C528.885 196.8 528.004 198.56 527.123 199.793C526.243 201.201 525.538 201.905 525.538 201.905C525.186 202.081 524.833 202.257 524.305 202.433C523.776 202.785 523.072 202.961 522.543 203.313C522.015 203.489 521.663 203.665 521.31 203.841C520.958 204.017 520.606 204.193 520.077 204.369C474.277 221.444 441.688 166.523 441.688 166.523C441.512 191.343 429.533 205.778 425.129 210.354C424.424 211.058 423.896 211.587 423.72 211.763C423.544 211.939 423.544 211.939 423.544 211.939C422.663 210.882 421.782 209.826 421.078 208.77C420.901 208.594 420.725 208.242 420.549 208.066C419.668 206.834 418.611 205.426 417.907 204.193C416.498 202.081 415.264 199.969 414.207 197.856C413.15 195.92 412.446 194.16 411.565 192.223C409.099 186.238 407.866 180.429 407.514 174.797C405.224 140.999 435.346 112.658 463.531 110.018C501.581 106.321 508.979 125.508 508.979 125.508C513.912 124.1 534.698 129.381 535.226 160.714C535.226 175.501 533.113 185.534 530.823 192.047Z" fill="#9D68F8"/>
<path d="M418.795 215.987L412.453 214.403L414.391 206.482C413.686 200.849 409.635 164.235 429.012 141.527C438.877 130.085 452.969 124.276 470.937 124.276C491.195 124.276 506.52 130.613 516.737 143.287C536.643 168.107 528.54 207.89 527.483 212.467L521.141 211.058C522.022 206.834 529.597 169.868 511.629 147.512C502.821 136.598 489.081 130.965 470.937 130.965C454.907 130.965 442.576 135.894 434.12 145.752C415.448 167.403 421.085 205.602 421.085 206.13L421.261 206.834L418.795 215.987Z" fill="white"/>
<path d="M418.803 215.987L412.461 214.403L414.399 206.482C413.694 200.849 409.642 164.235 429.02 141.527C438.884 130.085 452.977 124.276 470.945 124.276C491.203 124.276 506.528 130.613 516.745 143.287C536.651 168.107 528.548 207.89 527.491 212.467L521.149 211.058C522.03 206.834 529.605 169.868 511.637 147.512C502.829 136.598 489.089 130.965 470.945 130.965C454.914 130.965 442.584 135.894 434.128 145.752C415.456 167.403 421.093 205.602 421.093 206.13L421.269 206.834L418.803 215.987Z" stroke="#19191B" stroke-width="2.38309" stroke-miterlimit="10" stroke-linecap="round" stroke-linejoin="round"/>
<path d="M485.208 196.624C484.328 198.032 494.897 202.433 496.306 200.849C497.891 199.441 486.441 194.512 485.208 196.624Z" fill="#19191B"/>
<path d="M488.203 217.043C487.146 217.043 486.266 216.163 486.266 215.107V210.354C486.266 209.298 487.146 208.418 488.203 208.418C489.26 208.418 490.141 209.298 490.141 210.354V215.107C490.141 216.163 489.26 217.043 488.203 217.043Z" fill="#19191B"/>
<path d="M458.602 217.043C457.545 217.043 456.664 216.163 456.664 215.107V210.354C456.664 209.298 457.545 208.418 458.602 208.418C459.659 208.418 460.54 209.298 460.54 210.354V215.107C460.54 216.163 459.659 217.043 458.602 217.043Z" fill="#19191B"/>
<path d="M485.562 217.043C485.562 217.043 487.853 215.284 490.847 217.043" stroke="#19191B" stroke-width="2.38309" stroke-miterlimit="10" stroke-linecap="round" stroke-linejoin="round"/>
<path d="M488.898 235.878C488.898 235.878 474.454 237.111 467.055 247.848" stroke="#19191B" stroke-width="2.38309" stroke-miterlimit="10" stroke-linecap="round" stroke-linejoin="round"/>
<path d="M461.607 196.624C462.488 198.032 451.919 202.433 450.51 200.849C448.924 199.441 460.374 194.512 461.607 196.624Z" fill="#19191B"/>
<path d="M461.246 217.043C461.246 217.043 458.956 215.284 455.961 217.043" stroke="#19191B" stroke-width="2.38309" stroke-miterlimit="10" stroke-linecap="round" stroke-linejoin="round"/>
<path d="M468.832 219.156C468.832 219.156 467.775 224.965 473.236 224.261C478.873 223.733 478.873 217.748 474.998 217.572" stroke="#19191B" stroke-width="2.38309" stroke-miterlimit="10" stroke-linecap="round" stroke-linejoin="round"/>
<path d="M321.57 394.304C355.92 405.394 352.221 480.03 332.139 495.697H258.154C258.154 495.697 254.983 451.866 268.195 426.694C281.406 401.522 304.659 388.847 321.57 394.304Z" fill="white"/>
<path d="M321.57 394.304C355.92 405.394 352.221 480.03 332.139 495.697H258.154C258.154 495.697 254.983 451.866 268.195 426.694C281.406 401.522 304.659 388.847 321.57 394.304Z" stroke="#19191B" stroke-width="2.38309" stroke-miterlimit="10" stroke-linecap="round" stroke-linejoin="round"/>
<path d="M282.102 495.697H323.498C326.669 503.97 342.347 504.322 357.849 495.697L358.025 495.521C362.781 492.88 365.599 487.775 365.599 482.319V480.558C365.599 475.101 362.781 469.997 358.025 467.356C358.025 467.356 358.025 467.356 357.849 467.356C354.325 465.42 343.756 468.06 337.943 466.476C332.306 465.068 322.617 458.203 319.799 455.21C319.799 455.21 319.799 455.21 319.623 455.034C316.98 452.218 307.82 444.12 294.961 451.162C286.682 456.09 283.335 480.03 282.102 495.697Z" fill="white"/>
<path d="M282.102 495.697H323.498C326.669 503.97 342.347 504.322 357.849 495.697L358.025 495.521C362.781 492.88 365.599 487.775 365.599 482.319V480.558C365.599 475.101 362.781 469.997 358.025 467.356C358.025 467.356 358.025 467.356 357.849 467.356C354.325 465.42 343.756 468.06 337.943 466.476C332.306 465.068 322.617 458.203 319.799 455.21C319.799 455.21 319.799 455.21 319.623 455.034C316.98 452.218 307.82 444.12 294.961 451.162C286.682 456.09 283.335 480.03 282.102 495.697Z" stroke="#19191B" stroke-width="2.38309" stroke-miterlimit="10" stroke-linecap="round" stroke-linejoin="round"/>
<path d="M358.722 495.345C358.545 495.521 358.193 495.697 358.017 495.697C342.515 504.322 326.837 503.97 323.667 495.697C322.962 493.761 322.786 491.296 323.667 488.48C328.775 471.581 346.215 472.461 346.215 472.461" stroke="#19191B" stroke-width="2.38309" stroke-miterlimit="10" stroke-linecap="round" stroke-linejoin="round"/>
<path d="M629.302 394.304C594.952 405.394 598.651 480.03 618.733 495.697H692.542C692.542 495.697 695.713 451.866 682.501 426.694C669.466 401.522 646.213 388.847 629.302 394.304Z" fill="white"/>
<path d="M629.302 394.304C594.952 405.394 598.651 480.03 618.733 495.697H692.542C692.542 495.697 695.713 451.866 682.501 426.694C669.466 401.522 646.213 388.847 629.302 394.304Z" stroke="#19191B" stroke-width="2.38309" stroke-miterlimit="10" stroke-linecap="round" stroke-linejoin="round"/>
<path d="M668.756 495.697H627.359C624.188 503.97 608.51 504.322 593.009 495.697L592.832 495.521C588.076 492.88 585.258 487.775 585.258 482.319V480.558C585.258 475.101 588.076 469.997 592.832 467.356C592.832 467.356 592.832 467.356 593.009 467.356C596.532 465.42 607.101 468.06 612.914 466.476C618.551 465.068 628.24 458.203 631.058 455.21C631.058 455.21 631.058 455.21 631.234 455.034C633.877 452.218 643.037 444.12 655.896 451.162C664.176 456.09 667.522 480.03 668.756 495.697Z" fill="white"/>
<path d="M668.756 495.697H627.359C624.188 503.97 608.51 504.322 593.009 495.697L592.832 495.521C588.076 492.88 585.258 487.775 585.258 482.319V480.558C585.258 475.101 588.076 469.997 592.832 467.356C592.832 467.356 592.832 467.356 593.009 467.356C596.532 465.42 607.101 468.06 612.914 466.476C618.551 465.068 628.24 458.203 631.058 455.21C631.058 455.21 631.058 455.21 631.234 455.034C633.877 452.218 643.037 444.12 655.896 451.162C664.176 456.09 667.522 480.03 668.756 495.697Z" stroke="#19191B" stroke-width="2.38309" stroke-miterlimit="10" stroke-linecap="round" stroke-linejoin="round"/>
<path d="M604.812 472.461C604.812 472.461 622.251 471.581 627.36 488.48C628.24 491.296 628.064 493.761 627.36 495.697C624.189 503.97 608.511 504.322 593.009 495.697C592.833 495.521 592.481 495.345 592.305 495.345" stroke="#19191B" stroke-width="2.38309" stroke-miterlimit="10" stroke-linecap="round" stroke-linejoin="round"/>
<path d="M684.269 497.281C684.269 497.281 693.076 502.21 696.423 490.592C700.475 477.214 693.781 450.986 686.559 449.577C679.336 448.169 675.461 458.379 675.461 458.379L684.269 497.281Z" fill="white"/>
<path d="M684.269 497.281C684.269 497.281 693.076 502.21 696.423 490.592C700.475 477.214 693.781 450.986 686.559 449.577C679.336 448.169 675.461 458.379 675.461 458.379L684.269 497.281Z" stroke="#19191B" stroke-width="2.38309" stroke-miterlimit="10" stroke-linecap="round" stroke-linejoin="round"/>
<path d="M652.734 456.266C652.734 456.266 657.491 446.585 670.174 447.465C682.857 448.345 687.789 493.232 686.028 498.865C684.442 504.498 666.651 508.019 664.361 497.457C661.894 486.895 652.734 456.266 652.734 456.266Z" fill="white"/>
<path d="M652.734 456.266C652.734 456.266 657.491 446.585 670.174 447.465C682.857 448.345 687.789 493.232 686.028 498.865C684.442 504.498 666.651 508.019 664.361 497.457C661.894 486.895 652.734 456.266 652.734 456.266Z" stroke="#19191B" stroke-width="2.38309" stroke-miterlimit="10" stroke-linecap="round" stroke-linejoin="round"/>
<path d="M666.306 495.697C666.13 497.457 665.777 498.865 665.249 499.921C660.669 508.547 642.172 508.195 637.769 495.697C637.769 495.521 637.592 495.345 637.592 494.993C634.95 485.839 632.132 466.3 630.898 455.21C630.898 455.21 630.899 455.21 631.075 455.034C633.717 452.218 642.877 444.12 655.736 451.162C659.964 456.442 667.715 483.199 666.306 495.697Z" fill="white"/>
<path d="M630.898 455.386C630.898 455.21 631.075 455.21 630.898 455.386C633.717 452.394 642.701 444.472 655.736 451.514C659.964 456.618 667.715 483.375 666.482 495.873C666.306 497.633 665.953 499.041 665.425 500.098C660.845 508.723 642.349 508.371 637.945 495.873C637.945 495.697 637.769 495.521 637.769 495.169C636.007 489.008 634.245 478.446 632.836 468.765" stroke="#19191B" stroke-width="2.38309" stroke-miterlimit="10" stroke-linecap="round" stroke-linejoin="round"/>
<path d="M266.599 497.281C266.599 497.281 257.791 502.21 254.444 490.592C250.393 477.214 257.087 450.986 264.309 449.577C271.531 448.169 275.407 458.379 275.407 458.379L266.599 497.281Z" fill="white"/>
<path d="M266.599 497.281C266.599 497.281 257.791 502.21 254.444 490.592C250.393 477.214 257.087 450.986 264.309 449.577C271.531 448.169 275.407 458.379 275.407 458.379L266.599 497.281Z" stroke="#19191B" stroke-width="2.38309" stroke-miterlimit="10" stroke-linecap="round" stroke-linejoin="round"/>
<path d="M298.131 456.266C298.131 456.266 293.375 446.585 280.692 447.465C268.008 448.345 263.076 493.232 264.837 498.865C266.423 504.498 284.215 508.019 286.505 497.457C288.971 486.895 298.131 456.266 298.131 456.266Z" fill="white"/>
<path d="M298.131 456.266C298.131 456.266 293.375 446.585 280.692 447.465C268.008 448.345 263.076 493.232 264.837 498.865C266.423 504.498 284.215 508.019 286.505 497.457C288.971 486.895 298.131 456.266 298.131 456.266Z" stroke="#19191B" stroke-width="2.38309" stroke-miterlimit="10" stroke-linecap="round" stroke-linejoin="round"/>
<path d="M284.575 495.697C284.751 497.457 285.104 498.865 285.632 499.921C290.212 508.547 308.708 508.195 313.112 495.697C313.112 495.521 313.289 495.345 313.289 494.993C315.931 485.839 318.749 466.3 319.982 455.21C319.982 455.21 319.982 455.21 319.806 455.034C317.164 452.218 308.004 444.12 295.144 451.162C290.917 456.442 283.166 483.199 284.575 495.697Z" fill="white"/>
<path d="M319.98 455.386C319.98 455.21 319.98 455.21 319.98 455.386C317.162 452.394 308.178 444.472 295.142 451.514C290.915 456.618 283.164 483.375 284.397 495.873C284.573 497.633 284.925 499.041 285.454 500.098C290.034 508.723 308.53 508.371 312.934 495.873C312.934 495.697 313.11 495.521 313.11 495.169C314.696 489.536 316.457 479.854 317.867 470.877" stroke="#19191B" stroke-width="2.38309" stroke-miterlimit="10" stroke-linecap="round" stroke-linejoin="round"/>
<path d="M508.464 125.333C482.745 105.265 420.21 105.617 406.998 174.797C404.708 140.999 434.83 112.658 463.015 110.018C501.065 106.145 508.464 125.333 508.464 125.333Z" fill="white"/>
<path d="M530.823 192.047C530.47 192.928 530.118 193.808 529.942 194.512C528.885 196.8 528.004 198.56 527.123 199.793C526.243 201.201 525.538 201.905 525.538 201.905C525.186 202.081 524.833 202.257 524.305 202.433C523.776 202.785 523.072 202.961 522.543 203.313C522.015 203.489 521.663 203.665 521.31 203.841C520.958 204.017 520.606 204.193 520.077 204.369C474.277 221.444 441.688 166.523 441.688 166.523C441.512 191.343 429.533 205.778 425.129 210.354C424.424 211.058 423.896 211.587 423.72 211.763C423.544 211.939 423.544 211.939 423.544 211.939C422.663 210.882 421.782 209.826 421.078 208.77C420.901 208.594 420.725 208.242 420.549 208.066C419.668 206.834 418.611 205.426 417.907 204.193C416.498 202.081 415.264 199.969 414.207 197.856C413.15 195.92 412.446 194.16 411.565 192.223C409.099 186.238 407.866 180.429 407.514 174.797C405.224 140.999 435.346 112.658 463.531 110.018C501.581 106.321 508.979 125.508 508.979 125.508C513.912 124.1 534.698 129.381 535.226 160.714C535.226 175.501 533.113 185.534 530.823 192.047Z" stroke="#19191B" stroke-width="2.38309" stroke-miterlimit="10" stroke-linecap="round" stroke-linejoin="round"/>
<path d="M525.007 229.894L521.836 229.542L525.183 191.343L535.048 192.223C539.452 192.575 542.622 196.448 542.27 200.673L540.861 216.515C540.156 224.789 532.934 230.598 525.007 229.894Z" fill="white"/>
<path d="M525.021 229.894L522.554 229.718C520.44 229.542 519.031 227.781 519.031 225.845V212.467C519.031 205.073 521.321 197.68 525.197 191.519L528.368 191.871C528.368 191.695 524.844 208.066 525.021 229.894Z" fill="#19191B"/>
<path d="M418.977 229.894L422.148 229.542L418.625 191.343L408.76 192.223C404.356 192.575 401.185 196.448 401.714 200.849L403.123 216.691C403.828 224.789 411.05 230.774 418.977 229.894Z" fill="white"/>
<path d="M525.007 229.894L521.836 229.542L525.183 191.343L535.048 192.223C539.452 192.575 542.622 196.448 542.27 200.673L540.861 216.515C540.156 224.789 532.934 230.598 525.007 229.894Z" stroke="#19191B" stroke-width="2.38309" stroke-miterlimit="10" stroke-linecap="round" stroke-linejoin="round"/>
<path d="M418.977 229.894L422.148 229.542L418.625 191.343L408.76 192.223C404.356 192.575 401.185 196.448 401.714 200.849L403.123 216.691C403.828 224.789 411.05 230.774 418.977 229.894Z" stroke="#19191B" stroke-width="2.38309" stroke-miterlimit="10" stroke-linecap="round" stroke-linejoin="round"/>
<path d="M418.973 229.894L421.439 229.718C423.553 229.542 424.962 227.781 424.962 225.845L424.786 212.467C424.786 205.073 422.496 197.68 418.444 191.519L415.273 191.871C415.45 191.695 418.973 208.066 418.973 229.894Z" fill="#19191B"/>
<path d="M525.021 229.894L522.554 229.718C520.44 229.542 519.031 227.781 519.031 225.845V212.467C519.031 205.073 521.321 197.68 525.197 191.519L528.368 191.871C528.368 191.695 524.844 208.066 525.021 229.894Z" stroke="#19191B" stroke-width="2.38309" stroke-miterlimit="10" stroke-linecap="round" stroke-linejoin="round"/>
<path d="M418.973 229.894L421.439 229.718C423.553 229.542 424.962 227.781 424.962 225.845L424.786 212.467C424.786 205.073 422.496 197.68 418.444 191.519L415.273 191.871C415.45 191.695 418.973 208.066 418.973 229.894Z" stroke="#19191B" stroke-width="2.38309" stroke-miterlimit="10" stroke-linecap="round" stroke-linejoin="round"/>
<path d="M580.137 486.367H369.631L352.544 358.218C352.016 354.874 354.658 352.057 358.005 352.057H591.587C594.934 352.057 597.577 355.05 597.048 358.218L580.137 486.367Z" fill="#1F1F1F"/>
<path d="M580.137 486.367H369.631L352.544 358.218C352.016 354.874 354.658 352.057 358.005 352.057H591.587C594.934 352.057 597.577 355.05 597.048 358.218L580.137 486.367Z" stroke="#19191B" stroke-width="2.38309" stroke-miterlimit="10" stroke-linecap="round" stroke-linejoin="round"/>
<path d="M580.147 481.967H369.641V495.521H580.147V481.967Z" fill="white"/>
<path d="M580.147 481.967H369.641V495.521H580.147V481.967Z" stroke="#19191B" stroke-width="2.38309" stroke-miterlimit="10" stroke-linecap="round" stroke-linejoin="round"/>
<path d="M353.965 0H453.669C457.544 0 460.715 3.16853 460.715 7.21719V59.3216C460.715 63.3703 457.368 66.5388 453.493 66.5388V88.5424C453.493 90.3027 451.379 91.0068 450.322 89.7746L430.416 66.5388H353.965C349.913 66.5388 346.742 63.1943 346.742 59.3216V7.21719C346.742 3.16853 350.089 0 353.965 0Z" fill="#9D68F8"/>
<path d="M344.457 7.21716H444.161C448.036 7.21716 451.207 10.3856 451.207 14.4343V66.5388C451.207 70.5875 447.86 73.756 443.985 73.756V95.7596C443.985 97.5199 441.871 98.224 440.814 96.9918L420.908 73.756H344.457C340.405 73.756 337.234 70.4114 337.234 66.5388V14.4343C337.234 10.3856 340.581 7.21716 344.457 7.21716Z" stroke="white" stroke-width="2.38309" stroke-miterlimit="10" stroke-linecap="round" stroke-linejoin="round"/>
<path d="M374.234 51.8425V47.4095H363.784V43.5043L375.148 27.0389H379.581V43.1173H382.959V47.4095H379.581V51.8425H374.234ZM374.234 43.1173V35.0253L368.745 43.1173H374.234ZM394.168 52.2295C391.166 52.2295 388.867 51.1154 387.273 48.8872C385.701 46.659 384.915 43.4808 384.915 39.3527C384.915 35.2247 385.701 32.0817 387.273 29.9238C388.867 27.7425 391.166 26.6519 394.168 26.6519C397.171 26.6519 399.457 27.7425 401.029 29.9238C402.624 32.0817 403.421 35.2247 403.421 39.3527C403.421 43.4808 402.624 46.659 401.029 48.8872C399.457 51.1154 397.171 52.2295 394.168 52.2295ZM394.168 47.7965C395.529 47.7965 396.537 47.1281 397.194 45.7911C397.851 44.4308 398.179 42.2846 398.179 39.3527C398.179 36.4209 397.851 34.3099 397.194 33.0199C396.537 31.7299 395.529 31.0849 394.168 31.0849C392.808 31.0849 391.799 31.7299 391.143 33.0199C390.486 34.3099 390.158 36.4209 390.158 39.3527C390.158 42.2846 390.486 44.4308 391.143 45.7911C391.799 47.1281 392.808 47.7965 394.168 47.7965ZM416.425 51.8425V47.4095H405.976V43.5043L417.34 27.0389H421.773V43.1173H425.15V47.4095H421.773V51.8425H416.425ZM416.425 43.1173V35.0253L410.937 43.1173H416.425Z" fill="white"/>
</svg>
