<svg width="90" height="90" viewBox="0 0 90 90" fill="none" xmlns="http://www.w3.org/2000/svg">
<path fill-rule="evenodd" clip-rule="evenodd" d="M30 0C18.9543 0 10 8.95431 10 20V60C10 71.0457 18.9543 80 30 80H70C81.0457 80 90 71.0457 90 60V20C90 8.95431 81.0457 0 70 0H30Z" fill="#CBE5C7"/>
<path d="M28.3346 73.3333H26.668C13.3346 73.3333 6.66797 70 6.66797 53.3333V36.6666C6.66797 23.3333 13.3346 16.6666 26.668 16.6666H53.3346C66.668 16.6666 73.3346 23.3333 73.3346 36.6666V53.3333C73.3346 66.6666 66.668 73.3333 53.3346 73.3333H51.668C50.6346 73.3333 49.6346 73.8333 49.0013 74.6666L44.0013 81.3333C41.8013 84.2666 38.2013 84.2666 36.0013 81.3333L31.0013 74.6666C30.468 73.9333 29.2346 73.3333 28.3346 73.3333Z" stroke="#19191B" stroke-width="3" stroke-miterlimit="10" stroke-linecap="round" stroke-linejoin="round"/>
<path d="M23.332 36.6666H56.6654" stroke="#19191B" stroke-width="3" stroke-linecap="round" stroke-linejoin="round"/>
<path d="M23.332 53.3334H43.332" stroke="#19191B" stroke-width="3" stroke-linecap="round" stroke-linejoin="round"/>
</svg>
