<svg width="90" height="90" viewBox="0 0 90 90" fill="none" xmlns="http://www.w3.org/2000/svg">
<path fill-rule="evenodd" clip-rule="evenodd" d="M50 80C72.0914 80 90 62.0914 90 40C90 17.9086 72.0914 0 50 0C27.9086 0 10 17.9086 10 40C10 62.0914 27.9086 80 50 80Z" fill="#FFCCA1"/>
<path d="M28.5664 60.9L50.3663 39.1001" stroke="#19191B" stroke-width="3" stroke-linecap="round" stroke-linejoin="round"/>
<path d="M29.9321 44.5667C32.1964 44.5667 34.032 42.7311 34.032 40.4667C34.032 38.2024 32.1964 36.3667 29.9321 36.3667C27.6677 36.3667 25.832 38.2024 25.832 40.4667C25.832 42.7311 27.6677 44.5667 29.9321 44.5667Z" stroke="#19191B" stroke-width="3" stroke-linecap="round" stroke-linejoin="round"/>
<path d="M51.7327 63.6333C53.9971 63.6333 55.8328 61.7977 55.8328 59.5333C55.8328 57.2689 53.9971 55.4333 51.7327 55.4333C49.4684 55.4333 47.6328 57.2689 47.6328 59.5333C47.6328 61.7977 49.4684 63.6333 51.7327 63.6333Z" stroke="#19191B" stroke-width="3" stroke-linecap="round" stroke-linejoin="round"/>
<path d="M40.0013 83.3333C58.4108 83.3333 73.3346 68.4095 73.3346 50C73.3346 31.5905 58.4108 16.6666 40.0013 16.6666C21.5918 16.6666 6.66797 31.5905 6.66797 50C6.66797 68.4095 21.5918 83.3333 40.0013 83.3333Z" stroke="#19191B" stroke-width="3" stroke-linecap="round" stroke-linejoin="round"/>
</svg>
