<svg width="90" height="90" viewBox="0 0 90 90" fill="none" xmlns="http://www.w3.org/2000/svg">
<path fill-rule="evenodd" clip-rule="evenodd" d="M90 40C90 62.0914 72.0914 80 50 80C27.9086 80 10 62.0914 10 40C10 17.9086 27.9086 0 50 0C72.0914 0 90 17.9086 90 40Z" fill="#D7C0FF"/>
<path d="M73.3346 50C73.3346 68.4 58.4013 83.3333 40.0013 83.3333C21.6013 83.3333 6.66797 68.4 6.66797 50C6.66797 31.6 21.6013 16.6666 40.0013 16.6666C58.4013 16.6666 73.3346 31.6 73.3346 50Z" stroke="#19191B" stroke-width="3" stroke-linecap="round" stroke-linejoin="round"/>
<path d="M52.3656 60.6L42.0323 54.4333C40.2323 53.3667 38.7656 50.8 38.7656 48.7V35.0333" stroke="#19191B" stroke-width="3" stroke-linecap="round" stroke-linejoin="round"/>
</svg>
