<svg width="619" height="640" viewBox="0 0 619 640" fill="none" xmlns="http://www.w3.org/2000/svg">
<path d="M493.934 412.938C493.934 412.938 499.917 426.703 515.072 423.815C534.804 434.618 544.49 413.988 544.49 413.988C544.49 413.988 570.674 424.81 576.186 403.399C595.6 398.001 601.3 384.138 599.199 372.337C612.655 360.232 603.504 332.848 603.504 332.848C603.504 332.848 627.132 322.237 615.722 300.499C626.88 278.758 602.922 255.309 602.922 255.309C602.922 255.309 612.935 235.656 597.26 224.585C597.025 201.832 587.477 189.801 560.656 192.238C545.563 160.859 520.587 173.551 520.587 173.551C520.587 173.551 504.442 139.806 481.205 155.722C448.139 147.743 441.079 173.475 441.079 173.475C441.079 173.475 418.558 163.604 409.513 185.651C386.865 195.934 386.971 210.032 389.498 218.973C374.693 219.026 371.542 239.665 377.544 247.979C367.922 256.621 368.569 269.98 375.93 280.582C375.93 280.582 370.739 294.186 378.624 306.545C374.358 326.769 395.542 339.262 395.542 339.262C395.542 339.262 391.818 359.363 401.02 370.59C405.417 386.503 423.985 399.339 423.985 399.339C423.985 399.339 434.905 419.609 446.005 416.989C460.111 427.497 476.433 422.588 476.205 417.772C475.977 412.956 492.808 424.729 493.934 412.938Z" fill="#19191B"/>
<path d="M234.208 297.111L289.426 301.133L328.278 232.47C359.696 214.048 397.773 249.567 356.657 279.193C356.657 279.193 333.39 332.776 310.333 342.3C302.375 345.586 262.794 335.222 228.758 325.221L234.208 297.111Z" fill="#C27761"/>
<path d="M320.941 305.502C320.941 305.502 335.252 267.677 324.125 253.573C316.094 243.394 311.93 245.722 311.93 245.722C311.93 245.722 333.675 207.983 368.35 230.146C403.026 252.308 320.941 305.502 320.941 305.502Z" fill="#5640AD"/>
<path d="M436.802 450.66C450.168 517.552 443.219 612.183 435.67 659.575C465.348 711.146 468.537 783.57 460.57 875.62L434.261 878.432L384.759 663.625L331.344 450.581L436.802 450.66Z" fill="#19191B"/>
<path d="M373.289 450.613C363.633 531.425 342.34 605.412 324.85 669.407C342.533 726.216 329.809 797.586 301.908 885.668L275.619 882.662L274.284 662.231L272.973 472.208L373.289 450.613Z" fill="#19191B"/>
<path d="M436.804 450.66C436.804 450.66 421.996 379.543 354.943 372.891C287.89 366.238 273.766 438.132 272.976 472.208C271.668 528.583 452.367 526.518 436.804 450.66Z" fill="#19191B"/>
<path d="M297.561 403.415C329.877 349.358 280.485 288.23 319.561 259.222C326.041 238.949 362.85 249.907 398.615 260.733C437.457 272.491 484.526 277.058 463.107 314.935C430.738 349.762 411.261 379.35 406.999 417.783C390.262 436.428 297.049 424.738 297.561 403.415Z" fill="white"/>
<path d="M429.56 248.876C428.704 249.423 412.567 252.673 377.942 240.205C366.708 223.056 348.683 222.207 339.071 227.353C325.753 234.481 316.786 253.987 316.771 289.04C315.158 339.035 428.997 348.362 456.862 321.777C511.434 269.71 463.019 227.496 429.56 248.876Z" fill="#FFFAD9"/>
<path d="M368.079 250.251C366.317 259.337 365.389 267.454 365.881 270.553C365.881 270.553 409.299 258.111 435.766 245.683L461.745 212.297L409.463 202.165C405.569 206.421 401.914 210.238 398.464 213.82C393.519 218.947 388.982 223.584 384.723 228.306C378.756 234.915 373.335 241.701 368.079 250.251Z" fill="#FFA68C"/>
<path d="M384.727 228.307L440.652 231L398.736 213.591L398.468 213.821C393.523 218.947 388.986 223.584 384.727 228.307Z" fill="#BF5A3B"/>
<path d="M378.374 238.206C378.374 238.206 340.367 251.223 330.875 274.923C325.218 289.047 313.076 376.36 305.244 401.601C297.412 426.843 306.12 524.485 306.12 524.485C286.94 523.471 254.409 514.994 242.953 507.523C242.953 507.523 254.849 438.123 294.078 344.412C295.089 324.046 297.437 302.804 304.085 270.649C310.598 239.145 342.964 211.646 368.343 230.146L378.374 238.206Z" fill="#FFDF4A"/>
<path d="M435.776 245.682C435.776 245.682 460.687 234.357 476.588 258.354C492.489 282.351 468.218 320.077 468.218 320.077C468.218 320.077 441.731 376.303 442.398 392.099C443.066 407.895 475.41 461.473 473.829 524.485C446.737 535.591 348.945 535.4 348.945 535.4C348.945 535.4 355.115 381.238 382.469 332.132C399.975 300.707 435.776 245.682 435.776 245.682Z" fill="#FFDF4A"/>
<path d="M405.728 151.364C405.728 151.364 405.209 146.377 407.506 141.103C409.803 135.83 419.757 133.351 419.757 133.351C419.757 133.351 419.184 127.721 426.847 120.503C434.51 113.285 440.906 117.7 440.906 117.7C443.18 112.125 447.057 105.827 463.065 111.042C472.031 103.533 480.709 114.748 480.709 114.748C480.709 114.748 480.869 114.721 481.152 114.683C479.226 117.587 476.793 120.148 474.456 122.765C472.306 122.42 467.563 121.601 460.538 120.059C455.901 127.72 442.406 125.969 442.406 125.969C442.406 125.969 433.084 141.135 427.383 141.464C420.836 141.518 419.222 152.471 411.943 157.178C403.956 169.465 395.492 170.651 395.376 163.026C395.26 155.4 405.728 151.364 405.728 151.364Z" fill="#19191B"/>
<path d="M415.21 144.331C392.112 167.393 385.896 202.295 398.744 213.594C408.942 222.802 427.543 231.977 443.914 233.281C459.202 234.499 474.389 228.175 486.83 215.696C512.593 189.853 517.444 152.928 497.667 133.221C477.89 113.514 439.254 113.404 415.21 144.331Z" fill="#FFA68C"/>
<path d="M424.07 169.705C423.971 169.705 423.871 169.673 423.787 169.608C423.734 169.566 418.464 165.401 421.042 160.602C423.644 155.758 433.813 160.567 434.244 160.774C434.474 160.884 434.571 161.16 434.461 161.39C434.35 161.62 434.075 161.717 433.844 161.607C433.747 161.56 424.043 156.967 421.856 161.039C419.649 165.148 424.161 168.728 424.354 168.878C424.555 169.035 424.592 169.325 424.435 169.526C424.344 169.644 424.208 169.705 424.07 169.705Z" fill="#6E4437"/>
<path d="M462.497 171.394C462.188 171.394 461.882 171.261 461.67 171.005C461.294 170.549 461.358 169.875 461.815 169.498C463.785 167.872 464.194 166.264 463.978 166.002C463.763 165.741 462.106 165.836 460.135 167.463C459.679 167.839 459.003 167.774 458.628 167.319C458.251 166.863 458.316 166.188 458.772 165.812C461.426 163.622 464.373 163.118 465.63 164.64C466.885 166.162 465.832 168.96 463.178 171.149C462.978 171.314 462.737 171.394 462.497 171.394Z" fill="#19191B"/>
<path d="M475.856 166.167C475.855 166.167 475.854 166.167 475.853 166.167C475.635 166.166 475.459 165.988 475.46 165.77C475.494 160.038 473.337 157.436 468.469 157.334C468.251 157.33 468.078 157.149 468.082 156.931C468.087 156.716 468.263 156.544 468.477 156.544C468.48 156.544 468.483 156.544 468.485 156.545C473.746 156.654 476.286 159.673 476.251 165.775C476.249 165.992 476.073 166.167 475.856 166.167Z" fill="#59372D"/>
<path d="M437.232 146.708C436.923 146.708 436.617 146.576 436.405 146.319C436.029 145.864 436.093 145.189 436.55 144.812C437.438 144.08 438.156 143.206 438.521 142.416C438.818 141.77 438.779 141.397 438.713 141.317C438.646 141.237 438.287 141.127 437.597 141.297C436.752 141.505 435.757 142.044 434.869 142.777C434.414 143.154 433.739 143.089 433.362 142.633C432.986 142.177 433.05 141.503 433.507 141.126C434.651 140.182 435.922 139.504 437.085 139.218C438.517 138.866 439.682 139.127 440.364 139.954C441.047 140.781 441.083 141.974 440.465 143.312C439.963 144.4 439.057 145.519 437.912 146.463C437.713 146.628 437.472 146.708 437.232 146.708Z" fill="#19191B"/>
<path d="M448.327 143.339C448.313 143.339 448.299 143.338 448.284 143.336C448.067 143.313 447.91 143.118 447.934 142.901C448.477 137.913 445.296 135.005 438.207 134.01C437.991 133.979 437.841 133.78 437.871 133.563C437.902 133.347 438.098 133.196 438.318 133.227C445.811 134.279 449.311 137.563 448.72 142.987C448.698 143.189 448.526 143.339 448.327 143.339Z" fill="#59372D"/>
<path d="M481.682 112.645C486.632 112.649 494.718 113.805 499.328 120.599C510.131 122.139 512.946 126.504 519.026 140.243C525.669 147.864 526.311 155.972 519.988 162.527C524.003 168.358 526.401 183.741 516.683 189.63C519.573 196.044 517.31 207.652 502.236 215.808C493.908 230.899 482.882 223.21 482.882 223.21C485.451 229.435 479.507 247.039 466.698 238.334C458.751 232.933 457.53 224.22 463.899 217.56C464.6 211.921 470.974 206.196 477.156 205.187C474.31 201.608 479.164 190.627 487.174 183.395C485.464 171.204 497.212 168.846 497.212 168.846C497.212 168.846 490.658 159.606 495.247 151.291C487.876 142.805 497.181 134.681 497.181 134.681C492.315 135.992 490.659 129.746 482.364 129.462C476.885 129.275 473.251 124.98 472.155 122.583C468.68 116.184 474.257 112.818 481.682 112.645Z" fill="#19191B"/>
<path d="M414.373 206.618C418.465 209.208 425.024 206.737 434.483 199.35C437.182 197.239 440.114 194.734 443.299 191.826C422.888 188.559 409.918 171.233 409.918 171.233C409.682 171.789 409.459 172.347 409.253 172.888C401.733 192.369 409.252 203.377 414.373 206.618Z" fill="#B01C25"/>
<path d="M409.255 172.887C408.542 178.449 421.137 190.886 438.088 196.417C439.746 195.017 441.482 193.487 443.302 191.826C422.891 188.559 409.921 171.233 409.921 171.233C409.685 171.789 409.462 172.347 409.255 172.887Z" fill="#FFD1C4"/>
<path d="M451.185 185.326C453.7 187.792 456.871 188.636 458.268 187.212C459.665 185.788 458.759 182.635 456.244 180.169C453.728 177.703 450.557 176.858 449.16 178.282C447.763 179.706 448.67 182.86 451.185 185.326Z" fill="#EB7755"/>
<path d="M420.231 154.546C421.382 153.373 421.072 151.204 419.539 149.701C418.006 148.199 415.831 147.931 414.681 149.104C413.53 150.277 413.84 152.446 415.373 153.948C416.906 155.451 419.081 155.719 420.231 154.546Z" fill="#EB7755"/>
<path d="M483.115 192.088C491.129 192.009 495.571 199.762 489.733 205.664C482.695 212.779 471.392 208.931 471.392 208.931C465.891 204.467 476.948 187.217 483.115 192.088Z" fill="#FFA68C"/>
<path d="M465.896 233.021C463.287 233.021 460.644 232.382 458.202 231.035C454.464 228.973 451.753 225.579 450.569 221.479C449.384 217.379 449.867 213.062 451.929 209.325C453.992 205.589 457.386 202.878 461.488 201.694C465.588 200.509 469.906 200.993 473.644 203.054L473.003 204.215C469.575 202.325 465.616 201.882 461.855 202.968C458.094 204.054 454.982 206.539 453.091 209.966C451.199 213.393 450.756 217.351 451.843 221.111C452.929 224.871 455.415 227.983 458.843 229.874C465.918 233.777 474.851 231.197 478.755 224.123C481.205 219.683 481.2 214.38 478.741 209.937L479.901 209.294C482.583 214.139 482.588 219.922 479.916 224.764C477.006 230.037 471.533 233.02 465.896 233.021Z" fill="white"/>
<path d="M386.286 262.099L220.427 131.298L220.388 131.348C216.027 136.86 208.031 137.794 202.518 133.435C202.455 133.386 202.386 133.331 202.329 133.276C201.741 132.793 201.205 132.266 200.734 131.7L197.264 136.1L198.999 137.472L197.312 139.619L195.57 138.241L191.507 143.391L193.249 144.768L191.555 146.91L189.82 145.537L185.757 150.686L187.499 152.064L185.805 154.205L184.069 152.833L180.006 157.982C180.026 157.998 181.571 159.21 181.747 159.348L180.055 161.501L178.313 160.124L174.25 165.273C174.268 165.288 175.87 166.544 175.997 166.644L174.31 168.791C174.182 168.691 172.572 167.427 172.563 167.42L168.505 172.563L170.247 173.94L168.553 176.082C168.428 175.984 166.822 174.723 166.812 174.715L162.754 179.858L164.496 181.235L162.803 183.377C162.672 183.274 161.066 182.013 161.056 182.006L156.998 187.148L158.74 188.526L157.053 190.672L155.311 189.295L151.248 194.444L152.99 195.821L151.302 197.968L149.56 196.59L145.498 201.74L147.24 203.117L145.546 205.258L143.804 203.881L139.741 209.031C139.748 209.036 141.427 210.353 141.494 210.406L139.796 212.554L138.053 211.177L133.991 216.326C134.009 216.341 135.611 217.597 135.738 217.698L134.05 219.844C133.984 219.792 132.307 218.476 132.303 218.473L128.241 223.622C128.259 223.637 129.86 224.893 129.988 224.993L128.3 227.14C128.233 227.087 126.551 225.767 126.547 225.764L122.489 230.907L124.237 232.289L122.543 234.43C122.416 234.33 120.806 233.066 120.796 233.059L116.739 238.202L118.487 239.584L116.793 241.726L115.051 240.348L110.989 245.498L112.731 246.875L111.043 249.021L109.295 247.639L105.232 252.788L106.981 254.171L105.293 256.317L103.545 254.935L99.3672 260.229C100.226 260.695 101.049 261.311 101.241 261.465C101.241 261.465 101.245 261.461 101.246 261.459C101.246 261.459 101.246 261.459 101.253 261.464C106.748 265.809 107.694 273.761 103.385 279.274L269.244 410.075L386.286 262.099Z" fill="#FE5233"/>
<path d="M83.3808 263.557L83.4106 263.52L0.652344 198.254L83.3808 263.557Z" fill="white"/>
<path d="M106.983 254.17L111.046 249.021L112.734 246.875L116.796 241.725L118.49 239.584L122.546 234.429L124.24 232.288L128.303 227.139L129.99 224.992L134.053 219.843L135.741 217.697L139.798 212.553L141.497 210.406L145.549 205.258L147.243 203.116L151.305 197.967L152.993 195.821L157.056 190.671L158.743 188.525L162.806 183.376L164.5 181.234L168.557 176.08L170.25 173.939L174.313 168.789L176.001 166.643L180.058 161.5L181.751 159.347L185.808 154.204L187.502 152.063L191.559 146.909L193.253 144.767L197.315 139.618L199.003 137.471L202.32 133.265C201.737 132.783 201.205 132.262 200.737 131.699C196.866 127.188 196.603 120.424 200.428 115.575L117.695 50.278L114.811 53.9239C117.453 56.0124 117.901 59.8472 115.812 62.4881C113.718 65.1353 109.883 65.5833 107.241 63.4948L103.231 68.5641C105.873 70.6526 106.321 74.4874 104.232 77.1283C102.143 79.7691 98.3079 80.2174 95.6661 78.1286L91.6564 83.1979C94.2982 85.2864 94.746 89.1212 92.6573 91.762C90.5686 94.4029 86.7279 94.8573 84.0865 92.7688L80.0815 97.832C82.7232 99.9205 83.1713 103.755 81.0774 106.402C78.9884 109.043 75.153 109.491 72.5113 107.403L68.5016 112.472C71.1433 114.561 71.5914 118.395 69.5025 121.036C67.4135 123.677 63.5781 124.125 60.9364 122.036L56.9267 127.106C59.5684 129.194 60.0162 133.029 57.9276 135.67C55.8339 138.317 51.9985 138.765 49.3567 136.677L45.352 141.74C47.9938 143.828 48.4368 147.669 46.3479 150.31C44.2592 152.951 40.4236 153.399 37.7818 151.31L33.7721 156.38C36.4139 158.468 36.8619 162.303 34.773 164.944C32.6843 167.585 28.8487 168.033 26.2069 165.944L22.1972 171.014C24.839 173.102 25.2871 176.937 23.1931 179.584C21.1041 182.225 17.2687 182.673 14.627 180.585L10.6173 185.654C13.2591 187.743 13.7071 191.577 11.6182 194.218C9.5295 196.859 5.69384 197.307 3.05208 195.219L0.652344 198.253L83.4103 263.518C87.6954 258.139 95.4581 257.153 100.938 261.222L100.982 261.256C101.074 261.319 101.156 261.384 101.243 261.453L105.296 256.316L106.983 254.17Z" fill="#FFCCA1"/>
<path d="M148.786 114.232L143.594 120.8L175.755 146.213L180.947 139.645L148.786 114.232Z" fill="#7D7D7D"/>
<path d="M141.351 123.642L134.609 132.171L166.771 157.583L173.512 149.055L141.351 123.642Z" fill="#7D7D7D"/>
<path d="M132.788 134.476L128.051 140.469L160.212 165.881L164.95 159.888L132.788 134.476Z" fill="#7D7D7D"/>
<path d="M126.865 141.968L123.039 146.808L155.2 172.22L159.027 167.38L126.865 141.968Z" fill="#7D7D7D"/>
<path d="M121.309 148.996L116.754 154.759L148.915 180.171L153.471 174.409L121.309 148.996Z" fill="#7D7D7D"/>
<path d="M115.482 156.373L109.469 163.979L141.63 189.392L147.643 181.785L115.482 156.373Z" fill="#7D7D7D"/>
<path d="M107.645 166.285L103.637 171.356L135.798 196.768L139.807 191.697L107.645 166.285Z" fill="#7D7D7D"/>
<path d="M102.181 173.199L96.168 180.805L128.329 206.218L134.342 198.611L102.181 173.199Z" fill="#7D7D7D"/>
<path d="M94.7978 182.533L93.8867 183.686L126.048 209.098L126.959 207.945L94.7978 182.533Z" fill="#7D7D7D"/>
<path d="M92.0713 185.992L85.5117 194.29L117.673 219.703L124.233 211.405L92.0713 185.992Z" fill="#7D7D7D"/>
<path d="M76.5815 205.585L73.3008 209.733L105.468 235.138L108.749 230.99L76.5815 205.585Z" fill="#7D7D7D"/>
<path d="M84.5937 195.443L78.9453 202.588L111.107 228L116.755 220.855L84.5937 195.443Z" fill="#7D7D7D"/>
<path d="M305.633 272.395L300.224 279.255C295.94 284.688 290.856 285.966 285.354 281.629C279.852 277.293 279.884 272.363 284.033 266.823L289.549 259.827C292.815 255.685 297.673 253.016 303.991 257.996C309.697 262.493 308.9 268.253 305.633 272.395ZM266.156 300.527L320.723 272.396L325.411 276.091L270.979 304.328L266.156 300.527ZM296.852 264.813L290.64 272.691C289.622 273.981 289.601 274.846 290.28 275.382C290.96 275.917 291.621 275.777 292.799 274.283L298.958 266.473C299.975 265.183 299.889 264.454 299.278 263.972C298.598 263.437 297.87 263.523 296.852 264.813ZM308.356 309.451L302.947 316.31C298.663 321.743 293.579 323.022 288.077 318.685C282.574 314.348 282.714 309.283 286.755 303.878L292.271 296.883C295.377 292.944 300.396 290.072 306.714 295.052C312.419 299.549 311.623 305.308 308.356 309.451ZM299.575 301.869L293.363 309.747C292.345 311.037 292.324 311.902 293.004 312.437C293.683 312.973 294.344 312.833 295.522 311.339L301.681 303.529C302.698 302.238 302.612 301.509 302.001 301.028C301.321 300.492 300.592 300.579 299.575 301.869Z" fill="white"/>
<path d="M263.39 321.186C257.59 328.541 252.631 329.469 248.924 326.547C244.492 323.054 246.454 316.993 250.678 311.636C254.88 306.308 260.625 303.37 264.941 306.772C269.662 310.493 266.907 316.726 263.39 321.186ZM254.571 314.799C251.077 319.229 250.136 322.15 251.672 323.36C253.265 324.616 256.157 322.199 259.285 318.232C261.979 314.815 263.901 311.306 262.192 309.959C260.686 308.771 257.883 310.6 254.571 314.799Z" fill="white"/>
<path d="M273.215 313.67L281.702 320.359L279.099 323.661L274.406 319.962L270.456 324.972L274.858 328.442L272.37 331.598L267.967 328.128L261.619 336.179L257.824 333.188L273.215 313.67Z" fill="white"/>
<path d="M284.57 322.62L293.057 329.309L290.454 332.61L285.762 328.912L281.811 333.922L286.214 337.392L283.725 340.548L279.322 337.078L272.974 345.128L269.18 342.137L284.57 322.62Z" fill="white"/>
<path d="M72.6038 178.102C73.4209 178.871 77.6331 182.73 73.8356 187.546C69.9445 192.48 65.1615 189.629 60.4967 185.952C54.8757 181.522 52.8633 177.263 56.0481 173.225C59.6771 168.622 63.9069 171.377 65.3511 172.401L62.9274 175.475C62.2991 175.058 60.1561 173.435 58.6459 175.35C57.1072 177.302 59.1213 179.659 63.094 182.79C66.3676 185.371 69.6972 187.466 71.2852 185.452C72.7453 183.6 70.7661 181.799 70.1618 181.198L72.6038 178.102Z" fill="#FE5233"/>
<path d="M78.9765 162.294C85.3241 167.297 86.7274 171.2 83.5727 175.201C80.626 178.938 76.467 178.614 70.0425 173.55C63.7792 168.613 62.9273 164.504 65.7504 160.924C68.733 157.142 72.9497 157.543 78.9765 162.294ZM72.5269 170.341C76.6455 173.587 79.5878 174.893 81.0239 173.072C82.5361 171.155 80.6989 168.818 76.4054 165.434C72.372 162.255 69.8116 161.182 68.3247 163.067C66.8604 164.925 68.6584 167.291 72.5269 170.341Z" fill="#FE5233"/>
<path d="M74.6996 150.138L86.643 159.552C88.0649 160.673 90.0319 161.65 91.5383 159.739C92.9959 157.891 91.8861 156.374 90.2176 155.059L78.2548 145.63L80.7094 142.517L92.7205 151.984C95.837 154.441 97.4113 157.653 94.1051 161.846C90.8512 165.972 87.521 165.297 84.2521 162.72L72.2422 153.254L74.6996 150.138Z" fill="#FE5233"/>
<path d="M82.8711 139.786L86.9883 134.565C89.2497 131.697 92.662 130.905 96.1066 133.62C99.4602 136.263 99.7078 139.613 97.0975 142.923L95.6243 144.791L102.685 150.356L100.23 153.469L82.8711 139.786ZM93.1299 142.825L94.3263 141.308C95.6861 139.583 95.4344 138.147 93.6016 136.703C91.8655 135.334 90.2937 135.549 89.17 136.974L87.8425 138.657L93.1299 142.825Z" fill="#FE5233"/>
<path d="M109.684 123.354C116.031 128.358 117.434 132.261 114.28 136.261C111.333 139.999 107.174 139.674 100.75 134.61C94.4863 129.674 93.6344 125.565 96.4574 121.985C99.4398 118.202 103.656 118.604 109.684 123.354ZM103.234 131.401C107.353 134.647 110.295 135.954 111.731 134.133C113.243 132.215 111.406 129.879 107.112 126.495C103.079 123.316 100.519 122.242 99.0318 124.128C97.5672 125.985 99.3654 128.352 103.234 131.401Z" fill="#FE5233"/>
<path d="M120.41 127.868L103.051 114.186L105.834 110.656C118.257 114.629 120.63 115.382 121.645 115.844L121.666 115.818C119.464 114.323 116.904 112.315 114.059 110.073L109.271 106.298L111.461 103.521L128.82 117.204L126.15 120.588C113 116.233 110.637 115.437 109.664 115.034L109.643 115.06C111.883 116.618 114.442 118.629 117.553 121.081L122.615 125.071L120.41 127.868Z" fill="#FE5233"/>
<path d="M137.491 267.305L127.297 280.2L254.954 381.069L265.148 368.174L137.491 267.305Z" fill="#FFCCA1"/>
<path d="M246.606 172.89L244.372 178.922L249.42 182.91L242.991 182.65L240.757 188.682L239.018 182.489L232.59 182.228L237.944 178.661L236.205 172.468L241.253 176.457L246.606 172.89Z" fill="white"/>
<path d="M264.173 186.77L261.939 192.802L266.986 196.79L260.558 196.53L258.324 202.561L256.585 196.369L250.156 196.108L255.51 192.541L253.772 186.348L258.819 190.337L264.173 186.77Z" fill="white"/>
<path d="M281.739 200.649L279.505 206.681L284.552 210.669L278.124 210.409L275.89 216.441L274.151 210.248L267.723 209.987L273.076 206.421L271.338 200.228L276.385 204.216L281.739 200.649Z" fill="white"/>
<path d="M299.302 214.529L297.068 220.561L302.115 224.549L295.687 224.288L293.452 230.321L291.714 224.127L285.285 223.867L290.639 220.3L288.9 214.107L293.948 218.096L299.302 214.529Z" fill="white"/>
<path d="M316.86 228.408L314.626 234.44L319.674 238.428L313.245 238.168L311.011 244.2L309.272 238.007L302.844 237.747L308.198 234.179L306.459 227.987L311.507 231.975L316.86 228.408Z" fill="white"/>
<path d="M334.438 242.288L332.204 248.32L337.252 252.308L330.823 252.047L328.589 258.079L326.85 251.887L320.422 251.626L325.776 248.059L324.037 241.866L329.085 245.855L334.438 242.288Z" fill="white"/>
<path d="M175.841 270.716L162.832 260.429L205.339 206.694L194.419 203.23L205.346 189.416L219.329 192.911L230.44 201.696L175.841 270.716Z" fill="white"/>
<path d="M198.428 281.284C197.656 275.041 199.698 268.85 204.555 262.71L229.376 231.333C234.282 225.131 239.857 221.707 246.104 221.064C252.349 220.421 258.827 222.752 265.538 228.059C272.28 233.389 276.056 239.153 276.866 245.348C277.676 251.544 275.615 257.76 270.683 263.994L245.863 295.371C240.956 301.574 235.379 304.997 229.135 305.639C222.888 306.283 216.411 303.951 209.7 298.645C202.958 293.314 199.201 287.527 198.428 281.284ZM227.528 288.012C230.176 287.2 232.828 285.117 235.481 281.762L255.045 257.03C257.698 253.676 259.115 250.617 259.295 247.853C259.475 245.089 258.251 242.668 255.624 240.59C252.996 238.513 250.358 237.881 247.71 238.692C245.061 239.505 242.409 241.588 239.756 244.942L220.192 269.673C217.539 273.028 216.122 276.088 215.942 278.851C215.763 281.616 216.986 284.035 219.614 286.113C222.241 288.19 224.879 288.824 227.528 288.012Z" fill="white"/>
<path d="M201.781 136.866L201.828 136.858L183.188 33.137L201.781 136.866Z" fill="white"/>
<path d="M225.672 145.491L232.129 144.331L234.815 143.844L241.272 142.684L243.96 142.204L250.415 141.037L253.104 140.557L259.56 139.397L262.247 138.91L268.704 137.75L271.39 137.263L277.839 136.104L280.535 135.623L286.982 134.457L289.671 133.978L296.127 132.818L298.814 132.331L305.271 131.171L307.958 130.683L314.414 129.523L317.102 129.044L323.558 127.877L326.246 127.397L332.702 126.237L335.389 125.75L341.838 124.591L344.532 124.103L350.981 122.944L353.669 122.465L360.125 121.297L362.813 120.818L369.27 119.658L371.956 119.17L377.229 118.222C377.112 117.475 377.061 116.732 377.084 116C377.18 110.057 381.469 104.82 387.549 103.728L368.948 0L364.371 0.816635C364.963 4.13157 362.754 7.29839 359.439 7.88976C356.116 8.48253 352.948 6.2749 352.357 2.95996L345.993 4.09509C346.584 7.40975 344.376 10.5768 341.06 11.1682C337.745 11.7596 334.577 9.55168 333.986 6.23702L327.622 7.37217C328.214 10.6871 326.005 13.8539 322.69 14.4453C319.375 15.0367 316.199 12.8301 315.608 9.51549L309.251 10.6492C309.843 13.9642 307.634 17.131 304.311 17.7238C300.996 18.3151 297.828 16.1072 297.237 12.7926L290.873 13.9277C291.464 17.2426 289.256 20.4095 285.94 21.0008C282.625 21.5922 279.458 19.3843 278.866 16.0696L272.502 17.205C273.093 20.52 270.885 23.6868 267.57 24.2782C264.247 24.871 261.079 22.663 260.487 19.3484L254.131 20.4821C254.723 23.7971 252.507 26.9653 249.191 27.5566C245.876 28.148 242.708 25.9401 242.117 22.6254L235.753 23.7609C236.344 27.0758 234.136 30.2426 230.821 30.834C227.505 31.4254 224.338 29.2175 223.746 25.9028L217.382 27.0379C217.973 30.3526 215.765 33.5197 212.442 34.1125C209.127 34.7038 205.959 32.4959 205.367 29.1813L199.003 30.3164C199.595 33.6311 197.386 36.7982 194.071 37.3895C190.756 37.9809 187.588 35.773 186.996 32.4583L183.188 33.1377L201.828 136.858C208.604 135.674 215.067 140.083 216.47 146.762L216.48 146.817C216.507 146.925 216.525 147.027 216.545 147.137L222.985 145.979L225.672 145.491Z" fill="#AEFFA0"/>
<path d="M349.743 68.4768L341.5 69.9493L348.71 110.291L356.953 108.819L349.743 68.4768Z" fill="#7D7D7D"/>
<path d="M337.929 70.5876L327.227 72.4995L334.437 112.841L345.139 110.93L337.929 70.5876Z" fill="#7D7D7D"/>
<path d="M324.337 73.0137L316.816 74.3572L324.027 114.699L331.547 113.356L324.337 73.0137Z" fill="#7D7D7D"/>
<path d="M314.938 74.6926L308.863 75.7777L316.074 116.12L322.148 115.035L314.938 74.6926Z" fill="#7D7D7D"/>
<path d="M306.114 76.2722L298.883 77.5641L306.093 117.906L313.324 116.614L306.114 76.2722Z" fill="#7D7D7D"/>
<path d="M296.854 77.9251L287.309 79.6303L294.519 119.972L304.064 118.267L296.854 77.9251Z" fill="#7D7D7D"/>
<path d="M284.418 80.1494L278.055 81.2863L285.265 121.628L291.629 120.491L284.418 80.1494Z" fill="#7D7D7D"/>
<path d="M275.741 81.6973L266.195 83.4026L273.406 123.744L282.951 122.039L275.741 81.6973Z" fill="#7D7D7D"/>
<path d="M264.029 83.791L262.582 84.0495L269.792 124.392L271.239 124.133L264.029 83.791Z" fill="#7D7D7D"/>
<path d="M259.687 84.5634L249.273 86.4236L256.484 126.766L266.897 124.905L259.687 84.5634Z" fill="#7D7D7D"/>
<path d="M235.101 88.9575L229.895 89.8872L237.108 130.229L242.315 129.299L235.101 88.9575Z" fill="#7D7D7D"/>
<path d="M247.83 86.6855L238.863 88.2874L246.074 128.629L255.04 127.027L247.83 86.6855Z" fill="#7D7D7D"/>
<path d="M429.446 336.629L392.089 128.757L392.026 128.768C385.106 130.003 378.502 125.4 377.267 118.481C377.253 118.403 377.238 118.317 377.232 118.237C377.112 117.485 377.06 116.736 377.083 115.999L371.567 116.992L371.956 119.17L369.269 119.657L368.879 117.471L362.423 118.631L362.813 120.817L360.125 121.297L359.736 119.118L353.279 120.278L353.669 122.464L350.981 122.944L350.592 120.766L344.136 121.925C344.14 121.95 344.492 123.882 344.532 124.102L341.837 124.591L341.447 122.405L334.991 123.565C334.995 123.588 335.36 125.59 335.389 125.749L332.702 126.237C332.673 126.077 332.306 124.064 332.304 124.052L325.855 125.21L326.245 127.397L323.557 127.876C323.529 127.72 323.163 125.711 323.161 125.699L316.712 126.858L317.102 129.043L314.414 129.523C314.384 129.359 314.018 127.351 314.016 127.338L307.567 128.497L307.957 130.683L305.271 131.17L304.88 128.984L298.424 130.144L298.814 132.33L296.127 132.817L295.737 130.631L289.28 131.791L289.671 133.977L286.982 134.457L286.592 132.271L280.136 133.431C280.137 133.44 280.52 135.538 280.535 135.623L277.839 136.104L277.449 133.918L270.992 135.078C270.996 135.1 271.361 137.103 271.39 137.262L268.703 137.75C268.688 137.666 268.306 135.57 268.305 135.565L261.849 136.725C261.853 136.748 262.218 138.75 262.247 138.91L259.56 139.397C259.545 139.314 259.161 137.21 259.161 137.205L252.712 138.363L253.103 140.557L250.415 141.036C250.386 140.877 250.019 138.864 250.017 138.852L243.569 140.01L243.96 142.204L241.272 142.684L240.882 140.498L234.425 141.658L234.815 143.844L232.129 144.331L231.737 142.137L225.281 143.297L225.672 145.491L222.985 145.978L222.594 143.785L215.955 144.977C216.288 145.895 216.496 146.902 216.538 147.145C216.538 147.145 216.543 147.144 216.546 147.143C216.546 147.143 216.546 147.143 216.547 147.151C217.778 154.047 213.21 160.626 206.328 161.894L243.686 369.765L429.446 336.629Z" fill="#82DC74"/>
<path d="M359.031 297.955L350.922 299.414C344.5 300.57 340.112 298.293 338.941 291.792C337.771 285.291 340.878 281.831 347.272 280.515L355.541 279.028C360.439 278.147 365.536 279.301 366.88 286.765C368.093 293.508 363.928 297.074 359.031 297.955ZM313.57 293.125L369.681 307.392L370.677 312.93L314.596 298.823L313.57 293.125ZM357.577 287.113L348.264 288.789C346.739 289.064 346.183 289.66 346.327 290.463C346.472 291.266 347.026 291.581 348.792 291.263L358.024 289.602C359.55 289.327 359.945 288.759 359.815 288.037C359.67 287.234 359.102 286.839 357.577 287.113ZM337.771 325.811L329.662 327.27C323.239 328.425 318.851 326.149 317.681 319.648C316.511 313.146 319.778 309.658 326.012 308.371L334.281 306.883C338.937 306.045 344.276 307.156 345.62 314.621C346.833 321.363 342.668 324.93 337.771 325.811ZM336.316 314.969L327.004 316.644C325.478 316.919 324.922 317.516 325.067 318.319C325.211 319.121 325.765 319.436 327.532 319.118L336.764 317.457C338.289 317.182 338.685 316.614 338.555 315.892C338.41 315.089 337.842 314.694 336.316 314.969Z" fill="white"/>
<path d="M298.695 305.975C290 307.539 285.92 305.093 285.131 300.713C284.188 295.477 289.364 292.425 295.697 291.286C301.996 290.153 307.889 291.672 308.806 296.771C309.81 302.35 303.967 305.027 298.695 305.975ZM296.467 295.952C291.229 296.895 288.738 298.368 289.064 300.182C289.403 302.064 292.956 302.167 297.646 301.323C301.685 300.597 305.237 299.321 304.873 297.302C304.553 295.523 301.43 295.06 296.467 295.952Z" fill="white"/>
<path d="M310.334 306.815L312.139 316.842L308.237 317.545L307.239 312L301.317 313.066L302.253 318.268L298.522 318.939L297.585 313.737L288.069 315.449L287.262 310.965L310.334 306.815Z" fill="white"/>
<path d="M312.74 320.231L314.545 330.26L310.643 330.961L309.645 325.417L303.723 326.483L304.659 331.685L300.928 332.356L299.992 327.154L290.475 328.866L289.668 324.383L312.74 320.231Z" fill="white"/>
<path d="M250.41 65.7661C250.512 66.8831 251.104 72.5644 245.068 73.6505C238.882 74.7634 237.194 69.4577 236.142 63.6133C234.874 56.5702 236.193 52.0489 241.256 51.1381C247.025 50.1002 248.363 54.9668 248.765 56.6905L244.912 57.3838C244.718 56.6554 244.191 54.0198 241.79 54.4519C239.344 54.8919 239.287 57.9919 240.183 62.9696C240.921 67.0713 242.023 70.8473 244.547 70.3932C246.869 69.9756 246.582 67.3152 246.529 66.4646L250.41 65.7661Z" fill="#FE5233"/>
<path d="M265.665 58.1591C267.096 66.1127 265.557 69.9641 260.542 70.8665C255.858 71.7093 252.96 68.709 251.511 60.6591C250.099 52.8117 252.187 49.1713 256.675 48.3638C261.416 47.511 264.305 50.6077 265.665 58.1591ZM255.5 59.9048C256.428 65.0655 257.764 67.9939 260.047 67.5833C262.45 67.1509 262.625 64.1843 261.657 58.8048C260.747 53.7511 259.543 51.25 257.179 51.6751C254.852 52.0939 254.627 55.0577 255.5 59.9048Z" fill="#FE5233"/>
<path d="M270.531 46.2285L273.225 61.1933C273.545 62.975 274.37 65.01 276.764 64.5793C279.082 64.1625 279.257 62.2914 278.881 60.2007L276.183 45.2117L280.085 44.5098L282.794 59.5593C283.496 63.4645 282.543 66.9125 277.288 67.858C272.115 68.7885 270.071 66.075 269.334 61.9793L266.625 46.9313L270.531 46.2285Z" fill="#FE5233"/>
<path d="M283.508 43.8936L290.053 42.7161C293.648 42.0693 296.727 43.7388 297.504 48.0547C298.261 52.2567 296.224 54.9276 292.074 55.6741L289.732 56.0953L291.325 64.9417L287.423 65.6437L283.508 43.8936ZM289.17 52.97L291.072 52.6278C293.233 52.2388 293.998 50.9971 293.584 48.7009C293.193 46.5256 291.874 45.6441 290.088 45.9654L287.977 46.3451L289.17 52.97Z" fill="#FE5233"/>
<path d="M314.473 49.3768C315.905 57.3303 314.366 61.1818 309.351 62.0842C304.666 62.9269 301.769 59.9266 300.32 51.8768C298.907 44.0291 300.996 40.3889 305.484 39.5815C310.225 38.7287 313.114 41.825 314.473 49.3768ZM304.308 51.1222C305.237 56.2828 306.572 59.2116 308.855 58.801C311.259 58.3686 311.434 55.4016 310.465 50.0225C309.556 44.9687 308.351 42.4676 305.988 42.8928C303.66 43.3115 303.436 46.2751 304.308 51.1222Z" fill="#FE5233"/>
<path d="M319.513 59.8707L315.598 38.1203L320.022 37.3243C326.684 48.5348 327.96 50.672 328.414 51.691L328.446 51.6852C327.79 49.1056 327.206 45.9057 326.565 42.3412L325.485 36.3414L328.966 35.715L332.881 57.4653L328.638 58.2288C321.685 46.249 320.445 44.0875 319.984 43.1401L319.951 43.1459C320.595 45.7968 321.175 48.9992 321.876 52.8967L323.018 59.2397L319.513 59.8707Z" fill="#FE5233"/>
<path d="M239.737 175.536L223.555 178.427L252.174 338.556L268.357 335.665L239.737 175.536Z" fill="#AEFFA0"/>
<path d="M384.283 175.072L378.609 178.104L379.741 184.436L375.103 179.979L369.429 183.011L372.236 177.224L367.598 172.766L373.971 173.647L376.778 167.859L377.91 174.191L384.283 175.072Z" fill="white"/>
<path d="M388.224 197.106L382.551 200.139L383.682 206.471L379.044 202.014L373.37 205.046L376.177 199.258L371.539 194.801L377.912 195.682L380.719 189.894L381.851 196.226L388.224 197.106Z" fill="white"/>
<path d="M392.158 219.141L386.484 222.174L387.616 228.506L382.978 224.049L377.304 227.082L380.111 221.294L375.473 216.836L381.846 217.717L384.653 211.929L385.785 218.261L392.158 219.141Z" fill="white"/>
<path d="M396.099 241.176L390.426 244.209L391.557 250.541L386.919 246.084L381.245 249.116L384.052 243.329L379.414 238.871L385.787 239.752L388.594 233.964L389.726 240.296L396.099 241.176Z" fill="white"/>
<path d="M400.037 263.211L394.363 266.244L395.495 272.576L390.857 268.119L385.183 271.152L387.99 265.364L383.352 260.906L389.725 261.787L392.532 255.999L393.664 262.331L400.037 263.211Z" fill="white"/>
<path d="M403.978 285.246L398.304 288.279L399.436 294.611L394.798 290.153L389.124 293.186L391.931 287.399L387.293 282.941L393.666 283.822L396.473 278.034L397.605 284.366L403.978 285.246Z" fill="white"/>
<path d="M263.43 179.535C264.813 175.457 267.26 171.948 270.773 169.007C274.284 166.066 278.69 163.938 283.988 162.625L284.047 162.614L286.959 178.934L286.899 178.945C283.778 179.829 281.479 181.242 280.003 183.186C278.525 185.129 278.021 187.411 278.489 190.032C278.999 192.891 280.326 194.938 282.474 196.174C284.62 197.409 287.401 197.723 290.817 197.114L298.085 195.818C301.501 195.208 304.007 194.034 305.602 192.296C307.198 190.556 307.768 188.416 307.315 185.875C306.897 183.532 305.945 181.642 304.459 180.208C302.974 178.772 301.102 177.928 298.844 177.675L296.124 162.427L345.93 153.545L354.229 200.063L338.501 202.868L333.113 172.67L317.802 175.401C319.213 176.419 320.455 177.928 321.53 179.929C322.603 181.929 323.329 183.981 323.704 186.087C324.505 190.573 324.157 194.599 322.662 198.164C321.167 201.729 318.583 204.7 314.909 207.075C311.234 209.452 306.597 211.139 300.997 212.138L293.729 213.434C288.129 214.433 283.163 214.283 278.834 212.986C274.504 211.689 270.957 209.321 268.192 205.88C265.427 202.44 263.562 198.02 262.599 192.62C261.77 187.974 262.046 183.613 263.43 179.535Z" fill="white"/>
<path d="M277.453 238.131C281.016 232.948 286.649 229.669 294.355 228.295L333.735 221.272C341.519 219.884 347.961 221.019 353.061 224.678C358.16 228.337 361.461 234.375 362.963 242.794C364.472 251.252 363.475 258.067 359.972 263.24C356.468 268.412 350.804 271.696 342.98 273.092L303.6 280.114C295.816 281.503 289.373 280.367 284.274 276.708C279.174 273.049 275.875 267.011 274.373 258.593C272.864 250.135 273.891 243.314 277.453 238.131ZM294.763 262.454C297.283 263.603 300.649 263.802 304.859 263.051L335.898 257.516C340.108 256.765 343.197 255.415 345.165 253.466C347.132 251.517 347.823 248.895 347.235 245.6C346.646 242.303 345.092 240.082 342.572 238.933C340.052 237.785 336.686 237.586 332.477 238.337L301.437 243.872C297.227 244.623 294.138 245.972 292.171 247.921C290.203 249.87 289.513 252.492 290.101 255.788C290.689 259.083 292.243 261.306 294.763 262.454Z" fill="white"/>
<path d="M455.791 313.405C455.791 313.405 406.93 344.577 378.912 356.526C363.888 362.933 236.521 375.67 236.521 375.67L234.477 354.969L353.392 320.94L422.678 259.685C459.948 238.908 496.886 285.159 455.791 313.405Z" fill="#FFA68C"/>
<path d="M446.266 325.773C446.266 325.773 447.476 303.229 434.834 288.363C422.192 273.496 407.207 272.223 407.207 272.223C407.207 272.223 448.029 224.305 474.529 257.887C500.274 290.513 446.266 325.773 446.266 325.773Z" fill="#E4C42F"/>
<path d="M438.791 324.323C438.791 324.323 440.623 327.727 444.361 327.812C448.098 327.898 450.906 324.362 450.906 324.362C450.906 324.362 458.473 307.225 443.766 286.261C429.059 265.296 411.456 265.801 408.199 267.129C404.942 268.456 401.199 274.331 402.688 275.888C402.688 275.888 418.018 274.254 431.041 292.117C444.064 309.981 440.758 323.077 438.791 324.323Z" fill="white"/>
<path d="M246.188 353.233C246.188 353.233 208.046 346.869 206.729 351.288C205.413 355.706 209.601 357.504 209.601 357.504C209.601 357.504 197.738 357.201 200.321 361.982C202.904 366.764 226.592 381.859 229.699 381.596C232.806 381.333 250.457 374.235 250.457 374.235L246.188 353.233Z" fill="#FFA68C"/>
</svg>
