<svg width="24" height="22" fill="none" xmlns="http://www.w3.org/2000/svg"><path d="M22.342 3.568h-8.76v2.703h2.022a.675.675 0 0 1 0 1.351h-2.022v1.352h2.022a.675.675 0 0 1 0 1.35h-2.022v1.352h2.022a.675.675 0 0 1 0 1.351h-2.022v1.352h2.022a.675.675 0 0 1 0 1.351h-2.022v2.703h8.76a.675.675 0 0 0 .674-.676V4.244a.675.675 0 0 0-.674-.676ZM19.647 15.73h-1.348a.675.675 0 0 1 0-1.351h1.348a.675.675 0 0 1 0 1.351Zm0-2.703h-1.348a.675.675 0 0 1 0-1.35h1.348a.675.675 0 0 1 0 1.35Zm0-2.702h-1.348a.675.675 0 0 1 0-1.351h1.348a.675.675 0 0 1 0 1.35Zm0-2.703h-1.348a.675.675 0 0 1 0-1.351h1.348a.675.675 0 0 1 0 1.351ZM12.87 1.021a.66.66 0 0 0-.555-.143L1.535 2.905a.674.674 0 0 0-.55.663v14.865c0 .324.23.604.55.663l10.78 2.027a.67.67 0 0 0 .554-.143.676.676 0 0 0 .244-.52V1.541a.675.675 0 0 0-.244-.521Zm-2.682 13.19a.67.67 0 0 1-.95-.064l-1.96-2.245-1.718 2.216a.67.67 0 0 1-.948.119.678.678 0 0 1-.117-.949l1.879-2.421L4.52 8.742a.676.676 0 0 1 .063-.952.669.669 0 0 1 .95.064L7.216 9.78l1.996-2.573a.674.674 0 1 1 1.063.832L8.12 10.817l2.131 2.441a.676.676 0 0 1-.063.953Z" fill="#fff"/></svg>