<svg width="22" height="22" fill="none" xmlns="http://www.w3.org/2000/svg"><path d="m13.532 8.47-5.06 5.06a3.576 3.576 0 1 1 5.06-5.06Z" stroke="#19191B" stroke-width="1.5" stroke-linecap="round" stroke-linejoin="round"/><path d="M16.82 4.77C15.07 3.45 13.07 2.73 11 2.73c-3.53 0-6.82 2.08-9.11 5.68-.9 1.41-.9 3.78 0 5.19.79 1.24 1.71 2.31 2.71 3.17m2.822 1.76c1.14.48 2.35.74 3.58.74 3.53 0 6.82-2.08 9.11-5.68.9-1.41.9-3.78 0-5.19-.33-.52-.69-1.01-1.06-1.47" stroke="#19191B" stroke-width="1.5" stroke-linecap="round" stroke-linejoin="round"/><path d="M14.511 11.7a3.565 3.565 0 0 1-2.82 2.82m-3.221-.99L1 21M21.001 1l-7.47 7.47" stroke="#19191B" stroke-width="1.5" stroke-linecap="round" stroke-linejoin="round"/></svg>