<svg width="200" height="66" viewBox="0 0 200 66" fill="none" xmlns="http://www.w3.org/2000/svg">
<path d="M49.1222 23.2368H25.8082V30.1853H42.3428C41.526 39.929 33.4548 44.0844 25.8362 44.0844C16.089 44.0844 7.5834 36.3816 7.5834 25.5852C7.5834 15.068 15.6914 6.96821 25.8576 6.96821C33.701 6.96821 38.3228 11.9901 38.3228 11.9901L43.1668 6.95194C43.1668 6.95194 36.9494 2.47243e-09 25.61 2.47243e-09C11.1706 -0.000200874 0 12.24 0 25.4611C0 38.4162 10.5078 51.0488 25.978 51.0488C39.5842 51.0488 49.544 41.6871 49.544 27.8435C49.544 24.923 49.1218 23.235 49.1218 23.235L49.1222 23.2368Z" fill="#4885ED"/>
<path d="M68.2191 18.2046C58.6527 18.2046 51.7969 25.7164 51.7969 34.4772C51.7969 43.3676 58.4467 51.019 68.3315 51.019C77.2799 51.019 84.6109 44.1496 84.6109 34.6682C84.6109 23.8012 76.0833 18.2046 68.2191 18.2046ZM68.3142 24.6493C73.0186 24.6493 77.4766 28.4694 77.4766 34.6248C77.4766 40.6497 73.0376 44.5787 68.2926 44.5787C63.079 44.5787 58.966 40.3848 58.966 34.577C58.966 28.8938 63.028 24.6493 68.3142 24.6493Z" fill="#DB3236"/>
<path d="M103.938 18.2046C94.3714 18.2046 87.5156 25.7164 87.5156 34.4772C87.5156 43.3676 94.1654 51.019 104.05 51.019C112.999 51.019 120.33 44.1496 120.33 34.6682C120.33 23.8012 111.802 18.2046 103.938 18.2046ZM104.033 24.6493C108.737 24.6493 113.195 28.4694 113.195 34.6248C113.195 40.6497 108.756 44.5787 104.011 44.5787C98.7977 44.5787 94.6847 40.3848 94.6847 34.577C94.6847 28.8938 98.7468 24.6493 104.033 24.6493Z" fill="#F4C20D"/>
<path d="M138.968 18.2219C130.187 18.2219 123.285 25.9462 123.285 34.6161C123.285 44.4918 131.287 51.0407 138.817 51.0407C143.472 51.0407 145.948 49.1845 147.776 47.0539V50.2893C147.776 55.95 144.354 59.3398 139.189 59.3398C134.199 59.3398 131.696 55.6133 130.826 53.4987L124.548 56.1348C126.775 60.8648 131.259 65.7975 139.241 65.7975C147.971 65.7975 154.625 60.2744 154.625 48.6911V19.2084H147.776V21.9878C145.67 19.7084 142.79 18.2223 138.968 18.2223V18.2219ZM139.604 24.6536C143.909 24.6536 148.329 28.3457 148.329 34.6508C148.329 41.0596 143.918 44.5916 139.508 44.5916C134.827 44.5916 130.471 40.7739 130.471 34.7117C130.471 28.4126 134.995 24.6536 139.603 24.6536H139.604Z" fill="#4885ED"/>
<path d="M185.077 18.1826C176.794 18.1826 169.84 24.8015 169.84 34.5681C169.84 44.9026 177.592 51.0318 185.873 51.0318C192.784 51.0318 197.026 47.234 199.558 43.8313L193.911 40.0575C192.446 42.3416 189.996 44.574 185.907 44.574C181.315 44.574 179.203 42.0482 177.895 39.6015L199.799 30.4728L198.662 27.7976C196.546 22.5587 191.61 18.1836 185.078 18.1836L185.077 18.1826ZM185.363 24.4928C188.347 24.4928 190.495 26.0865 191.407 27.9974L176.78 34.1382C176.149 29.3841 180.633 24.4928 185.363 24.4928Z" fill="#DB3236"/>
<path d="M159.398 50.0578H166.593V1.69678H159.398V50.0578Z" fill="#3CBA54"/>
</svg>
