<svg width="40" height="30" fill="none" xmlns="http://www.w3.org/2000/svg"><path d="M25.769 29.175c-1.29-.865-2.379-2.083-3.265-3.654-.887-1.572-1.17-2.869-.847-3.89a24.626 24.626 0 0 1 1.21-5.07 64.449 64.449 0 0 0 1.693-4.596c.483-1.808 1.45-3.655 2.902-5.54 1.532-1.965 2.983-3.694 4.354-5.187-.08-.315.161-.511.726-.59.564-.078 1.29-.275 2.177-.59.887-.078 1.895-.078 3.023 0 1.13 0 1.855.747 2.177 2.24.162.55.081 1.062-.241 1.533-.242.393-.565.904-.968 1.532a246.919 246.919 0 0 1-3.386 5.07c-1.21 1.885-2.016 3.418-2.42 4.597 0 .314-.04.589-.12.825 1.37-.236 2.781.235 4.233 1.414 1.532 1.415 1.935 3.3 1.21 5.658-.726 2.358-2.137 4.244-4.234 5.659-1.451.864-2.822 1.335-4.112 1.414-1.29 0-2.66-.275-4.112-.825Zm-21.528 0c-1.29-.865-2.378-2.083-3.265-3.654-.887-1.572-1.17-2.869-.847-3.89a24.625 24.625 0 0 1 1.21-5.07 64.425 64.425 0 0 0 1.693-4.596c.483-1.808 1.451-3.655 2.902-5.54C7.466 4.46 8.918 2.73 10.288 1.237c-.08-.315.162-.511.726-.59.564-.078 1.29-.275 2.177-.59.887-.078 1.895-.078 3.024 0 1.128 0 1.814.747 2.055 2.24.162.55.081 1.062-.241 1.533-.242.393-.565.904-.968 1.532a247.744 247.744 0 0 1-3.386 5.07c-1.21 1.885-2.016 3.418-2.42 4.597 0 .314-.04.589-.12.825 1.37-.236 2.782.235 4.233 1.414 1.532 1.415 1.935 3.3 1.21 5.658-.646 2.358-2.016 4.244-4.113 5.659-1.451.864-2.822 1.335-4.112 1.414-1.29 0-2.66-.275-4.112-.825Z" fill="#7D7D7D"/></svg>