<svg width="167" height="32" viewBox="0 0 167 32" fill="none" xmlns="http://www.w3.org/2000/svg">
<path d="M46.8796 9.70672V14.554H53.4527V18.1181H46.8796V23.0652H55.4619V26.7719H42V6H55.4619V9.70672H46.8796Z" fill="#19191B"/>
<path d="M77.427 16.3788C77.427 17.8805 77.1639 19.2682 76.6377 20.5418C76.121 21.8058 75.3891 22.9036 74.4419 23.835C73.4946 24.757 72.3513 25.4793 71.0118 26.002C69.6819 26.5153 68.2036 26.7719 66.5771 26.7719H58.454V6H66.5771C68.2036 6 69.6819 6.26137 71.0118 6.78411C72.3513 7.30686 73.4946 8.02919 74.4419 8.95112C75.3891 9.87305 76.121 10.9708 76.6377 12.2444C77.1639 13.5085 77.427 14.8866 77.427 16.3788ZM72.4613 16.3788C72.4613 15.3523 72.3274 14.4257 72.0595 13.5988C71.7916 12.7719 71.4041 12.0733 70.897 11.5031C70.3995 10.9233 69.7871 10.4813 69.06 10.1772C68.3328 9.86354 67.5052 9.70672 66.5771 9.70672H63.3336V23.0652H66.5771C67.5052 23.0652 68.3328 22.9131 69.06 22.609C69.7871 22.2953 70.3995 21.8534 70.897 21.2831C71.4041 20.7033 71.7916 20 72.0595 19.1731C72.3274 18.3462 72.4613 17.4148 72.4613 16.3788Z" fill="#19191B"/>
<path d="M89.0158 22.9654C89.6664 22.9654 90.2453 22.8608 90.7524 22.6517C91.269 22.4331 91.7044 22.1242 92.0584 21.7251C92.4124 21.3259 92.6803 20.8411 92.8621 20.2709C93.0534 19.6911 93.1491 19.0353 93.1491 18.3035V6H98V18.3035C98 19.5771 97.7895 20.7461 97.3685 21.8106C96.9571 22.8751 96.3639 23.7923 95.5889 24.5621C94.8139 25.332 93.8715 25.9308 92.7616 26.3585C91.6517 26.7862 90.4031 27 89.0158 27C87.6189 27 86.3655 26.7862 85.2557 26.3585C84.1458 25.9308 83.2034 25.332 82.4284 24.5621C81.6534 23.7923 81.0602 22.8751 80.6488 21.8106C80.2373 20.7461 80.0316 19.5771 80.0316 18.3035V6H84.8825V18.2892C84.8825 19.021 84.9734 19.6768 85.1552 20.2566C85.3466 20.8269 85.6192 21.3164 85.9732 21.7251C86.3273 22.1242 86.7578 22.4331 87.2649 22.6517C87.7816 22.8608 88.3652 22.9654 89.0158 22.9654Z" fill="#19191B"/>
<rect x="104" width="63" height="32" rx="6" fill="#FE5233"/>
<path d="M120.005 13.7929C120.491 13.2677 121.028 12.8491 121.618 12.537C122.208 12.225 122.888 12.0689 123.657 12.0689C124.277 12.0689 124.822 12.1755 125.292 12.3886C125.77 12.5941 126.166 12.891 126.48 13.2791C126.801 13.6597 127.044 14.1202 127.208 14.6606C127.372 15.201 127.454 15.7985 127.454 16.4531V23.8171H125.449V16.4531C125.449 15.5778 125.251 14.9004 124.856 14.4208C124.467 13.9337 123.874 13.6902 123.074 13.6902C122.484 13.6902 121.932 13.8348 121.417 14.124C120.909 14.4132 120.438 14.8052 120.005 15.3V23.8171H118V6.99976H120.005V13.7929Z" fill="white"/>
<path d="M139.824 12.2516V23.8171H138.637C138.353 23.8171 138.174 23.6763 138.099 23.3947L137.942 22.1502C137.449 22.7058 136.897 23.1549 136.284 23.4974C135.672 23.8323 134.97 23.9998 134.178 23.9998C133.558 23.9998 133.009 23.897 132.531 23.6915C132.061 23.4784 131.665 23.1815 131.344 22.801C131.023 22.4204 130.78 21.9599 130.616 21.4195C130.459 20.8791 130.381 20.2816 130.381 19.627V12.2516H132.375V19.627C132.375 20.5023 132.569 21.1797 132.957 21.6593C133.353 22.1388 133.954 22.3785 134.761 22.3785C135.351 22.3785 135.9 22.2377 136.407 21.9561C136.923 21.6669 137.397 21.2711 137.83 20.7687V12.2516H139.824Z" fill="white"/>
<path d="M144.991 21.0313C145.357 21.5337 145.756 21.8876 146.189 22.0931C146.63 22.2986 147.112 22.4014 147.634 22.4014C148.702 22.4014 149.52 22.017 150.088 21.2482C150.655 20.4795 150.939 19.334 150.939 17.8117C150.939 16.396 150.685 15.357 150.177 14.6949C149.677 14.0251 148.96 13.6902 148.026 13.6902C147.377 13.6902 146.809 13.8424 146.324 14.1468C145.846 14.4513 145.401 14.8813 144.991 15.437V21.0313ZM144.991 13.9185C145.469 13.3553 146.006 12.9062 146.604 12.5713C147.209 12.2364 147.903 12.0689 148.687 12.0689C149.352 12.0689 149.949 12.1983 150.48 12.4571C151.017 12.7159 151.473 13.0927 151.846 13.5874C152.22 14.0745 152.503 14.6682 152.698 15.3685C152.899 16.0687 153 16.8565 153 17.7318C153 18.668 152.888 19.5205 152.664 20.2892C152.44 21.058 152.115 21.7163 151.689 22.2644C151.271 22.8048 150.76 23.2272 150.155 23.5317C149.55 23.8285 148.87 23.9769 148.116 23.9769C147.369 23.9769 146.738 23.8361 146.223 23.5545C145.715 23.2653 145.271 22.8581 144.89 22.3329L144.789 23.3832C144.729 23.6725 144.557 23.8171 144.274 23.8171H142.985V6.99976H144.991V13.9185Z" fill="white"/>
<path d="M27.9614 13.2427C27.4757 13.4743 27.1677 13.9551 27.1677 14.482V20.2452C27.1677 21.6107 26.4341 22.8766 25.2339 23.582L19.0705 27.2045C17.8002 27.9511 16.2102 27.9515 14.9396 27.2055L8.76764 23.5817C7.56662 22.8766 6.83231 21.6102 6.83231 20.244V14.482C6.83231 13.9551 6.52432 13.4743 6.03855 13.2427C5.09771 12.7942 4 13.4616 4 14.482V21.909C4 23.2743 4.73334 24.54 5.93311 25.2454L14.9376 30.54C16.2092 31.2877 17.8013 31.2874 19.0726 30.5393L28.0681 25.2456C29.2672 24.54 30 23.2747 30 21.91V14.482C30 13.4616 28.9023 12.7942 27.9614 13.2427Z" fill="#19191B"/>
<path d="M25 19.3239C25 20.567 24.2846 21.7102 23.1365 22.3018L18.6921 24.592C17.6364 25.136 16.3636 25.136 15.3079 24.592L10.8635 22.3018C9.71535 21.7102 9 20.567 9 19.3239V14.681C9 13.4389 9.71412 12.2966 10.8607 11.7045L15.3051 9.40945C16.3623 8.86352 17.6377 8.86352 18.6949 9.40945L23.1393 11.7045C24.2859 12.2966 25 13.4389 25 14.681V19.3239Z" fill="#FE5233"/>
<path d="M16.24 0.145855L1.28636 6.10658C-0.428789 6.79027 -0.428787 9.20973 1.28636 9.89342L16.24 15.8541C16.7279 16.0486 17.2721 16.0486 17.76 15.8541L32.7136 9.89342C34.4288 9.20973 34.4288 6.79026 32.7136 6.10658L17.76 0.145856C17.2721 -0.0486185 16.7279 -0.0486185 16.24 0.145855Z" fill="#19191B"/>
</svg>
