<svg width="70" height="70" viewBox="0 0 70 70" fill="none" xmlns="http://www.w3.org/2000/svg">
<rect width="70" height="70" rx="35" fill="#A5EBFC"/>
<path d="M45.6374 24.2032L46.0757 22.5299H47.988C48.3466 22.5299 48.6255 22.251 48.6255 21.8924V19.1036C48.6255 18.745 48.3466 18.4661 47.988 18.4661H21.9721C21.6135 18.4661 21.3347 18.745 21.3347 19.1036V21.8924C21.3347 22.251 21.6135 22.5299 21.9721 22.5299H23.8845L24.3227 24.2032C25.4382 28.8247 28.745 32.49 33.2072 34.1235V35.6374C28.7849 37.2709 25.4781 40.9362 24.3227 45.5578L23.7649 47.6295H21.9721C21.6135 47.6295 21.3347 47.9084 21.3347 48.2669V51.0558C21.3347 51.4143 21.6135 51.6932 21.9721 51.6932H47.988C48.3466 51.6932 48.6255 51.4143 48.6255 51.0558V48.2669C48.6255 47.9084 48.3466 47.6295 47.988 47.6295H46.1952L45.6773 45.5179C44.4821 40.9362 41.1753 37.2709 36.753 35.6374V34.1235C41.1753 32.49 44.4821 28.8247 45.6374 24.2032ZM22.6096 19.741H47.3107V21.2151H22.6096V19.741ZM47.3506 50.4183H22.6494V48.9442H47.3506V50.4183ZM35.9562 36.6335C40.2191 38.0279 43.4064 41.494 44.4821 45.8366L44.9203 47.6295H25L25.4382 45.8366C26.5538 41.494 29.741 38.0279 33.9641 36.6335C34.2032 36.5538 34.3625 36.3147 34.3625 36.0757V33.7251C34.3625 33.486 34.2032 33.247 33.9641 33.1673C29.741 31.6932 26.5538 28.2669 25.4781 23.9243L25.1195 22.5299H44.8406L44.4821 23.9243C43.4064 28.2669 40.2191 31.6932 35.9562 33.1275C35.7171 33.2072 35.5578 33.4462 35.5578 33.6852V36.0358C35.5578 36.3147 35.7171 36.5538 35.9562 36.6335Z" fill="#19191B"/>
</svg>
