<svg width="70" height="70" viewBox="0 0 70 70" fill="none" xmlns="http://www.w3.org/2000/svg">
<rect width="70" height="70" rx="35" fill="#EBC4FA"/>
<path d="M45.731 24.2752C43.8493 22.5915 41.4215 21.7413 38.9055 21.8812C36.3852 22.0212 34.0702 23.134 32.387 25.0146C28.912 28.8977 29.2441 34.8841 33.1271 38.3591C34.928 39.9702 37.1796 40.7626 39.4245 40.7626C42.0213 40.7626 44.6078 39.7015 46.4716 37.6189C49.9462 33.7366 49.6141 27.7501 45.731 24.2752ZM45.58 36.8221C42.5455 40.2137 37.3164 40.5039 33.9243 37.4678C30.5323 34.4325 30.2425 29.2038 33.2774 25.8122C34.7478 24.1692 36.7703 23.197 38.9713 23.075C39.128 23.0667 39.2834 23.0623 39.4389 23.0623C41.4713 23.0623 43.4069 23.8001 44.9335 25.1661C48.3255 28.2017 48.6153 33.4305 45.58 36.8221Z" fill="#19191B"/>
<path d="M34.3397 26.7449C34.1193 26.9912 34.1404 27.3691 34.3863 27.5891C34.5007 27.6911 34.643 27.7414 34.7849 27.7414C34.9491 27.7414 35.1126 27.6744 35.2305 27.5421C37.3128 25.2155 40.8985 25.017 43.2251 27.0984C43.471 27.3189 43.8485 27.2977 44.0693 27.0518C44.2894 26.8055 44.2682 26.4276 44.0223 26.2076C41.2043 23.6861 36.8608 23.9276 34.3397 26.7449Z" fill="#19191B"/>
<path d="M52.1428 30.5471C51.94 27.1622 50.4313 24.0596 47.8946 21.8095C45.358 19.5594 42.0999 18.4354 38.7119 18.6351C35.3274 18.838 32.2244 20.3467 29.9747 22.8833C25.4646 27.9682 25.7891 35.6949 30.6065 40.3907L28.5445 42.7432L27.8833 42.1569C27.6365 41.9377 27.2603 41.96 27.041 42.2055L19.8664 50.2232C19.7603 50.3412 19.7061 50.4966 19.7149 50.6549C19.7237 50.8131 19.795 50.9618 19.913 51.0674L22.1671 53.0847C22.2814 53.1867 22.4237 53.237 22.5656 53.237C22.7299 53.237 22.8933 53.1696 23.0113 53.0377L30.1955 45.0096C30.3015 44.8912 30.3561 44.7354 30.347 44.5763C30.3378 44.4181 30.2657 44.269 30.1469 44.1638L29.4394 43.5364L31.5001 41.1855C33.7653 43.0178 36.5463 44.0012 39.4544 44.0012C39.7123 44.0012 39.9718 43.9932 40.2313 43.9776C43.6157 43.7744 46.7188 42.2657 48.9688 39.729C51.2189 37.1924 52.3457 33.9319 52.1428 30.5471ZM22.519 51.7949L21.1562 50.5752L27.5353 43.4467L28.9041 44.6604L22.519 51.7949ZM48.074 38.9358C46.036 41.2337 43.2251 42.6001 40.1595 42.7839C37.0944 42.9728 34.14 41.9464 31.8421 39.9088C27.0988 35.7017 26.6624 28.4198 30.8695 23.6765C32.9075 21.3786 35.7184 20.0122 38.784 19.8285C39.0192 19.8141 39.2535 19.8074 39.4875 19.8074C42.2992 19.8074 44.9801 20.8222 47.1018 22.7039C49.3997 24.7419 50.7661 27.5528 50.9498 30.6184C51.1332 33.6844 50.1116 36.6384 48.074 38.9358Z" fill="#19191B"/>
</svg>
