<svg width="70" height="70" viewBox="0 0 70 70" fill="none" xmlns="http://www.w3.org/2000/svg">
<rect width="70" height="70" rx="35" fill="#FEC4CB"/>
<path d="M37.5498 21.5737V19.8207H39.1833C39.502 19.8207 39.7809 19.5418 39.7809 19.2231V16.3546C39.7809 16.0358 39.502 15.757 39.1833 15.757H32.2112C31.8924 15.757 31.6135 16.0358 31.6135 16.3546V19.2231C31.6135 19.5418 31.8924 19.8207 32.2112 19.8207H33.8446V21.5737C29.9801 22.0119 26.5538 23.8048 23.9641 26.4342L23.2868 25.757L24.4024 24.6414C24.6414 24.4024 24.6414 24.0438 24.4024 23.8048L22.0916 21.494C21.8526 21.255 21.494 21.255 21.255 21.494L18.1076 24.5617C17.8685 24.8008 17.8685 25.1593 18.1076 25.3984L20.4183 27.7091C20.5378 27.8287 20.6972 27.8685 20.8566 27.8685C21.0159 27.8685 21.1753 27.8287 21.2948 27.7091L22.4502 26.5538L23.2072 27.3107C20.8167 30.1394 19.3825 33.8048 19.3825 37.7888C19.3825 46.7928 26.7131 54.1235 35.7171 54.1235C44.7211 54.1235 52.0518 46.7928 52.0518 37.7888C52.0119 29.4223 45.6773 22.49 37.5498 21.5737ZM20.8566 26.4741L19.3825 24.9601L21.6135 22.7291L23.0876 24.2032L22.2112 25.0797C22.0916 25.1992 21.9323 25.3586 21.7729 25.5179L20.8566 26.4741ZM34.4422 18.6255H32.8088V16.9522H38.5857V18.6255H36.9522C36.6335 18.6255 36.3546 18.9044 36.3546 19.2231V21.494C36.1554 21.494 35.9163 21.494 35.7171 21.494C35.5179 21.494 35.2789 21.494 35.0797 21.494V19.2231C35.0398 18.8645 34.761 18.6255 34.4422 18.6255ZM35.6773 52.9283C27.3506 52.9283 20.5378 46.1554 20.5378 37.7888C20.5378 29.4223 27.3108 22.6494 35.6773 22.6494C35.996 22.6494 36.3147 22.6494 36.6335 22.6892C36.7928 22.6892 36.9522 22.7291 37.1116 22.7291C44.8008 23.4462 50.8167 29.9402 50.8167 37.7888C50.8167 46.1554 44.0438 52.9283 35.6773 52.9283Z" fill="#19191B"/>
<path d="M44.2829 27.988C44.243 27.9482 44.2032 27.9084 44.1633 27.8685C41.8924 25.9163 38.9442 24.761 35.7171 24.761C28.506 24.761 22.6892 30.6175 22.6892 37.7888C22.6892 44.9602 28.506 50.8566 35.6773 50.8566C42.8486 50.8566 48.7052 45 48.7052 37.8287C48.745 33.8845 46.992 30.3785 44.2829 27.988ZM35.6773 49.6614C29.1434 49.6614 23.8446 44.3625 23.8446 37.8287C23.8446 31.2948 29.1434 25.996 35.6773 25.996C38.4263 25.996 40.9362 26.9522 42.9283 28.506L36.4741 35.9163C36.2351 35.8367 35.9562 35.757 35.7171 35.757C34.6016 35.757 33.6853 36.6733 33.6853 37.7888C33.6853 38.9044 34.6016 39.8207 35.7171 39.8207C36.8327 39.8207 37.7092 38.9044 37.7092 37.7888C37.7092 37.3904 37.5896 36.992 37.3904 36.6733L43.8845 29.2231C46.1554 31.3745 47.5498 34.4024 47.5498 37.7888C47.5498 44.3227 42.2112 49.6614 35.6773 49.6614ZM36.5139 37.7888C36.5139 38.2669 36.1554 38.6255 35.6773 38.6255C35.1992 38.6255 34.8406 38.2669 34.8406 37.7888C34.8406 37.3506 35.1992 36.9522 35.6773 36.9522C36.1554 36.9522 36.5139 37.3506 36.5139 37.7888Z" fill="#19191B"/>
</svg>
