<svg width="70" height="70" viewBox="0 0 70 70" fill="none" xmlns="http://www.w3.org/2000/svg">
<rect width="70" height="70" rx="35" fill="#FFCCA1"/>
<path d="M46.6374 29.5458V28.4701C47.992 27.6733 48.8685 26.1992 48.8685 24.6056V22.6932C48.8685 20.2231 46.8765 18.2311 44.4064 18.2311C41.9362 18.2311 39.9044 20.2231 39.9044 22.6932V24.6056C39.9044 26.1594 40.7012 27.5936 42.0558 28.3904V29.5458C41.4582 29.7052 40.9004 29.9442 40.3426 30.263C39.4661 28.2311 37.4342 26.7968 35.0837 26.7968C32.7729 26.7968 30.8207 28.1514 29.9044 30.1434C29.3864 29.9044 28.8685 29.6653 28.3506 29.5458V28.4701C29.7052 27.6733 30.5817 26.1992 30.5817 24.6056V22.6932C30.5817 20.2231 28.5896 18.2311 26.1195 18.2311C23.6494 18.2311 21.6574 20.2231 21.6574 22.6932V24.6056C21.6574 26.1594 22.4542 27.5936 23.8088 28.3904V29.5458C20.2231 30.5817 17.7928 33.8088 17.7928 37.5538C17.7928 37.8725 18.0717 38.1514 18.3904 38.1514H30.1833C30.2231 38.1514 30.2629 38.1514 30.3028 38.1514C30.7809 38.9084 31.4582 39.5458 32.255 40.0239V41.8167C27.5139 43.0916 24.2868 47.3546 24.2868 52.2948C24.2868 52.6135 24.5657 52.8924 24.8844 52.8924H45.4024C45.7211 52.8924 46 52.6135 46 52.2948C46 47.3944 42.6135 43.0518 37.9123 41.8167V40.1036C38.749 39.6255 39.4263 38.9881 39.9442 38.1912H52.1753C52.494 38.1912 52.7729 37.9124 52.7729 37.5936C52.7331 33.8486 50.1833 30.5418 46.6374 29.5458ZM18.988 36.996C19.2271 33.8884 21.4582 31.3386 24.5259 30.6215C24.8048 30.5418 25.004 30.3028 25.004 30.0239V28.0319C25.004 27.7928 24.8844 27.5936 24.6852 27.5139C23.5697 26.9562 22.8526 25.8406 22.8526 24.6056V22.6932C22.8526 20.9004 24.3267 19.4263 26.1195 19.4263C27.9123 19.4263 29.3864 20.9004 29.3864 22.6932V24.6056C29.3864 25.8406 28.6295 26.996 27.5139 27.5538C27.3147 27.6335 27.1554 27.8725 27.1554 28.1116V30.0239C27.1554 30.3028 27.3546 30.5418 27.6335 30.6215C28.3107 30.7809 28.9482 31.0199 29.5458 31.3386C29.4661 31.7371 29.4263 32.1355 29.4263 32.5737V35.1235C29.4263 35.761 29.5458 36.3984 29.745 36.996H18.988ZM37.0358 39.1873C36.8366 39.2669 36.6773 39.506 36.6773 39.745V42.2948C36.6773 42.5737 36.8765 42.8128 37.1554 42.8924C41.3785 43.8088 44.486 47.4741 44.7649 51.7371H25.4821C25.7211 47.4741 28.749 43.8884 32.9721 42.9323C33.251 42.8526 33.4502 42.6135 33.4502 42.3347V39.7052C33.4502 39.4661 33.3307 39.2669 33.1315 39.1873C31.5777 38.4303 30.6215 36.8765 30.6215 35.1633V32.6135C30.6215 30.1036 32.6534 28.1116 35.1235 28.1116C37.5936 28.1116 39.6255 30.1434 39.6255 32.6135V35.1235C39.6255 36.8367 38.6295 38.4303 37.0358 39.1873ZM40.502 36.996C40.7012 36.3984 40.8207 35.761 40.8207 35.1235V32.5737C40.8207 32.2151 40.7809 31.8167 40.7012 31.498C41.3386 31.0996 42.0558 30.8207 42.7729 30.6614C43.0518 30.5817 43.251 30.3426 43.251 30.0637V28.0717C43.251 27.8327 43.1315 27.6335 42.9323 27.5538C41.8167 26.996 41.0996 25.8805 41.0996 24.6454V22.7331C41.0996 20.9402 42.5737 19.4661 44.3665 19.4661C46.1593 19.4661 47.6335 20.9402 47.6335 22.7331V24.6454C47.6335 25.8805 46.8765 27.0359 45.7609 27.5936C45.5617 27.6733 45.4024 27.9124 45.4024 28.1514V30.0637C45.4024 30.3426 45.6016 30.5817 45.8805 30.6614C48.9482 31.3386 51.2191 33.9681 51.498 37.0359L40.502 36.996Z" fill="#19191B"/>
</svg>
