<svg width="477" height="319" viewBox="0 0 477 319" fill="none" xmlns="http://www.w3.org/2000/svg">
<path d="M268.513 12.1714H419.548C426.251 12.1714 431.762 17.6825 431.762 24.3853V94.2426C431.762 100.945 426.251 106.456 419.548 106.456H284.302L266.279 131.629C264.045 134.757 260.321 136.693 256.448 136.693V24.3853C256.448 17.5336 261.81 12.1714 268.513 12.1714ZM386.183 63.7079C389.162 63.7079 391.545 61.3247 391.545 58.3457C391.545 55.3667 389.162 52.9835 386.183 52.9835C383.204 52.9835 380.821 55.3667 380.821 58.3457C380.821 61.3247 383.204 63.7079 386.183 63.7079ZM346.861 63.7079C349.839 63.7079 352.223 61.3247 352.223 58.3457C352.223 55.3667 349.839 52.9835 346.861 52.9835C343.882 52.9835 341.498 55.3667 341.498 58.3457C341.498 61.3247 343.882 63.7079 346.861 63.7079ZM307.389 63.7079C310.368 63.7079 312.751 61.3247 312.751 58.3457C312.751 55.3667 310.368 52.9835 307.389 52.9835C304.41 52.9835 302.027 55.3667 302.027 58.3457C302.176 61.3247 304.559 63.7079 307.389 63.7079Z" fill="#9D68F8"/>
<path d="M278.642 1H429.528C436.231 1 441.742 6.51115 441.742 13.2139V83.0712C441.742 89.7739 436.231 95.285 429.528 95.285H294.282L276.259 120.458C274.025 123.585 270.301 125.522 266.429 125.522V13.2139C266.429 6.51115 271.94 1 278.642 1ZM396.313 52.6855C399.292 52.6855 401.675 50.3023 401.675 47.3233C401.675 44.3443 399.292 41.9611 396.313 41.9611C393.334 41.9611 390.95 44.3443 390.95 47.3233C390.95 50.3023 393.334 52.6855 396.313 52.6855ZM356.841 52.6855C359.82 52.6855 362.203 50.3023 362.203 47.3233C362.203 44.3443 359.82 41.9611 356.841 41.9611C353.862 41.9611 351.479 44.3443 351.479 47.3233C351.628 50.3023 354.011 52.6855 356.841 52.6855ZM317.518 52.6855C320.497 52.6855 322.881 50.3023 322.881 47.3233C322.881 44.3443 320.497 41.9611 317.518 41.9611C314.539 41.9611 312.156 44.3443 312.156 47.3233C312.305 50.3023 314.539 52.6855 317.518 52.6855Z" stroke="#19191B" stroke-width="1.5" stroke-miterlimit="10" stroke-linecap="round" stroke-linejoin="round"/>
<path d="M465.647 195.697C465.647 198.676 468.03 201.059 471.009 201.059C473.988 201.059 476.371 198.676 476.371 195.697C476.371 192.718 473.988 190.335 471.009 190.335C468.03 190.335 465.647 192.718 465.647 195.697Z" fill="white"/>
<path d="M426.322 195.697C426.322 198.676 428.706 201.059 431.685 201.059C434.664 201.059 437.047 198.676 437.047 195.697C437.047 192.718 434.664 190.335 431.685 190.335C428.706 190.335 426.322 192.718 426.322 195.697Z" fill="white"/>
<path d="M387.002 195.697C387.002 198.676 389.385 201.059 392.364 201.059C395.343 201.059 397.727 198.676 397.727 195.697C397.727 192.718 395.343 190.335 392.364 190.335C389.385 190.335 387.002 192.718 387.002 195.697Z" fill="white"/>
<path d="M465.647 230.998C465.647 233.977 468.03 236.36 471.009 236.36C473.988 236.36 476.371 233.977 476.371 230.998C476.371 228.019 473.988 225.636 471.009 225.636C468.03 225.636 465.647 228.019 465.647 230.998Z" fill="white"/>
<path d="M426.322 230.998C426.322 233.977 428.706 236.36 431.685 236.36C434.664 236.36 437.047 233.977 437.047 230.998C437.047 228.019 434.664 225.636 431.685 225.636C428.706 225.636 426.322 228.019 426.322 230.998Z" fill="white"/>
<path d="M387.002 230.998C387.002 233.977 389.385 236.36 392.364 236.36C395.343 236.36 397.727 233.977 397.727 230.998C397.727 228.019 395.343 225.636 392.364 225.636C389.385 225.636 387.002 228.019 387.002 230.998Z" fill="white"/>
<path d="M465.647 266.299C465.647 269.278 468.03 271.661 471.009 271.661C473.988 271.661 476.371 269.278 476.371 266.299C476.371 263.32 473.988 260.937 471.009 260.937C468.03 260.937 465.647 263.32 465.647 266.299Z" fill="white"/>
<path d="M426.322 266.299C426.322 269.278 428.706 271.661 431.685 271.661C434.664 271.661 437.047 269.278 437.047 266.299C437.047 263.32 434.664 260.937 431.685 260.937C428.706 260.937 426.322 263.32 426.322 266.299Z" fill="white"/>
<path d="M387.002 266.299C387.002 269.278 389.385 271.661 392.364 271.661C395.343 271.661 397.727 269.278 397.727 266.299C397.727 263.32 395.343 260.937 392.364 260.937C389.385 260.937 387.002 263.32 387.002 266.299Z" fill="white"/>
<path d="M272.235 196.487C272.068 197.205 271.937 197.777 271.844 198.183L290.335 195.501L290.412 195.278C290.528 194.944 290.697 194.454 290.913 193.828C291.345 192.577 291.961 190.784 292.701 188.618C294.181 184.286 296.154 178.46 298.127 172.485C300.1 166.51 302.072 160.39 303.55 155.467C304.29 153.005 304.904 150.847 305.333 149.159C305.769 147.445 305.996 146.278 305.996 145.757C305.996 142.815 303.907 140.388 301.033 139.041C298.163 137.696 294.648 137.501 291.988 138.898C291.116 139.385 290.1 140.632 288.992 142.58C287.897 144.506 286.758 147.03 285.61 149.952C283.315 155.794 281.002 163.177 278.937 170.433C276.873 177.686 275.059 184.801 273.761 190.104C273.113 192.755 272.593 194.953 272.235 196.487Z" fill="white" stroke="#19191B"/>
<path d="M290.707 195.953C290.707 195.953 306.496 150.523 306.496 145.757C306.496 139.352 297.41 135.479 291.75 138.458C283.707 142.927 271.195 198.783 271.195 198.783L290.707 195.953Z" stroke="#19191B" stroke-width="1.3547" stroke-miterlimit="10" stroke-linecap="round" stroke-linejoin="round"/>
<path d="M316.307 195.378C316.321 195.294 316.335 195.217 316.347 195.148L269.245 184.908L269.182 185.045C269.029 185.374 268.802 185.864 268.506 186.504C267.915 187.783 267.05 189.663 265.952 192.064C263.786 196.8 260.715 203.562 257.061 211.745C276.133 227.292 299.7 229.359 309.957 229.269C311.858 219.676 313.467 211.079 314.605 204.855C315.182 201.7 315.638 199.155 315.95 197.399C316.106 196.521 316.226 195.84 316.307 195.378Z" fill="white" stroke="#19191B"/>
<path d="M256.448 211.89C275.961 227.977 300.239 229.913 310.368 229.764C314.241 210.252 316.922 194.761 316.922 194.761L268.96 184.334C268.96 184.334 263.896 195.208 256.448 211.89Z" stroke="#19191B" stroke-width="1.3547" stroke-miterlimit="10" stroke-linecap="round" stroke-linejoin="round"/>
<path d="M312.855 182.516C312.886 182.48 312.914 182.448 312.94 182.419C312.938 182.411 312.936 182.404 312.934 182.396C312.878 182.216 312.789 181.952 312.659 181.627C312.4 180.976 311.978 180.082 311.331 179.121C310.039 177.202 307.855 175.017 304.266 173.94C302.586 173.436 300.914 173.841 299.284 174.921C297.646 176.006 296.083 177.753 294.678 179.847C291.868 184.034 289.769 189.484 288.962 193.373L288.962 193.375C288.151 197.21 288.096 200.747 289.07 203.316C289.554 204.591 290.286 205.615 291.296 206.332C292.306 207.048 293.629 207.482 295.335 207.518C298.731 207.587 300.898 205.634 302.431 202.947C303.765 200.609 304.572 197.793 305.253 195.416C305.36 195.042 305.464 194.679 305.567 194.33C306.264 191.627 308.174 188.587 309.871 186.256C310.726 185.081 311.539 184.071 312.137 183.355C312.437 182.997 312.683 182.712 312.855 182.516Z" fill="white" stroke="#19191B"/>
<path d="M313.496 182.547C313.496 182.547 311.858 175.695 304.41 173.461C296.963 171.227 290.111 185.377 288.473 193.271C286.834 201.017 288.175 207.868 295.324 208.017C302.623 208.166 304.559 199.527 306.049 194.463C307.389 189.25 313.496 182.547 313.496 182.547Z" stroke="#19191B" stroke-width="1.3547" stroke-miterlimit="10" stroke-linecap="round" stroke-linejoin="round"/>
<path d="M250.344 329.709C230.087 330.305 218.469 321.964 212.809 316.155L250.344 329.709ZM250.344 329.709C280.581 328.964 293.837 302.749 301.434 270.874L250.344 329.709ZM209.029 310.629L213.184 315.823C218.771 321.55 230.257 329.8 250.329 329.209L250.332 329.209C265.28 328.841 276.017 322.189 283.98 311.664C291.908 301.185 297.086 286.862 300.873 271.07L286.677 259.948L286.586 259.876L286.536 259.773C278.39 243.036 265.945 230.438 252 220.943C231.301 206.996 207.134 199.975 188.122 196.444C178.619 194.679 170.412 193.787 164.583 193.337C161.668 193.112 159.348 192.997 157.758 192.938C156.963 192.909 156.35 192.894 155.937 192.886C155.836 192.884 155.747 192.883 155.67 192.882L137.87 244.663L208.978 310.575L209.005 310.6L209.029 310.629Z" fill="#FE5233" stroke="#19191B"/>
<path d="M137.291 244.808L208.638 310.941L212.809 316.155C218.469 321.964 230.087 330.305 250.344 329.709C280.581 328.964 293.837 302.749 301.434 270.874L286.986 259.554C278.793 242.723 266.282 230.062 252.28 220.529C210.723 192.527 155.314 192.378 155.314 192.378L137.291 244.808Z" stroke="#19191B" stroke-width="1.3547" stroke-miterlimit="10" stroke-linecap="round" stroke-linejoin="round"/>
<path d="M303.177 261.084C303.473 259.605 303.774 258.1 304.226 256.591C304.524 255.398 304.813 254.24 304.957 253.087L304.96 253.064L304.965 253.041C305.262 251.703 305.561 250.357 305.861 249.159C306.36 247.037 306.754 244.916 307.134 242.87C307.204 242.49 307.274 242.112 307.345 241.737L307.345 241.737L307.346 241.731C307.419 241.364 307.493 240.959 307.568 240.548L307.568 240.545C307.639 240.153 307.712 239.756 307.784 239.391C307.791 239.205 307.832 239.003 307.862 238.85L307.867 238.826C307.908 238.623 307.932 238.492 307.932 238.403V238.322L307.958 238.245C308.015 238.073 308.047 237.86 308.086 237.588L308.089 237.566C308.122 237.333 308.162 237.051 308.243 236.795C308.32 236.343 308.431 235.86 308.539 235.395L308.541 235.386C308.653 234.899 308.761 234.43 308.833 234.001L308.834 233.993L308.835 233.986C308.986 233.233 309.137 232.63 309.285 232.038C309.357 231.673 309.43 231.272 309.504 230.866L309.504 230.864C309.579 230.456 309.654 230.043 309.729 229.666C309.805 229.288 309.88 228.949 309.954 228.615L309.955 228.613C310.029 228.277 310.103 227.947 310.176 227.581L310.182 227.55L310.192 227.521C310.249 227.348 310.281 227.135 310.32 226.863L310.323 226.842C310.355 226.621 310.392 226.357 310.464 226.112C310.467 225.96 310.491 225.725 310.666 225.495C310.709 225.342 310.737 225.181 310.769 224.99L310.771 224.976C310.803 224.783 310.841 224.557 310.911 224.325V224.324V224.324V224.323V224.323V224.322V224.321V224.321V224.32V224.32V224.319V224.318V224.318V224.317V224.317V224.316V224.315V224.315V224.314V224.314V224.313V224.312V224.312V224.311V224.31V224.31V224.309V224.309V224.308V224.307V224.307V224.306V224.305V224.305V224.304V224.303V224.303V224.302V224.301V224.301V224.3V224.299V224.299V224.298V224.297V224.297V224.296V224.295V224.295V224.294V224.293V224.292V224.292V224.291V224.29V224.29V224.289V224.288V224.287V224.287V224.286V224.285V224.284V224.284V224.283V224.282V224.281V224.281V224.28V224.279V224.278V224.278V224.277V224.276V224.275V224.274V224.274V224.273V224.272V224.271V224.27V224.27V224.269V224.268V224.267V224.266V224.266V224.265V224.264V224.263V224.262V224.261V224.261V224.26V224.259V224.258V224.257V224.256V224.255V224.255V224.254V224.253V224.191L310.926 224.132C310.992 223.868 311.026 223.6 311.064 223.297L311.065 223.285C311.102 222.995 311.142 222.672 311.224 222.344L311.228 222.326L311.235 222.307C311.292 222.135 311.324 221.922 311.363 221.65L311.366 221.629C311.4 221.389 311.441 221.099 311.526 220.838C311.586 220.592 311.619 220.345 311.654 220.081C311.656 220.065 311.658 220.05 311.66 220.035C311.667 219.981 311.675 219.925 311.683 219.869C300.841 220.334 282.748 217.717 261.683 200.901L261.528 201.21C261.443 201.455 261.324 201.692 261.223 201.896L261.215 201.911C261.1 202.141 261.006 202.332 260.945 202.515L260.933 202.549L260.917 202.581C260.854 202.707 260.788 202.872 260.711 203.064L260.706 203.076C260.636 203.252 260.556 203.451 260.473 203.618C259.749 205.157 259.028 206.8 258.271 208.525C257.785 209.631 257.284 210.771 256.758 211.941C255.565 214.775 254.223 217.757 252.733 220.886C241.003 247.611 225.136 284.536 213.386 316.031C219.046 321.748 230.496 329.793 250.327 329.209L250.329 329.209C265.277 328.841 276.015 322.189 283.978 311.664C291.958 301.116 297.152 286.674 300.945 270.758L300.946 270.753L301.392 268.972C301.392 268.971 301.392 268.97 301.392 268.969C301.986 266.447 302.579 263.776 303.174 261.102L303.176 261.089L303.177 261.084Z" fill="#FE5233" stroke="#19191B"/>
<path d="M212.807 316.155C218.467 321.964 230.085 330.305 250.342 329.709C280.579 328.964 293.835 302.749 301.432 270.874C301.581 270.278 301.73 269.682 301.879 269.087C302.475 266.555 303.07 263.873 303.666 261.192C303.964 259.703 304.262 258.213 304.709 256.724C305.007 255.532 305.305 254.341 305.454 253.149C305.751 251.808 306.049 250.468 306.347 249.276C306.943 246.744 307.39 244.212 307.837 241.829C307.986 241.084 308.135 240.19 308.284 239.446C308.284 239.148 308.433 238.701 308.433 238.403C308.581 237.956 308.581 237.36 308.73 236.914C308.879 236.02 309.177 234.977 309.326 234.084C309.475 233.339 309.624 232.743 309.773 232.147C309.922 231.402 310.071 230.509 310.22 229.764C310.965 226.189 311.56 222.763 312.156 219.486C301.432 220.082 282.962 217.699 261.365 200.272C258.832 205.932 255.704 212.933 252.13 220.678C248.108 229.764 243.64 240.041 239.022 250.766" stroke="#19191B" stroke-width="1.3547" stroke-miterlimit="10" stroke-linecap="round" stroke-linejoin="round"/>
<path d="M310.324 227.581L310.331 227.55L310.34 227.521C310.398 227.348 310.43 227.135 310.469 226.863L310.472 226.842C310.503 226.621 310.541 226.357 310.613 226.112C310.616 225.96 310.639 225.725 310.815 225.495C310.858 225.342 310.885 225.181 310.917 224.99L310.92 224.976C310.952 224.783 310.989 224.557 311.059 224.325V224.324V224.324V224.323V224.323V224.322V224.321V224.321V224.32V224.32V224.319V224.318V224.318V224.317V224.317V224.316V224.315V224.315V224.314V224.314V224.313V224.312V224.312V224.311V224.31V224.31V224.309V224.309V224.308V224.307V224.307V224.306V224.305V224.305V224.304V224.303V224.303V224.302V224.301V224.301V224.3V224.299V224.299V224.298V224.297V224.297V224.296V224.295V224.295V224.294V224.293V224.292V224.292V224.291V224.29V224.29V224.289V224.288V224.287V224.287V224.286V224.285V224.284V224.284V224.283V224.282V224.281V224.281V224.28V224.279V224.278V224.278V224.277V224.276V224.275V224.274V224.274V224.273V224.272V224.271V224.27V224.27V224.269V224.268V224.267V224.266V224.266V224.265V224.264V224.263V224.262V224.261V224.261V224.26V224.259V224.258V224.257V224.256V224.255V224.255V224.254V224.253V224.191L311.074 224.132C311.14 223.868 311.174 223.6 311.212 223.297L311.214 223.285C311.25 222.995 311.29 222.672 311.372 222.344L311.377 222.326L311.383 222.307C311.44 222.135 311.472 221.922 311.511 221.65L311.514 221.629C311.548 221.389 311.59 221.099 311.674 220.838C311.734 220.592 311.767 220.345 311.802 220.081C311.804 220.065 311.807 220.05 311.809 220.035C311.816 219.981 311.823 219.925 311.831 219.869C300.989 220.334 282.897 217.717 261.832 200.901L261.677 201.21C261.592 201.455 261.473 201.692 261.371 201.896L261.364 201.911C261.249 202.141 261.154 202.332 261.093 202.515L261.082 202.549L261.066 202.581C261.003 202.707 260.936 202.872 260.86 203.064L260.855 203.076C260.785 203.25 260.706 203.447 260.624 203.613C260.297 204.35 259.959 205.095 259.618 205.85C258.758 207.748 257.872 209.705 257.049 211.736C276.126 227.293 299.703 229.359 309.96 229.269C310.008 229.043 310.055 228.828 310.103 228.615L310.103 228.613C310.178 228.277 310.251 227.947 310.324 227.581Z" fill="#9D68F8" stroke="#19191B"/>
<path d="M256.448 211.89C275.961 227.977 300.239 229.913 310.368 229.764C310.517 229.019 310.666 228.423 310.815 227.679C310.964 227.232 310.964 226.636 311.113 226.189C311.113 226.04 311.113 225.891 311.262 225.742C311.41 225.296 311.411 224.849 311.559 224.402C311.559 224.402 311.559 224.402 311.559 224.253C311.708 223.657 311.708 223.061 311.857 222.465C312.006 222.019 312.006 221.423 312.155 220.976C312.304 220.38 312.304 219.784 312.453 219.338C301.729 219.933 283.259 217.55 261.661 200.123C261.512 200.421 261.363 200.719 261.214 201.017C261.066 201.464 260.768 201.91 260.619 202.357C260.47 202.655 260.321 203.102 260.172 203.4C258.98 206.081 257.64 208.911 256.448 211.89Z" stroke="#19191B" stroke-width="1.3547" stroke-miterlimit="10" stroke-linecap="round" stroke-linejoin="round"/>
<path d="M307.344 208.72C310.01 209.281 312.302 208.552 314.247 207.039C316.206 205.514 317.812 203.192 319.041 200.598C320.267 198.008 321.101 195.18 321.537 192.681C321.975 190.161 321.996 188.047 321.656 186.855C321.252 185.442 319.824 183.668 317.992 182.483C316.161 181.298 314.09 180.801 312.384 181.652C310.943 182.409 309.207 184.323 307.58 186.896C305.965 189.452 304.505 192.584 303.587 195.685C302.667 198.796 302.31 201.818 302.842 204.179C303.106 205.352 303.586 206.346 304.309 207.113C305.03 207.876 306.018 208.44 307.344 208.72Z" fill="white" stroke="#19191B"/>
<path d="M322.136 186.718C323.626 191.931 318.562 211.592 307.241 209.209C295.921 206.826 305.901 184.483 312.157 181.206C316.029 179.27 321.243 183.59 322.136 186.718Z" stroke="#19191B" stroke-width="1.3547" stroke-miterlimit="10" stroke-linecap="round" stroke-linejoin="round"/>
<path d="M268.464 186.382C268.549 186.457 268.66 186.553 268.793 186.669C269.144 186.973 269.654 187.41 270.29 187.942C271.563 189.007 273.339 190.448 275.351 191.959C279.395 194.997 284.319 198.257 288.02 199.345L288.022 199.346C291.628 200.428 294.334 199.908 296.292 198.574C298.265 197.229 299.552 195.007 300.203 192.555C300.308 192.099 300.184 191.491 299.756 190.724C299.332 189.962 298.644 189.11 297.741 188.204C295.939 186.394 293.347 184.439 290.516 182.653C287.688 180.87 284.642 179.269 281.94 178.162C280.59 177.608 279.333 177.182 278.239 176.917C277.137 176.65 276.235 176.556 275.578 176.638C272.876 176.976 271.079 179.358 269.938 181.843C269.376 183.067 268.993 184.272 268.751 185.174C268.631 185.624 268.545 185.996 268.49 186.255C268.481 186.301 268.472 186.344 268.464 186.382Z" fill="white" stroke="#19191B"/>
<path d="M267.919 186.569C267.919 186.569 269.558 176.887 275.516 176.142C281.474 175.397 301.88 187.611 300.688 192.676C299.348 197.74 295.326 202.059 287.879 199.825C284.155 198.783 279.388 195.506 275.367 192.527" stroke="#19191B" stroke-width="1.3547" stroke-miterlimit="10" stroke-linecap="round" stroke-linejoin="round"/>
<path d="M224.105 263.299L224.104 263.296C217.151 243.694 199.963 226.116 184.452 213.413C176.705 207.068 169.393 201.954 164.018 198.426C161.331 196.662 159.129 195.295 157.599 194.369C156.835 193.907 156.238 193.554 155.833 193.318C155.631 193.2 155.476 193.11 155.373 193.051L155.296 193.007C155.277 193.004 155.256 193.001 155.232 192.998C155.128 192.983 154.974 192.961 154.77 192.934C154.363 192.88 153.76 192.806 152.978 192.727C151.416 192.568 149.142 192.386 146.308 192.296C140.637 192.115 132.725 192.3 123.761 193.765C105.832 196.694 83.7304 204.735 66.9263 225.166C33.596 265.691 30.3174 320.336 29.5293 336.657H229.248C229.249 336.651 229.251 336.646 229.252 336.64C229.314 336.379 229.404 335.989 229.514 335.478C229.733 334.456 230.031 332.949 230.345 331.018C230.973 327.156 231.664 321.596 231.914 314.814C232.415 301.25 231.153 282.81 224.105 263.299Z" fill="#FE5233" stroke="#19191B"/>
<path d="M155.463 192.527C155.463 192.527 100.352 183.739 66.5401 224.849C32.7286 265.959 29.7495 321.517 29.0048 337.157H229.64C229.64 337.157 238.726 302.303 224.576 263.129" stroke="#19191B" stroke-width="1.3547" stroke-miterlimit="10" stroke-linecap="round" stroke-linejoin="round"/>
<path d="M86.6484 265.065C86.6484 265.065 80.8394 291.131 82.9247 338.646" stroke="#19191B" stroke-width="1.3547" stroke-miterlimit="10" stroke-linecap="round" stroke-linejoin="round"/>
<path d="M137.789 172.174V198.945C137.825 199.005 137.877 199.088 137.944 199.192C138.096 199.425 138.329 199.762 138.648 200.168C139.287 200.981 140.27 202.069 141.641 203.158C144.376 205.331 148.663 207.517 154.865 207.517C160.992 207.517 165.279 205.332 168.035 203.157C169.416 202.067 170.413 200.978 171.064 200.165C171.389 199.758 171.628 199.421 171.783 199.187C171.852 199.084 171.905 199.001 171.941 198.942V172.174H137.789Z" fill="#9D68F8" stroke="#19191B"/>
<path d="M137.289 171.674V199.081C137.289 199.081 142.205 208.017 154.865 208.017C167.377 208.017 172.441 199.081 172.441 199.081V171.674H137.289Z" stroke="#19191B" stroke-width="1.3547" stroke-miterlimit="10" stroke-linecap="round" stroke-linejoin="round"/>
<path d="M140.472 169.493V192.091C140.501 192.137 140.54 192.199 140.589 192.273C140.716 192.465 140.912 192.744 141.181 193.08C141.72 193.753 142.549 194.655 143.705 195.559C146.013 197.361 149.63 199.176 154.867 199.176C160.103 199.176 163.721 197.361 166.028 195.559C167.184 194.655 168.013 193.753 168.552 193.08C168.821 192.744 169.017 192.465 169.145 192.273C169.194 192.199 169.233 192.137 169.262 192.091V169.493H140.472Z" fill="white" stroke="#19191B"/>
<path d="M139.972 168.993V192.229C139.972 192.229 144.142 199.676 154.867 199.676C165.591 199.676 169.762 192.229 169.762 192.229V168.993H139.972Z" stroke="#19191B" stroke-width="1.3547" stroke-miterlimit="10" stroke-linecap="round" stroke-linejoin="round"/>
<path d="M189.354 223.558C196.95 227.09 204.955 226.853 211.192 222.793C215.113 220.178 218.328 216.099 220.381 210.527C222.548 204.54 222.741 199.407 221.704 194.937C220.665 190.461 218.385 186.616 215.551 183.221C212.715 179.824 209.339 176.893 206.121 174.24C205.509 173.735 204.901 173.239 204.303 172.752C201.779 170.693 199.437 168.784 197.699 166.954C193.306 162.331 192.273 155.184 192.367 147.333C192.413 143.393 192.745 139.238 193.102 135.085C193.137 134.668 193.173 134.25 193.209 133.833C193.532 130.094 193.853 126.373 193.987 122.802C194.207 114.925 191.809 103.591 185.98 94.0905C180.158 84.603 170.946 76.9854 157.525 76.3988L157.523 76.3987C145.188 75.8113 134.281 81.3127 126.777 91.1532C119.268 101 115.156 115.208 116.488 132.014L116.488 132.014C117.833 149.041 115.786 159.015 112.487 165.423C109.641 170.952 105.874 173.788 102.717 176.166C102.212 176.546 101.722 176.915 101.254 177.281L101.254 177.281L101.247 177.286C97.9544 179.774 92.5013 185.593 89.4121 192.507C86.3294 199.407 85.6357 207.292 91.6391 214.091C97.7078 220.964 107.346 224.565 116.724 224.014C126.088 223.465 135.15 218.78 140.121 209.13C142.57 204.306 143.765 197.842 144.161 190.818C144.557 183.802 144.154 176.272 143.439 169.342C142.724 162.414 141.698 156.097 140.85 151.512C140.426 149.22 140.047 147.361 139.774 146.076C139.638 145.434 139.528 144.935 139.452 144.597C139.414 144.428 139.385 144.299 139.365 144.213L139.343 144.115L139.337 144.091L139.335 144.085L139.335 144.084C139.335 144.083 139.335 144.083 139.822 143.969L139.335 144.083L139.19 143.464L139.826 143.469L178.701 143.767L179.68 143.775L179.101 144.563L178.698 144.267L179.101 144.563L179.1 144.564L179.098 144.567L179.087 144.581L179.044 144.641C179.006 144.694 178.949 144.775 178.875 144.881C178.726 145.094 178.509 145.412 178.236 145.827C177.691 146.658 176.922 147.879 176.037 149.437C174.265 152.552 172.027 157.006 170.158 162.362C166.42 173.078 164.18 187.353 170.074 201.721L170.074 201.721C174.577 212.718 181.757 220.025 189.354 223.558Z" fill="#19191B" stroke="#19191B"/>
<path d="M191.856 153.702C190.984 162.125 195.11 168.539 200.266 173.935C202.422 176.191 204.741 178.253 206.939 180.206C207.371 180.59 207.798 180.97 208.218 181.346C210.761 183.622 213.067 185.781 214.558 187.921C220.068 195.833 221.349 208.66 213.793 220.595C216.538 218.063 218.802 214.662 220.381 210.378C222.548 204.391 222.741 199.258 221.704 194.788C220.665 190.312 218.385 186.467 215.551 183.072C212.715 179.675 209.339 176.744 206.121 174.091C205.509 173.586 204.901 173.09 204.303 172.603C201.779 170.544 199.437 168.635 197.699 166.805C193.35 162.227 192.294 155.176 192.364 147.417C192.221 149.823 192.037 151.947 191.856 153.702ZM193.209 133.684C193.532 129.945 193.853 126.224 193.987 122.653C194.207 114.776 191.809 103.442 185.98 93.9415C181.156 86.0806 174.005 79.5035 164.061 77.1455C178.772 82.888 186.159 96.5449 189.684 111.007C192.243 121.505 192.784 132.484 192.608 141.301C192.742 139.199 192.919 137.067 193.102 134.936C193.137 134.519 193.173 134.101 193.209 133.684Z" fill="white" stroke="#19191B"/>
<path d="M157.546 75.7503C184.803 77.0909 194.932 106.732 194.485 122.669C194.038 138.607 189.57 157.524 198.06 166.461C206.55 175.398 229.488 186.271 220.849 210.55C212.061 234.828 181.526 230.956 169.61 201.762C157.694 172.716 178.696 144.118 178.696 144.118L139.82 143.82C139.82 143.82 150.545 189.548 140.416 209.209C130.437 228.87 103.477 228.275 91.1141 214.273C78.7513 200.272 94.0931 181.802 100.796 176.44C107.647 171.078 118.521 165.567 115.84 131.606C113.308 97.9438 132.522 74.5587 157.546 75.7503Z" stroke="#19191B" stroke-width="1.3547" stroke-miterlimit="10" stroke-linecap="round" stroke-linejoin="round"/>
<path d="M126.173 141.139C126.173 162.116 139.446 177.877 155.612 177.877C171.777 177.877 185.051 162.116 185.051 141.139C185.051 130.663 181.729 120.375 176.372 112.716C171.01 105.052 163.66 100.082 155.612 100.082C147.488 100.082 140.138 105.052 134.797 112.715C129.458 120.373 126.173 130.662 126.173 141.139Z" fill="white" stroke="#19191B"/>
<path d="M125.673 141.139C125.673 162.29 139.078 178.377 155.612 178.377C172.145 178.377 185.551 162.29 185.551 141.139C185.551 119.988 172.145 99.5823 155.612 99.5823C138.929 99.5823 125.673 119.988 125.673 141.139Z" stroke="#19191B" stroke-width="1.3547" stroke-miterlimit="10" stroke-linecap="round" stroke-linejoin="round"/>
<path d="M167.133 139.448H169.41V134.883C169.41 134.266 168.889 133.745 168.272 133.745C167.654 133.745 167.133 134.266 167.133 134.883V139.448Z" fill="#19191B" stroke="#19191B"/>
<path d="M138.381 127.067C138.387 127.115 138.425 127.216 138.648 127.343C138.87 127.47 139.209 127.58 139.658 127.658C140.551 127.812 141.745 127.82 142.957 127.701C144.168 127.583 145.358 127.343 146.241 127.024C146.684 126.863 147.024 126.692 147.248 126.524C147.483 126.348 147.513 126.236 147.516 126.206L148.014 126.244L147.515 126.215C147.521 126.106 147.486 126 147.313 125.873C147.123 125.733 146.804 125.605 146.352 125.512C145.457 125.329 144.215 125.32 142.948 125.457C141.683 125.593 140.441 125.869 139.549 126.227C139.1 126.407 138.772 126.594 138.573 126.771C138.372 126.95 138.377 127.045 138.381 127.067Z" fill="#19191B" stroke="#19191B"/>
<path d="M146.172 139.448V134.883C146.172 134.266 145.651 133.745 145.033 133.745C144.416 133.745 143.895 134.266 143.895 134.883V139.448H146.172Z" fill="#19191B" stroke="#19191B"/>
<path d="M147.121 139.948C147.121 139.948 145.334 138.607 142.95 139.948" stroke="#19191B" stroke-width="1.3547" stroke-miterlimit="10" stroke-linecap="round" stroke-linejoin="round"/>
<path d="M165.44 125.946C165.44 127.883 174.972 129.67 175.568 127.585C175.866 125.499 165.291 123.265 165.44 125.946Z" stroke="#19191B" stroke-width="0.4255" stroke-miterlimit="10"/>
<path d="M166.185 139.948C166.185 139.948 167.972 138.607 170.355 139.948" stroke="#19191B" stroke-width="1.3547" stroke-miterlimit="10" stroke-linecap="round" stroke-linejoin="round"/>
<path d="M157.994 149.629C157.994 149.629 158.739 153.055 155.313 152.757C151.887 152.459 151.887 148.735 154.27 148.586" stroke="#19191B" stroke-width="1.3547" stroke-miterlimit="10" stroke-linecap="round" stroke-linejoin="round"/>
<path d="M145.159 101.954L145.622 100.582L146.104 101.948L145.632 102.114L146.104 101.948L146.104 101.949L146.106 101.953L146.112 101.969L146.137 102.038C146.159 102.099 146.193 102.191 146.239 102.312C146.331 102.553 146.47 102.909 146.658 103.364C147.035 104.274 147.606 105.581 148.385 107.162C149.943 110.325 152.329 114.579 155.638 118.941C162.187 127.575 172.313 136.59 186.76 138.496C186.763 138.476 186.765 138.456 186.768 138.436C186.813 138.077 186.874 137.549 186.939 136.876C187.069 135.528 187.215 133.598 187.274 131.272C187.392 126.619 187.164 120.397 185.789 114.1C184.412 107.8 181.894 101.459 177.455 96.5329C173.027 91.6192 166.66 88.0814 157.512 87.4201C148.378 86.7598 141.721 89.6077 136.846 94.2291C131.956 98.866 128.829 105.319 126.841 111.903C124.854 118.483 124.015 125.155 123.675 130.188C123.505 132.703 123.459 134.805 123.456 136.277C123.454 136.998 123.463 137.567 123.472 137.96C123.751 137.861 124.134 137.698 124.611 137.432C125.746 136.8 127.416 135.586 129.469 133.267C133.58 128.625 139.213 119.569 145.159 101.954Z" fill="#19191B" stroke="#19191B"/>
<path d="M145.632 102.114C145.632 102.114 157.399 135.479 187.189 139.054C187.189 139.054 194.637 89.6025 157.548 86.9214C120.46 84.2403 122.992 138.607 122.992 138.607C122.992 138.607 133.716 137.415 145.632 102.114Z" stroke="#19191B" stroke-width="1.3547" stroke-miterlimit="10" stroke-linecap="round" stroke-linejoin="round"/>
<path d="M128.076 138.866L128.076 138.865L128.076 138.865L128.076 138.866ZM128.004 153.56V138.76C127.995 138.747 127.985 138.734 127.974 138.719C127.897 138.616 127.775 138.466 127.606 138.291C127.268 137.939 126.738 137.486 125.984 137.096C124.489 136.323 122.054 135.768 118.367 136.852C116.681 137.348 115.481 138.817 114.886 140.792C114.292 142.765 114.328 145.178 115.07 147.404C115.811 149.627 117.244 151.633 119.412 152.839C121.505 154.003 124.337 154.452 128.004 153.56Z" fill="white" stroke="#19191B"/>
<path d="M126.567 136.819C124.929 135.926 122.248 135.181 118.226 136.373C110.778 138.607 112.715 157.374 127.461 154.247" stroke="#19191B" stroke-width="1.3547" stroke-miterlimit="10" stroke-linecap="round" stroke-linejoin="round"/>
<path d="M124.035 142.927C124.035 142.927 119.716 139.948 117.184 145.012" stroke="#19191B" stroke-width="1.3547" stroke-miterlimit="10" stroke-linecap="round" stroke-linejoin="round"/>
<path d="M121.352 147.693V142.033" stroke="#19191B" stroke-width="1.3547" stroke-miterlimit="10" stroke-linecap="round" stroke-linejoin="round"/>
<path d="M146.359 164.936L146.371 164.939L146.383 164.943C147.182 165.21 148.134 165.216 149.192 165.216C150.691 165.143 152.206 164.749 153.311 164.11C154.426 163.465 155.017 162.645 154.961 161.729C154.9 160.948 154.516 160.425 153.89 160.015C153.236 159.587 152.344 159.301 151.328 159.031C151.095 158.969 150.855 158.907 150.611 158.845C149.825 158.645 149.004 158.435 148.269 158.162C147.303 157.803 146.384 157.301 145.812 156.465L145.812 156.465L145.806 156.455C144.899 155.06 143.612 154.287 142.565 154.224C142.052 154.194 141.604 154.331 141.253 154.634C140.905 154.935 140.607 155.439 140.469 156.225V156.332V156.375L140.462 156.418C140.181 158.031 140.394 159.808 141.295 161.349C142.19 162.881 143.789 164.222 146.359 164.936Z" fill="#19191B" stroke="#19191B"/>
<path d="M146.225 165.418C147.119 165.716 148.161 165.716 149.204 165.716C152.332 165.567 155.609 164.077 155.46 161.694C155.162 157.821 148.161 159.013 146.225 156.183C144.289 153.204 140.565 152.608 139.969 156.183V156.332C139.373 159.758 140.863 163.928 146.225 165.418Z" stroke="#19191B" stroke-width="1.3547" stroke-miterlimit="10" stroke-linecap="round" stroke-linejoin="round"/>
<path d="M146.36 164.936L146.372 164.939L146.384 164.943C147.077 165.174 147.884 165.209 148.776 165.215C148.965 163.928 149.086 162.608 148.898 161.498C148.695 160.296 148.15 159.416 146.969 159.043L146.969 159.043L146.962 159.04C146.32 158.827 145.772 158.448 145.276 158.066C145.121 157.946 144.972 157.828 144.827 157.712C144.489 157.443 144.168 157.187 143.813 156.956C143.321 156.637 142.809 156.4 142.213 156.317C141.682 156.244 141.056 156.29 140.285 156.547C140.137 158.159 140.41 159.858 141.276 161.329C142.191 162.882 143.791 164.222 146.36 164.936Z" fill="white" stroke="#19191B"/>
<path d="M183.398 138.719C183.387 138.734 183.377 138.747 183.368 138.76V153.56C187.035 154.452 189.867 154.003 191.96 152.839C194.128 151.633 195.561 149.627 196.302 147.404C197.044 145.178 197.08 142.765 196.486 140.792C195.891 138.817 194.69 137.348 193.004 136.852C189.318 135.768 186.883 136.323 185.388 137.096C184.634 137.486 184.104 137.939 183.766 138.291C183.596 138.466 183.475 138.616 183.398 138.719ZM183.296 138.866C183.295 138.866 183.295 138.866 183.296 138.866L183.296 138.866Z" fill="white" stroke="#19191B"/>
<path d="M183.317 138.607C183.317 138.607 185.998 134.138 193.595 136.373C201.191 138.607 199.106 158.119 183.317 153.949" stroke="#19191B" stroke-width="1.3547" stroke-miterlimit="10" stroke-linecap="round" stroke-linejoin="round"/>
<path d="M187.336 142.927C187.336 142.927 191.655 139.948 194.188 145.012" stroke="#19191B" stroke-width="1.3547" stroke-miterlimit="10" stroke-linecap="round" stroke-linejoin="round"/>
<path d="M189.867 147.693V142.033" stroke="#19191B" stroke-width="1.3547" stroke-miterlimit="10" stroke-linecap="round" stroke-linejoin="round"/>
<path d="M10.214 77.415H50.267C55.3738 77.415 59.5793 81.5193 59.5793 86.7248V103.042V108.748V126.667L50.1668 118.058H10.3141C5.20731 118.058 1.00175 113.953 1.00175 108.748V86.7248C0.901619 81.5193 5.1072 77.415 10.214 77.415Z" fill="white" stroke="#19191B" stroke-miterlimit="10"/>
<path d="M27.7401 102.463V102.326C27.7554 100.87 27.9079 99.7112 28.1976 98.8498C28.4874 97.9883 28.8992 97.2907 29.433 96.757C29.9668 96.2234 30.6074 95.7317 31.3547 95.2819C31.8047 95.0074 32.2088 94.6834 32.5672 94.3098C32.9257 93.9287 33.2078 93.4903 33.4137 92.9948C33.6272 92.4992 33.734 91.9503 33.734 91.348C33.734 90.6009 33.5586 89.9529 33.2078 89.404C32.857 88.8551 32.388 88.432 31.8008 88.1346C31.2137 87.8373 30.5617 87.6887 29.8448 87.6887C29.2195 87.6887 28.6171 87.8183 28.0375 88.0775C27.4579 88.3367 26.9737 88.7445 26.5848 89.3011C26.1959 89.8576 25.9709 90.5857 25.9099 91.4853H23.0273C23.0884 90.1892 23.4239 89.08 24.034 88.1575C24.6516 87.235 25.4638 86.5299 26.4704 86.0419C27.4846 85.554 28.6094 85.3101 29.8448 85.3101C31.187 85.3101 32.3537 85.5769 33.3451 86.1105C34.3441 86.6442 35.1143 87.3761 35.6557 88.3062C36.2048 89.2363 36.4793 90.296 36.4793 91.4853C36.4793 92.3239 36.3496 93.0824 36.0904 93.7609C35.8387 94.4394 35.4727 95.0455 34.9923 95.5792C34.5195 96.1128 33.9475 96.5855 33.2764 96.9972C32.6054 97.4165 32.0677 97.8587 31.6636 98.3237C31.2594 98.7811 30.9658 99.3262 30.7828 99.959C30.5998 100.592 30.5006 101.381 30.4854 102.326V102.463H27.7401ZM29.2043 109.233C28.6399 109.233 28.1557 109.031 27.7515 108.627C27.3474 108.223 27.1453 107.739 27.1453 107.175C27.1453 106.611 27.3474 106.127 27.7515 105.723C28.1557 105.318 28.6399 105.116 29.2043 105.116C29.7686 105.116 30.2528 105.318 30.657 105.723C31.0611 106.127 31.2632 106.611 31.2632 107.175C31.2632 107.548 31.1679 107.891 30.9773 108.204C30.7942 108.517 30.5464 108.768 30.2337 108.959C29.9287 109.142 29.5855 109.233 29.2043 109.233Z" stroke="#19191B"/>
</svg>
