<svg width="502" height="435" viewBox="0 0 502 435" fill="none" xmlns="http://www.w3.org/2000/svg">
<path d="M161.825 435L106.554 402.588L340.175 0L394.876 32.4118L161.825 435ZM104.275 255.882C71.2259 255.882 45.5846 244.889 27.3507 222.902C9.11691 200.536 0 170.588 0 133.059C0 95.5294 9.11691 65.7712 27.3507 43.7843C45.9644 21.7974 71.6057 10.8039 104.275 10.8039C136.944 10.8039 162.395 21.9869 180.629 44.3529C199.243 66.3399 208.549 95.9085 208.549 133.059C208.549 170.588 199.243 200.536 180.629 222.902C162.395 244.889 136.944 255.882 104.275 255.882ZM104.275 201.294C115.291 201.294 123.838 195.987 129.916 185.373C136.374 174.379 139.603 156.941 139.603 133.059C139.603 109.176 136.374 92.1176 129.916 81.8824C123.838 71.268 115.291 65.9608 104.275 65.9608C92.8785 65.9608 84.1415 71.0784 78.0636 81.3137C71.9856 91.549 68.9466 108.797 68.9466 133.059C68.9466 157.699 71.9856 175.327 78.0636 185.941C84.1415 196.176 92.8785 201.294 104.275 201.294ZM397.725 424.196C364.676 424.196 339.035 413.203 320.801 391.216C302.568 368.85 293.451 338.712 293.451 300.804C293.451 263.275 302.568 233.706 320.801 212.098C339.415 190.111 365.056 179.118 397.725 179.118C430.394 179.118 455.846 190.111 474.079 212.098C492.693 234.085 502 263.654 502 300.804C502 338.712 492.883 368.85 474.649 391.216C456.415 413.203 430.774 424.196 397.725 424.196ZM397.725 369.039C409.121 369.039 417.858 363.732 423.936 353.118C430.014 342.503 433.053 325.065 433.053 300.804C433.053 277.301 429.824 260.242 423.367 249.627C417.289 239.013 408.742 233.706 397.725 233.706C386.329 233.706 377.592 238.824 371.514 249.059C365.436 259.294 362.397 276.542 362.397 300.804C362.397 325.444 365.436 343.072 371.514 353.686C377.592 363.922 386.329 369.039 397.725 369.039Z" fill="#96DCED"/>
</svg>
