<svg width="324" height="300" viewBox="0 0 324 300" fill="none" xmlns="http://www.w3.org/2000/svg">
<g clip-path="url(#clip0_80_892)">
<path d="M206.016 217.038C208.095 219.116 239.602 252.788 247.084 243.226C250.961 238.272 235.445 185.029 235.445 185.029L195.624 154.685L206.016 217.038Z" fill="#9D68F8"/>
<path d="M269.409 102.31C266.291 106.675 260.887 114.988 260.887 114.988C260.887 114.988 283.164 212.01 262.438 227.499C242.159 242.656 231.859 226.248 231.596 213.315C231.247 196.215 232.313 141.206 240.125 113.377L238.052 89.3974C238.052 89.3974 239.497 85.1624 242.615 90.1505C245.732 95.1387 245.732 96.6984 245.732 96.6984C245.732 96.6984 253.161 91.041 259.015 83.6046C261.646 80.2639 264.381 73.2222 265.25 71.9657C268.055 67.9119 268.055 71.3421 268.055 72.9019C268.055 74.4597 267.742 76.9557 267.742 76.9557C267.742 76.9557 271.483 69.4735 272.42 71.3441C273.354 73.2146 266.08 86.5162 266.08 86.5162C266.08 86.5162 272.218 70.732 274.479 71.8627C275.955 72.6006 272.315 85.6849 267.742 90.0495C266.867 90.8847 267.466 91.573 268.574 91.0887C271.899 89.6338 277.688 80.2601 278.966 81.1125C280.613 82.2069 270.557 100.701 269.409 102.31Z" fill="#FF9E96"/>
<path d="M236.124 133.403C231.939 162.208 226.438 211.973 226.716 225.561C226.981 238.494 241.354 253.188 261.635 238.031C274.237 228.612 276.296 175.312 272.442 143.878C261.444 140.488 246.861 137.586 236.124 133.403Z" fill="#9D68F8"/>
<path d="M247.372 96.0247C250.707 98.002 252.892 101.573 253.182 105.433C253.251 106.335 251.844 106.331 251.777 105.433C251.523 102.075 249.552 98.9516 246.663 97.2393C245.885 96.7779 246.59 95.5614 247.372 96.0247Z" fill="#EB5E45"/>
<path d="M267.914 76.4903C266.699 81.0418 263.768 85.0231 259.8 87.5572C259.036 88.0453 258.33 86.8288 259.091 86.3426C262.754 84.003 265.437 80.3114 266.558 76.1146C266.791 75.2432 268.146 75.6151 267.914 76.4903Z" fill="#EB5E45"/>
<path d="M272.751 74.4244C271.643 77.3456 270.356 80.1962 268.873 82.9458C267.618 85.2702 266.287 87.8024 263.936 89.1848C263.154 89.6443 262.445 88.4297 263.227 87.9701C265.422 86.6793 266.629 84.1642 267.788 81.9981C269.161 79.4297 270.364 76.7736 271.398 74.0507C271.712 73.2117 273.072 73.5759 272.751 74.4244Z" fill="#EB5E45"/>
<path d="M263.843 90.0494C262.116 88.8634 260.226 87.9557 258.216 87.3646C257.351 87.1091 257.719 85.7515 258.59 86.0089C260.71 86.6344 262.732 87.5858 264.552 88.8367C264.865 89.0521 265.006 89.4545 264.804 89.7996C264.623 90.1066 264.158 90.2649 263.843 90.0494Z" fill="#EB5E45"/>
<path d="M206.224 268.998L128.907 285.209C128.907 285.209 116.869 308.028 66.9517 690.326L106.981 691.026L175.233 401.061C176.223 396.859 182.401 397.558 182.428 401.873L176.164 689.552L217.964 685.292C217.964 685.292 256.639 395.331 239.843 347.934C221.812 297.056 206.224 268.998 206.224 268.998Z" fill="#18203C"/>
<path d="M229.218 321.194C229.218 321.194 204.325 332.538 190.013 310.778C175.698 289.017 177.542 275.237 177.542 275.237" stroke="#D6D6D6" stroke-width="0.6342" stroke-miterlimit="10"/>
<path d="M151.353 280.223C151.353 280.223 153.847 309.528 145.118 319.506C134.789 331.311 120.801 324.494 120.801 324.494" stroke="#D6D6D6" stroke-width="0.6342" stroke-miterlimit="10"/>
<path d="M161.776 60.1865C197.413 60.4172 184.085 105.23 184.085 105.23C184.085 105.23 182.91 107.253 180.614 109.816L162.506 129.057L154.589 122.065L124.197 108.056C122.225 97.5878 100.225 52.0083 161.776 60.1865Z" fill="#19191B"/>
<path d="M138.263 66.0414C142.393 62.51 145.065 57.3179 145.534 51.9027C146.003 46.4874 144.268 40.9139 140.807 36.7229C139.589 35.2489 138.13 33.9161 136.364 33.1839C134.856 32.5585 133.186 32.3983 131.557 32.5203C125.032 33.0142 119.354 38.212 117.514 44.4929C115.676 50.7739 117.378 57.7889 121.234 63.0764C124.334 67.3304 129.265 70.7282 134.509 70.2649" fill="#19191B"/>
<path d="M171.893 115.681C171.893 115.681 174.915 156.132 175.336 159.674C175.336 159.674 178.849 202.977 141.39 165.997C141.39 165.997 142.61 149.002 144.919 118.036L171.893 115.681Z" fill="#FF9E96"/>
<path d="M144.691 123.863C144.441 129.809 150.73 146.472 164.136 144.914C174.223 143.741 174.154 126.971 175.049 122.155C175.8 118.107 162.477 113.891 156.94 113.66C151.403 113.429 144.939 117.92 144.691 123.863Z" fill="#EB5E45"/>
<path d="M166.993 135.288C171.664 135.448 187.082 128.29 184.748 100.258C182.548 73.84 162.002 73.3748 157.35 73.6436C153.426 73.8686 126.66 72.8027 131.082 105.563C131.17 106.209 130.461 106.684 129.837 106.602C127.232 106.265 122.218 104.701 120.486 111.659C118.738 118.693 126.88 122.674 130.802 123.391C131.935 123.599 132.446 122.152 133.109 123.121C133.109 123.121 146.949 134.599 166.993 135.288Z" fill="#FF9E96"/>
<path d="M155.025 114.006C154.968 117.875 158.057 121.057 161.924 121.117C165.793 121.176 168.975 118.087 169.034 114.218C169.092 110.349 166.003 107.167 162.134 107.108C158.269 107.048 155.084 110.137 155.025 114.006Z" fill="#FF8278"/>
<path d="M183.261 118.498C181.804 117.192 180.9 115.285 180.933 113.176C180.974 110.415 182.607 108.053 184.944 106.945C184.944 106.945 184.78 114.326 183.261 118.498Z" fill="#FF8278"/>
<path d="M123.716 113.488C123.716 113.488 128.712 105.396 132.259 117.517Z" fill="#EB5E45"/>
<path d="M176.322 104.534L175.846 110.966L179.171 110.552C179.785 110.476 180.092 109.77 179.732 109.269L176.322 104.534Z" fill="#EB5E45"/>
<path d="M167.252 94.8894C166.167 95.7894 167.644 92.0388 169.183 91.4915C170.722 90.9443 172.352 91.5774 172.825 92.9064C172.825 92.9064 169.858 92.7252 167.252 94.8894Z" fill="#000428"/>
<path d="M183.923 98.6447C181.535 97.0163 179.081 97.1383 179.081 97.1383C179.569 95.815 181.207 95.1991 182.74 95.7635C183.314 95.9752 183.877 96.6388 184.296 97.3347C184.296 97.3347 184.422 98.9288 183.923 98.6447Z" fill="#000428"/>
<path d="M171.567 105.346C171.672 106.479 172.2 107.356 172.749 107.305C173.298 107.253 173.659 106.296 173.556 105.163C173.451 104.031 172.923 103.154 172.373 103.205C171.824 103.255 171.464 104.214 171.567 105.346Z" fill="#000428"/>
<path d="M179.373 104.644C179.472 105.725 179.977 106.564 180.502 106.514C181.026 106.467 181.371 105.55 181.272 104.468C181.173 103.387 180.668 102.55 180.143 102.598C179.617 102.647 179.272 103.563 179.373 104.644Z" fill="#000428"/>
<path d="M175.234 76.8385C151.635 119.613 130.606 107.24 130.606 107.24C130.606 107.24 117.924 59.2218 169.113 69.1752C192.503 73.7247 176.185 75.1148 175.234 76.8385Z" fill="#19191B"/>
<path d="M192.715 163.827L211.261 274.79L128.699 286.038C123.339 270.662 116.118 235.341 117.562 235.516L91.2065 211.264C95.1116 201.604 101.158 189.044 105.81 179.693C109.801 171.672 118.134 166.76 127.086 167.135L140.754 156.759C140.754 156.759 149.445 168.329 162.577 167.982C175.709 167.635 175.047 156.759 175.047 156.759L192.715 163.827Z" fill="white"/>
<path d="M175.256 152.189L198.887 350.041C200.165 360.559 209.996 367.856 220.432 366.037L254.86 360.033C254.86 360.033 220.151 257.774 220.567 259.021C220.983 260.268 205.603 167.986 205.603 167.986C205.603 167.986 192.715 142.213 175.256 152.189Z" fill="#9D68F8"/>
<path d="M201.967 224.459C202.796 236.323 202.973 247.928 199.055 259.302C196.818 265.794 194.547 280.926 191.052 286.872L174.425 152.086C175.562 150.949 182.51 159.471 187.363 160.815C195.848 182.331 200.357 201.414 201.967 224.459Z" fill="#B883FF"/>
<path d="M142.416 153.434L157.612 354.835C158.273 362.033 152.715 368.287 145.488 368.459C125.95 368.92 91.7593 369.681 90.8707 369.384C89.883 369.054 107.645 314.697 115.094 292.039C117.148 285.793 117.413 279.111 115.842 272.725C109.946 248.769 96.4346 186.778 109.265 167.672C120.801 149.277 142.416 153.434 142.416 153.434Z" fill="#9D68F8"/>
<path d="M142.931 278.738C136.582 267.355 133.676 253.043 130.922 240.412C125.5 215.533 128.693 184.506 129.79 158.579L142.416 151.564L152.196 289.361C148.539 286.495 145.347 283.069 142.931 278.738Z" fill="#B883FF"/>
<path d="M111.24 217.035C109.162 219.113 73.4117 255.279 65.9295 245.717C62.053 240.763 77.5685 187.52 77.5685 187.52L118.307 158.007L111.24 217.035Z" fill="#9D68F8"/>
<path d="M48.1931 94.005C49.0931 99.5499 49.7185 119.764 49.7185 119.764C49.7185 119.764 29.8518 214.5 50.5765 229.988C70.8551 245.143 81.1555 228.738 81.4186 215.804C81.7676 198.704 80.7016 143.697 72.8896 115.866L74.9623 91.8866C74.9623 91.8866 73.5169 87.6517 70.3993 92.6398C67.2818 97.6279 67.2818 99.1877 67.2818 99.1877C67.2818 99.1877 61.6702 74.2471 58.8634 70.1933C56.0566 66.1395 56.0566 69.5697 56.0566 71.1295C56.0566 72.6873 56.3693 75.1814 56.3693 75.1814C56.3693 75.1814 52.6282 67.6992 51.692 69.5697C50.7577 71.4403 54.1861 86.0938 54.1861 86.0938L50.2753 88.9368C48.6793 90.1 47.8765 92.0544 48.1931 94.005Z" fill="#FF9E96"/>
<path d="M76.8895 135.891C81.0748 164.697 86.5758 214.462 86.2975 228.051C86.0324 240.985 71.6591 255.678 51.3806 240.521C38.7768 231.102 36.7194 177.804 40.573 146.369C51.5694 142.977 66.1543 140.075 76.8895 135.891Z" fill="#9D68F8"/>
<path d="M56.7184 75.0021C57.4754 78.3751 58.4212 81.7044 59.55 84.9707C59.8455 85.8287 58.4879 86.1967 58.1943 85.3444C57.0655 82.0762 56.1197 78.7489 55.3608 75.3758C55.1644 74.4949 56.5201 74.1173 56.7184 75.0021Z" fill="#EB5E45"/>
<path d="M55.0428 85.4634C56.9705 88.5085 58.5455 91.9579 59.3102 95.495C59.457 96.1776 59.5218 96.9384 59.1557 97.5676C58.7743 98.2198 58.0116 98.5096 57.2871 98.3609C55.7083 98.0386 54.6919 96.3053 53.8625 95.0755C52.726 93.3899 51.7993 91.5823 51.0443 89.6965C50.7087 88.8575 52.0663 88.4914 52.4 89.3227C53.1093 91.0922 54.0112 92.7835 55.0771 94.3643C55.5443 95.0583 56.0286 95.8115 56.6311 96.3988C57.0087 96.7687 57.9735 97.4456 58.025 96.4827C58.0688 95.6799 57.6779 94.7647 57.4472 94.0096C57.1745 93.1153 56.8618 92.2306 56.5129 91.363C55.7845 89.5535 54.8711 87.8202 53.83 86.1728C53.3419 85.4062 54.5585 84.6988 55.0428 85.4634Z" fill="#EB5E45"/>
<path d="M56.1405 96.802C55.7344 98.171 54.4359 99.1988 52.9963 99.2159C51.5509 99.2331 50.2429 98.2263 49.7986 96.8706C49.6804 96.5102 49.9359 96.1022 50.2906 96.0049C50.6719 95.9001 51.038 96.1346 51.1563 96.4969C51.4003 97.2443 52.1935 97.8202 52.9963 97.8087C53.0554 97.8087 53.1145 97.803 53.1736 97.7992C53.248 97.7935 53.1088 97.8183 53.2308 97.7897C53.3452 97.7649 53.4596 97.7363 53.5721 97.6981C53.5759 97.6962 53.7723 97.6142 53.6655 97.6638C53.7189 97.639 53.7723 97.6123 53.8238 97.5837C53.9268 97.5265 54.0279 97.4636 54.1232 97.3931C54.1632 97.3645 54.1613 97.3645 54.1213 97.395C54.1384 97.3797 54.1575 97.3645 54.1746 97.3492C54.2261 97.2996 54.2795 97.2539 54.3291 97.2024C54.3711 97.1604 54.4092 97.1147 54.4492 97.0708C54.4931 97.0212 54.4264 97.1109 54.4912 97.0174C54.5579 96.9202 54.6209 96.821 54.6743 96.7162C54.6762 96.7123 54.76 96.5179 54.7181 96.6265C54.7429 96.5598 54.7638 96.4931 54.7848 96.4244C54.8935 96.0602 55.2787 95.8314 55.6505 95.9325C56.0109 96.0354 56.2492 96.4359 56.1405 96.802Z" fill="#EB5E45"/>
<path d="M66.3512 99.7296C63.4625 101.442 61.4908 104.565 61.2372 107.923C61.1686 108.819 59.7633 108.827 59.83 107.923C60.1218 104.064 62.305 100.492 65.6419 98.515C66.4217 98.0517 67.1311 99.2682 66.3512 99.7296Z" fill="#EB5E45"/>
<path d="M202.945 39.9055C204.602 30.5086 214.06 24.4897 223.457 27.2448C230.643 29.3516 235.483 36.3413 234.942 43.8034C234.431 50.3664 230.219 55.5665 224.667 57.7525C224.184 57.9257 223.845 58.3827 223.757 58.8839L222.751 64.5847L207.654 61.9225L208.659 56.2217C208.747 55.7206 208.585 55.1752 208.191 54.8473C204.104 51.2845 201.929 45.6689 202.945 39.9055Z" fill="#FFDF4A"/>
<path d="M214.096 69.7116C211.903 69.325 210.459 67.2616 210.845 65.069C211.232 62.8764 213.295 61.4316 215.488 61.8183C217.68 62.2049 219.125 64.2682 218.739 66.4609C218.352 68.6535 216.289 70.0983 214.096 69.7116Z" fill="#19191B"/>
<path d="M220.85 67.6729L208.446 65.4858C207.694 65.3532 207.178 64.6163 207.311 63.8645L208.46 57.3493L223.62 60.0225L222.471 66.5377C222.339 67.2895 221.602 67.8055 220.85 67.6729Z" fill="#7D7D7D"/>
<path d="M208.191 59.2398L223.289 61.9019L223.179 62.5284L208.081 59.8662L208.191 59.2398Z" fill="#D3D3D3"/>
<path d="M207.882 60.9939L222.979 63.656L222.869 64.2825L207.771 61.6203L207.882 60.9939Z" fill="#D3D3D3"/>
<path d="M207.573 62.748L222.671 65.4101L222.56 66.0366L207.463 63.3744L207.573 62.748Z" fill="#D3D3D3"/>
<path d="M223.861 14.3326C224.487 14.4431 224.962 15.0436 224.841 15.7328L223.714 22.1226C223.604 22.7491 223.003 23.2245 222.314 23.103C221.625 22.9815 221.212 22.392 221.334 21.7029L222.46 15.313C222.582 14.6239 223.234 14.2221 223.861 14.3326Z" fill="#FFDF4A"/>
<path d="M192.32 36.4173L198.71 37.544C199.337 37.6545 199.812 38.2551 199.691 38.9442C199.569 39.6333 198.979 40.0461 198.29 39.9246L191.9 38.7979C191.274 38.6874 190.799 38.0868 190.92 37.3977C191.042 36.7086 191.694 36.3069 192.32 36.4173Z" fill="#FFDF4A"/>
<path d="M238.155 45.7265C238.266 45.1001 238.866 44.6246 239.556 44.7461L245.945 45.8728C246.572 45.9833 247.047 46.5839 246.926 47.273C246.804 47.9621 246.215 48.3749 245.526 48.2534L239.136 47.1267C238.447 47.0052 238.045 46.353 238.155 45.7265Z" fill="#FFDF4A"/>
<path d="M206.034 26.0459L202.319 20.7401C201.958 20.2243 202.09 19.4725 202.617 19.0487C203.133 18.6875 203.885 18.82 204.309 19.3469L208.024 24.6527C208.385 25.1686 208.252 25.9203 207.726 26.3442C207.21 26.7054 206.458 26.5728 206.034 26.0459Z" fill="#FFDF4A"/>
<path d="M231.811 58.6248L235.526 63.9306C235.888 64.4465 235.755 65.1982 235.228 65.6221C234.712 65.9833 233.96 65.8507 233.537 65.3238L229.821 60.018C229.46 59.5021 229.593 58.7504 230.12 58.3265C230.647 57.9027 231.398 58.0353 231.811 58.6248Z" fill="#FFDF4A"/>
<path d="M240.518 25.7316C241.034 25.3704 241.786 25.5029 242.21 26.0298C242.571 26.5457 242.438 27.2974 241.912 27.7213L236.606 31.4364C236.09 31.7976 235.338 31.6651 234.914 31.1382C234.553 30.6223 234.686 29.8706 235.213 29.4467L240.518 25.7316Z" fill="#FFDF4A"/>
<path d="M201.24 53.2342C201.756 52.873 202.508 53.0056 202.931 53.5325C203.293 54.0483 203.16 54.8001 202.633 55.2239L197.327 58.9391C196.812 59.3003 196.06 59.1678 195.636 58.6409C195.275 58.125 195.407 57.3733 195.934 56.9494L201.24 53.2342Z" fill="#FFDF4A"/>
</g>
<defs>
<clipPath id="clip0_80_892">
<rect width="324" height="300" rx="30" fill="white"/>
</clipPath>
</defs>
</svg>
