<svg width="324" height="300" viewBox="0 0 324 300" fill="none" xmlns="http://www.w3.org/2000/svg">
<g clip-path="url(#clip0_80_819)">
<path d="M165.749 128.474L154.152 59.44C153.613 54.7857 161.454 43.6454 165.255 41.3082C175.661 34.9074 193.529 30.0338 205.272 32.6536C205.272 32.6536 234.209 42.0275 225.651 71.7798C211.59 106.83 276.251 149.92 251.02 149.318" fill="#19191B"/>
<path d="M156.863 100.805C161.33 100.805 164.952 96.9164 164.952 92.1196C164.952 87.3227 161.33 83.4341 156.863 83.4341C152.395 83.4341 148.773 87.3227 148.773 92.1196C148.773 96.9164 152.395 100.805 156.863 100.805Z" fill="white"/>
<path d="M190.638 75.6167C191.201 75.8323 196.181 76.0207 196.759 76.0171C199.173 76.0062 204.744 75.4537 205.532 82.2332C206.327 89.0869 200.243 92.9441 196.584 93.1597C195.527 93.2213 193.089 93.4532 192.373 94.2902C190.172 96.8611 192.5 116.832 190.806 123.834C187.065 139.303 195.018 132.014 195.018 132.014C195.018 132.014 143.382 191.14 157.637 131.965C157.637 131.965 160.619 95.2305 160.443 95.0421C157.497 91.8806 146.25 90.5744 153.251 64.3369C157.791 47.3229 160.541 64.6449 174.093 44.4694C176.131 46.5094 173.99 69.2322 190.638 75.6167Z" fill="#FFBBB5"/>
<path d="M202.786 84.2013C202.786 84.2013 198.992 75.6083 194.179 87.1236Z" fill="#FA786B"/>
<path d="M174.764 74.9209C171.633 74.8448 169.039 77.5081 168.968 80.8688C168.898 84.2296 171.378 87.016 174.509 87.0921C177.639 87.1682 180.234 84.505 180.304 81.1442C180.375 77.7834 177.895 74.997 174.764 74.9209Z" fill="#FF9199"/>
<path d="M151.144 77.193C153.739 76.6875 155.734 74.2815 155.795 71.3411C155.842 69.0746 154.73 67.069 153.04 65.9802C153.04 65.9802 150.617 72.7144 151.144 77.193Z" fill="#FF9199"/>
<path d="M165.155 61.0703L161.164 73.9427L158.16 72.5186C157.605 72.2559 157.517 71.4515 157.997 71.0566L165.155 61.0703Z" fill="#FA786B"/>
<path d="M175.183 62.2718C175.933 63.3969 175.498 59.4708 174.266 58.5686C173.034 57.6664 171.447 57.8602 170.721 59.0034C170.721 59.0034 173.382 59.5705 175.183 62.2718Z" fill="black"/>
<path d="M156.719 59.5877C155.478 59.9627 158.105 57.1908 159.592 57.314C161.08 57.4372 162.205 58.6565 162.105 60.0352C162.105 60.0352 159.697 58.6891 156.719 59.5877Z" fill="black"/>
<path d="M168.637 69.7061C168.22 70.8149 167.476 71.5378 166.976 71.3222C166.476 71.1047 166.407 70.0304 166.823 68.9198C167.24 67.811 167.985 67.0863 168.485 67.3037C168.985 67.5211 169.054 68.5973 168.637 69.7061Z" fill="black"/>
<path d="M160.631 65.6119C160.232 66.6717 159.522 67.362 159.044 67.1554C158.565 66.9471 158.5 65.9217 158.899 64.8618C159.297 63.8019 160.007 63.1117 160.486 63.3182C160.964 63.5247 161.029 64.5538 160.631 65.6119Z" fill="black"/>
<path d="M160.443 95.0457C160.443 95.0457 171.215 97.256 176.654 96.8792C182.091 96.5023 159.124 112.705 160.443 95.0457Z" fill="#FA786B"/>
<path d="M192.457 104.281C196.924 104.281 200.546 100.392 200.546 95.5956C200.546 90.7988 196.924 86.9102 192.457 86.9102C187.989 86.9102 184.367 90.7988 184.367 95.5956C184.367 100.392 187.989 104.281 192.457 104.281Z" fill="white"/>
<path d="M213.713 234.726C224.397 255.006 230.044 269.861 236.184 295.645C243.304 325.548 293.853 576.185 297.212 630.577C287.733 631.169 267.21 633.278 261.664 632.946C244.021 578.663 188.841 403.902 181.277 369.705C180.114 364.449 172.55 365.602 173.141 370.968C177.435 410.02 170.588 564.879 172.206 631.761C167.604 634.278 140.791 633.069 135.475 632.354C129.694 565.374 102.462 315.897 148.777 233.704C169.95 230.568 192.238 234.039 213.713 234.726Z" fill="#F9CC48"/>
<path d="M156.054 234.571C156.054 234.571 134.212 292.376 134.212 363.123C134.212 433.869 142.301 621.372 142.301 621.372" stroke="#325081" stroke-width="0.4722" stroke-miterlimit="10"/>
<path d="M282.095 616.075L202.612 236.711" stroke="#325081" stroke-width="0.4722" stroke-miterlimit="10"/>
<path d="M150.148 231.849L241.802 318.827C241.802 318.827 228.171 264.931 212.68 233.704L150.148 231.849Z" fill="black"/>
<path d="M61.6071 178.733C61.6071 178.733 118.602 263.6 131.958 253.481C131.958 253.481 147.278 241.868 139.575 194.455C139.56 189.85 139.539 186.657 139.691 185.936C139.691 185.936 143.003 139.126 150.168 129.432C150.954 128.368 153.33 126.388 153.014 126.305C131.129 120.429 122.755 179.508 116.722 206.84C116.472 207.972 74.695 164.286 74.695 164.286C74.695 164.286 52.8111 133.218 51.2856 134.994C49.0735 137.567 57.5523 151.421 57.5523 151.421C57.5523 151.421 56.9997 153.004 55.3402 153.796C53.6806 154.588 52.7603 155.774 52.2059 158.15C51.6534 160.525 49.4412 161.911 49.0734 163.295C48.7057 164.681 56.9382 175.106 61.6071 178.733Z" fill="#FFBBB5"/>
<path d="M73.9576 164.087C73.9576 164.087 69.5334 150.627 67.6909 151.024C65.8483 151.419 57.7373 155.18 57.9221 158.545C58.1068 161.909 65.1109 159.139 65.1109 159.139C65.1109 159.139 63.821 166.659 67.3231 167.65C70.8233 168.64 73.9576 164.087 73.9576 164.087Z" fill="#FFBBB5"/>
<path d="M63.0818 158.544C63.0818 158.544 63.2666 161.909 60.6849 162.503C60.6849 162.503 60.1323 166.067 56.8132 165.275C56.8132 165.275 57.7353 166.858 55.708 167.253C55.708 167.253 64.3735 177.348 63.0818 158.544Z" fill="#FF9199"/>
<path d="M64.7667 152.064C63.2412 153.247 61.6542 154.28 60.0599 155.289C59.3098 155.831 58.346 156.229 57.7898 156.762C57.1738 157.354 57.1176 157.758 57.5253 158.151C57.9655 158.623 58.8406 159.027 59.645 159.211C60.4856 159.425 61.3932 159.443 62.3227 159.523C62.5582 159.543 62.7702 159.536 63.0981 159.581C63.379 159.619 63.8754 159.768 64.0855 160.244C64.2667 160.711 64.1217 161.028 64.0819 161.24L63.9062 161.933C63.6235 162.846 63.388 163.768 63.0619 164.674L62.9767 164.659L63.4604 161.855C63.5021 161.398 63.7177 160.893 63.5801 160.49C63.3572 160.088 62.7775 160.201 62.33 160.191C60.4693 160.211 58.3913 160.083 56.9038 158.746C56.556 158.4 56.3512 157.869 56.4671 157.371C56.5777 156.874 56.9147 156.481 57.2753 156.168C58.0199 155.541 58.9076 155.186 59.7265 154.706L64.7286 151.986L64.7667 152.064Z" fill="#FA786B"/>
<path d="M57.4002 150.997C57.8694 151.057 58.2137 151.224 58.5416 151.405C58.8677 151.586 59.0996 151.849 59.3805 152.068C59.5707 152.365 59.8171 152.615 59.962 152.95C60.1106 153.284 60.2392 153.632 60.2464 154.086L60.1812 154.142C59.1956 153.144 58.2481 152.115 57.335 151.055L57.4002 150.997Z" fill="#FA786B"/>
<path d="M53.6588 155.994C54.5158 156.578 55.2658 157.215 56.0322 157.828C56.7949 158.44 57.4997 159.103 58.2806 159.679C58.9763 160.337 59.7843 160.944 60.4837 161.533C60.8261 161.817 61.1884 162.036 61.5707 162.111C61.9692 162.223 62.4168 162.161 62.8244 161.861L62.8951 161.91C62.607 162.344 62.0779 162.564 61.5724 162.565C61.0561 162.569 60.5706 162.361 60.1412 162.107C59.2915 161.574 58.5016 160.971 57.7298 160.341C56.2079 159.054 54.822 157.61 53.5918 156.049L53.6588 155.994Z" fill="#FA786B"/>
<path d="M60.8788 162.51C60.935 163.66 60.9531 165.028 59.7411 166.074C59.145 166.59 58.2247 166.635 57.5471 166.45C56.8441 166.267 56.2698 165.923 55.7535 165.548C54.786 164.699 54.0342 163.802 53.3566 162.838C52.6917 161.869 52.0721 160.869 51.6191 159.758L51.6879 159.707C52.3854 160.629 53.1138 161.528 53.8657 162.407C54.6248 163.274 55.3803 164.164 56.2807 164.871C57.1286 165.563 58.3678 166.164 59.3733 165.512C60.3317 164.856 60.5763 163.593 60.7919 162.495L60.8788 162.51Z" fill="#FA786B"/>
<path d="M57.0434 164.68C57.2499 165.412 57.2137 166.183 57.0271 166.921C56.9257 167.296 56.8296 167.671 56.5561 168.08C56.4492 168.256 56.1248 168.52 55.8549 168.616C55.6429 168.703 55.4237 168.765 55.2027 168.805C54.3222 169.022 53.4309 168.598 52.8547 168.352C52.5685 168.189 52.2206 168.031 51.8528 167.75C51.5104 167.439 51.3437 167.069 51.2549 166.689L51.322 166.634C51.5485 166.899 51.7912 167.156 52.0937 167.317C52.3945 167.479 52.7442 167.546 53.0812 167.654C53.7461 167.894 54.4219 168.073 55.1103 168.004C55.8676 168.022 56.2499 167.359 56.4999 166.712C56.7499 166.066 56.9438 165.375 56.9619 164.683L57.0434 164.68Z" fill="#FA786B"/>
<path d="M158.261 125.384C158.261 125.384 138.843 124.173 133.189 136.576C127.536 148.98 115.002 204.397 115.002 204.397L77.3981 164.296L57.835 185.082C57.835 185.082 116.231 262.191 130.485 257.441C144.74 252.692 158.424 142.294 158.261 125.384Z" fill="#9D68F8"/>
<path d="M153.904 140.461C144.858 168.097 132.368 195.117 121.146 221.922C117.682 230.196 114.105 238.421 110.477 246.621C117.372 253.87 124.807 259.329 130.485 257.437C143.349 253.151 155.743 162.861 157.92 132.844C156.598 135.394 155.25 137.926 153.904 140.461Z" fill="#8D58E8"/>
<path d="M158.076 125.995C158.694 127.601 133.173 177.052 133.907 192.796C134.646 208.659 103.961 350.811 103.175 353.197C103.175 353.197 231.594 352.844 258.862 353.197C233.594 217.073 233.594 160.014 218.881 128.023C218.881 128.023 197.316 117.457 191.957 117.033C191.957 117.033 161.456 139.23 158.076 125.995Z" fill="#9D68F8"/>
<path d="M218.882 128.023C218.882 128.023 216.231 126.724 212.564 125.023C209.423 145.849 203.152 166.347 198.409 186.753C192.289 213.088 186.325 239.459 180.515 265.865C174.127 294.895 167.945 323.97 161.923 353.079C199.582 353.024 244.083 353.008 258.865 353.198C233.595 217.074 233.595 160.015 218.882 128.023Z" fill="#8D58E8"/>
<path d="M237.218 279.738C236.492 274.176 240.51 286.88 244.768 303.479C246.099 308.671 239.914 306.954 234.521 290.739L237.218 279.738Z" fill="#FF9199"/>
<path d="M285.874 205.591C289.788 198.321 290.02 193.714 285.215 187.088C276.975 175.725 260.704 159.537 235.601 137.867C208.245 114.253 200.176 142.083 200.176 142.083C200.176 142.083 246.978 195.714 252.08 200.899C246.19 213.492 235.235 239.603 227.676 251.345C227.248 252.01 226.776 252.586 226.297 253.08C223.513 255.95 221.306 259.396 220.286 263.391C217.844 272.941 214.389 287.976 216.974 287.514C220.752 286.838 225.788 273.654 225.788 273.654C225.788 273.654 222.955 309.146 228.937 309.824C229.568 309.148 234.289 286.838 233.66 282.782C233.66 282.782 231.752 308.835 233.66 310.5C238.697 314.893 237.753 307.458 237.753 307.458L239.405 264.25C239.405 264.25 271.728 231.869 285.874 205.591Z" fill="#FFBBB5"/>
<path d="M252.08 200.899C250.926 203.364 227.738 247.506 226.259 250.799C234.704 256.243 237.162 262.316 245.516 267.916C250.254 260.764 285.311 212.24 288.721 205.906C292.634 198.636 290.02 193.713 285.215 187.086C276.975 175.723 260.704 159.535 235.601 137.865C208.245 114.251 201.806 131.484 201.806 131.484C201.806 131.484 166.032 147.132 252.08 200.899Z" fill="#9D68F8"/>
<g opacity="0.66">
<path d="M27 34.9912C35.1516 25.5786 45.6334 20 57.2804 20C72.7712 20 85 28.1351 85 43.8219C85 58.9295 66.4818 62.6486 66.4818 69.6197V76.0117H44.935L44.8183 66.7154C44.8183 56.0238 63.3365 49.9811 63.3365 43.5905C63.3365 39.1745 58.794 38.1283 54.7182 38.1283C49.7106 38.1283 43.5379 43.0085 39.5788 47.6573L27 34.9912ZM55.0668 80.7125C63.3365 80.7125 68.9259 86.4075 68.9259 93.0308C68.9259 99.5378 63.5698 105 55.0668 105C47.4971 105 41.7896 99.0736 41.7896 93.0308C41.791 87.2209 46.6819 80.7125 55.0668 80.7125Z" fill="#A6A6A6"/>
<path d="M92.2666 92.7467C93.9062 85.949 97.6928 80.4685 103.499 77.4756C111.221 73.4934 119.412 74.4137 123.454 82.2513C127.345 89.799 119.073 96.4154 120.868 99.8994L122.515 103.092L111.775 108.63L109.322 104.016C106.568 98.6746 114.243 90.8969 112.596 87.7028C111.458 85.4961 108.925 86.1411 106.893 87.1901C104.396 88.4764 102.577 92.5021 101.8 95.8411L92.2666 92.7467ZM118.035 108.375C122.157 106.249 126.411 107.657 128.117 110.967C129.793 114.217 128.53 118.325 124.293 120.51C120.519 122.455 116.147 120.961 114.591 117.942C113.093 115.038 113.855 110.529 118.035 108.375Z" fill="#D1D1D1"/>
<path d="M257.145 41.3247C263.796 39.1669 270.448 39.5293 276.036 42.9136C283.467 47.414 286.966 54.8765 282.399 62.4205C278 69.6838 268.033 66.0929 266.004 69.4446L264.144 72.5173L253.806 66.2578L256.456 61.7538C259.569 56.6139 270.211 59.0869 272.074 56.0142C273.36 53.8909 271.485 52.0683 269.53 50.8834C267.127 49.4286 262.745 49.983 259.493 51.0664L257.145 41.3247ZM257.299 71.4611C261.266 73.8634 262.29 78.2243 260.361 81.4093C258.466 84.5382 254.306 85.6071 250.228 83.1377C246.597 80.9382 245.584 76.4307 247.343 73.5264C249.034 70.7328 253.275 69.0261 257.299 71.4611Z" fill="#A6A6A6"/>
</g>
</g>
<defs>
<clipPath id="clip0_80_819">
<rect width="324" height="300" rx="30" fill="white"/>
</clipPath>
</defs>
</svg>
