<svg width="324" height="300" viewBox="0 0 324 300" fill="none" xmlns="http://www.w3.org/2000/svg">
<g clip-path="url(#clip0_80_750)">
<path d="M266.939 182.529L246.99 257.684C243.809 269.668 231.319 276.618 219.459 273.006L206 268.906L246.627 173.327L266.939 182.529Z" fill="#E57761"/>
<path d="M254.735 161.687C253.13 159.68 240.445 166.423 237.394 167.145C234.343 167.867 237.073 175.48 242.692 174.724C248.311 173.968 250.077 168.045 250.077 168.045L254.735 161.687Z" fill="#DA6C56"/>
<path d="M245.406 145.529L245.021 194.684L250.319 193.56V145.548C250.319 144.482 249.632 143.537 248.617 143.21C247.04 142.698 245.42 143.869 245.406 145.529Z" fill="#2A3551"/>
<path d="M252.976 162.529C252.976 162.529 236.753 178.786 239.883 183.482C243.014 188.179 253.01 179.628 254.937 176.979C254.696 182.398 261.623 187.492 265.775 186.853C272.037 185.891 274.566 179.508 272.639 176.618C270.712 173.729 259.031 166.985 259.031 166.985C259.031 166.985 256.074 158.196 252.976 162.529Z" fill="#F0826C"/>
<path d="M194.322 150.37C194.322 150.37 166.15 112.799 141.654 128.491C117.157 144.184 147.618 197.143 165.699 233.707L219.855 201.892L194.322 150.37Z" fill="#9D68F8"/>
<path d="M102.892 123.433C102.892 123.433 52.1569 128.615 48.9623 170.628C45.7678 212.642 66.8803 386.881 66.8803 386.881L206.36 377.272L192.146 180.561C191.632 169.849 188.328 159.477 182.585 150.507C177.28 142.225 182.342 136.291 178.812 135.851L110.648 117.768L102.892 123.433Z" fill="#9D68F8"/>
<path d="M87.9303 135.175C54.0894 140.325 50.8504 151.078 49.254 172.085C46.0594 214.099 67.1719 386.866 67.1719 386.866L195.595 378.147" fill="#9D68F8"/>
<path d="M121.394 77.2665L104.711 123.049C104.711 123.049 117.902 139.538 126.632 140.702C144.512 143.087 147.582 127.317 147.582 127.317L147.384 102.191L123.656 80.712L121.394 77.2665Z" fill="#F0826C"/>
<path d="M123.655 80.7108L147.384 102.19L147.193 111.215C147.193 111.215 128.307 115.424 120.952 83.7897" fill="#C75842"/>
<path d="M162.925 287.725L209.439 203.46C211.919 198.932 216.169 195.713 221.084 194.636L290.649 190.239C292.473 189.84 293.874 191.844 292.937 193.515L248.262 273.391C245.857 277.691 241.846 280.791 237.183 281.955L165.283 290.968C163.452 291.427 161.995 289.423 162.925 287.725Z" fill="#18203C"/>
<path d="M169.032 288.517L211.002 207.876C213.481 203.348 220.491 199.07 225.407 197.995L290.67 194.478C292.494 194.079 293.895 196.083 292.959 197.754L248.283 277.631C245.879 281.93 241.867 285.031 237.205 286.195L171.39 291.762C169.558 292.221 168.101 290.217 169.032 288.517Z" fill="#FFDF4A"/>
<path d="M193.115 263.166C189.505 265.327 147.821 301.332 114.251 317.879C104.995 322.441 92.8946 311.832 89.5737 302.204L58.4379 220.35L109.115 194.772C109.334 195.319 118.253 246.282 125.525 263.864C128.127 270.155 126.536 269.261 132.395 267.076L178.158 243.764C178.158 243.764 181.95 240.277 183.36 237.795C186.042 233.077 195.416 227.868 195.416 227.868L189.842 237.898C188.861 239.581 190.018 239.952 193.424 238.492L216.147 228.928C216.147 228.928 221.271 227.827 218.58 229.902C215.889 231.979 206.872 237.627 206.548 237.8C200.773 240.884 221.458 231.119 221.397 233.057C221.337 234.995 209.39 241.781 209.6 242.016C209.808 242.253 222.563 236.351 222.59 238.176C222.615 240.002 211.276 245.59 210.892 245.64C210.153 245.736 219.995 240.567 220.057 241.553C220.121 242.546 195.179 261.931 193.115 263.166Z" fill="#F0826C"/>
<path d="M116.167 229.839C112.25 212.099 109.239 195.083 109.114 194.77L58.4373 220.348L78.2043 272.313C90.5768 257.9 103.102 243.623 116.167 229.839Z" fill="#C75842"/>
<path d="M110.433 305.22C105.819 302.209 94.5566 298.564 90.4473 304.311C94.6545 313.293 105.671 322.108 114.253 317.877C115.552 317.237 116.865 316.559 118.188 315.863C117.066 311.7 114.689 307.996 110.433 305.22Z" fill="#C75842"/>
<path d="M104.205 158.883C104.205 158.883 99.4367 124.124 71.4475 131.339C33.5151 141.118 53.2287 252.871 63.777 270.315L123.139 240.053L104.205 158.883Z" fill="#8D58E8"/>
<path d="M171.692 51.0398C170.661 58.7495 164.844 54.5334 164.844 54.5334C146.634 61.8355 122.514 75.9858 122.514 75.9858C122.514 75.9858 115.236 73.1792 115.553 71.2767C117.029 62.4156 119.527 47.3096 121.254 36.8806C122.332 30.3598 128.123 25.6952 134.724 26.0155C149.985 26.7595 175.136 28.0818 177.097 28.8097C180.893 30.2174 183.23 39.1461 172.027 39.2921C172.027 39.2921 180.023 41.7979 179.008 45.8947C177.994 49.9934 171.692 51.0398 171.692 51.0398Z" fill="#19191B"/>
<path d="M135.37 67.1325C135.634 67.5756 135.924 67.9671 136.225 68.3337C128.246 72.6228 122.514 75.9847 122.514 75.9847C122.514 75.9847 115.237 73.1763 115.553 71.2756C116.093 68.033 116.723 64.6551 117.374 61.3627C124.262 60.9124 131.799 61.142 135.37 67.1325Z" fill="#C75842"/>
<path d="M123.226 70.5013C122.802 71.1883 121.847 71.2292 121.393 70.5743C119.853 68.3479 116.568 65.0679 113.786 72.2241C110.01 81.9412 120.852 82.2295 121.43 83.7476C122.599 86.8229 126.271 97.1077 133.703 102.255C138.232 105.392 146.417 109.567 151.365 106.948C152.393 106.403 160.105 105.538 168.505 49.6201C168.505 49.6201 166.373 53.8914 161.244 51.7931C157.693 50.3391 155.388 46.6801 151.551 44.7687C148.435 43.2168 139.816 39.2 133.714 49.9049C130.911 54.8222 125.717 66.4525 123.226 70.5013Z" fill="#F0826C"/>
<path d="M115.508 71.7735L120.255 77.0254C120.255 77.0254 120.13 66.5074 115.508 71.7735Z" fill="#C75842"/>
<path d="M155.831 76.3078C155.597 77.5198 154.928 78.4097 154.337 78.2958C153.745 78.1819 153.455 77.1069 153.688 75.895C153.921 74.683 154.59 73.7931 155.181 73.907C155.774 74.0227 156.064 75.0959 155.831 76.3078Z" fill="#000F30"/>
<path d="M163.008 78.2471C162.775 79.459 162.106 80.3489 161.513 80.235C160.921 80.1211 160.631 79.0461 160.864 77.8342C161.097 76.6222 161.766 75.7323 162.357 75.8462C162.951 75.9601 163.241 77.0351 163.008 78.2471Z" fill="#000F30"/>
<path d="M149.742 62.673C147.94 63.4774 151.39 58.9356 153.658 58.7932C155.925 58.6491 157.847 60.1547 157.952 62.1533C157.952 62.1533 154.072 60.742 149.742 62.673Z" fill="#000F30"/>
<path d="M164.952 70.654C162.733 69.919 161.019 70.008 161.019 70.008C161.663 68.2585 163.585 67.3153 165.571 67.6445" fill="#000F30"/>
<path d="M159.079 77.0729L160.559 86.9965C160.584 87.1584 160.456 87.3044 160.305 87.2866L156.391 86.8381C156.256 86.8221 156.167 86.6797 156.205 86.5356L158.637 77.0604C158.705 76.806 159.041 76.8149 159.079 77.0729Z" fill="#C75842"/>
</g>
<defs>
<clipPath id="clip0_80_750">
<rect width="324" height="300" rx="30" fill="white"/>
</clipPath>
</defs>
</svg>
