<svg width="296" height="334" viewBox="0 0 296 334" fill="none" xmlns="http://www.w3.org/2000/svg">
<path d="M138.749 108.475L127.152 39.4405C126.612 34.7861 134.453 23.6458 138.254 21.3087C148.661 14.9078 166.528 10.0343 178.272 12.654C178.272 12.654 207.209 22.0279 198.65 51.7802C184.589 86.83 249.25 129.92 224.02 129.319" fill="#19191B"/>
<path d="M129.862 80.8055C134.33 80.8055 137.952 76.9169 137.952 72.12C137.952 67.3232 134.33 63.4346 129.862 63.4346C125.395 63.4346 121.773 67.3232 121.773 72.12C121.773 76.9169 125.395 80.8055 129.862 80.8055Z" fill="white"/>
<path d="M163.637 55.6171C164.2 55.8327 169.18 56.0211 169.758 56.0175C172.172 56.0067 177.743 55.4541 178.531 62.2336C179.326 69.0874 173.242 72.9445 169.583 73.1601C168.526 73.2217 166.088 73.4536 165.372 74.2907C163.171 76.8615 165.499 96.8322 163.805 103.835C160.064 119.303 168.017 112.015 168.017 112.015C168.017 112.015 116.381 171.14 130.636 111.966C130.636 111.966 133.618 75.2309 133.442 75.0425C130.496 71.8811 119.249 70.5748 126.25 44.3373C130.79 27.3233 133.54 44.6453 147.092 24.4698C149.13 26.5099 146.989 49.2326 163.637 55.6171Z" fill="#FFBBB5"/>
<path d="M175.786 64.2018C175.786 64.2018 171.992 55.6087 167.179 67.1241Z" fill="#FA786B"/>
<path d="M147.764 54.9214C144.633 54.8453 142.039 57.5085 141.968 60.8693C141.898 64.2301 144.378 67.0165 147.509 67.0926C150.639 67.1687 153.234 64.5054 153.304 61.1447C153.375 57.7839 150.895 54.9975 147.764 54.9214Z" fill="#FF9199"/>
<path d="M124.144 57.1934C126.739 56.6879 128.734 54.282 128.795 51.3415C128.842 49.075 127.73 47.0695 126.04 45.9806C126.04 45.9806 123.617 52.7148 124.144 57.1934Z" fill="#FF9199"/>
<path d="M138.154 41.0708L134.163 53.9431L131.159 52.5191C130.605 52.2564 130.516 51.452 130.996 51.057L138.154 41.0708Z" fill="#FA786B"/>
<path d="M148.183 42.2722C148.933 43.3973 148.498 39.4713 147.266 38.5691C146.034 37.6668 144.447 37.8607 143.72 39.0039C143.72 39.0039 146.382 39.5709 148.183 42.2722Z" fill="black"/>
<path d="M129.719 39.5882C128.478 39.9632 131.105 37.1912 132.592 37.3144C134.08 37.4376 135.205 38.6569 135.105 40.0357C135.105 40.0357 132.697 38.6895 129.719 39.5882Z" fill="black"/>
<path d="M141.637 49.7065C141.22 50.8153 140.475 51.5382 139.975 51.3226C139.475 51.1052 139.406 50.0308 139.823 48.9202C140.24 47.8115 140.984 47.0868 141.484 47.3042C141.984 47.5216 142.053 48.5977 141.637 49.7065Z" fill="black"/>
<path d="M133.631 45.6123C133.232 46.6722 132.522 47.3624 132.044 47.1559C131.565 46.9476 131.5 45.9221 131.899 44.8622C132.297 43.8024 133.007 43.1121 133.486 43.3187C133.964 43.5252 134.029 44.5543 133.631 45.6123Z" fill="black"/>
<path d="M133.442 75.0462C133.442 75.0462 144.215 77.2565 149.653 76.8797C155.09 76.5028 132.123 92.7051 133.442 75.0462Z" fill="#FA786B"/>
<path d="M165.456 84.2815C169.923 84.2815 173.545 80.3929 173.545 75.596C173.545 70.7992 169.923 66.9106 165.456 66.9106C160.988 66.9106 157.366 70.7992 157.366 75.596C157.366 80.3929 160.988 84.2815 165.456 84.2815Z" fill="white"/>
<path d="M186.712 214.726C197.396 235.007 203.043 249.861 209.183 275.646C216.303 305.549 266.853 556.185 270.211 610.577C260.733 611.17 240.209 613.279 234.663 612.947C217.021 558.664 161.841 383.902 154.277 349.706C153.114 344.45 145.55 345.602 146.14 350.969C150.434 390.021 143.588 544.88 145.206 611.762C140.604 614.279 113.79 613.07 108.474 612.354C102.693 545.375 75.4611 295.897 121.776 213.705C142.95 210.568 165.238 214.04 186.712 214.726Z" fill="#F9CC48"/>
<path d="M129.054 214.572C129.054 214.572 107.212 272.377 107.212 343.123C107.212 413.87 115.301 601.373 115.301 601.373" stroke="#325081" stroke-width="0.4722" stroke-miterlimit="10"/>
<path d="M255.094 596.076L175.612 216.712" stroke="#325081" stroke-width="0.4722" stroke-miterlimit="10"/>
<path d="M123.147 211.85L214.801 298.828C214.801 298.828 201.17 244.932 185.679 213.705L123.147 211.85Z" fill="black"/>
<path d="M34.6066 158.733C34.6066 158.733 91.6018 243.6 104.958 233.482C104.958 233.482 120.278 221.868 112.574 174.455C112.56 169.85 112.538 166.658 112.69 165.937C112.69 165.937 116.002 119.127 123.168 109.432C123.954 108.369 126.329 106.389 126.014 106.305C104.128 100.43 95.7543 159.509 89.7212 186.84C89.4712 187.973 47.6945 144.286 47.6945 144.286C47.6945 144.286 25.8106 113.219 24.2851 114.994C22.073 117.567 30.5518 131.421 30.5518 131.421C30.5518 131.421 29.9993 133.005 28.3397 133.796C26.6802 134.588 25.7598 135.775 25.2054 138.15C24.6529 140.525 22.4407 141.911 22.073 143.295C21.7052 144.681 29.9377 155.106 34.6066 158.733Z" fill="#FFBBB5"/>
<path d="M46.9571 144.087C46.9571 144.087 42.5329 130.628 40.6904 131.025C38.8478 131.42 30.7368 135.181 30.9216 138.545C31.1064 141.909 38.1104 139.139 38.1104 139.139C38.1104 139.139 36.8205 146.66 40.3226 147.651C43.8228 148.64 46.9571 144.087 46.9571 144.087Z" fill="#FFBBB5"/>
<path d="M36.0813 138.545C36.0813 138.545 36.2661 141.909 33.6844 142.504C33.6844 142.504 33.1319 146.067 29.8128 145.276C29.8128 145.276 30.7348 146.859 28.7075 147.254C28.7075 147.254 37.373 157.349 36.0813 138.545Z" fill="#FF9199"/>
<path d="M37.7662 132.064C36.2407 133.248 34.6537 134.28 33.0594 135.289C32.3093 135.831 31.3455 136.23 30.7893 136.762C30.1733 137.355 30.1172 137.759 30.5248 138.152C30.965 138.623 31.8401 139.027 32.6445 139.212C33.4851 139.426 34.3927 139.444 35.3222 139.523C35.5577 139.543 35.7697 139.536 36.0977 139.581C36.3785 139.619 36.8749 139.768 37.085 140.244C37.2662 140.712 37.1212 141.029 37.0814 141.241L36.9057 141.933C36.623 142.846 36.3875 143.768 36.0614 144.674L35.9762 144.66L36.4599 141.855C36.5016 141.399 36.7173 140.893 36.5796 140.491C36.3567 140.089 35.777 140.201 35.3295 140.192C33.4688 140.212 31.3908 140.083 29.9033 138.746C29.5555 138.4 29.3507 137.869 29.4667 137.371C29.5772 136.875 29.9142 136.482 30.2748 136.168C31.0194 135.541 31.9071 135.186 32.726 134.706L37.7282 131.987L37.7662 132.064Z" fill="#FA786B"/>
<path d="M30.3997 130.998C30.869 131.058 31.2132 131.224 31.5411 131.405C31.8672 131.587 32.0992 131.849 32.38 132.069C32.5702 132.366 32.8166 132.616 32.9615 132.951C33.1101 133.284 33.2387 133.632 33.2459 134.087L33.1807 134.143C32.1951 133.145 31.2476 132.116 30.3345 131.056L30.3997 130.998Z" fill="#FA786B"/>
<path d="M26.6588 135.995C27.5158 136.578 28.2658 137.216 29.0322 137.828C29.7949 138.441 30.4997 139.104 31.2806 139.68C31.9763 140.337 32.7843 140.944 33.4837 141.533C33.8261 141.818 34.1884 142.037 34.5707 142.111C34.9692 142.223 35.4168 142.162 35.8244 141.861L35.8951 141.91C35.607 142.345 35.0779 142.564 34.5724 142.566C34.0561 142.569 33.5706 142.361 33.1412 142.107C32.2915 141.575 31.5016 140.972 30.7298 140.341C29.2079 139.055 27.822 137.611 26.5918 136.049L26.6588 135.995Z" fill="#FA786B"/>
<path d="M33.8783 142.51C33.9345 143.661 33.9526 145.029 32.7406 146.074C32.1445 146.59 31.2242 146.636 30.5466 146.451C29.8436 146.268 29.2693 145.924 28.753 145.549C27.7855 144.699 27.0337 143.802 26.3561 142.838C25.6912 141.869 25.0716 140.869 24.6187 139.758L24.6874 139.708C25.3849 140.63 26.1133 141.528 26.8652 142.407C27.6243 143.275 28.3798 144.165 29.2802 144.871C30.1281 145.563 31.3673 146.165 32.3728 145.512C33.3312 144.857 33.5758 143.594 33.7914 142.496L33.8783 142.51Z" fill="#FA786B"/>
<path d="M30.0429 144.68C30.2494 145.412 30.2132 146.184 30.0266 146.921C29.9252 147.296 29.8291 147.671 29.5556 148.081C29.4487 148.256 29.1243 148.521 28.8544 148.617C28.6424 148.704 28.4232 148.765 28.2022 148.805C27.3217 149.023 26.4304 148.599 25.8543 148.352C25.568 148.189 25.2201 148.032 24.8523 147.751C24.5099 147.439 24.3432 147.07 24.2544 146.689L24.3215 146.635C24.548 146.899 24.7907 147.157 25.0932 147.318C25.394 147.479 25.7437 147.546 26.0807 147.655C26.7456 147.894 27.4214 148.073 28.1099 148.005C28.8672 148.023 29.2494 147.36 29.4994 146.713C29.7494 146.066 29.9433 145.376 29.9614 144.684L30.0429 144.68Z" fill="#FA786B"/>
<path d="M131.261 105.384C131.261 105.384 111.843 104.174 106.188 116.577C100.536 128.98 88.0019 184.397 88.0019 184.397L50.3976 144.296L30.8345 165.082C30.8345 165.082 89.2303 242.192 103.485 237.441C117.74 232.693 131.424 122.295 131.261 105.384Z" fill="#9D68F8"/>
<path d="M126.903 120.461C117.857 148.098 105.367 175.118 94.1453 201.922C90.6813 210.197 87.105 218.422 83.4761 226.622C90.3715 233.87 97.8069 239.329 103.485 237.438C116.348 233.151 128.742 142.862 130.92 112.845C129.597 115.394 128.249 117.927 126.903 120.461Z" fill="#8D58E8"/>
<path d="M131.076 105.996C131.694 107.601 106.173 157.052 106.907 172.796C107.646 188.66 76.9611 330.812 76.1748 333.198C76.1748 333.198 204.594 332.845 231.862 333.198C206.594 197.073 206.594 140.015 191.881 108.023C191.881 108.023 170.316 97.4571 164.957 97.0332C164.957 97.0332 134.456 119.231 131.076 105.996Z" fill="#9D68F8"/>
<path d="M191.881 108.024C191.881 108.024 189.231 106.725 185.564 105.024C182.422 125.849 176.152 146.347 171.409 166.753C165.289 193.088 159.325 219.46 153.514 245.866C147.126 274.895 140.945 303.97 134.922 333.079C172.581 333.025 217.083 333.008 231.865 333.199C206.594 197.074 206.594 140.015 191.881 108.024Z" fill="#8D58E8"/>
<path d="M210.218 259.738C209.492 254.176 213.51 266.88 217.768 283.479C219.099 288.672 212.914 286.954 207.521 270.739L210.218 259.738Z" fill="#FF9199"/>
<path d="M258.874 185.592C262.787 178.321 263.019 173.714 258.214 167.089C249.975 155.725 233.703 139.538 208.6 117.867C181.245 94.2533 173.175 122.083 173.175 122.083C173.175 122.083 219.978 175.714 225.08 180.899C219.19 193.493 208.234 219.603 200.675 231.345C200.248 232.01 199.775 232.586 199.297 233.081C196.512 235.951 194.305 239.397 193.285 243.391C190.843 252.941 187.388 267.977 189.974 267.515C193.751 266.839 198.788 253.655 198.788 253.655C198.788 253.655 195.954 289.147 201.937 289.824C202.567 289.149 207.288 266.839 206.66 262.782C206.66 262.782 204.752 288.835 206.66 290.5C211.696 294.894 210.752 287.458 210.752 287.458L212.405 244.25C212.405 244.25 244.728 211.869 258.874 185.592Z" fill="#FFBBB5"/>
<path d="M225.08 180.899C223.925 183.365 200.737 227.506 199.259 230.8C207.703 236.244 210.162 242.317 218.516 247.917C223.253 240.764 258.31 192.241 261.72 185.907C265.633 178.636 263.019 173.714 258.214 167.086C249.975 155.723 233.703 139.535 208.6 117.865C181.245 94.2512 174.806 111.484 174.806 111.484C174.806 111.484 139.031 127.132 225.08 180.899Z" fill="#9D68F8"/>
<g opacity="0.66">
<path d="M0 14.9916C8.15161 5.579 18.6334 0.000427246 30.2804 0.000427246C45.7712 0.000427246 58 8.1355 58 23.8223C58 38.9299 39.4818 42.649 39.4818 49.6202V56.0121H17.935L17.8183 46.7158C17.8183 36.0243 36.3365 29.9815 36.3365 23.5909C36.3365 19.1749 31.794 18.1287 27.7182 18.1287C22.7106 18.1287 16.5379 23.009 12.5788 27.6578L0 14.9916ZM28.0668 60.7129C36.3365 60.7129 41.9259 66.4079 41.9259 73.0313C41.9259 79.5382 36.5698 85.0004 28.0668 85.0004C20.4971 85.0004 14.7896 79.074 14.7896 73.0313C14.791 67.2213 19.6819 60.7129 28.0668 60.7129Z" fill="#A6A6A6"/>
<path d="M65.2666 72.7471C66.9062 65.9495 70.6928 60.469 76.4994 57.476C84.221 53.4938 92.4118 54.4142 96.4537 62.2517C100.345 69.7994 92.073 76.4159 93.8684 79.8998L95.5153 83.0921L84.7753 88.6306L82.3223 84.0161C79.5684 78.6751 87.2429 70.8973 85.5961 67.7032C84.4583 65.4965 81.9255 66.1415 79.8927 67.1905C77.3961 68.4768 75.5772 72.5025 74.8 75.8415L65.2666 72.7471ZM91.0349 88.3751C95.1566 86.2499 99.4106 87.6577 101.117 90.9677C102.793 94.2179 101.53 98.3251 97.2926 100.51C93.5188 102.456 89.1471 100.961 87.5908 97.9429C86.0925 95.0387 86.8552 90.5293 91.0349 88.3751Z" fill="#D1D1D1"/>
<path d="M230.145 21.3251C236.796 19.1674 243.449 19.5297 249.036 22.914C256.468 27.4144 259.966 34.8769 255.399 42.4209C251 49.6842 241.034 46.0933 239.005 49.445L237.144 52.5177L226.806 46.2582L229.457 41.7542C232.569 36.6143 243.212 39.0873 245.074 36.0147C246.36 33.8913 244.485 32.0687 242.53 30.8838C240.128 29.429 235.745 29.9834 232.493 31.0668L230.145 21.3251ZM230.299 51.4615C234.267 53.8638 235.291 58.2247 233.361 61.4097C231.466 64.5386 227.306 65.6075 223.228 63.1381C219.597 60.9386 218.585 56.4311 220.344 53.5269C222.034 50.7332 226.275 49.0265 230.299 51.4615Z" fill="#A6A6A6"/>
</g>
</svg>
