<svg width="260" height="328" viewBox="0 0 260 328" fill="none" xmlns="http://www.w3.org/2000/svg">
<path d="M160.322 125.282C160.322 125.282 132.15 87.7109 107.654 103.402C83.1567 119.095 113.618 172.054 131.699 208.618L185.855 176.803L160.322 125.282Z" fill="#9D68F8"/>
<path d="M156.616 300.294C156.616 300.294 166.329 416.478 167.24 448.58C168.153 480.68 159.905 606.032 159.905 606.032L127.447 605.928C127.447 605.928 93.077 384.42 53.833 307L156.616 300.294Z" fill="#18203C"/>
<path d="M156.698 300.294C156.698 300.294 134.238 397.143 111.428 465.662C92.9953 521.031 44.1605 608.482 44.1605 608.482L11.5155 607.053L46.2072 467.308C48.3019 459.045 49.6242 450.598 50.1599 442.074C52.1834 409.898 45.57 344.883 42.8043 303.223L156.698 300.294Z" fill="#232F51"/>
<path d="M68.8929 98.3442C68.8929 98.3442 18.1574 103.527 14.9628 145.54C11.7683 187.553 32.8808 361.792 32.8808 361.792L172.361 352.184L158.146 155.472C157.632 144.76 154.329 134.388 148.586 125.419C143.281 117.136 148.342 111.203 144.813 110.763L76.6488 92.6795L68.8929 98.3442Z" fill="#9D68F8"/>
<path d="M53.9308 110.086C20.0899 115.236 16.8508 125.989 15.2545 146.997C12.0599 189.01 33.1724 361.778 33.1724 361.778L161.595 353.059" fill="#9D68F8"/>
<path d="M87.3944 52.1781L70.7115 97.9607C70.7115 97.9607 83.9026 114.45 92.632 115.614C110.513 117.998 113.583 102.228 113.583 102.228L113.385 77.1027L89.6564 55.6236L87.3944 52.1781Z" fill="#F0826C"/>
<path d="M89.6562 55.6224L113.385 77.1015L113.194 86.1263C113.194 86.1263 94.3082 90.3353 86.9528 58.7012" fill="#C75842"/>
<path d="M128.926 262.636L175.44 178.371C177.919 173.844 182.169 170.624 187.085 169.548L256.649 165.15C258.473 164.751 259.874 166.755 258.938 168.426L214.262 248.303C211.858 252.602 207.846 255.703 203.184 256.867L131.284 265.879C129.453 266.338 127.995 264.334 128.926 262.636Z" fill="#18203C"/>
<path d="M135.032 263.429L177.002 182.787C179.481 178.26 186.491 173.981 191.407 172.906L256.67 169.39C258.494 168.991 259.895 170.995 258.959 172.666L214.283 252.542C211.879 256.842 207.867 259.942 203.205 261.106L137.39 266.673C135.558 267.132 134.101 265.128 135.032 263.429Z" fill="#FFDF4A"/>
<path d="M159.114 238.078C155.505 240.238 113.821 276.243 80.2504 292.791C70.9942 297.352 58.8941 286.743 55.5732 277.115L24.4374 195.262L75.1142 169.684C75.3331 170.23 84.253 221.194 91.5248 238.775C94.1267 245.066 92.5356 244.173 98.3944 241.988L144.157 218.675C144.157 218.675 147.95 215.189 149.36 212.706C152.042 207.988 161.415 202.779 161.415 202.779L155.841 212.809C154.861 214.493 156.017 214.863 159.424 213.404L182.147 203.84C182.147 203.84 187.271 202.738 184.58 204.813C181.889 206.89 172.871 212.539 172.547 212.712C166.772 215.796 187.457 206.031 187.397 207.969C187.336 209.907 175.389 216.693 175.599 216.928C175.808 217.164 188.563 211.263 188.589 213.087C188.614 214.913 177.276 220.501 176.891 220.551C176.153 220.647 185.995 215.479 186.057 216.465C186.121 217.458 161.178 236.842 159.114 238.078Z" fill="#F0826C"/>
<path d="M82.1675 204.751C78.2504 187.011 75.2391 169.995 75.1145 169.682L24.4377 195.26L44.2048 247.225C56.5773 232.811 69.1027 218.534 82.1675 204.751Z" fill="#C75842"/>
<path d="M76.4334 280.132C71.8186 277.12 60.5566 273.476 56.4473 279.222C60.6545 288.204 71.6709 297.019 80.2526 292.789C81.5518 292.148 82.8652 291.47 84.1875 290.774C83.0663 286.612 80.6886 282.908 76.4334 280.132Z" fill="#C75842"/>
<path d="M70.2045 133.795C70.2045 133.795 65.4367 99.0356 37.4475 106.251C-0.484946 116.03 19.2287 227.782 29.777 245.227L89.1387 214.965L70.2045 133.795Z" fill="#8D58E8"/>
<path d="M137.692 25.9514C136.662 33.661 130.844 29.4449 130.844 29.4449C112.634 36.747 88.5141 50.8974 88.5141 50.8974C88.5141 50.8974 81.2369 48.0908 81.5537 46.1883C83.0291 37.3272 85.5278 22.2212 87.2541 11.7921C88.3326 5.27135 94.1238 0.60676 100.725 0.927105C115.986 1.67102 141.136 2.99333 143.097 3.72123C146.893 5.12896 149.23 14.0577 138.027 14.2036C138.027 14.2036 146.023 16.7095 145.009 20.8063C143.994 24.9049 137.692 25.9514 137.692 25.9514Z" fill="#19191B"/>
<path d="M101.37 42.044C101.634 42.4871 101.924 42.8786 102.225 43.2452C94.2462 47.5343 88.5139 50.8962 88.5139 50.8962C88.5139 50.8962 81.2367 48.0878 81.5535 46.1871C82.0927 42.9445 82.7227 39.5666 83.3741 36.2742C90.2615 35.8239 97.7985 36.0535 101.37 42.044Z" fill="#C75842"/>
<path d="M89.2259 45.4129C88.8023 46.0999 87.8466 46.1408 87.3928 45.4859C85.8533 43.2595 82.568 39.9795 79.7864 47.1356C76.0099 56.8528 86.8517 57.1411 87.4301 58.6592C88.5994 61.7345 92.2709 72.0193 99.7029 77.1662C104.232 80.3038 112.417 84.479 117.365 81.8593C118.393 81.3147 126.105 80.4497 134.505 24.5317C134.505 24.5317 132.373 28.803 127.244 26.7047C123.693 25.2507 121.388 21.5917 117.551 19.6803C114.435 18.1284 105.816 14.1116 99.7137 24.8165C96.9106 29.7338 91.7175 41.3641 89.2259 45.4129Z" fill="#F0826C"/>
<path d="M81.5089 46.6851L86.2554 51.937C86.2554 51.937 86.1308 41.419 81.5089 46.6851Z" fill="#C75842"/>
<path d="M121.832 51.2194C121.598 52.4314 120.929 53.3212 120.338 53.2073C119.746 53.0934 119.456 52.0185 119.689 50.8065C119.922 49.5945 120.591 48.7047 121.182 48.8186C121.775 48.9343 122.065 50.0074 121.832 51.2194Z" fill="#000F30"/>
<path d="M129.009 53.1586C128.776 54.3706 128.107 55.2604 127.514 55.1465C126.921 55.0326 126.631 53.9577 126.864 52.7457C127.097 51.5337 127.767 50.6439 128.357 50.7578C128.952 50.8717 129.242 51.9466 129.009 53.1586Z" fill="#000F30"/>
<path d="M115.743 37.5846C113.94 38.389 117.391 33.8472 119.659 33.7048C121.926 33.5607 123.848 35.0663 123.953 37.0649C123.953 37.0649 120.073 35.6536 115.743 37.5846Z" fill="#000F30"/>
<path d="M130.952 45.5656C128.733 44.8306 127.019 44.9195 127.019 44.9195C127.664 43.1701 129.586 42.2269 131.572 42.5561" fill="#000F30"/>
<path d="M125.08 51.9845L126.56 61.9081C126.585 62.07 126.457 62.216 126.306 62.1982L122.392 61.7497C122.257 61.7337 122.168 61.5913 122.206 61.4471L124.638 51.972C124.706 51.7175 125.042 51.7265 125.08 51.9845Z" fill="#C75842"/>
</svg>
