<svg width="265" height="378" viewBox="0 0 265 378" fill="none" xmlns="http://www.w3.org/2000/svg">
<path d="M77.5842 230.416C75.406 232.594 42.3857 267.883 34.5443 257.861C30.4817 252.67 46.742 196.87 46.742 196.87L88.4751 165.069L77.5842 230.416Z" fill="#9D68F8"/>
<path d="M11.1476 110.178C14.4149 114.753 20.0782 123.465 20.0782 123.465C20.0782 123.465 -3.2683 225.146 18.4535 241.379C39.7057 257.263 50.5007 240.068 50.7764 226.513C51.1421 208.592 50.025 150.942 41.8379 121.777L44.0101 96.6458C44.0101 96.6458 42.4953 92.2076 39.2281 97.4352C35.9608 102.663 35.9608 104.297 35.9608 104.297C35.9608 104.297 28.1754 98.3684 22.0405 90.5749C19.2828 87.0739 16.4172 79.6941 15.506 78.3772C12.5665 74.1287 12.5665 77.7237 12.5665 79.3583C12.5665 80.991 12.8942 83.6068 12.8942 83.6068C12.8942 83.6068 8.97347 75.7653 7.99229 77.7257C7.01311 79.6861 14.6367 93.6264 14.6367 93.6264C14.6367 93.6264 8.20408 77.0842 5.83407 78.2693C4.28736 79.0426 8.10221 92.7551 12.8942 97.3293C13.8114 98.2045 13.1839 98.9259 12.0229 98.4184C8.53783 96.8936 2.47089 87.0699 1.13201 87.9631C-0.594538 89.1102 9.94461 108.492 11.1476 110.178Z" fill="#FF9E96"/>
<path d="M46.0303 142.764C50.4166 172.953 56.1817 225.107 55.89 239.347C55.6122 252.902 40.5489 268.301 19.2947 252.416C6.08774 242.544 3.92955 186.685 7.96817 153.743C19.4945 150.19 34.7777 147.148 46.0303 142.764Z" fill="#9D68F8"/>
<path d="M34.2423 103.591C30.7472 105.664 28.4572 109.406 28.1534 113.451C28.0815 114.396 29.5562 114.392 29.6262 113.451C29.892 109.932 31.9583 106.659 34.9857 104.864C35.801 104.381 35.0616 103.106 34.2423 103.591Z" fill="#EB5E45"/>
<path d="M12.7145 83.1181C13.9875 87.8881 17.0588 92.0606 21.2174 94.7164C22.0187 95.228 22.7581 93.9531 21.9608 93.4435C18.122 90.9915 15.3104 87.1228 14.1353 82.7245C13.8915 81.8112 12.4707 82.2009 12.7145 83.1181Z" fill="#EB5E45"/>
<path d="M7.64458 80.9534C8.80561 84.0148 10.1545 87.0023 11.7092 89.8839C13.0241 92.3198 14.4189 94.9736 16.8829 96.4224C17.7022 96.904 18.4455 95.6311 17.6262 95.1495C15.3261 93.7966 14.0612 91.1608 12.8462 88.8907C11.4074 86.199 10.1465 83.4153 9.06338 80.5617C8.73365 79.6824 7.30886 80.0641 7.64458 80.9534Z" fill="#EB5E45"/>
<path d="M16.9809 97.3288C18.7914 96.0858 20.7717 95.1346 22.878 94.5151C23.7852 94.2474 23.3995 92.8246 22.4863 93.0943C20.2641 93.7498 18.146 94.747 16.2376 96.0579C15.9098 96.2837 15.7619 96.7053 15.9737 97.067C16.1636 97.3887 16.6512 97.5546 16.9809 97.3288Z" fill="#EB5E45"/>
<path d="M77.3659 284.872L158.396 301.862C158.396 301.862 171.011 325.776 223.325 726.43L181.375 727.163L109.845 423.276C108.807 418.872 102.333 419.605 102.305 424.127L108.869 725.619L65.0622 721.154C65.0622 721.154 24.5301 417.271 42.1334 367.599C61.0295 314.277 77.3659 284.872 77.3659 284.872Z" fill="#18203C"/>
<path d="M53.2681 339.574C53.2681 339.574 79.3562 351.462 94.3556 328.657C109.357 305.853 107.425 291.411 107.425 291.411" stroke="#D6D6D6" stroke-width="0.6342" stroke-miterlimit="10"/>
<path d="M134.872 296.636C134.872 296.636 132.258 327.349 141.407 337.806C152.231 350.177 166.891 343.034 166.891 343.034" stroke="#D6D6D6" stroke-width="0.6342" stroke-miterlimit="10"/>
<path d="M148.594 343.686L209.573 726.002" stroke="#D6D6D6" stroke-width="0.6342" stroke-miterlimit="10"/>
<path d="M82.6216 722.712L58.0722 423.725C56.1398 400.202 58.6777 376.528 65.5499 353.949L68.8711 343.034" stroke="#D6D6D6" stroke-width="0.6342" stroke-miterlimit="10"/>
<path d="M123.949 66.0354C86.6002 66.2772 100.568 113.242 100.568 113.242C100.568 113.242 101.799 115.362 104.205 118.048L123.184 138.213L131.481 130.885L163.332 116.203C165.398 105.233 188.455 57.4646 123.949 66.0354Z" fill="#19191B"/>
<path d="M148.59 72.1703C144.262 68.4694 141.462 63.0279 140.971 57.3527C140.479 51.6775 142.298 45.8363 145.925 41.444C147.201 39.8993 148.73 38.5025 150.581 37.7351C152.161 37.0797 153.912 36.9118 155.618 37.0397C162.457 37.5573 168.408 43.0047 170.336 49.5872C172.262 56.1697 170.478 63.5215 166.437 69.0629C163.188 73.5211 158.02 77.0822 152.525 76.5966" fill="#19191B"/>
<path d="M113.346 124.195C113.346 124.195 110.178 166.587 109.737 170.3C109.737 170.3 106.056 215.682 145.313 176.927C145.313 176.927 144.034 159.115 141.614 126.663L113.346 124.195Z" fill="#FF9E96"/>
<path d="M141.854 132.769C142.115 139 135.525 156.463 121.475 154.831C110.904 153.602 110.976 136.027 110.038 130.979C109.251 126.736 123.213 122.318 129.016 122.076C134.82 121.834 141.594 126.541 141.854 132.769Z" fill="#EB5E45"/>
<path d="M118.481 144.743C113.585 144.91 97.427 137.409 99.873 108.031C102.179 80.3446 123.711 79.857 128.587 80.1388C132.699 80.3746 160.75 79.2575 156.116 113.591C156.024 114.268 156.767 114.766 157.421 114.68C160.15 114.326 165.406 112.688 167.221 119.979C169.053 127.351 160.52 131.524 156.41 132.275C155.223 132.493 154.687 130.976 153.992 131.991C153.992 131.991 139.488 144.021 118.481 144.743Z" fill="#FF9E96"/>
<path d="M131.023 122.439C131.083 126.494 127.846 129.829 123.793 129.891C119.738 129.953 116.403 126.716 116.341 122.661C116.281 118.607 119.518 115.271 123.573 115.209C127.624 115.147 130.961 118.385 131.023 122.439Z" fill="#FF8278"/>
<path d="M101.432 127.147C102.958 125.778 103.905 123.78 103.871 121.57C103.827 118.676 102.117 116.2 99.667 115.039C99.667 115.039 99.8388 122.775 101.432 127.147Z" fill="#FF8278"/>
<path d="M163.835 121.898C163.835 121.898 158.6 113.417 154.883 126.12Z" fill="#EB5E45"/>
<path d="M108.704 112.513L109.203 119.253L105.718 118.82C105.075 118.74 104.753 118 105.131 117.475L108.704 112.513Z" fill="#EB5E45"/>
<path d="M118.209 102.405C119.346 103.348 117.798 99.4175 116.185 98.844C114.572 98.2705 112.864 98.934 112.368 100.327C112.368 100.327 115.478 100.137 118.209 102.405Z" fill="#000428"/>
<path d="M100.738 106.34C103.24 104.634 105.812 104.762 105.812 104.762C105.3 103.375 103.584 102.729 101.977 103.321C101.376 103.543 100.786 104.238 100.346 104.968C100.346 104.968 100.215 106.638 100.738 106.34Z" fill="#000428"/>
<path d="M113.687 113.365C113.577 114.552 113.024 115.471 112.448 115.417C111.873 115.363 111.495 114.36 111.603 113.173C111.713 111.986 112.266 111.066 112.842 111.12C113.417 111.172 113.795 112.178 113.687 113.365Z" fill="#000428"/>
<path d="M105.506 112.627C105.402 113.76 104.873 114.64 104.323 114.588C103.774 114.538 103.412 113.577 103.516 112.444C103.62 111.31 104.149 110.433 104.699 110.483C105.25 110.535 105.612 111.494 105.506 112.627Z" fill="#000428"/>
<path d="M109.845 83.4857C134.576 128.314 156.615 115.347 156.615 115.347C156.615 115.347 169.906 65.0232 116.259 75.4544C91.7458 80.2224 108.847 81.6792 109.845 83.4857Z" fill="#19191B"/>
<path d="M91.5241 174.652L72.0884 290.943L158.614 302.731C164.231 286.616 171.799 249.599 170.286 249.783L197.907 224.366C193.814 214.243 187.478 201.08 182.602 191.28C178.419 182.873 169.687 177.726 160.304 178.119L145.98 167.244C145.98 167.244 136.872 179.37 123.11 179.006C109.347 178.643 110.041 167.244 110.041 167.244L91.5241 174.652Z" fill="white"/>
<path d="M109.821 162.456L85.0554 369.808C83.7165 380.831 73.4131 388.478 62.4763 386.572L26.3945 380.279C26.3945 380.279 62.7701 273.111 62.3344 274.418C61.8988 275.725 78.0173 179.012 78.0173 179.012C78.0173 179.012 91.524 152 109.821 162.456Z" fill="#9D68F8"/>
<path d="M81.8282 238.197C80.9589 250.63 80.773 262.792 84.8796 274.712C87.2236 281.517 89.6037 297.375 93.2666 303.606L110.692 162.348C109.501 161.157 102.219 170.088 97.1333 171.497C88.2408 194.046 83.5148 214.045 81.8282 238.197Z" fill="#B883FF"/>
<path d="M144.238 163.761L128.313 374.832C127.619 382.375 133.445 388.93 141.018 389.11C161.495 389.593 197.327 390.391 198.258 390.079C199.293 389.733 180.679 332.767 172.872 309.021C170.719 302.474 170.442 295.472 172.088 288.78C178.267 263.673 192.427 198.705 178.98 178.682C166.891 159.404 144.238 163.761 144.238 163.761Z" fill="#9D68F8"/>
<path d="M143.698 295.081C150.353 283.151 153.398 268.152 156.284 254.915C161.967 228.841 158.62 196.324 157.471 169.153L144.238 161.801L133.988 306.214C137.821 303.211 141.166 299.62 143.698 295.081Z" fill="#B883FF"/>
<path d="M176.911 230.415C179.089 232.594 216.555 270.496 224.397 260.474C228.459 255.283 212.199 199.483 212.199 199.483L169.505 168.553L176.911 230.415Z" fill="#9D68F8"/>
<path d="M242.985 101.478C242.042 107.289 241.386 128.474 241.386 128.474C241.386 128.474 262.207 227.758 240.487 243.991C219.235 259.873 208.44 242.68 208.164 229.125C207.798 211.204 208.916 153.557 217.103 124.389L214.931 99.2581C214.931 99.2581 216.445 94.8199 219.713 100.047C222.98 105.275 222.98 106.91 222.98 106.91C222.98 106.91 228.861 80.7716 231.802 76.5232C234.744 72.2748 234.744 75.8697 234.744 77.5044C234.744 79.137 234.416 81.7508 234.416 81.7508C234.416 81.7508 238.337 73.9094 239.318 75.8697C240.297 77.8301 236.704 93.1872 236.704 93.1872L240.803 96.1667C242.475 97.3857 243.317 99.434 242.985 101.478Z" fill="#FF9E96"/>
<path d="M212.91 145.375C208.524 175.564 202.759 227.718 203.051 241.96C203.328 255.515 218.392 270.914 239.644 255.029C252.853 245.158 255.009 189.3 250.971 156.356C239.446 152.801 224.161 149.76 212.91 145.375Z" fill="#9D68F8"/>
<path d="M234.051 81.5628C233.258 85.0979 232.266 88.587 231.083 92.0101C230.774 92.9093 232.196 93.295 232.504 92.4018C233.687 88.9766 234.678 85.4895 235.474 81.9545C235.68 81.0313 234.259 80.6356 234.051 81.5628Z" fill="#EB5E45"/>
<path d="M235.807 92.5269C233.787 95.7183 232.136 99.3332 231.335 103.04C231.181 103.756 231.113 104.553 231.497 105.212C231.896 105.896 232.695 106.199 233.455 106.044C235.109 105.706 236.175 103.889 237.044 102.6C238.235 100.834 239.206 98.9396 239.997 96.9632C240.349 96.084 238.926 95.7003 238.577 96.5715C237.833 98.426 236.888 100.199 235.771 101.855C235.281 102.583 234.774 103.372 234.142 103.987C233.747 104.375 232.735 105.084 232.681 104.075C232.636 103.234 233.045 102.275 233.287 101.483C233.573 100.546 233.9 99.619 234.266 98.7098C235.03 96.8133 235.987 94.9969 237.078 93.2703C237.589 92.467 236.314 91.7256 235.807 92.5269Z" fill="#EB5E45"/>
<path d="M234.656 104.409C235.082 105.844 236.443 106.921 237.951 106.939C239.466 106.957 240.837 105.901 241.303 104.481C241.426 104.103 241.159 103.675 240.787 103.573C240.387 103.464 240.004 103.709 239.88 104.089C239.624 104.872 238.793 105.476 237.951 105.464C237.889 105.464 237.827 105.458 237.766 105.454C237.688 105.448 237.833 105.474 237.706 105.444C237.586 105.418 237.466 105.388 237.348 105.348C237.344 105.346 237.138 105.26 237.25 105.312C237.194 105.286 237.138 105.258 237.084 105.228C236.976 105.168 236.87 105.102 236.77 105.028C236.728 104.998 236.73 104.998 236.772 105.03C236.754 105.014 236.734 104.998 236.716 104.982C236.662 104.93 236.606 104.882 236.555 104.828C236.511 104.784 236.471 104.736 236.429 104.691C236.383 104.639 236.453 104.732 236.385 104.635C236.315 104.533 236.249 104.429 236.193 104.319C236.191 104.315 236.103 104.111 236.147 104.225C236.121 104.155 236.099 104.085 236.077 104.013C235.963 103.631 235.559 103.392 235.17 103.498C234.792 103.605 234.542 104.025 234.656 104.409Z" fill="#EB5E45"/>
<path d="M223.955 107.478C226.983 109.272 229.049 112.546 229.315 116.065C229.387 117.004 230.859 117.012 230.789 116.065C230.484 112.02 228.196 108.277 224.698 106.205C223.881 105.719 223.138 106.994 223.955 107.478Z" fill="#EB5E45"/>
<path d="M80.8033 44.7821C79.0668 34.934 69.1542 28.6262 59.3059 31.5135C51.7749 33.7215 46.7032 41.0468 47.2699 48.8672C47.8057 55.7453 52.2191 61.195 58.0386 63.486C58.5445 63.6675 58.8998 64.1465 58.9924 64.6717L60.0458 70.6462L75.8684 67.8562L74.8149 61.8817C74.7223 61.3565 74.8923 60.785 75.3056 60.4413C79.589 56.7075 81.8683 50.8223 80.8033 44.7821Z" fill="#FFDF4A"/>
<path d="M69.1168 76.0194C71.4147 75.6142 72.9289 73.4517 72.5237 71.1538C72.1185 68.856 69.956 67.3418 67.6582 67.747C65.3603 68.1521 63.8461 70.3146 64.2513 72.6125C64.6565 74.9104 66.8189 76.4245 69.1168 76.0194Z" fill="#19191B"/>
<path d="M62.0383 73.8827L75.0377 71.5906C75.8256 71.4517 76.3664 70.6794 76.2274 69.8915L75.0235 63.0635L59.1353 65.865L60.3392 72.693C60.4781 73.4809 61.2504 74.0217 62.0383 73.8827Z" fill="#7D7D7D"/>
<path d="M75.305 65.0447L59.4824 67.8347L59.5982 68.4912L75.4208 65.7012L75.305 65.0447Z" fill="#D3D3D3"/>
<path d="M75.6292 66.883L59.8066 69.673L59.9224 70.3295L75.745 67.5396L75.6292 66.883Z" fill="#D3D3D3"/>
<path d="M75.9534 68.7213L60.1309 71.5113L60.2466 72.1678L76.0692 69.3779L75.9534 68.7213Z" fill="#D3D3D3"/>
<path d="M58.8827 17.9814C58.2261 18.0971 57.7279 18.7265 57.8552 19.4487L59.036 26.1454C59.1518 26.802 59.7812 27.3002 60.5034 27.1729C61.2256 27.0455 61.6582 26.4277 61.5309 25.7055L60.3501 19.0088C60.2227 18.2866 59.5392 17.8656 58.8827 17.9814Z" fill="#FFDF4A"/>
<path d="M91.9373 41.1264L85.2406 42.3072C84.584 42.423 84.0858 43.0524 84.2131 43.7746C84.3405 44.4968 84.9583 44.9294 85.6805 44.8021L92.3772 43.6213C93.0337 43.5055 93.532 42.8761 93.4047 42.1539C93.2773 41.4317 92.5938 41.0107 91.9373 41.1264Z" fill="#FFDF4A"/>
<path d="M43.9017 50.8826C43.786 50.2261 43.1565 49.7278 42.4343 49.8552L35.7377 51.036C35.0811 51.1517 34.5828 51.7811 34.7102 52.5033C34.8375 53.2255 35.4554 53.6581 36.1776 53.5308L42.8743 52.35C43.5965 52.2227 44.0175 51.5392 43.9017 50.8826Z" fill="#FFDF4A"/>
<path d="M77.5649 30.2571L81.4585 24.6965C81.837 24.1559 81.6981 23.368 81.1459 22.9238C80.6053 22.5453 79.8175 22.6842 79.3733 23.2364L75.4797 28.797C75.1012 29.3376 75.2401 30.1254 75.7923 30.5696C76.3329 30.9482 77.1207 30.8092 77.5649 30.2571Z" fill="#FFDF4A"/>
<path d="M50.5504 64.4002L46.6568 69.9608C46.2783 70.5014 46.4172 71.2892 46.9694 71.7334C47.51 72.112 48.2979 71.973 48.7421 71.4209L52.6356 65.8603C53.0142 65.3197 52.8752 64.5318 52.3231 64.0876C51.7709 63.6434 50.983 63.7823 50.5504 64.4002Z" fill="#FFDF4A"/>
<path d="M41.4257 29.9276C40.8851 29.5491 40.0972 29.688 39.653 30.2402C39.2745 30.7808 39.4134 31.5687 39.9656 32.0128L45.5262 35.9064C46.0668 36.285 46.8546 36.146 47.2988 35.5938C47.6774 35.0532 47.5384 34.2654 46.9863 33.8212L41.4257 29.9276Z" fill="#FFDF4A"/>
<path d="M82.5892 58.7508C82.0486 58.3723 81.2608 58.5112 80.8166 59.0634C80.4381 59.604 80.577 60.3919 81.1292 60.836L86.6898 64.7296C87.2304 65.1082 88.0182 64.9692 88.4624 64.417C88.8409 63.8764 88.702 63.0886 88.1498 62.6444L82.5892 58.7508Z" fill="#FFDF4A"/>
</svg>
