<svg width="168" height="34" viewBox="0 0 168 34" fill="none" xmlns="http://www.w3.org/2000/svg">
<path d="M168 32.9237H163.398L155.577 24.4392L147.764 32.9237H143.207L153.288 21.9536L143.757 11.6489H148.345L155.562 19.4745L162.75 11.6489H167.308L157.845 21.9411L168 32.9237ZM116.318 22.283C116.318 17.5588 119.46 13.2917 124.267 11.4849C129.081 9.67661 134.61 10.6834 138.295 14.0247C141.97 17.3654 143.079 22.3988 141.089 26.7687C139.1 31.1447 134.407 33.9935 129.2 34C122.09 34 116.318 28.7535 116.318 22.283ZM120.552 18.9959C117.387 26.0149 125.102 33.0271 132.816 30.1503C139.033 27.8297 140.653 20.516 135.898 16.1948C131.152 11.8804 123.097 13.3533 120.552 18.9959ZM99.321 33.4449H99.3358H99.321ZM89.9567 31.8563V0.97343H93.4743V12.1751C95.3053 11.4019 97.3167 11.0253 99.3358 11.0858C106.447 11.0858 112.22 15.7912 112.22 22.2616C112.22 28.7276 106.434 33.4375 99.321 33.4449C92.119 33.4449 89.9567 31.8563 89.9567 31.8563ZM99.321 14.2786H99.3358H99.321ZM93.4743 16.0179V29.1848C95.2895 29.9998 97.309 30.3625 99.3358 30.2537C104.497 30.2537 108.708 26.967 108.708 22.2692C108.708 17.5652 104.513 14.2786 99.3358 14.2786C97.2341 14.3054 95.1916 14.9077 93.4743 16.0179ZM81.7598 0.97343V32.9237H78.24V0.97343H81.7598ZM70.043 0.97343V32.9237H66.5255V0.97343H70.043ZM56.4456 5.73247C52.8218 5.49939 52.8218 0.664351 56.4456 0.431762C58.1332 0.329485 59.5722 1.54098 59.5722 3.08187C59.5722 4.62335 58.1332 5.84129 56.4456 5.73247ZM44.8425 32.9237L32.5468 21.7484L43.6676 11.621H48.6476L37.511 21.7484L49.8068 32.9237H44.8425ZM29.021 32.9237V0.97343H32.5321V32.9237H29.021ZM11.3384 33.4449C7.03624 33.3361 2.95286 31.6704 0 28.8221L2.48642 26.3241C4.81442 28.3366 7.54911 30.2939 11.3002 30.2939C15.4607 30.2939 19.9509 28.1647 19.9509 24.3517C19.9509 21.1943 17.185 19.1331 11.3696 17.5026C4.74661 15.662 1.37116 13.1615 1.37116 8.46405C1.37116 3.8154 5.69571 0 11.8578 0C16.477 0 19.355 1.78793 22.1569 4.06038L19.7169 6.53349C17.2594 4.54783 14.9167 3.20515 12.0311 3.20515C8.47629 3.20515 4.94887 5.29973 4.94887 8.3061C4.94887 11.0322 6.66782 12.764 12.7544 14.4629C18.3463 16.0248 23.445 18.4473 23.445 24.234C23.445 29.569 18.7738 33.4449 11.3384 33.4449ZM58.3202 32.9237H54.8098V11.621H58.3202V32.9237Z" fill="white"/>
</svg>
