<svg width="496" height="344" viewBox="0 0 496 344" fill="none" xmlns="http://www.w3.org/2000/svg">
<path d="M38.8894 341.284C48.1563 336.858 54.0319 327.669 54.0319 317.6V207.458C54.0319 181.362 68.027 157.169 90.9218 143.689L208.502 74.4577C232.734 60.1895 263.068 60.1826 287.307 74.4399L405.048 143.694C427.96 157.17 441.968 181.372 441.968 207.481V317.6C441.968 327.669 447.844 336.858 457.111 341.284C475.059 349.855 496 337.101 496 317.6V175.661C496 149.569 482.01 125.38 459.122 111.898L287.345 10.7131C263.087 -3.57602 232.714 -3.57065 208.461 10.727L36.8542 111.894C13.9798 125.38 -7.62939e-06 149.561 -7.62939e-06 175.643V317.6C-7.62939e-06 337.101 20.941 349.855 38.8894 341.284Z" fill="white"/>
</svg>
