<svg width="200" height="66" viewBox="0 0 200 66" fill="none" xmlns="http://www.w3.org/2000/svg">
<g clip-path="url(#clip0_0_3033)">
<path d="M191.207 54.4906C195.141 54.4906 197.93 53.7721 200.001 52.2656V45.3126C197.569 46.9955 194.659 47.8488 191.704 47.7461C185.629 47.7461 183.118 43.0181 183.118 35.5668C183.118 27.7678 186.196 23.7581 191.774 23.7581C194.661 23.7799 197.495 24.5462 200.001 25.9831V18.752C198.219 17.7554 195.072 17.0369 190.848 17.0369C179.982 17.0369 174.334 24.8474 174.334 35.7985C174.334 47.8272 179.854 54.4906 191.207 54.4906ZM137.975 51.3386V44.3855C134.612 46.5153 130.729 47.6778 126.75 47.7461C120.524 47.7461 118.164 44.8143 117.817 38.7999H138.334V34.292C138.334 21.7649 132.825 17.0369 124.32 17.0369C113.905 17.0369 109.022 24.9865 109.022 35.868C109.022 48.3951 115.167 54.4906 126.044 54.4906C130.257 54.6575 134.424 53.5599 138.01 51.3386H137.975ZM60.0372 17.7322V31.9859H48.6734V17.7322H40.168V53.749H48.6734V38.684H60.0372V53.749H68.5542V17.7553H60.0372V17.7322ZM106.95 47.0392H103.155V17.7553H78.3789V20.8379C78.3789 29.6451 77.8003 41.0365 74.8032 47.0508H72.1531V61.9767H80.0222V53.7374H99.1161V61.9767H106.95V47.0392ZM165.158 53.7721H174.809L161.154 34.3615L173.166 17.7437H164.591L152.579 34.3615V17.7553H144.097V53.7721H152.602V36.0882L165.158 53.7721ZM124.216 23.735C128.44 23.735 129.724 27.2115 129.724 31.7542V32.4726H117.851C118.06 26.7711 120.142 23.735 124.216 23.735ZM94.6839 47.0392H82.649C84.9634 41.5927 85.6462 31.7889 85.6462 25.5544V24.4766H94.6608L94.6839 47.0392Z" fill="black"/>
<path d="M33.0383 53.7722H24.3823V10.7329H20.5173C13.4352 10.7329 9.72056 14.3137 9.72056 19.6096C9.72056 25.624 12.3011 28.4168 17.5896 31.9976L21.9522 34.9294L9.36183 53.7606H0L11.2943 36.9343C4.79085 32.2989 1.13408 27.7678 1.13408 20.1079C1.13408 10.5127 7.788 4 20.4363 4H33.0267V53.7606L33.0383 53.7722Z" fill="#FC3F1D"/>
</g>
<defs>
<clipPath id="clip0_0_3033">
<rect width="200" height="66" fill="white"/>
</clipPath>
</defs>
</svg>
