<svg width="50" height="50" fill="none" xmlns="http://www.w3.org/2000/svg"><path d="M45.835 34.875V9.729c0-2.5-2.042-4.354-4.521-4.146h-.125c-4.375.375-11.021 2.604-14.73 4.938l-.354.229c-.604.375-1.604.375-2.208 0l-.52-.313c-3.709-2.312-10.334-4.52-14.709-4.875-2.48-.208-4.5 1.667-4.5 4.146v25.167c0 2 1.625 3.875 3.625 4.125l.604.083c4.521.604 11.5 2.896 15.5 5.084l.084.041c.562.313 1.458.313 2 0 4-2.208 11-4.52 15.541-5.125L42.21 39c2-.25 3.625-2.125 3.625-4.125ZM25 11.438v31.25m-8.855-25h-4.688m6.25 6.25h-6.25" stroke="#19191B" stroke-width="2" stroke-linecap="round" stroke-linejoin="round"/></svg>