<svg width="22" height="22" fill="none" xmlns="http://www.w3.org/2000/svg"><path d="M11 21c5.523 0 10-4.477 10-10S16.523 1 11 1 1 5.477 1 11s4.477 10 10 10Z" stroke="#7D7D7D" stroke-linecap="round" stroke-linejoin="round"/><path d="M7.002 2h1a28.424 28.424 0 0 0 0 18h-1M14 2a28.424 28.424 0 0 1 0 18" stroke="#7D7D7D" stroke-linecap="round" stroke-linejoin="round"/><path d="M2 15v-1a28.424 28.424 0 0 0 18 0v1M2 8a28.424 28.424 0 0 1 18 0" stroke="#7D7D7D" stroke-linecap="round" stroke-linejoin="round"/></svg>