<svg width="50" height="50" viewBox="0 0 50 50" fill="none" xmlns="http://www.w3.org/2000/svg">
<path d="M45.8346 34.8749V9.72911C45.8346 7.22911 43.793 5.37495 41.3138 5.58328H41.1888C36.8138 5.95828 30.168 8.18745 26.4596 10.5208L26.1055 10.7499C25.5013 11.1249 24.5013 11.1249 23.8971 10.7499L23.3763 10.4374C19.668 8.12495 13.043 5.91661 8.66797 5.56245C6.1888 5.35411 4.16797 7.22911 4.16797 9.70828V34.8749C4.16797 36.8749 5.79297 38.7499 7.79297 38.9999L8.39714 39.0833C12.918 39.6874 19.8971 41.9791 23.8971 44.1666L23.9805 44.2083C24.543 44.5208 25.4388 44.5208 25.9805 44.2083C29.9805 41.9999 36.9805 39.6874 41.5221 39.0833L42.2096 38.9999C44.2096 38.7499 45.8346 36.8749 45.8346 34.8749Z" stroke="#19191B" stroke-width="2" stroke-linecap="round" stroke-linejoin="round"/>
<path d="M25 11.4375V42.6875" stroke="#19191B" stroke-width="2" stroke-linecap="round" stroke-linejoin="round"/>
<path d="M16.1445 17.6875H11.457" stroke="#19191B" stroke-width="2" stroke-linecap="round" stroke-linejoin="round"/>
<path d="M17.707 23.9375H11.457" stroke="#19191B" stroke-width="2" stroke-linecap="round" stroke-linejoin="round"/>
</svg>
