<svg width="17" height="16" viewBox="0 0 17 16" fill="none" xmlns="http://www.w3.org/2000/svg">
<path d="M15.1463 12.2197C15.1463 12.4597 15.093 12.7063 14.9797 12.9463C14.8663 13.1863 14.7197 13.413 14.5263 13.6263C14.1997 13.9863 13.8397 14.2463 13.433 14.413C13.033 14.5797 12.5997 14.6663 12.133 14.6663C11.453 14.6663 10.7263 14.5063 9.95967 14.1797C9.19301 13.853 8.42634 13.413 7.66634 12.8597C6.89967 12.2997 6.17301 11.6797 5.47967 10.993C4.79301 10.2997 4.17301 9.57301 3.61967 8.81301C3.07301 8.05301 2.63301 7.29301 2.31301 6.53967C1.99301 5.77967 1.83301 5.05301 1.83301 4.35967C1.83301 3.90634 1.91301 3.47301 2.07301 3.07301C2.23301 2.66634 2.48634 2.29301 2.83967 1.95967C3.26634 1.53967 3.73301 1.33301 4.22634 1.33301C4.41301 1.33301 4.59967 1.37301 4.76634 1.45301C4.93967 1.53301 5.09301 1.65301 5.21301 1.82634L6.75967 4.00634C6.87967 4.17301 6.96634 4.32634 7.02634 4.47301C7.08634 4.61301 7.11967 4.75301 7.11967 4.87967C7.11967 5.03967 7.07301 5.19967 6.97967 5.35301C6.89301 5.50634 6.76634 5.66634 6.60634 5.82634L6.09967 6.35301C6.02634 6.42634 5.99301 6.51301 5.99301 6.61967C5.99301 6.67301 5.99967 6.71967 6.01301 6.77301C6.03301 6.82634 6.05301 6.86634 6.06634 6.90634C6.18634 7.12634 6.39301 7.41301 6.68634 7.75967C6.98634 8.10634 7.30634 8.45967 7.65301 8.81301C8.01301 9.16634 8.35967 9.49301 8.71301 9.79301C9.05967 10.0863 9.34634 10.2863 9.57301 10.4063C9.60634 10.4197 9.64634 10.4397 9.69301 10.4597C9.74634 10.4797 9.79967 10.4863 9.85967 10.4863C9.97301 10.4863 10.0597 10.4463 10.133 10.373L10.6397 9.87301C10.8063 9.70634 10.9663 9.57967 11.1197 9.49967C11.273 9.40634 11.4263 9.35967 11.593 9.35967C11.7197 9.35967 11.853 9.38634 11.9997 9.44634C12.1463 9.50634 12.2997 9.59301 12.4663 9.70634L14.673 11.273C14.8463 11.393 14.9663 11.533 15.0397 11.6997C15.1063 11.8663 15.1463 12.033 15.1463 12.2197Z" stroke="white" stroke-width="1.5" stroke-miterlimit="10"/>
<path d="M12.8333 5.99935C12.8333 5.59935 12.52 4.98602 12.0533 4.48602C11.6267 4.02602 11.06 3.66602 10.5 3.66602" stroke="white" stroke-width="1.5" stroke-linecap="round" stroke-linejoin="round"/>
<path d="M15.1667 5.99967C15.1667 3.41967 13.08 1.33301 10.5 1.33301" stroke="white" stroke-width="1.5" stroke-linecap="round" stroke-linejoin="round"/>
</svg>
