<svg width="60" height="60" viewBox="0 0 60 60" fill="none" xmlns="http://www.w3.org/2000/svg">
<path d="M60.0003 26.6667C60.0003 41.3943 48.0613 53.3333 33.3337 53.3333C18.6061 53.3333 6.66699 41.3943 6.66699 26.6667C6.66699 11.9391 18.6061 0 33.3337 0C48.0613 0 60.0003 11.9391 60.0003 26.6667Z" fill="#FFE25B"/>
<path d="M48.8888 33.3335C48.8888 45.6002 38.9332 55.5558 26.6666 55.5558C14.3999 55.5558 4.44434 45.6002 4.44434 33.3335C4.44434 21.0669 14.3999 11.1113 26.6666 11.1113C38.9332 11.1113 48.8888 21.0669 48.8888 33.3335Z" fill="#FFE25B" stroke="#19191B" stroke-width="2" stroke-linecap="round" stroke-linejoin="round"/>
<path d="M34.9114 40.4002L28.0225 36.289C26.8225 35.5779 25.8447 33.8668 25.8447 32.4668V23.3557" fill="#FFE25B"/>
<path d="M34.9114 40.4002L28.0225 36.289C26.8225 35.5779 25.8447 33.8668 25.8447 32.4668V23.3557" stroke="#19191B" stroke-width="2" stroke-linecap="round" stroke-linejoin="round"/>
</svg>
