<svg width="60" height="60" viewBox="0 0 60 60" fill="none" xmlns="http://www.w3.org/2000/svg">
<path d="M59.9999 26.6667C59.9999 41.3944 48.0605 53.3335 33.3325 53.3335C18.6045 53.3335 6.66504 41.3944 6.66504 26.6667C6.66504 11.9391 18.6045 0 33.3325 0C48.0605 0 59.9999 11.9391 59.9999 26.6667Z" fill="#D7C0FF"/>
<path d="M48.892 33.3332C48.892 45.5999 38.9362 55.5555 26.6691 55.5555C14.4021 55.5555 4.44629 45.5999 4.44629 33.3332C4.44629 21.0665 14.4021 11.111 26.6691 11.111C38.9362 11.111 48.892 21.0665 48.892 33.3332Z" fill="#D7C0FF" stroke="#00001C" stroke-width="2" stroke-linecap="round" stroke-linejoin="round"/>
<path d="M34.9126 40.4001L28.0235 36.289C26.8235 35.5778 25.8457 33.8667 25.8457 32.4667V23.3556" fill="#D7C0FF"/>
<path d="M34.9126 40.4001L28.0235 36.289C26.8235 35.5778 25.8457 33.8667 25.8457 32.4667V23.3556" stroke="#00001C" stroke-width="2" stroke-linecap="round" stroke-linejoin="round"/>
</svg>
