<svg width="40" height="40" viewBox="0 0 40 40" fill="none" xmlns="http://www.w3.org/2000/svg">
<path d="M15.0007 36.6668H25.0007C33.334 36.6668 36.6673 33.3335 36.6673 25.0002V15.0002C36.6673 6.66683 33.334 3.3335 25.0007 3.3335H15.0007C6.66732 3.3335 3.33398 6.66683 3.33398 15.0002V25.0002C3.33398 33.3335 6.66732 36.6668 15.0007 36.6668Z" stroke="#9D68F8" stroke-width="1.5" stroke-linecap="round" stroke-linejoin="round"/>
<path d="M14.9993 16.6667C16.8403 16.6667 18.3327 15.1743 18.3327 13.3333C18.3327 11.4924 16.8403 10 14.9993 10C13.1584 10 11.666 11.4924 11.666 13.3333C11.666 15.1743 13.1584 16.6667 14.9993 16.6667Z" stroke="#9D68F8" stroke-width="1.5" stroke-linecap="round" stroke-linejoin="round"/>
<path d="M4.44922 31.5831L12.6659 26.0664C13.9826 25.1831 15.8826 25.2831 17.0659 26.2998L17.6159 26.7831C18.9159 27.8998 21.0159 27.8998 22.3159 26.7831L29.2492 20.8331C30.5492 19.7164 32.6492 19.7164 33.9492 20.8331L36.6659 23.1664" stroke="#9D68F8" stroke-width="1.5" stroke-linecap="round" stroke-linejoin="round"/>
</svg>
