<svg width="60" height="60" viewBox="0 0 60 60" fill="none" xmlns="http://www.w3.org/2000/svg">
<path d="M22.5 55H37.5C50 55 55 50 55 37.5V22.5C55 10 50 5 37.5 5H22.5C10 5 5 10 5 22.5V37.5C5 50 10 55 22.5 55Z" stroke="#7D7D7D" stroke-width="2" stroke-linecap="round" stroke-linejoin="round"/>
<path d="M22.5 25C25.2614 25 27.5 22.7614 27.5 20C27.5 17.2386 25.2614 15 22.5 15C19.7386 15 17.5 17.2386 17.5 20C17.5 22.7614 19.7386 25 22.5 25Z" stroke="#7D7D7D" stroke-width="2" stroke-linecap="round" stroke-linejoin="round"/>
<path d="M6.67578 47.3749L19.0008 39.0999C20.9758 37.7749 23.8258 37.9249 25.6008 39.4499L26.4258 40.1749C28.3758 41.8499 31.5258 41.8499 33.4758 40.1749L43.8758 31.2499C45.8258 29.5749 48.9758 29.5749 50.9258 31.2499L55.0008 34.7499" stroke="#7D7D7D" stroke-width="2" stroke-linecap="round" stroke-linejoin="round"/>
</svg>
