<svg width="24" height="22" viewBox="0 0 24 22" fill="none" xmlns="http://www.w3.org/2000/svg">
<path d="M22.3419 3.56836H13.582V6.27099H15.6038C15.9757 6.27099 16.2774 6.5737 16.2774 6.94659C16.2775 7.31958 15.9757 7.6223 15.6038 7.6223H13.582V8.97375H15.6038C15.9757 8.97375 16.2774 9.27647 16.2774 9.64913C16.2775 10.0223 15.9757 10.3249 15.6038 10.3249H13.582V11.6762H15.6038C15.9757 11.6762 16.2774 11.9789 16.2774 12.3519C16.2775 12.7246 15.9757 13.0274 15.6038 13.0274H13.582V14.3789H15.6038C15.9757 14.3789 16.2774 14.6816 16.2774 15.0547C16.2774 15.4276 15.9757 15.7302 15.6038 15.7302H13.582V18.4327H22.3419C22.714 18.4327 23.0158 18.1301 23.0158 17.757V4.24397C23.0158 3.87098 22.714 3.56836 22.3419 3.56836ZM19.6467 15.7302H18.299C17.9271 15.7302 17.6251 15.4275 17.6251 15.0546C17.6251 14.6815 17.9271 14.3788 18.299 14.3788H19.6467C20.0185 14.3788 20.3204 14.6815 20.3204 15.0546C20.3204 15.4275 20.0185 15.7302 19.6467 15.7302ZM19.6467 13.0273H18.299C17.9271 13.0273 17.6251 12.7246 17.6251 12.3519C17.6251 11.9789 17.9271 11.6762 18.299 11.6762H19.6467C20.0185 11.6762 20.3204 11.9789 20.3204 12.3519C20.3204 12.7246 20.0185 13.0273 19.6467 13.0273ZM19.6467 10.3249H18.299C17.9271 10.3249 17.6251 10.0222 17.6251 9.64908C17.6251 9.27642 17.9271 8.9737 18.299 8.9737H19.6467C20.0185 8.9737 20.3204 9.27642 20.3204 9.64908C20.3204 10.0222 20.0185 10.3249 19.6467 10.3249ZM19.6467 7.6222H18.299C17.9271 7.6222 17.6251 7.31948 17.6251 6.9465C17.6251 6.57361 17.9271 6.27089 18.299 6.27089H19.6467C20.0185 6.27089 20.3204 6.57361 20.3204 6.9465C20.3204 7.31953 20.0185 7.6222 19.6467 7.6222Z" fill="white"/>
<path d="M12.8694 1.02102C12.7155 0.892674 12.5093 0.837174 12.3154 0.877908L1.53422 2.90469C1.21481 2.96446 0.984375 3.24271 0.984375 3.5683V18.4327C0.984375 18.757 1.21481 19.0365 1.53422 19.0963L12.3153 21.1231C12.3557 21.1311 12.3975 21.1353 12.4394 21.1353C12.5956 21.1353 12.7479 21.0813 12.8693 20.9798C13.0244 20.8516 13.113 20.6597 13.113 20.4595V18.4327V15.7302V14.3788V13.0273V11.6761V10.3248V8.9736V7.62215V6.27088V3.5683V1.54152C13.113 1.34005 13.0244 1.14946 12.8694 1.02102ZM10.1877 14.2111C10.0596 14.3234 9.90173 14.3789 9.74395 14.3789C9.55682 14.3789 9.37082 14.3003 9.23728 14.1466L7.27795 11.9017L5.55956 14.1179C5.42629 14.2897 5.22811 14.3787 5.02734 14.3787C4.88329 14.3787 4.73625 14.3328 4.61217 14.2369C4.31986 14.0073 4.26586 13.5829 4.49503 13.2881L6.37368 10.8667L4.52062 8.74246C4.27537 8.46262 4.30373 8.03568 4.58395 7.78996C4.86159 7.54387 5.28754 7.56951 5.53406 7.85357L7.21593 9.78023L9.21201 7.2073C9.44212 6.91419 9.86535 6.8601 10.1578 7.08993C10.4502 7.31943 10.5044 7.74383 10.2753 8.03859L8.12006 10.8169L10.251 13.2585C10.4961 13.5384 10.4679 13.9654 10.1877 14.2111Z" fill="white"/>
</svg>
