<svg width="22" height="22" viewBox="0 0 22 22" fill="none" xmlns="http://www.w3.org/2000/svg">
<path d="M13.5319 8.46992L8.47188 13.5299C7.82188 12.8799 7.42188 11.9899 7.42188 10.9999C7.42188 9.01992 9.02187 7.41992 11.0019 7.41992C11.9919 7.41992 12.8819 7.81992 13.5319 8.46992Z" stroke="#19191B" stroke-width="1.5" stroke-linecap="round" stroke-linejoin="round"/>
<path d="M16.8198 4.76998C15.0698 3.44998 13.0698 2.72998 10.9998 2.72998C7.46984 2.72998 4.17984 4.80998 1.88984 8.40998C0.989844 9.81998 0.989844 12.19 1.88984 13.6C2.67984 14.84 3.59984 15.91 4.59984 16.77" stroke="#19191B" stroke-width="1.5" stroke-linecap="round" stroke-linejoin="round"/>
<path d="M7.42188 18.5302C8.56187 19.0102 9.77187 19.2702 11.0019 19.2702C14.5319 19.2702 17.8219 17.1902 20.1119 13.5902C21.0119 12.1802 21.0119 9.81018 20.1119 8.40018C19.7819 7.88018 19.4219 7.39018 19.0519 6.93018" stroke="#19191B" stroke-width="1.5" stroke-linecap="round" stroke-linejoin="round"/>
<path d="M14.5114 11.7002C14.2514 13.1102 13.1014 14.2602 11.6914 14.5202" stroke="#19191B" stroke-width="1.5" stroke-linecap="round" stroke-linejoin="round"/>
<path d="M8.47 13.5298L1 20.9998" stroke="#19191B" stroke-width="1.5" stroke-linecap="round" stroke-linejoin="round"/>
<path d="M21.0013 1L13.5312 8.47" stroke="#19191B" stroke-width="1.5" stroke-linecap="round" stroke-linejoin="round"/>
</svg>
