<svg width="22" height="20" viewBox="0 0 22 20" fill="none" xmlns="http://www.w3.org/2000/svg">
<path d="M14.5819 9.99992C14.5819 11.9799 12.9819 13.5799 11.0019 13.5799C9.02187 13.5799 7.42188 11.9799 7.42188 9.99992C7.42188 8.01992 9.02187 6.41992 11.0019 6.41992C12.9819 6.41992 14.5819 8.01992 14.5819 9.99992Z" stroke="#19191B" stroke-width="1.5" stroke-linecap="round" stroke-linejoin="round"/>
<path d="M10.9998 18.2702C14.5298 18.2702 17.8198 16.1902 20.1098 12.5902C21.0098 11.1802 21.0098 8.81021 20.1098 7.40021C17.8198 3.80021 14.5298 1.72021 10.9998 1.72021C7.46984 1.72021 4.17984 3.80021 1.88984 7.40021C0.989844 8.81021 0.989844 11.1802 1.88984 12.5902C4.17984 16.1902 7.46984 18.2702 10.9998 18.2702Z" stroke="#19191B" stroke-width="1.5" stroke-linecap="round" stroke-linejoin="round"/>
</svg>
