<svg width="22" height="22" viewBox="0 0 22 22" fill="none" xmlns="http://www.w3.org/2000/svg">
<path d="M11 21C16.5228 21 21 16.5228 21 11C21 5.47715 16.5228 1 11 1C5.47715 1 1 5.47715 1 11C1 16.5228 5.47715 21 11 21Z" stroke="#7D7D7D" stroke-linecap="round" stroke-linejoin="round"/>
<path d="M7.00156 2H8.00156C6.05156 7.84 6.05156 14.16 8.00156 20H7.00156" stroke="#7D7D7D" stroke-linecap="round" stroke-linejoin="round"/>
<path d="M14 2C15.95 7.84 15.95 14.16 14 20" stroke="#7D7D7D" stroke-linecap="round" stroke-linejoin="round"/>
<path d="M2 15V14C7.84 15.95 14.16 15.95 20 14V15" stroke="#7D7D7D" stroke-linecap="round" stroke-linejoin="round"/>
<path d="M2 7.99998C7.84 6.04998 14.16 6.04998 20 7.99998" stroke="#7D7D7D" stroke-linecap="round" stroke-linejoin="round"/>
</svg>
