<svg width="40" height="30" viewBox="0 0 40 30" fill="none" xmlns="http://www.w3.org/2000/svg">
<path d="M25.769 29.1749C24.4789 28.3104 23.3904 27.0923 22.5035 25.5206C21.6166 23.9489 21.3344 22.6523 21.6569 21.6307C21.8988 19.8232 22.302 18.1336 22.8664 16.5619C23.5114 14.9902 24.0758 13.4578 24.5596 11.9646C25.0433 10.1572 26.0109 8.31041 27.4622 6.42436C28.9942 4.45972 30.4455 2.73084 31.8162 1.23772C31.7355 0.923377 31.9774 0.726913 32.5418 0.648329C33.1062 0.569744 33.8319 0.373281 34.7188 0.0589383C35.6057 -0.0196461 36.6136 -0.0196461 37.7424 0.0589383C38.8712 0.0589383 39.5969 0.8055 39.9194 2.29862C40.0806 2.84872 40 3.35953 39.6775 3.83104C39.4356 4.22397 39.1131 4.73477 38.7099 5.36346C37.7424 6.85658 36.6136 8.54617 35.3235 10.4322C34.1141 12.3183 33.3078 13.8507 32.9047 15.0295C32.9047 15.3438 32.8643 15.6189 32.7837 15.8546C34.1544 15.6189 35.5654 16.0904 37.0167 17.2692C38.5487 18.6837 38.9518 20.5697 38.2262 22.9273C37.5005 25.2849 36.0895 27.1709 33.9931 28.5855C32.5418 29.4499 31.1711 29.9214 29.8811 30C28.591 30 27.2203 29.7249 25.769 29.1749ZM4.24108 29.1749C2.95102 28.3104 1.86253 27.0923 0.97561 25.5206C0.0886915 23.9489 -0.19351 22.6523 0.129007 21.6307C0.370893 19.8232 0.774037 18.1336 1.33844 16.5619C1.98347 14.9902 2.54787 13.4578 3.03165 11.9646C3.51542 10.1572 4.48297 8.31041 5.93429 6.42436C7.46624 4.45972 8.91756 2.73084 10.2882 1.23772C10.2076 0.923377 10.4495 0.726913 11.0139 0.648329C11.5783 0.569744 12.304 0.373281 13.1909 0.0589383C14.0778 -0.0196461 15.0857 -0.0196461 16.2145 0.0589383C17.3433 0.0589383 18.0286 0.8055 18.2705 2.29862C18.4318 2.84872 18.3511 3.35953 18.0286 3.83104C17.7867 4.22397 17.4642 4.73477 17.0611 5.36346C16.0935 6.85658 14.9647 8.54617 13.6747 10.4322C12.4652 12.3183 11.6589 13.8507 11.2558 15.0295C11.2558 15.3438 11.2155 15.6189 11.1349 15.8546C12.5055 15.6189 13.9166 16.0904 15.3679 17.2692C16.8998 18.6837 17.303 20.5697 16.5773 22.9273C15.9323 25.2849 14.5616 27.1709 12.4652 28.5855C11.0139 29.4499 9.64322 29.9214 8.35316 30C7.06309 30 5.6924 29.7249 4.24108 29.1749Z" fill="#7D7D7D"/>
</svg>
