                            <svg width="16" height="20" viewBox="0 0 16 20" fill="none" xmlns="http://www.w3.org/2000/svg">
                                <path fill-rule="evenodd" clip-rule="evenodd" d="M8 1.53846C6.14717 1.53846 4.64516 3.03085 4.64516 4.8718C4.64516 6.71274 6.14717 8.20513 8 8.20513C9.85283 8.20513 11.3548 6.71274 11.3548 4.8718C11.3548 3.03085 9.85283 1.53846 8 1.53846ZM3.09677 4.8718C3.09677 2.18118 5.29202 0 8 0C10.708 0 12.9032 2.18118 12.9032 4.8718C12.9032 7.56241 10.708 9.74359 8 9.74359C5.29202 9.74359 3.09677 7.56241 3.09677 4.8718Z" fill="#7D7D7D" class="fill"/>
                                <path fill-rule="evenodd" clip-rule="evenodd" d="M5.46618 13.3333C3.30244 13.3333 1.54839 15.0761 1.54839 17.226C1.54839 17.3389 1.56915 17.4186 1.59092 17.465C1.60929 17.5041 1.62506 17.5153 1.63821 17.5224C2.23987 17.8477 3.92682 18.4615 8 18.4615C12.0732 18.4615 13.7601 17.8477 14.3618 17.5224C14.3749 17.5153 14.3907 17.5041 14.4091 17.465C14.4308 17.4186 14.4516 17.3389 14.4516 17.226C14.4516 15.0761 12.6976 13.3333 10.5338 13.3333H5.46618ZM0 17.226C0 14.2265 2.44729 11.7949 5.46618 11.7949H10.5338C13.5527 11.7949 16 14.2265 16 17.226C16 17.7766 15.7994 18.4966 15.1019 18.8737C14.1779 19.3733 12.1959 20 8 20C3.80414 20 1.82206 19.3733 0.898118 18.8737C0.200634 18.4966 0 17.7766 0 17.226Z" fill="#7D7D7D" class="fill"/>
                            </svg>
