<svg width="38" height="38" viewBox="0 0 38 38" fill="none" xmlns="http://www.w3.org/2000/svg">
<path d="M34.625 15.875V20.5625C34.625 26.8125 31.5 29.9375 25.25 29.9375H24.4688C23.9844 29.9375 23.5156 30.1719 23.2187 30.5625L20.875 33.6875C19.8437 35.0625 18.1563 35.0625 17.125 33.6875L14.7813 30.5625C14.5313 30.2187 13.9531 29.9375 13.5312 29.9375H12.75C6.5 29.9375 3.375 28.375 3.375 20.5625V12.75C3.375 6.5 6.5 3.375 12.75 3.375H22.125" stroke="white" stroke-width="2" stroke-miterlimit="10" stroke-linecap="round" stroke-linejoin="round"/>
<path d="M30.7188 11.1875C32.8761 11.1875 34.625 9.43861 34.625 7.28125C34.625 5.12389 32.8761 3.375 30.7188 3.375C28.5614 3.375 26.8125 5.12389 26.8125 7.28125C26.8125 9.43861 28.5614 11.1875 30.7188 11.1875Z" stroke="white" stroke-width="2" stroke-linecap="round" stroke-linejoin="round"/>
<path d="M25.2445 17.4375H25.2585" stroke="white" stroke-width="4" stroke-linecap="round" stroke-linejoin="round"/>
<path d="M18.9929 17.4375H19.0069" stroke="white" stroke-width="4" stroke-linecap="round" stroke-linejoin="round"/>
<path d="M12.7414 17.4375H12.7555" stroke="white" stroke-width="4" stroke-linecap="round" stroke-linejoin="round"/>
</svg>
