<svg width="38" height="38" viewBox="0 0 38 38" fill="none" xmlns="http://www.w3.org/2000/svg">
<path d="M19.0312 4.79688C13.8594 4.79688 9.65623 9 9.65623 14.1719V18.6875C9.65623 19.6406 9.24998 21.0937 8.76561 21.9062L6.96873 24.8906C5.85936 26.7344 6.62498 28.7813 8.65623 29.4688C15.3906 31.7188 22.6562 31.7188 29.3906 29.4688C31.2812 28.8438 32.1094 26.6094 31.0781 24.8906L29.2812 21.9062C28.8125 21.0937 28.4062 19.6406 28.4062 18.6875V14.1719C28.4062 9.01563 24.1875 4.79688 19.0312 4.79688Z" stroke="white" stroke-width="2" stroke-miterlimit="10" stroke-linecap="round"/>
<path d="M21.9219 5.25C21.4375 5.10937 20.9375 5 20.4219 4.9375C18.9219 4.75 17.4844 4.85937 16.1406 5.25C16.5938 4.09375 17.7188 3.28125 19.0313 3.28125C20.3438 3.28125 21.4688 4.09375 21.9219 5.25Z" stroke="white" stroke-width="2" stroke-miterlimit="10" stroke-linecap="round" stroke-linejoin="round"/>
<path d="M23.7188 30.0312C23.7188 32.6094 21.6094 34.7188 19.0312 34.7188C17.75 34.7188 16.5625 34.1875 15.7187 33.3438C14.875 32.5 14.3438 31.3125 14.3438 30.0312" stroke="white" stroke-width="2" stroke-miterlimit="10"/>
</svg>
