<svg xmlns="http://www.w3.org/2000/svg"
      xmlns:xlink="http://www.w3.org/1999/xlink">
      <style>:root>svg{display:none}:root>svg:target{display:block}</style>
      
      
      <svg id="vk" viewBox="0 0 30 30"  xmlns="http://www.w3.org/2000/svg">
            <path d="M19.609 16.2895C20.0683 16.7517 20.553 17.1866 20.965 17.6955C21.1469 17.9216 21.3192 18.1549 21.451 18.4174C21.6378 18.7904 21.4686 19.2009 21.1441 19.2232L19.127 19.2222C18.6067 19.2667 18.1917 19.0508 17.8427 18.6842C17.5634 18.391 17.3048 18.0789 17.0363 17.7758C16.9262 17.6519 16.8109 17.5353 16.6733 17.4431C16.3979 17.2589 16.1589 17.3153 16.0015 17.6113C15.8413 17.9125 15.8049 18.2459 15.7892 18.5814C15.7676 19.0711 15.624 19.1998 15.1469 19.2222C14.1272 19.2718 13.1595 19.1127 12.2605 18.5825C11.4679 18.1151 10.8533 17.4552 10.3184 16.7081C9.27681 15.2534 8.47918 13.655 7.76231 12.0117C7.60095 11.6415 7.71896 11.4428 8.11524 11.4357C8.77329 11.4226 9.43126 11.4235 10.0901 11.4348C10.3575 11.4388 10.5346 11.597 10.6379 11.8574C10.9939 12.7598 11.4295 13.6183 11.9763 14.4141C12.122 14.626 12.2705 14.8378 12.4819 14.9869C12.7158 15.1521 12.8939 15.0973 13.004 14.8287C13.0738 14.6584 13.1044 14.475 13.1201 14.2925C13.1723 13.665 13.1791 13.0385 13.0877 12.4131C13.0315 12.0228 12.8183 11.7701 12.4405 11.6963C12.2477 11.6586 12.2764 11.5847 12.3697 11.4712C12.5319 11.2756 12.6843 11.1538 12.9883 11.1538H15.268C15.6269 11.2268 15.7066 11.393 15.7557 11.7653L15.7577 14.3755C15.7538 14.5196 15.8275 14.9472 16.0793 15.0426C16.2809 15.1105 16.4137 14.9443 16.5346 14.8126C17.0804 14.2154 17.47 13.5097 17.818 12.779C17.9725 12.4577 18.1053 12.124 18.234 11.7906C18.3293 11.5432 18.4789 11.4214 18.7493 11.4268L20.9434 11.4288C21.0084 11.4288 21.0742 11.4298 21.1373 11.4409C21.507 11.5059 21.6083 11.6698 21.4941 12.042C21.3142 12.6258 20.9641 13.1124 20.6218 13.6012C20.2559 14.1231 19.8646 14.6271 19.5017 15.1521C19.1684 15.6315 19.1949 15.8731 19.609 16.2895V16.2895Z"/>
       </svg>
      <svg id="insta" viewBox="0 0 30 30" xmlns="http://www.w3.org/2000/svg">
            <path fill-rule="evenodd" clip-rule="evenodd" d="M17.6427 8.46143H12.3571C10.209 8.46143 8.46143 10.209 8.46143 12.3571V17.6427C8.46143 19.7908 10.209 21.5383 12.3571 21.5383H17.6427C19.7908 21.5383 21.5383 19.7908 21.5383 17.6427V12.3571C21.5383 10.209 19.7907 8.46143 17.6427 8.46143ZM20.2229 17.6427C20.2229 19.0676 19.0678 20.2228 17.6428 20.2228H12.3572C10.9323 20.2228 9.7771 19.0676 9.7771 17.6427V12.3571C9.7771 10.9321 10.9323 9.77696 12.3572 9.77696H17.6428C19.0678 9.77696 20.2229 10.9321 20.2229 12.3571V17.6427ZM11.6179 14.9999C11.6179 13.135 13.1352 11.6177 15.0001 11.6177C16.865 11.6177 18.3822 13.1349 18.3822 14.9999C18.3822 16.8648 16.865 18.382 15.0001 18.382C13.1352 18.382 11.6179 16.8648 11.6179 14.9999ZM15 17.0665C13.8586 17.0665 12.9333 16.1413 12.9333 14.9999C12.9333 13.8585 13.8586 12.9333 15 12.9333C16.1413 12.9333 17.0666 13.8585 17.0666 14.9999C17.0666 16.1412 16.1413 17.0665 15 17.0665ZM18.3888 12.4535C18.8364 12.4535 19.1992 12.0907 19.1992 11.6431C19.1992 11.1955 18.8364 10.8327 18.3888 10.8327C17.9412 10.8327 17.5784 11.1955 17.5784 11.6431C17.5784 12.0907 17.9412 12.4535 18.3888 12.4535Z"/>
      </svg>
      <svg id="linked" viewBox="0 0 30 30" xmlns="http://www.w3.org/2000/svg">
            <path fill-rule="evenodd" clip-rule="evenodd" d="M12.0234 12.8066H9.78979V20H12.0234V12.8066ZM12.2061 10.528C12.2061 9.81283 11.6248 9.23071 10.9108 9.23071C10.1925 9.23071 9.61548 9.81283 9.61548 10.528C9.61548 11.2432 10.1925 11.8253 10.9108 11.8253C11.6248 11.8253 12.2061 11.2432 12.2061 10.528ZM15.5646 12.8067H13.4307V20H15.6601V16.4408C15.6601 15.5052 15.8344 14.5946 16.9969 14.5946C18.1427 14.5946 18.1552 15.6674 18.1552 16.5031V20H20.3846V16.0582C20.3846 14.1206 19.9653 12.632 17.7068 12.632C16.6191 12.632 15.8926 13.2266 15.5936 13.7921H15.5646V12.8067Z"/>
      </svg>


</svg>



