<svg width="60" height="60" fill="none" xmlns="http://www.w3.org/2000/svg"><path d="M22.5 55h15C50 55 55 50 55 37.5v-15C55 10 50 5 37.5 5h-15C10 5 5 10 5 22.5v15C5 50 10 55 22.5 55Z" stroke="#fff" stroke-width="2" stroke-linecap="round" stroke-linejoin="round"/><path d="M22.5 25a5 5 0 1 0 0-10 5 5 0 0 0 0 10ZM6.676 47.375 19 39.1c1.975-1.325 4.825-1.175 6.6.35l.825.725c1.95 1.675 5.1 1.675 7.05 0l10.4-8.925c1.95-1.675 5.1-1.675 7.05 0L55 34.75" stroke="#fff" stroke-width="2" stroke-linecap="round" stroke-linejoin="round"/></svg>