<svg width="20" height="20" fill="none" xmlns="http://www.w3.org/2000/svg"><path fill-rule="evenodd" clip-rule="evenodd" d="M9.487 1.538c-4.39 0-7.949 3.556-7.949 7.94 0 4.383 3.558 7.938 7.95 7.938 2.19 0 4.172-.884 5.61-2.316a7.906 7.906 0 0 0 2.338-5.623c0-4.383-3.558-7.939-7.949-7.939ZM0 9.478C0 4.241 4.248 0 9.487 0s9.487 4.242 9.487 9.477a9.436 9.436 0 0 1-2.266 6.147l3.066 3.062a.77.77 0 0 1-1.087 1.089l-3.069-3.065a9.458 9.458 0 0 1-6.13 2.244C4.247 18.954 0 14.712 0 9.477Z" fill="#7D7D7D"/></svg>