<svg width="595" height="355" viewBox="0 0 595 355" fill="none" xmlns="http://www.w3.org/2000/svg">
<path d="M264.056 288.508H105.607L68.8438 193.301H227.293L264.056 288.508Z" fill="#D7C0FF"/>
<path d="M250.651 281.289H92.2017C91.9609 281.289 91.7201 281.128 91.5596 280.888L56.081 188.97C55.9205 188.649 56.081 188.248 56.4824 188.087C56.8035 187.927 57.2048 188.087 57.3654 188.488L92.6833 279.925H249.688L213.487 186.082H124.55C124.148 186.082 123.908 185.761 123.908 185.441C123.908 185.039 124.229 184.799 124.55 184.799H213.888C214.129 184.799 214.37 184.959 214.53 185.2L251.293 280.407C251.373 280.647 251.373 280.808 251.213 281.048C251.052 281.128 250.892 281.289 250.651 281.289Z" fill="white"/>
<path d="M203.374 222.818H99.0249C98.6236 222.818 98.3828 222.497 98.3828 222.176C98.3828 221.775 98.7039 221.534 99.0249 221.534H203.374C203.775 221.534 204.016 221.855 204.016 222.176C204.096 222.497 203.775 222.818 203.374 222.818Z" fill="white"/>
<path d="M206.022 241.988H101.673C101.272 241.988 101.031 241.667 101.031 241.346C101.031 240.945 101.352 240.704 101.673 240.704H206.022C206.423 240.704 206.664 241.025 206.664 241.346C206.664 241.667 206.423 241.988 206.022 241.988Z" fill="white"/>
<path d="M90.1114 129.055C90.0311 129.055 89.9508 129.055 89.7903 128.974C89.4692 128.814 89.3087 128.413 89.4692 128.092C89.4692 128.012 90.2719 126.408 92.0378 123.44C92.1983 123.119 92.5997 123.039 92.9208 123.199C93.2418 123.36 93.3221 123.761 93.1615 124.082C91.4759 126.969 90.6733 128.653 90.6733 128.653C90.593 128.894 90.3522 129.055 90.1114 129.055Z" fill="white"/>
<path d="M98.2996 115.499C98.139 115.499 98.0587 115.499 97.8982 115.419C97.5771 115.178 97.4969 114.777 97.7377 114.537C99.6641 111.649 101.751 108.762 103.918 105.874C104.159 105.554 104.56 105.554 104.801 105.714C105.122 105.955 105.122 106.356 104.962 106.596C102.795 109.484 100.708 112.371 98.7811 115.178C98.7009 115.419 98.4601 115.499 98.2996 115.499ZM111.062 98.6557C110.902 98.6557 110.741 98.5755 110.661 98.4953C110.42 98.2546 110.34 97.8536 110.581 97.5328C112.828 94.8859 115.236 92.1588 117.644 89.5922C117.885 89.3516 118.286 89.2714 118.607 89.5922C118.848 89.8328 118.928 90.2338 118.607 90.5547C116.199 93.1213 113.872 95.8484 111.624 98.4953C111.464 98.5755 111.303 98.6557 111.062 98.6557ZM291.585 98.0942C291.264 98.0942 290.943 97.7734 290.943 97.4526C290.943 97.0515 291.264 96.8109 291.585 96.8109C294.876 96.7307 298.408 96.5703 302.1 96.2494C302.502 96.2494 302.742 96.4901 302.823 96.8109C302.823 97.1317 302.582 97.4526 302.261 97.5328C298.568 97.8536 294.956 98.014 291.585 98.0942ZM281.07 97.8536C280.99 97.8536 280.99 97.8536 281.07 97.8536C277.057 97.5328 273.525 96.9713 270.475 96.2494C270.154 96.1692 269.913 95.7682 269.993 95.4474C270.073 95.1265 270.475 94.8859 270.796 94.9661C273.766 95.688 277.297 96.2494 281.15 96.5703C281.552 96.5703 281.792 96.8911 281.792 97.2922C281.632 97.613 281.391 97.8536 281.07 97.8536ZM312.696 96.3296C312.375 96.3296 312.134 96.089 312.054 95.7682C311.973 95.4473 312.214 95.0463 312.615 95.0463C316.147 94.5651 319.599 93.9234 322.97 93.2015C323.291 93.1213 323.692 93.362 323.773 93.6828C323.853 94.0036 323.612 94.4047 323.291 94.4849C319.84 95.2067 316.388 95.8484 312.856 96.4099C312.776 96.3297 312.776 96.3296 312.696 96.3296ZM260.923 91.9984C260.762 91.9984 260.682 91.9182 260.521 91.838C257.792 89.7526 256.347 87.1057 256.347 84.2183C256.347 83.4964 256.428 82.6943 256.669 81.8922C256.749 81.5714 257.15 81.3308 257.471 81.411C257.792 81.4912 258.033 81.8922 257.953 82.2131C257.792 82.8547 257.712 83.5766 257.712 84.2183C257.712 86.7047 258.916 88.8703 261.404 90.7953C261.725 91.0359 261.725 91.437 261.485 91.6776C261.324 91.9182 261.164 91.9984 260.923 91.9984ZM333.405 91.838C333.084 91.838 332.843 91.6776 332.763 91.3568C332.682 91.0359 332.843 90.6349 333.164 90.5547C336.535 89.512 339.907 88.3891 343.117 87.1057C343.438 86.9453 343.84 87.1057 344 87.5068C344.161 87.8276 344 88.2287 343.599 88.3891C340.308 89.6724 336.937 90.7953 333.565 91.838C333.485 91.838 333.485 91.838 333.405 91.838ZM353.071 84.0579C352.83 84.0579 352.589 83.8974 352.509 83.6568C352.348 83.336 352.509 82.9349 352.83 82.7745C356.04 81.1704 359.091 79.486 361.98 77.6412C362.301 77.4808 362.703 77.561 362.863 77.8818C363.024 78.2027 362.944 78.6037 362.622 78.7641C359.653 80.6089 356.522 82.3735 353.311 83.9776C353.311 84.0578 353.151 84.0579 353.071 84.0579ZM125.43 83.0953C125.27 83.0953 125.109 83.0151 124.949 82.9349C124.708 82.6943 124.708 82.2933 124.949 81.9724C127.437 79.486 130.005 77.0798 132.654 74.6735C132.895 74.4329 133.377 74.4329 133.618 74.7537C133.858 74.9944 133.858 75.4756 133.537 75.7162C130.969 78.1225 128.32 80.5287 125.912 83.0151C125.831 83.0151 125.671 83.0953 125.43 83.0953ZM436.469 82.2933C436.389 82.2933 436.309 82.2933 436.228 82.2131C433.018 80.7693 429.727 79.4058 426.516 78.1225C426.195 77.962 426.034 77.6412 426.115 77.2402C426.275 76.9193 426.596 76.7589 426.998 76.8391C430.208 78.1225 433.499 79.486 436.79 80.9297C437.111 81.0901 437.272 81.4912 437.111 81.812C436.951 82.1329 436.71 82.2933 436.469 82.2933ZM416.803 74.4329C416.723 74.4329 416.643 74.4329 416.563 74.3527C413.272 73.1496 409.9 71.9464 406.609 70.9037C406.288 70.8235 406.048 70.4225 406.208 70.1017C406.288 69.7808 406.69 69.5402 407.011 69.7006C410.302 70.8235 413.673 71.9465 417.044 73.1496C417.365 73.31 417.526 73.6308 417.446 73.9517C417.285 74.2725 417.044 74.4329 416.803 74.4329ZM263.331 74.3527C263.17 74.3527 262.929 74.2725 262.849 74.1121C262.608 73.8714 262.608 73.3902 262.929 73.1496C265.337 71.0642 268.388 69.059 271.919 67.2944C272.241 67.134 272.642 67.2944 272.802 67.6152C272.963 67.9361 272.802 68.3371 272.481 68.4975C269.03 70.2621 266.14 72.1871 263.732 74.1923C263.652 74.2725 263.491 74.3527 263.331 74.3527ZM370.97 72.8288C370.81 72.8288 370.569 72.7485 370.489 72.5881C370.248 72.2673 370.328 71.8662 370.569 71.7058C373.378 69.46 376.027 67.0538 378.355 64.6475C378.596 64.4069 378.997 64.4069 379.318 64.6475C379.559 64.8882 379.559 65.2892 379.318 65.61C376.91 68.0965 374.261 70.5027 371.452 72.7485C371.291 72.7485 371.131 72.8288 370.97 72.8288ZM141.163 68.8985C141.002 68.8985 140.761 68.8184 140.681 68.6579C140.44 68.4173 140.521 67.9361 140.761 67.6954C143.49 65.4496 146.22 63.2038 149.029 61.0382C149.35 60.7976 149.751 60.8778 149.912 61.1986C150.153 61.5194 150.072 61.9205 149.751 62.0809C146.942 64.2465 144.213 66.4121 141.484 68.6579C141.404 68.8184 141.323 68.8985 141.163 68.8985ZM396.656 67.7756C396.576 67.7756 396.496 67.7756 396.496 67.7756C393.124 66.8131 389.673 65.8507 386.302 64.9684C385.98 64.8882 385.74 64.4871 385.82 64.1663C385.9 63.8455 386.302 63.6048 386.623 63.685C389.994 64.5673 393.445 65.4496 396.897 66.4923C397.218 66.5725 397.459 66.9736 397.379 67.2944C397.218 67.6152 396.977 67.7756 396.656 67.7756ZM281.873 64.4069C281.632 64.4069 281.311 64.2465 281.231 64.0059C281.15 63.685 281.311 63.284 281.632 63.2038C284.843 62.0809 288.294 61.0382 291.826 60.2361C292.147 60.1559 292.548 60.3965 292.629 60.7174C292.709 61.0382 292.468 61.4392 292.147 61.5194C288.615 62.4017 285.244 63.3642 282.033 64.4871C282.033 64.4069 281.953 64.4069 281.873 64.4069ZM376.108 62.6423C376.027 62.6423 376.027 62.6423 375.947 62.6423C372.495 61.9205 368.964 61.2788 365.592 60.6371C365.271 60.5569 365.031 60.2361 365.031 59.9153C365.111 59.5945 365.432 59.3538 365.753 59.3538C369.204 59.9153 372.736 60.6371 376.188 61.359C376.509 61.4392 376.75 61.7601 376.669 62.1611C376.669 62.4017 376.429 62.6423 376.108 62.6423ZM302.421 59.3538C302.1 59.3538 301.859 59.1132 301.779 58.7924C301.699 58.4715 301.94 58.0705 302.341 58.0705C305.712 57.509 309.324 57.108 312.936 56.7872C313.258 56.7872 313.579 57.0278 313.659 57.3486C313.659 57.6695 313.418 57.9903 313.097 58.0705C309.565 58.3913 306.033 58.7924 302.662 59.3538C302.502 59.3538 302.502 59.3538 302.421 59.3538ZM355.238 59.1132H355.158C351.626 58.7122 348.094 58.3111 344.642 58.0705C344.241 58.0705 344 57.7497 344 57.3486C344 56.9476 344.321 56.707 344.723 56.707C348.174 56.9476 351.786 57.3486 355.318 57.7497C355.639 57.8299 355.96 58.1507 355.88 58.4715C355.88 58.8726 355.559 59.1132 355.238 59.1132ZM385.499 57.509C385.338 57.509 385.258 57.509 385.098 57.4288C384.776 57.1882 384.696 56.7872 384.937 56.5465C387.024 53.4986 388.629 50.4507 389.914 47.4029C390.074 47.082 390.395 46.9216 390.797 47.0018C391.118 47.1622 391.278 47.4831 391.198 47.8841C389.914 51.0122 388.228 54.2205 386.141 57.3486C385.9 57.4288 385.74 57.509 385.499 57.509ZM334.127 57.4288C330.515 57.3486 326.983 57.3486 323.532 57.4288C323.131 57.4288 322.89 57.1882 322.89 56.7872C322.89 56.3861 323.131 56.1455 323.532 56.1455C325.218 56.0653 326.983 56.0653 328.749 56.0653C330.515 56.0653 332.361 56.0653 334.127 56.1455C334.529 56.1455 334.769 56.4663 334.769 56.7872C334.769 57.1882 334.448 57.4288 334.127 57.4288ZM157.939 55.9851C157.698 55.9851 157.537 55.9049 157.377 55.7445C157.136 55.4236 157.216 55.0226 157.537 54.8622C160.427 52.857 163.397 50.8518 166.367 48.9268C166.688 48.7664 167.089 48.8466 167.25 49.0872C167.41 49.4081 167.33 49.8091 167.089 49.9695C164.119 51.8945 161.23 53.8997 158.34 55.9049C158.18 55.9049 158.099 55.9851 157.939 55.9851ZM175.678 44.4352C175.437 44.4352 175.196 44.3549 175.116 44.1143C174.956 43.7935 175.036 43.3925 175.357 43.232C178.407 41.4675 181.457 39.7029 184.588 38.0185C184.909 37.8581 185.31 37.9383 185.471 38.2592C185.631 38.58 185.551 38.981 185.23 39.1414C182.18 40.8258 179.049 42.5904 176.079 44.3549C175.919 44.4352 175.839 44.4352 175.678 44.4352ZM392.964 37.9383C392.964 37.9383 392.884 37.9383 392.964 37.9383C392.562 37.9383 392.322 37.6175 392.322 37.2165C392.402 36.5748 392.402 35.9331 392.402 35.2915C392.402 32.404 391.92 29.6769 391.037 27.0301C390.957 26.7092 391.118 26.3082 391.439 26.228C391.76 26.1478 392.161 26.3082 392.241 26.629C393.205 29.3561 393.686 32.3238 393.686 35.2915C393.686 35.9331 393.686 36.655 393.606 37.2967C393.606 37.6977 393.285 37.9383 392.964 37.9383ZM194.3 34.329C194.059 34.329 193.819 34.1686 193.738 33.9279C193.578 33.6071 193.738 33.2061 194.059 33.0456C197.19 31.5217 200.401 29.9175 203.611 28.4738C203.932 28.3134 204.334 28.4738 204.494 28.7946C204.655 29.1155 204.494 29.5165 204.173 29.6769C200.962 31.1206 197.752 32.6446 194.621 34.1686C194.461 34.329 194.38 34.329 194.3 34.329ZM213.565 25.5863C213.324 25.5863 213.083 25.4259 212.922 25.1853C212.762 24.8644 212.922 24.4634 213.243 24.303C216.454 22.9395 219.825 21.6561 223.116 20.453C223.438 20.2926 223.839 20.5332 223.999 20.854C224.16 21.1749 223.919 21.5759 223.598 21.7363C220.307 22.9395 217.016 24.2228 213.725 25.5863C213.725 25.5863 213.645 25.5863 213.565 25.5863ZM386.302 18.528C386.141 18.528 385.9 18.4478 385.82 18.2874C383.653 15.8812 381.004 13.6353 377.873 11.7104C377.552 11.5499 377.472 11.1489 377.633 10.8281C377.793 10.5072 378.194 10.427 378.516 10.5874C381.726 12.5926 384.536 14.9187 386.783 17.4051C387.024 17.6457 387.024 18.127 386.703 18.3676C386.623 18.4478 386.462 18.528 386.302 18.528ZM233.471 18.2072C233.23 18.2072 232.909 18.0468 232.829 17.7259C232.749 17.4051 232.909 17.0041 233.23 16.9239C236.521 15.801 239.973 14.7583 243.344 13.7155C243.665 13.6353 244.066 13.7958 244.147 14.1968C244.227 14.5176 244.066 14.9187 243.665 14.9989C240.294 15.9614 236.923 17.0843 233.551 18.2072C233.551 18.2072 233.551 18.2072 233.471 18.2072ZM253.779 12.1916C253.458 12.1916 253.217 12.0312 253.137 11.7104C253.056 11.3895 253.217 10.9885 253.618 10.9083C256.99 10.026 260.441 9.1437 263.893 8.34163C264.214 8.26142 264.615 8.50203 264.695 8.82286C264.776 9.1437 264.535 9.54473 264.214 9.62494C260.762 10.427 257.311 11.2291 253.939 12.1114C253.859 12.1916 253.779 12.1916 253.779 12.1916ZM274.408 7.45933C274.087 7.45933 273.846 7.21871 273.766 6.89788C273.685 6.57705 273.926 6.17601 274.247 6.0958C277.699 5.45414 281.231 4.73227 284.682 4.17082C285.003 4.09061 285.405 4.33123 285.405 4.73227C285.485 5.0531 285.244 5.45414 284.843 5.45414C281.391 6.01559 277.859 6.65726 274.408 7.37913C274.488 7.45934 274.408 7.45933 274.408 7.45933ZM368.643 7.13851C368.562 7.13851 368.482 7.1385 368.402 7.05829C365.352 5.93538 361.9 4.89268 358.368 4.09061C358.047 4.0104 357.806 3.68957 357.887 3.28853C357.967 2.9677 358.288 2.72707 358.689 2.80728C362.382 3.60935 365.753 4.65207 368.964 5.77498C369.285 5.93539 369.445 6.25622 369.365 6.65725C369.204 6.97809 368.883 7.13851 368.643 7.13851ZM295.277 3.93019C294.956 3.93019 294.635 3.68957 294.635 3.36874C294.555 3.04791 294.876 2.64686 295.197 2.64686C298.809 2.16561 302.341 1.68437 305.712 1.36354C306.033 1.36354 306.435 1.60416 306.435 1.925C306.435 2.24583 306.194 2.64686 305.873 2.64686C302.502 2.96769 298.97 3.44895 295.358 3.93019H295.277ZM348.094 2.40624H348.014C344.723 2.0052 341.191 1.68437 337.499 1.52396C337.097 1.52396 336.856 1.20312 336.856 0.802079C336.856 0.401039 337.177 0.160426 337.579 0.160426C341.271 0.320841 344.803 0.641665 348.174 1.0427C348.495 1.12291 348.816 1.44375 348.736 1.76458C348.656 2.16562 348.415 2.40624 348.094 2.40624ZM316.308 1.76458C315.987 1.76458 315.666 1.52396 315.666 1.12292C315.666 0.721878 315.906 0.481247 316.308 0.401039C319.92 0.160416 323.532 0 326.903 0C327.224 0 327.545 0.320834 327.545 0.641665C327.545 1.0427 327.224 1.28333 326.903 1.28333C323.532 1.44375 320 1.60417 316.308 1.76458C316.388 1.76458 316.388 1.76458 316.308 1.76458Z" fill="white"/>
<path d="M450.996 89.0308C450.915 89.0308 450.835 89.0308 450.675 88.9506C449.069 88.1485 447.544 87.4266 445.939 86.7048C445.618 86.5444 445.457 86.1433 445.618 85.8225C445.778 85.5016 446.18 85.3412 446.501 85.5017C448.106 86.2235 449.631 87.0256 451.236 87.7475C451.558 87.9079 451.718 88.3089 451.558 88.6298C451.477 88.8704 451.236 89.0308 450.996 89.0308Z" fill="white"/>
<path d="M367.28 346.658H201.125V353.717H367.28V346.658Z" fill="white"/>
<path d="M177.686 186.082C177.445 186.082 177.124 185.922 177.044 185.601L158.502 131.38C158.422 131.22 158.502 130.979 158.582 130.819C158.743 130.659 158.903 130.578 159.144 130.578H210.195C210.596 130.578 210.837 130.899 210.837 131.22C210.837 131.621 210.516 131.862 210.195 131.862H160.107L178.328 185.28C178.408 185.601 178.248 186.002 177.927 186.082C177.847 186.082 177.766 186.082 177.686 186.082Z" fill="#19191B"/>
<path d="M217.579 153.278H166.529C166.128 153.278 165.887 152.957 165.887 152.636C165.887 152.235 166.208 151.994 166.529 151.994H217.579C217.981 151.994 218.222 152.315 218.222 152.636C218.222 152.957 217.981 153.278 217.579 153.278Z" fill="#19191B"/>
<path d="M232.589 137.155H218.944C218.623 137.155 218.382 136.995 218.302 136.674L213.807 123.039C213.726 122.878 213.807 122.638 213.887 122.477C214.048 122.317 214.208 122.237 214.449 122.237H228.094C228.415 122.237 228.656 122.397 228.737 122.718L233.232 136.353C233.312 136.514 233.232 136.754 233.151 136.915C232.991 137.075 232.83 137.155 232.589 137.155ZM219.506 135.872H231.706L227.693 123.6H215.492L219.506 135.872Z" fill="#19191B"/>
<path d="M240.136 160.416H226.491C226.17 160.416 225.929 160.255 225.849 159.934L221.354 146.299C221.273 146.139 221.354 145.898 221.434 145.738C221.594 145.577 221.755 145.497 221.996 145.497H235.641C235.962 145.497 236.203 145.657 236.283 145.978L240.778 159.614C240.859 159.774 240.778 160.015 240.698 160.175C240.538 160.336 240.377 160.416 240.136 160.416ZM227.053 159.132H239.253L235.24 146.861H223.039L227.053 159.132Z" fill="#19191B"/>
<path d="M237.006 158.411H223.44L218.945 144.855H232.591L237.006 158.411Z" fill="#FFCCA1"/>
<path d="M229.459 135.231H215.813L211.398 121.595H224.964L229.459 135.231Z" fill="#FFCCA1"/>
<path d="M286.852 130.98H239.654C239.253 130.98 239.012 130.659 239.012 130.338C239.012 129.937 239.333 129.696 239.654 129.696H286.852C287.253 129.696 287.494 130.017 287.494 130.338C287.494 130.659 287.173 130.98 286.852 130.98Z" fill="#19191B"/>
<path d="M282.836 147.824H246.154C245.753 147.824 245.512 147.503 245.512 147.182C245.512 146.781 245.833 146.54 246.154 146.54H282.836C283.238 146.54 283.479 146.861 283.479 147.182C283.479 147.583 283.157 147.824 282.836 147.824Z" fill="#19191B"/>
<path d="M295.922 154.241H248.724C248.323 154.241 248.082 153.92 248.082 153.598C248.082 153.197 248.403 152.956 248.724 152.956H295.922C296.323 152.956 296.564 153.277 296.564 153.598C296.644 154 296.323 154.241 295.922 154.241Z" fill="#19191B"/>
<path d="M273.688 124.564H237.005C236.604 124.564 236.363 124.243 236.363 123.922C236.363 123.52 236.684 123.28 237.005 123.28H273.688C274.089 123.28 274.33 123.601 274.33 123.922C274.33 124.243 274.089 124.564 273.688 124.564Z" fill="#19191B"/>
<path d="M516.821 354.921H94.6109C94.2095 354.921 93.9688 354.6 93.9688 354.279C93.9688 353.877 94.2898 353.636 94.6109 353.636H516.821C517.223 353.636 517.463 353.958 517.463 354.279C517.463 354.6 517.142 354.921 516.821 354.921Z" fill="#19191B"/>
<path d="M317.353 353.717H165.646L135.305 268.696C135.545 268.055 135.786 267.493 136.027 266.932C138.034 263.162 141.967 260.435 146.703 260.435H276.817C281.633 260.435 285.888 263.483 287.493 267.975L317.353 353.717Z" fill="white"/>
<path d="M367.282 354.358H201.127C200.725 354.358 200.484 354.037 200.484 353.717V346.658C200.484 346.257 200.805 346.017 201.127 346.017H367.282C367.683 346.017 367.924 346.337 367.924 346.658V353.717C367.924 354.118 367.683 354.358 367.282 354.358ZM201.769 353.075H366.639V347.3H201.769V353.075Z" fill="#19191B"/>
<path d="M317.352 354.358H165.645C165.404 354.358 165.083 354.198 165.003 353.957L134.662 268.937C134.581 268.777 134.581 268.616 134.662 268.536C134.903 267.894 135.143 267.253 135.464 266.691C137.632 262.44 141.966 259.874 146.782 259.874H276.897C281.954 259.874 286.529 263.082 288.134 267.894L317.994 353.637C318.074 353.877 317.994 354.038 317.914 354.198C317.753 354.278 317.593 354.358 317.352 354.358ZM166.127 353.075H316.469L286.93 268.215C285.486 263.964 281.392 261.077 276.897 261.077H146.782C142.528 261.077 138.675 263.403 136.668 267.253C136.428 267.734 136.187 268.215 136.026 268.696L166.127 353.075Z" fill="#19191B"/>
<path d="M309.647 353.717H162.596L134.743 273.829C134.582 272.065 134.743 270.3 135.304 268.696C135.545 268.055 135.786 267.493 136.027 266.932H274.249C277.78 266.932 280.831 269.177 281.954 272.466L309.647 353.717Z" fill="#19191B"/>
<path d="M104.963 129.215H4.38672L22.7681 180.548H116.2L126.394 189.13L104.963 129.215ZM45.0826 157.448C42.9154 157.448 41.1495 155.683 41.1495 153.518C41.1495 151.352 42.9154 149.588 45.0826 149.588C47.2499 149.588 49.0158 151.352 49.0158 153.518C49.0961 155.683 47.3301 157.448 45.0826 157.448ZM63.2233 157.448C61.056 157.448 59.2901 155.683 59.2901 153.518C59.2901 151.352 61.056 149.588 63.2233 149.588C65.3905 149.588 67.1564 151.352 67.1564 153.518C67.2366 155.683 65.4708 157.448 63.2233 157.448ZM81.3638 157.448C79.1966 157.448 77.4307 155.683 77.4307 153.518C77.4307 151.352 79.1966 149.588 81.3638 149.588C83.5311 149.588 85.297 151.352 85.297 153.518C85.3773 155.683 83.6114 157.448 81.3638 157.448Z" fill="#FFDF4A"/>
<path d="M122.702 198.033C122.542 198.033 122.381 197.953 122.301 197.873L112.268 189.451H19.0763C18.8355 189.451 18.5144 189.291 18.4341 189.05L0.0527226 137.717C-0.0275455 137.476 -0.0275406 137.316 0.132996 137.155C0.293532 136.995 0.454053 136.915 0.694858 136.915H101.271C101.512 136.915 101.833 137.075 101.913 137.316L123.345 197.311C123.425 197.552 123.345 197.873 123.104 198.033C123.023 197.953 122.863 198.033 122.702 198.033ZM19.5579 188.087H112.508C112.669 188.087 112.829 188.168 112.91 188.248L121.258 195.306L100.789 138.038H1.65808L19.5579 188.087ZM77.7523 166.191C75.1837 166.191 73.0967 164.105 73.0967 161.539C73.0967 158.972 75.1837 156.887 77.7523 156.887C80.3208 156.887 82.4078 158.972 82.4078 161.539C82.3275 164.105 80.2406 166.191 77.7523 166.191ZM77.7523 158.25C75.9061 158.25 74.4613 159.774 74.4613 161.539C74.4613 163.383 75.9864 164.827 77.7523 164.827C79.5182 164.827 81.0433 163.303 81.0433 161.539C81.0433 159.774 79.5182 158.25 77.7523 158.25ZM59.6117 166.191C57.0431 166.191 54.9561 164.105 54.9561 161.539C54.9561 158.972 57.0431 156.887 59.6117 156.887C62.1803 156.887 64.2672 158.972 64.2672 161.539C64.187 164.105 62.1 166.191 59.6117 166.191ZM59.6117 158.25C57.7655 158.25 56.3207 159.774 56.3207 161.539C56.3207 163.383 57.8458 164.827 59.6117 164.827C61.4578 164.827 62.9026 163.303 62.9026 161.539C62.9026 159.774 61.3776 158.25 59.6117 158.25ZM41.4711 166.191C38.9025 166.191 36.8155 164.105 36.8155 161.539C36.8155 158.972 38.9025 156.887 41.4711 156.887C44.0396 156.887 46.1266 158.972 46.1266 161.539C46.0464 164.105 43.9594 166.191 41.4711 166.191ZM41.4711 158.25C39.6249 158.25 38.1801 159.774 38.1801 161.539C38.1801 163.383 39.7052 164.827 41.4711 164.827C43.3172 164.827 44.7621 163.303 44.7621 161.539C44.7621 159.774 43.2369 158.25 41.4711 158.25Z" fill="#19191B"/>
<path d="M384.338 196.589C384.338 196.589 377.195 198.113 375.108 194.985C374.305 193.702 372.86 190.173 371.817 186.162C370.452 181.35 369.489 175.976 370.452 173.329C371.094 171.645 372.619 171.164 374.305 171.244C377.355 171.404 381.047 173.329 381.047 173.329L384.338 196.589Z" fill="#D7C0FF"/>
<path d="M371.817 186.162C370.452 181.35 369.489 175.976 370.452 173.329C371.094 171.645 372.619 171.164 374.305 171.244C372.78 173.249 371.255 177.42 371.817 186.162Z" fill="white"/>
<path d="M380.726 197.632C378.478 197.632 375.829 197.151 374.625 195.306C372.699 192.419 368.043 178.142 369.889 173.089C370.291 171.966 371.013 171.244 372.057 170.843C375.428 169.56 381.127 172.607 381.368 172.768C381.528 172.848 381.689 173.008 381.689 173.249L384.98 196.509C385.06 196.83 384.819 197.151 384.498 197.231C384.338 197.311 382.652 197.632 380.726 197.632ZM373.983 171.886C373.421 171.886 372.94 171.966 372.538 172.126C371.816 172.367 371.415 172.848 371.094 173.57C369.408 178.062 373.983 192.018 375.669 194.584C377.033 196.67 381.368 196.429 383.615 196.028L380.485 173.73C379.12 173.089 376.231 171.886 373.983 171.886Z" fill="#19191B"/>
<path d="M510.199 354.278H363.469C364.031 344.332 364.673 334.948 365.556 326.125C368.285 296.849 372.379 274.391 375.509 260.034C378.158 248.083 380.084 241.666 380.084 241.666C382.332 239.902 384.74 238.217 387.228 236.693C403.041 226.988 421.663 222.737 421.663 222.737C421.663 222.737 440.125 216.722 469.985 229.154C499.844 241.586 504.741 252.976 513.811 300.94C518.788 326.847 515.176 343.61 510.199 354.278Z" fill="#FE5233"/>
<path d="M308.324 252.575C308.324 252.575 307.682 219.93 307.602 214.315C307.441 208.621 301.02 196.188 304.953 191.536C308.886 186.884 316.271 194.023 317.715 208.942C317.715 208.942 320.766 206.936 315.709 186.564C315.709 186.564 315.227 183.516 319.963 181.992C324.779 180.468 331.2 183.997 330.558 208.3C330.558 208.3 333.047 202.605 332.726 193.782C332.324 184.959 331.2 181.51 337.381 181.671C343.562 181.831 345.167 195.547 343.321 216.321C343.321 216.321 347.013 209.262 354.799 210.305C362.585 211.348 359.936 218.887 347.495 229.555C347.495 229.555 345.729 238.137 344.204 250.168L308.324 252.575Z" fill="white"/>
<path d="M308.323 253.216C308.163 253.216 308.002 253.136 307.842 253.056C307.681 252.895 307.601 252.735 307.601 252.574C307.601 252.254 306.959 219.93 306.878 214.315C306.798 212.39 305.996 209.663 305.193 206.695C303.507 200.921 301.661 194.424 304.39 191.135C305.594 189.691 307.28 189.13 308.965 189.691C312.337 190.734 316.27 196.108 317.875 205.492C317.875 205.252 317.875 204.931 317.875 204.61C317.875 200.6 316.912 194.584 314.986 186.644C314.986 186.644 314.986 186.644 314.986 186.563C314.986 186.403 314.424 182.954 319.721 181.27C321.808 180.628 323.735 180.949 325.42 182.152C329.113 184.959 331.039 192.098 331.2 203.567C331.762 201.161 332.163 197.792 332.002 193.782C331.922 192.659 331.922 191.536 331.842 190.574C331.601 186.242 331.441 183.676 332.885 182.152C333.768 181.27 335.133 180.869 337.3 180.949C338.665 180.949 339.788 181.59 340.832 182.713C345.166 187.526 345.086 201.883 344.123 213.994C345.969 211.909 349.421 208.941 354.799 209.663C358.09 210.064 359.213 211.588 359.615 212.791C360.738 216.401 356.564 222.496 347.976 229.876C347.655 231.319 346.13 239.42 344.765 250.248C344.765 250.569 344.444 250.81 344.123 250.81L308.323 253.216ZM307.601 190.734C306.798 190.734 305.995 191.135 305.353 191.937C303.026 194.664 304.791 200.84 306.397 206.294C307.28 209.342 308.082 212.23 308.163 214.235C308.243 219.368 308.805 247.12 308.885 251.852L343.4 249.526C344.845 237.816 346.611 229.474 346.611 229.394C346.611 229.234 346.691 229.154 346.852 228.993C354.879 222.095 359.133 216.16 358.25 213.112C357.849 211.909 356.645 211.107 354.558 210.866C347.334 209.904 343.882 216.32 343.722 216.561C343.561 216.802 343.24 216.962 342.919 216.882C342.598 216.802 342.437 216.481 342.437 216.16C344.043 198.835 342.999 187.285 339.708 183.515C338.986 182.713 338.103 182.232 337.14 182.232C335.374 182.152 334.25 182.473 333.688 183.034C332.645 184.157 332.805 186.643 333.046 190.413C333.126 191.376 333.126 192.418 333.206 193.622C333.608 202.525 331.119 208.139 331.039 208.38C330.879 208.701 330.638 208.861 330.317 208.781C329.996 208.701 329.835 208.46 329.835 208.139C330.317 191.055 327.267 185.12 324.618 183.195C323.333 182.232 321.808 181.991 320.123 182.473C316.109 183.756 316.27 186.002 316.27 186.242C321.166 206.054 318.598 208.941 318.036 209.342C317.875 209.503 317.634 209.503 317.394 209.423C317.153 209.342 317.072 209.102 316.992 208.861C316.029 198.434 312.016 191.857 308.564 190.814C308.243 190.814 307.922 190.734 307.601 190.734Z" fill="#19191B"/>
<path d="M353.996 295.245C353.996 295.245 355.12 252.093 347.976 237.014C347.976 237.014 313.22 252.574 304.872 237.014C304.872 237.014 304.15 330.697 319.963 336.392C335.856 342.086 353.996 295.245 353.996 295.245Z" fill="#FE5233"/>
<path d="M387.468 236.773L382.25 305.592C376.631 314.415 371.093 321.152 365.795 326.205C340.43 350.107 319.48 336.231 319.48 336.231C362.986 249.767 380.324 241.827 380.324 241.827C382.571 239.902 384.979 238.297 387.468 236.773Z" fill="#FE5233"/>
<path d="M335.051 340.803C334.409 340.803 333.687 340.803 333.045 340.723C324.536 340.242 319.319 336.793 319.078 336.632C318.757 336.392 318.677 335.991 318.917 335.75C319.158 335.429 319.559 335.349 319.8 335.59C319.881 335.59 325.018 339.039 333.205 339.44C340.75 339.841 352.389 337.835 365.312 325.644C365.553 325.403 365.954 325.403 366.276 325.644C366.516 325.884 366.516 326.285 366.276 326.606C359.212 333.183 348.295 340.803 335.051 340.803Z" fill="#19191B"/>
<path d="M353.275 275.835C353.114 275.835 353.034 275.835 352.954 275.755C352.633 275.594 352.553 275.193 352.713 274.872C370.773 246.479 379.041 241.666 379.924 241.185C382.091 239.501 384.499 237.816 387.068 236.212C387.389 236.052 387.79 236.132 387.951 236.453C388.111 236.774 388.031 237.175 387.71 237.335C385.141 238.939 382.733 240.543 380.646 242.228C380.566 242.228 380.566 242.308 380.486 242.308C380.406 242.308 372.218 246.479 353.757 275.514C353.757 275.755 353.516 275.835 353.275 275.835Z" fill="#19191B"/>
<path d="M320.043 337.034C319.963 337.034 319.883 337.034 319.802 337.034C312.98 334.627 308.244 316.982 305.836 284.658C304.07 260.756 304.23 237.255 304.23 237.014C304.23 236.694 304.471 236.453 304.712 236.373C305.033 236.293 305.274 236.453 305.434 236.694C313.381 251.532 347.334 236.533 347.655 236.373C347.976 236.212 348.378 236.373 348.538 236.694C351.589 243.03 353.515 254.821 354.318 271.664C354.96 284.177 354.639 295.085 354.639 295.165C354.639 295.566 354.318 295.807 353.997 295.807C353.595 295.807 353.354 295.486 353.354 295.165C353.354 294.764 354.398 253.056 347.655 237.816C345.488 238.699 337.943 241.747 329.675 243.431C323.976 244.554 319 244.795 314.986 244.153C310.812 243.431 307.602 241.747 305.515 239.1C305.515 245.436 305.675 264.847 307.12 284.417C310.09 323.96 315.869 334.146 320.204 335.67C320.525 335.831 320.685 336.151 320.605 336.472C320.525 336.873 320.284 337.034 320.043 337.034Z" fill="#19191B"/>
<path d="M510.197 354.92H363.466C363.306 354.92 363.145 354.839 362.985 354.679C362.824 354.519 362.824 354.358 362.824 354.198C363.306 344.733 364.028 335.269 364.911 326.045C366.838 305.351 369.647 285.7 373.259 267.654C373.339 267.333 373.66 267.092 374.062 267.172C374.383 267.252 374.624 267.573 374.543 267.974C370.931 286.021 368.122 305.592 366.195 326.285C365.313 335.269 364.67 344.493 364.189 353.717H509.795C516.136 340.081 517.26 322.436 513.247 301.261C504.257 253.778 499.521 242.388 469.822 229.956C440.524 217.764 422.142 223.459 421.902 223.539C421.902 223.539 421.902 223.539 421.821 223.539C421.661 223.619 403.039 227.87 387.547 237.415C384.978 239.019 382.57 240.623 380.483 242.308C380.162 242.548 379.761 242.468 379.6 242.228C379.359 241.907 379.44 241.506 379.681 241.345C381.848 239.661 384.256 237.977 386.905 236.372C402.316 226.908 420.698 222.577 421.58 222.416C422.062 222.256 426.637 220.892 434.744 220.892C442.45 220.973 454.811 222.336 470.383 228.833C486.437 235.57 494.544 241.746 500.404 251.692C506.504 262.039 509.956 276.476 514.611 301.1C518.705 322.756 517.421 340.803 510.839 354.759C510.678 354.759 510.437 354.92 510.197 354.92Z" fill="#19191B"/>
<path d="M468.54 354.92C468.46 354.92 468.459 354.92 468.379 354.92C468.058 354.84 467.817 354.438 467.898 354.118C474.078 330.456 472.393 308.319 469.824 293.882C467.015 278.241 462.76 268.135 462.68 268.055C462.52 267.734 462.68 267.333 463.001 267.172C463.322 267.012 463.724 267.172 463.884 267.493C463.964 267.573 468.299 277.84 471.108 293.641C473.677 308.159 475.443 330.537 469.182 354.438C469.102 354.759 468.781 354.92 468.54 354.92Z" fill="#19191B"/>
<path d="M395.893 312.49L395.812 312.169H395.893C395.893 312.169 395.973 312.169 396.053 312.169L396.134 312.49C396.053 312.49 395.973 312.49 395.893 312.49Z" fill="#19191B"/>
<path d="M415.722 354.278H377.755C377.755 354.278 364.752 317.142 395.896 312.329C427.04 307.517 432.98 342.327 415.722 354.278Z" fill="#19191B"/>
<path d="M415.885 354.92H377.196L377.035 354.519C376.955 354.358 375.349 349.626 374.627 343.37C373.985 337.515 373.985 329.173 377.998 322.516C381.53 316.661 387.47 313.051 395.738 311.768C409.223 309.683 419.818 314.896 424.072 325.644C428.326 336.232 424.795 348.824 416.045 354.84L415.885 354.92ZM378.159 353.637H415.483C423.671 347.862 426.882 336.071 422.868 326.125C421.022 321.473 417.811 317.784 413.557 315.458C408.741 312.811 402.801 312.009 395.898 313.051C388.032 314.255 382.413 317.703 379.122 323.158C372.54 334.226 377.276 350.749 378.159 353.637Z" fill="#19191B"/>
<path d="M386.102 329.735C386.102 329.735 382.169 323.88 376.55 323.158C370.931 322.436 370.61 333.344 367.399 337.595C364.189 341.846 358.971 345.776 360.015 348.263C361.058 350.749 368.924 357.727 377.754 347.14C386.664 336.552 386.102 329.735 386.102 329.735Z" fill="white"/>
<path d="M367.964 353.396C367.483 353.396 367.001 353.396 366.6 353.316C362.908 352.754 360.178 350.107 359.456 348.503C358.573 346.418 360.901 343.931 363.55 341.044C364.673 339.761 365.877 338.477 366.921 337.194C367.964 335.75 368.767 333.424 369.49 331.098C370.934 326.607 372.46 321.954 376.633 322.516C382.493 323.318 386.506 329.173 386.667 329.414C386.747 329.494 386.747 329.654 386.747 329.735C386.747 330.055 387.229 336.953 378.319 347.621C375.991 350.268 372.379 353.396 367.964 353.396ZM375.991 323.719C373.262 323.719 371.978 327.489 370.694 331.499C369.891 333.905 369.088 336.392 367.884 337.996C366.841 339.36 365.637 340.723 364.433 342.006C362.265 344.332 360.018 346.739 360.58 348.022C361.061 349.145 363.389 351.551 366.68 352.113C370.212 352.674 373.824 350.829 377.276 346.739C385.062 337.435 385.463 331.098 385.463 329.975C384.821 329.093 381.209 324.441 376.473 323.799C376.312 323.719 376.152 323.719 375.991 323.719Z" fill="#19191B"/>
<path d="M397.102 327.81C397.102 327.81 396.62 323.398 389.797 323.639C382.974 323.88 385.864 332.622 381.851 339.36C377.837 346.017 374.065 348.985 378.72 351.631C383.376 354.278 388.994 351.952 393.168 344.493C397.342 337.034 397.102 327.81 397.102 327.81Z" fill="white"/>
<path d="M382.57 353.316C381.126 353.316 379.681 352.915 378.396 352.193C377.032 351.391 376.229 350.509 375.988 349.546C375.587 347.701 376.952 345.696 378.798 342.969C379.6 341.846 380.403 340.563 381.286 339.119C382.811 336.552 383.293 333.665 383.774 331.098C384.497 327.088 385.139 323.238 389.795 323.077C397.099 322.837 397.741 327.729 397.741 327.81C397.741 327.81 397.741 327.81 397.741 327.89C397.741 328.291 397.982 337.354 393.728 344.894C391.239 349.386 388.109 352.193 384.818 353.075C384.095 353.236 383.293 353.316 382.57 353.316ZM390.356 324.281C390.196 324.281 390.035 324.281 389.795 324.281C386.343 324.441 385.781 326.847 385.059 331.178C384.577 333.825 384.095 336.873 382.41 339.68C381.527 341.204 380.644 342.488 379.841 343.611C378.156 346.097 376.952 347.862 377.192 349.145C377.353 349.787 377.915 350.428 378.958 350.99C380.724 351.952 382.49 352.193 384.417 351.712C387.386 350.91 390.196 348.263 392.524 344.092C396.457 337.114 396.377 328.451 396.377 327.81C396.377 327.489 395.734 324.281 390.356 324.281Z" fill="#19191B"/>
<path d="M428.808 331.259C428.808 331.259 407.296 323.318 400.072 324.601C392.848 325.885 395.898 334.387 394.614 340.242C393.329 346.017 388.834 349.546 392.206 352.433C395.577 355.321 402.319 351.712 403.764 344.733C403.764 344.733 405.37 344.012 405.932 338.156C405.932 338.156 402.56 352.514 415.564 354.278C428.728 356.043 428.808 331.259 428.808 331.259Z" fill="white"/>
<path d="M417.007 355C416.526 355 416.124 355 415.643 354.92C411.87 354.439 409.061 352.834 407.214 350.188C405.93 348.343 405.368 346.257 405.127 344.332C404.887 344.733 404.646 344.974 404.485 345.134C403.522 349.225 400.713 352.594 397.341 353.717C395.254 354.439 393.328 354.118 391.883 352.915C389.315 350.749 390.599 348.182 391.963 345.455C392.766 343.931 393.649 342.087 394.05 340.081C394.372 338.477 394.372 336.472 394.372 334.627C394.372 330.055 394.372 324.922 399.99 323.96C407.295 322.676 428.164 330.376 429.047 330.697C429.288 330.777 429.449 331.018 429.449 331.339C429.449 331.98 429.288 347.22 422.706 352.995C421.021 354.278 419.174 355 417.007 355ZM406.331 340.723C406.171 343.049 406.331 346.658 408.258 349.466C409.863 351.792 412.352 353.155 415.723 353.636C418.051 353.957 420.057 353.396 421.823 351.872C427.362 347.059 428.084 334.306 428.164 331.66C425.114 330.537 406.653 324.04 400.231 325.163C395.736 325.965 395.736 329.895 395.736 334.547C395.736 336.472 395.736 338.477 395.335 340.242C394.853 342.407 393.97 344.252 393.168 345.937C391.723 348.904 391.081 350.428 392.766 351.872C393.81 352.754 395.254 352.995 396.94 352.433C400.392 351.23 402.639 347.621 403.281 344.573C403.362 344.332 403.442 344.172 403.602 344.092C403.763 344.012 404.485 343.29 405.047 340.643C405.127 339.119 405.368 338.156 405.368 337.996C405.449 337.675 405.77 337.435 406.091 337.515C406.412 337.595 406.653 337.916 406.653 338.237C406.572 339.199 406.492 340.001 406.331 340.723Z" fill="#19191B"/>
<path d="M509.475 354.278H415.722C415.722 354.278 427.04 337.595 418.853 323.398C411.307 310.404 398.224 311.928 396.137 312.329C399.829 311.608 439.241 304.87 473.756 321.874C487.161 328.451 499.923 338.638 509.475 354.278Z" fill="#FE5233"/>
<path d="M509.474 354.92H415.721C415.48 354.92 415.24 354.759 415.159 354.599C415.079 354.358 415.079 354.118 415.159 353.957C415.159 353.877 417.969 349.786 419.735 344.011C421.34 338.718 422.384 330.938 418.29 323.799C411.066 311.287 398.704 312.65 396.296 313.051C395.975 313.131 395.574 312.891 395.574 312.49C395.494 312.169 395.735 311.768 396.136 311.768C398.143 311.367 408.818 309.522 423.507 309.843C442.531 310.324 459.628 314.174 474.156 321.313C479.213 323.799 484.029 326.767 488.364 329.975C488.685 330.216 488.685 330.617 488.524 330.857C488.284 331.178 487.882 331.178 487.641 331.018C483.307 327.809 478.651 324.922 473.595 322.436C459.227 315.377 442.37 311.527 423.507 311.126C415.721 310.966 409.059 311.367 404.243 311.928C409.139 312.891 415.159 315.698 419.494 323.157C422.945 329.093 423.507 336.472 421.099 344.412C419.815 348.744 417.969 352.112 417.006 353.717H509.635C510.036 353.717 510.277 354.037 510.277 354.358C510.117 354.599 509.796 354.92 509.474 354.92Z" fill="#19191B"/>
<path d="M404.242 204.931V242.148C404.242 242.148 404.965 246.72 411.868 246.88C416.443 247.04 426.477 239.982 432.737 235.33C436.028 232.844 438.035 228.913 438.035 224.743V169.078L404.242 204.931Z" fill="white"/>
<path d="M412.03 247.441C411.949 247.441 411.949 247.441 411.869 247.441C404.485 247.201 403.602 242.388 403.602 242.148V242.067V204.851C403.602 204.691 403.682 204.53 403.762 204.37L437.555 168.517C437.716 168.356 438.037 168.276 438.277 168.356C438.518 168.437 438.679 168.677 438.679 168.998V224.662C438.679 228.994 436.592 233.164 433.14 235.811C426.077 241.105 416.685 247.441 412.03 247.441ZM404.886 242.067C404.966 242.549 405.929 245.998 411.869 246.158H411.949C415.321 246.158 422.545 242.067 432.257 234.688C435.388 232.282 437.234 228.512 437.234 224.582V170.602L404.806 205.092V242.067H404.886Z" fill="#19191B"/>
<path d="M443.173 171.003C443.173 171.003 438.597 198.675 423.989 209.583C409.38 220.572 402.798 220.01 396.617 217.764C390.437 215.519 380.162 203.006 376.55 186.563C372.938 170.121 368.443 142.369 379.199 135.23C390.115 128.012 440.524 125.606 443.173 171.003Z" fill="white"/>
<path d="M403.36 219.77C400.952 219.77 398.704 219.288 396.456 218.406C390.276 216.16 379.761 203.888 375.988 186.724C369.647 157.689 370.61 140.203 378.878 134.669C382.41 132.343 389.473 130.739 396.938 130.578C406.008 130.338 414.998 132.263 422.223 135.792C428.323 138.84 433.219 143.091 436.831 148.465C440.925 154.641 443.253 162.18 443.815 171.003C443.815 171.404 443.574 171.645 443.173 171.725C442.771 171.725 442.53 171.485 442.45 171.083C441.969 162.501 439.641 155.122 435.708 149.187C432.256 144.053 427.52 139.883 421.58 136.995C414.597 133.546 405.848 131.701 396.938 131.942C389.714 132.102 382.891 133.626 379.6 135.872C371.894 141.006 371.092 158.491 377.192 186.564C378.797 193.862 382.008 201.242 386.102 207.257C389.634 212.391 393.647 216.16 396.778 217.283C402.396 219.369 408.657 220.251 423.507 209.182C424.55 208.38 425.594 207.498 426.557 206.455C426.798 206.215 427.199 206.215 427.52 206.455C427.761 206.696 427.761 207.097 427.52 207.418C426.477 208.46 425.433 209.423 424.31 210.225C414.918 217.283 408.657 219.77 403.36 219.77Z" fill="#19191B"/>
<path d="M447.105 168.677C446.302 173.089 445.018 177.179 443.172 180.548C443.172 180.548 440.202 182.393 436.67 184.318C432.496 186.564 427.68 188.89 426.315 188.168C423.827 186.884 424.228 178.703 424.228 178.703C424.228 178.703 414.436 180.628 390.195 166.03C390.195 166.03 389.472 169.078 390.195 172.607C390.195 172.607 384.175 170.121 381.847 166.03C381.847 166.03 381.285 174.051 374.061 173.73C374.061 173.73 367.238 169.078 368.362 161.539C368.362 161.378 368.362 161.218 368.362 160.977C368.362 160.977 363.626 161.378 361.539 153.598C361.539 153.598 366.997 151.513 368.362 147.021C369.245 144.053 370.93 136.353 377.593 129.857C381.205 126.327 386.181 123.119 393.325 121.194C413.553 115.74 431.854 126.488 436.188 133.626C436.188 133.626 437.874 130.659 443.011 131.3C447.185 131.701 450.316 152.154 447.105 168.677Z" fill="#19191B"/>
<path d="M449.355 178.142L443.174 179.104C439.402 155.523 431.054 139.642 418.371 132.022C409.221 126.488 395.896 125.124 383.535 128.012C381.609 128.493 379.682 129.054 377.836 129.696C377.836 129.696 381.689 120.472 396.458 120.231H396.538C401.515 120.231 406.331 120.873 410.746 122.076C414.679 123.119 418.371 124.723 421.662 126.648C435.87 135.311 445.261 152.635 449.355 178.142Z" fill="#D7C0FF"/>
<path d="M406.729 175.254C407.291 176.618 405.284 178.623 402.394 179.826C399.425 180.949 396.615 180.788 396.134 179.425C395.572 178.061 397.578 176.056 400.468 174.853C403.358 173.65 406.167 173.891 406.729 175.254Z" fill="#19191B"/>
<path d="M386.584 182.312C386.344 183.756 383.695 184.558 380.564 184.157C377.434 183.756 375.026 182.232 375.267 180.708C375.507 179.265 378.156 178.462 381.287 178.864C384.417 179.345 386.745 180.869 386.584 182.312Z" fill="#19191B"/>
<path d="M403.439 194.665C404.591 194.665 405.526 192.761 405.526 190.414C405.526 188.066 404.591 186.163 403.439 186.163C402.286 186.163 401.352 188.066 401.352 190.414C401.352 192.761 402.286 194.665 403.439 194.665Z" fill="#19191B"/>
<path d="M386.184 192.82C386.505 195.146 385.863 197.151 384.739 197.311C383.616 197.472 382.412 195.707 382.09 193.381C381.769 191.055 382.412 189.05 383.535 188.89C384.659 188.729 385.863 190.494 386.184 192.82Z" fill="#19191B"/>
<path d="M402.639 207.418C402.318 207.418 402.077 207.257 401.997 206.936C401.916 206.615 402.077 206.214 402.478 206.134C407.856 204.69 410.585 199.637 410.585 199.557C410.746 199.236 411.147 199.156 411.468 199.317C411.789 199.477 411.87 199.878 411.709 200.199C411.549 200.439 408.659 205.733 402.799 207.418C402.719 207.418 402.719 207.418 402.639 207.418Z" fill="#19191B"/>
<path d="M441.969 115.098C439.32 114.376 434.023 126.728 438.357 127.691C443.173 128.734 444.618 115.82 441.969 115.098Z" fill="#19191B"/>
<path d="M410.664 122.076C410.182 121.996 392.122 119.349 383.453 128.012C381.527 128.493 379.6 129.054 377.754 129.696C377.754 129.696 381.607 120.472 396.376 120.231H396.456C401.513 120.231 406.249 120.873 410.664 122.076Z" fill="white"/>
<path d="M443.094 179.826C442.933 179.826 442.853 179.746 442.693 179.666C442.532 179.585 442.452 179.425 442.452 179.265C438.679 155.844 430.492 140.203 417.97 132.664C412.913 129.616 406.411 127.771 399.187 127.37C392.043 126.969 384.659 128.012 377.996 130.418C377.756 130.498 377.515 130.418 377.274 130.258C377.114 130.097 377.033 129.776 377.114 129.536C377.274 129.135 381.368 119.911 396.378 119.67H396.458C406.09 119.67 414.84 121.916 421.823 126.167C436.351 134.91 445.743 152.395 449.836 178.142C449.917 178.463 449.676 178.864 449.275 178.864L443.094 179.826C443.174 179.826 443.174 179.826 443.094 179.826ZM396.217 125.926C397.261 125.926 398.224 125.926 399.268 126.007C406.652 126.408 413.395 128.333 418.692 131.541C431.455 139.241 439.803 155.042 443.656 178.463L448.552 177.66C444.458 152.716 435.228 135.792 421.181 127.29C414.358 123.199 405.849 120.953 396.458 120.953H396.378C385.782 121.114 380.966 126.087 379.2 128.573C384.659 126.809 390.438 125.926 396.217 125.926Z" fill="#19191B"/>
<path d="M447.105 168.677C446.302 173.089 445.018 177.179 443.172 180.548C443.172 180.548 440.202 182.393 436.67 184.318C432.496 186.563 427.68 188.889 426.315 188.168C423.827 186.884 424.228 178.703 424.228 178.703C424.228 178.703 414.436 180.628 390.195 166.03C390.195 166.03 389.472 169.078 390.195 172.607C390.195 172.607 384.175 170.121 381.847 166.03C381.847 166.03 381.285 174.051 374.061 173.73C374.061 173.73 367.238 169.078 368.362 161.539C368.362 161.378 368.362 161.218 368.362 160.977C368.362 160.977 363.626 161.378 361.539 153.598C361.539 153.598 366.997 151.513 368.362 147.021C369.245 144.053 370.93 136.353 377.593 129.856C374.944 133.466 372.536 142.369 371.573 148.946C370.609 155.523 366.275 155.924 366.275 155.924C371.011 158.17 372.375 155.924 372.375 155.924C371.091 163.464 374.543 167.073 374.543 167.073C379.76 165.87 379.84 159.132 379.84 159.132C381.927 162.902 385.298 163.063 385.298 163.063C385.138 158.491 389.071 155.924 389.071 155.924C405.125 171.805 432.015 175.254 432.015 175.254C432.015 175.254 440.924 170.442 447.105 168.677Z" fill="white"/>
<path d="M427.038 188.89C426.476 188.89 426.235 188.729 426.075 188.649C423.747 187.366 423.586 181.511 423.667 179.345C420.857 179.505 410.904 178.944 390.837 166.993C390.676 168.116 390.516 170.121 390.997 172.447C391.078 172.688 390.997 172.928 390.757 173.089C390.596 173.249 390.275 173.249 390.114 173.169C389.874 173.089 385.138 171.083 382.409 167.635C381.767 170.041 380.001 174.292 374.783 174.292C374.623 174.292 374.462 174.292 374.221 174.292C374.141 174.292 373.981 174.212 373.9 174.212C373.579 174.051 366.837 169.319 367.88 161.539C366.355 161.298 362.823 160.175 361.138 153.759C361.057 153.438 361.218 153.117 361.539 152.957C361.619 152.957 366.756 150.951 367.96 146.781C368.041 146.54 368.121 146.299 368.201 145.978C369.164 142.53 371.171 135.471 377.352 129.295C377.593 129.055 377.994 129.055 378.235 129.295C378.476 129.536 378.556 129.937 378.315 130.178C375.746 133.707 373.338 142.449 372.455 148.946C371.813 153.197 369.887 155.042 368.362 155.924C371.171 156.806 372.054 155.603 372.054 155.523C372.215 155.283 372.536 155.122 372.857 155.283C373.178 155.363 373.338 155.684 373.258 156.004C372.616 159.694 373.258 162.421 373.82 164.025C374.221 165.148 374.783 165.95 375.024 166.351C379.278 165.068 379.439 159.213 379.439 159.133C379.439 158.812 379.68 158.571 379.92 158.491C380.241 158.411 380.482 158.571 380.643 158.812C382.007 161.218 383.934 162.02 384.897 162.341C385.138 158.01 388.83 155.523 388.991 155.363C389.231 155.202 389.633 155.202 389.793 155.443C404.804 170.201 429.606 174.212 432.095 174.613C433.459 173.891 441.165 169.88 446.944 168.196C447.185 168.116 447.426 168.196 447.586 168.356C447.747 168.517 447.827 168.757 447.827 168.998C446.944 173.73 445.58 177.821 443.814 181.029C443.734 181.109 443.653 181.19 443.573 181.27C443.573 181.27 440.523 183.115 437.071 185.04C430.81 188.248 428.162 188.89 427.038 188.89ZM424.309 177.981C424.469 177.981 424.63 178.062 424.71 178.142C424.871 178.302 424.951 178.463 424.951 178.703C424.79 181.671 425.192 186.724 426.717 187.526C426.958 187.606 428.483 188.007 436.429 183.676C439.399 182.072 442.048 180.468 442.69 180.067C444.215 177.179 445.419 173.73 446.302 169.64C440.362 171.565 432.657 175.655 432.576 175.736C432.416 175.816 432.335 175.816 432.175 175.816C432.095 175.816 425.272 174.933 416.603 172.046C408.737 169.479 397.579 164.667 389.312 156.646C388.349 157.448 386.101 159.694 386.262 162.902C386.262 163.063 386.181 163.303 386.101 163.384C385.941 163.544 385.78 163.544 385.619 163.544C385.459 163.544 382.81 163.384 380.563 160.737C380.161 162.982 378.877 166.592 375.024 167.474C374.783 167.554 374.542 167.474 374.382 167.314C374.221 167.153 371.171 163.865 371.813 157.127C370.77 157.528 369.004 157.609 366.275 156.325C366.034 156.165 365.873 155.924 365.873 155.603C365.954 155.283 366.195 155.122 366.435 155.042C366.596 155.042 370.288 154.561 371.171 148.625C371.974 143.011 373.338 137.958 374.783 134.268C371.492 139 370.208 143.652 369.486 146.219C369.405 146.54 369.325 146.781 369.245 147.021C368.121 150.951 364.108 153.117 362.583 153.839C363.385 156.486 364.669 158.411 366.275 159.453C367.559 160.255 368.603 160.175 368.603 160.175C368.763 160.175 369.004 160.255 369.084 160.336C369.245 160.496 369.325 160.656 369.245 160.817C369.245 160.897 369.245 160.897 369.245 160.977C369.245 161.138 369.245 161.218 369.245 161.378C368.282 167.875 373.579 172.126 374.542 172.848C377.111 172.928 379.118 171.805 380.322 169.479C381.285 167.635 381.446 165.79 381.446 165.79C381.446 165.469 381.686 165.228 381.927 165.228C382.248 165.148 382.489 165.309 382.65 165.549C384.175 168.437 387.706 170.442 389.553 171.324C389.151 168.196 389.713 165.79 389.793 165.71C389.874 165.469 389.954 165.309 390.195 165.228C390.436 165.148 390.596 165.148 390.757 165.309C414.355 179.505 424.228 177.901 424.309 177.901C424.228 177.981 424.228 177.981 424.309 177.981Z" fill="#19191B"/>
<path d="M458.102 178.463C458.102 179.104 458.102 179.826 458.022 180.468C457.299 189.371 452.002 196.509 445.259 197.712C444.537 197.873 443.895 197.873 443.172 197.873C434.905 197.873 428.242 189.21 428.242 178.463C428.242 167.715 434.905 159.052 443.172 159.052C443.895 159.052 444.617 159.132 445.259 159.213C452.002 160.416 457.299 167.554 458.022 176.457C458.102 177.099 458.102 177.741 458.102 178.463Z" fill="white"/>
<path d="M443.174 198.514C434.585 198.514 427.602 189.531 427.602 178.462C427.602 167.394 434.585 158.41 443.174 158.41C443.896 158.41 444.699 158.491 445.421 158.651C452.485 159.934 457.943 167.313 458.665 176.457C458.746 177.179 458.746 177.821 458.746 178.462C458.746 179.104 458.746 179.746 458.665 180.468C457.943 189.691 452.485 196.99 445.341 198.354C444.699 198.434 443.976 198.514 443.174 198.514ZM443.174 159.694C435.307 159.694 428.886 168.116 428.886 178.462C428.886 188.809 435.307 197.231 443.174 197.231C443.816 197.231 444.538 197.151 445.18 197.071C451.682 195.867 456.739 189.05 457.381 180.387C457.461 179.746 457.461 179.104 457.461 178.462C457.461 177.821 457.461 177.179 457.381 176.537C456.739 167.955 451.682 161.057 445.18 159.854C444.538 159.694 443.816 159.694 443.174 159.694Z" fill="#19191B"/>
<path d="M458.104 178.463C458.104 179.104 458.104 179.826 458.024 180.468C457.301 189.371 452.004 196.509 445.261 197.712C439.803 196.349 435.629 188.248 435.629 178.463C435.629 168.677 439.803 160.576 445.261 159.213C450.639 160.175 455.054 164.907 456.98 171.244C457.462 172.928 457.863 174.613 457.943 176.457C458.104 177.099 458.104 177.741 458.104 178.463Z" fill="#D7C0FF"/>
<path d="M457.141 171.404C456.98 171.164 451.683 163.063 446.385 162.822C441.087 162.661 435.709 177.179 435.629 177.42C435.87 168.035 439.963 160.416 445.261 159.132C450.719 160.175 455.214 164.988 457.141 171.404Z" fill="white"/>
<path d="M456.415 176.858C456.415 179.986 455.532 182.553 454.489 182.553C453.445 182.553 452.562 179.986 452.562 176.858C452.562 173.73 453.445 171.164 454.489 171.164C455.532 171.164 456.415 173.73 456.415 176.858Z" fill="white"/>
<path d="M454.493 183.195C452.727 183.195 451.844 179.906 451.844 176.858C451.844 173.81 452.646 170.522 454.493 170.522C456.259 170.522 457.141 173.81 457.141 176.858C457.061 179.906 456.259 183.195 454.493 183.195ZM454.493 171.886C454.172 171.886 453.208 173.65 453.208 176.939C453.208 180.227 454.172 181.992 454.493 181.992C454.814 181.992 455.777 180.227 455.777 176.939C455.777 173.57 454.814 171.886 454.493 171.886Z" fill="#19191B"/>
<path d="M445.259 198.354C445.178 198.354 445.178 198.354 445.098 198.354C439.239 196.91 434.984 188.569 434.984 178.463C434.984 178.142 434.984 177.821 434.984 177.5C435.225 167.875 439.479 159.935 445.098 158.571C445.178 158.571 445.259 158.571 445.339 158.571C450.877 159.614 455.613 164.426 457.7 171.244C457.7 171.244 457.7 171.244 457.7 171.324C458.182 173.008 458.503 174.693 458.663 176.457C458.663 177.099 458.744 177.821 458.744 178.463C458.744 179.104 458.744 179.826 458.663 180.468C457.941 189.692 452.483 197.071 445.339 198.354C445.339 198.354 445.339 198.354 445.259 198.354ZM445.339 159.854C440.362 161.218 436.59 168.597 436.349 177.5C436.349 177.821 436.349 178.142 436.349 178.382C436.349 187.606 440.202 195.547 445.339 196.91C451.76 195.627 456.737 188.809 457.379 180.307C457.379 179.666 457.459 179.024 457.459 178.382C457.459 177.741 457.459 177.099 457.379 176.457C457.219 174.773 456.978 173.169 456.496 171.645C456.496 171.645 456.496 171.645 456.496 171.565C454.65 165.308 450.316 160.817 445.339 159.854Z" fill="#19191B"/>
<path d="M393.728 202.364C393.407 202.364 393.086 202.124 393.086 201.803C393.086 201.803 393.006 201.322 392.765 199.878C392.524 199.798 392.123 199.718 391.802 199.718C389.073 199.156 387.869 198.835 387.628 198.033C387.547 197.712 387.628 197.311 387.869 197.071C389.073 195.868 390.437 194.985 391.721 194.183C392.123 193.943 392.444 193.702 392.765 193.461C393.086 193.221 393.487 193.381 393.648 193.622C393.889 193.943 393.728 194.344 393.487 194.504C393.086 194.745 392.765 194.985 392.364 195.226C391.24 195.948 390.036 196.75 388.992 197.712C389.715 198.033 391.24 198.274 391.962 198.434C392.765 198.595 393.247 198.675 393.487 198.755C393.728 198.835 393.889 198.996 393.889 199.236C394.21 201.081 394.29 201.643 394.29 201.643C394.451 202.044 394.21 202.364 393.728 202.364C393.808 202.364 393.808 202.364 393.728 202.364Z" fill="#19191B"/>
<path d="M412.348 202.043C412.027 202.043 411.786 201.883 411.706 201.562C411.304 200.038 409.699 198.996 409.699 198.996C409.378 198.835 409.298 198.434 409.538 198.113C409.699 197.792 410.1 197.712 410.421 197.953C410.502 198.033 412.428 199.236 412.99 201.322C413.07 201.642 412.91 202.043 412.508 202.124C412.428 202.043 412.348 202.043 412.348 202.043Z" fill="#19191B"/>
<path d="M584.89 101.062H493.465C488.97 101.062 485.277 104.752 485.277 109.243V169.72L495.471 156.887H584.89C589.385 156.887 593.077 153.197 593.077 148.705V109.243C593.077 104.752 589.385 101.062 584.89 101.062ZM522.361 131.06C520.194 131.06 518.428 129.295 518.428 127.13C518.428 124.964 520.194 123.199 522.361 123.199C524.528 123.199 526.294 124.964 526.294 127.13C526.375 129.295 524.609 131.06 522.361 131.06ZM540.502 131.06C538.335 131.06 536.569 129.295 536.569 127.13C536.569 124.964 538.335 123.199 540.502 123.199C542.669 123.199 544.435 124.964 544.435 127.13C544.515 129.295 542.749 131.06 540.502 131.06ZM558.642 131.06C556.475 131.06 554.709 129.295 554.709 127.13C554.709 124.964 556.475 123.199 558.642 123.199C560.81 123.199 562.576 124.964 562.576 127.13C562.656 129.295 560.89 131.06 558.642 131.06Z" fill="#FFCCA1"/>
<path d="M479.978 165.87C479.898 165.87 479.818 165.87 479.737 165.87C479.496 165.79 479.336 165.549 479.336 165.228V104.752C479.336 99.8589 483.269 95.9287 488.165 95.9287H579.591C584.487 95.9287 588.42 99.8589 588.42 104.752V144.214C588.42 149.107 584.487 153.037 579.591 153.037H490.493L480.46 165.549C480.379 165.79 480.219 165.87 479.978 165.87ZM488.165 97.212C483.991 97.212 480.62 100.581 480.62 104.752V163.303L489.691 151.994C489.851 151.834 490.012 151.753 490.172 151.753H579.591C583.765 151.753 587.136 148.385 587.136 144.214V104.752C587.136 100.581 583.765 97.212 579.591 97.212H488.165ZM553.423 127.29C550.855 127.29 548.768 125.205 548.768 122.638C548.768 120.071 550.855 117.986 553.423 117.986C555.992 117.986 558.079 120.071 558.079 122.638C558.079 125.205 555.992 127.29 553.423 127.29ZM553.423 119.349C551.577 119.349 550.132 120.873 550.132 122.638C550.132 124.483 551.658 125.926 553.423 125.926C555.27 125.926 556.714 124.402 556.714 122.638C556.714 120.793 555.27 119.349 553.423 119.349ZM535.283 127.29C532.714 127.29 530.627 125.205 530.627 122.638C530.627 120.071 532.714 117.986 535.283 117.986C537.851 117.986 539.938 120.071 539.938 122.638C539.938 125.205 537.851 127.29 535.283 127.29ZM535.283 119.349C533.437 119.349 531.992 120.873 531.992 122.638C531.992 124.483 533.517 125.926 535.283 125.926C537.129 125.926 538.574 124.402 538.574 122.638C538.574 120.793 537.129 119.349 535.283 119.349ZM517.142 127.29C514.574 127.29 512.487 125.205 512.487 122.638C512.487 120.071 514.574 117.986 517.142 117.986C519.711 117.986 521.798 120.071 521.798 122.638C521.798 125.205 519.711 127.29 517.142 127.29ZM517.142 119.349C515.296 119.349 513.851 120.873 513.851 122.638C513.851 124.483 515.376 125.926 517.142 125.926C518.988 125.926 520.433 124.402 520.433 122.638C520.433 120.793 518.988 119.349 517.142 119.349Z" fill="#19191B"/>
<path d="M595 267.092H542.344V319.628H595V267.092Z" fill="#82DC74"/>
<path d="M539.857 259.312C539.857 260.836 538.653 262.039 537.128 262.039C535.602 262.039 534.398 260.836 534.398 259.312C534.398 257.788 535.602 256.585 537.128 256.585C538.653 256.585 539.857 257.868 539.857 259.312Z" fill="white"/>
<path d="M563.536 259.312C563.536 260.836 562.332 262.039 560.807 262.039C559.282 262.039 558.078 260.836 558.078 259.312C558.078 257.788 559.282 256.585 560.807 256.585C562.332 256.665 563.536 257.868 563.536 259.312Z" fill="white"/>
<path d="M587.134 259.312C587.134 260.836 585.93 262.039 584.405 262.039C582.88 262.039 581.676 260.836 581.676 259.312C581.676 257.788 582.88 256.585 584.405 256.585C585.93 256.585 587.134 257.868 587.134 259.312Z" fill="white"/>
<path d="M539.857 282.893C539.857 284.417 538.653 285.62 537.128 285.62C535.602 285.62 534.398 284.417 534.398 282.893C534.398 281.369 535.602 280.166 537.128 280.166C538.653 280.166 539.857 281.369 539.857 282.893Z" fill="white"/>
<path d="M563.536 282.893C563.536 284.417 562.332 285.62 560.807 285.62C559.282 285.62 558.078 284.417 558.078 282.893C558.078 281.369 559.282 280.166 560.807 280.166C562.332 280.166 563.536 281.369 563.536 282.893Z" fill="white"/>
<path d="M587.134 282.893C587.134 284.417 585.93 285.62 584.405 285.62C582.88 285.62 581.676 284.417 581.676 282.893C581.676 281.369 582.88 280.166 584.405 280.166C585.93 280.166 587.134 281.369 587.134 282.893Z" fill="white"/>
<path d="M539.857 306.474C539.857 307.998 538.653 309.201 537.128 309.201C535.602 309.201 534.398 307.998 534.398 306.474C534.398 304.95 535.602 303.747 537.128 303.747C538.653 303.747 539.857 304.95 539.857 306.474Z" fill="white"/>
<path d="M563.536 306.474C563.536 307.998 562.332 309.201 560.807 309.201C559.282 309.201 558.078 307.998 558.078 306.474C558.078 304.95 559.282 303.747 560.807 303.747C562.332 303.747 563.536 304.95 563.536 306.474Z" fill="white"/>
<path d="M587.134 306.474C587.134 307.998 585.93 309.201 584.405 309.201C582.88 309.201 581.676 307.998 581.676 306.474C581.676 304.95 582.88 303.747 584.405 303.747C585.93 303.747 587.134 304.95 587.134 306.474Z" fill="white"/>
<path d="M40.1875 41.788L56.9636 31.2808L40.1875 20.7736V41.788Z" fill="#FE5233"/>
<path d="M72.5352 41.788L89.3915 31.2808L72.5352 20.7736V41.788Z" fill="#FE5233"/>
<path d="M104.965 41.788L121.741 31.2808L104.965 20.7736V41.788Z" fill="#FE5233"/>
<path d="M45.4039 42.6704C45.3236 42.6704 45.163 42.6704 45.0828 42.5902C44.842 42.51 44.7617 42.2694 44.7617 42.0288V21.0945C44.7617 20.8539 44.9222 20.6133 45.0828 20.5331C45.3236 20.4528 45.5644 20.4528 45.7249 20.5331L62.501 31.0403C62.6615 31.1205 62.822 31.3611 62.822 31.6017C62.822 31.8424 62.7418 32.0028 62.501 32.1632L45.7249 42.6704C45.6447 42.6704 45.4841 42.6704 45.4039 42.6704ZM46.046 22.2174V40.8256L60.9759 31.5215L46.046 22.2174Z" fill="white"/>
<path d="M77.8336 42.6704C77.7533 42.6704 77.5928 42.6704 77.5125 42.5902C77.2717 42.51 77.1914 42.2694 77.1914 42.0288V21.0945C77.1914 20.8539 77.352 20.6133 77.5125 20.5331C77.7533 20.4528 77.9941 20.4528 78.1546 20.5331L94.9307 31.0403C95.0912 31.1205 95.2517 31.3611 95.2517 31.6017C95.2517 31.8424 95.1715 32.0028 94.9307 32.1632L78.1546 42.6704C78.0744 42.6704 77.9139 42.6704 77.8336 42.6704ZM78.4757 22.2174V40.8256L93.4056 31.5215L78.4757 22.2174Z" fill="white"/>
<path d="M110.181 42.6704C110.101 42.6704 109.94 42.6704 109.86 42.5902C109.619 42.51 109.539 42.2694 109.539 42.0288V21.0945C109.539 20.8539 109.7 20.6133 109.86 20.5331C110.101 20.4528 110.342 20.4528 110.502 20.5331L127.278 31.0403C127.439 31.1205 127.599 31.3611 127.599 31.6017C127.599 31.8424 127.519 32.0028 127.278 32.1632L110.502 42.6704C110.422 42.6704 110.342 42.6704 110.181 42.6704ZM110.904 22.2174V40.8256L125.833 31.5215L110.904 22.2174Z" fill="white"/>
</svg>
