<svg width="328" height="80" viewBox="0 0 328 80" fill="none" xmlns="http://www.w3.org/2000/svg">
<rect x="61" width="214" height="80" fill="white"/>
<path fill-rule="evenodd" clip-rule="evenodd" d="M328 30C328 13.4315 314.569 0 298 0H30C13.4315 0 0 13.4315 0 30V50C0 66.5685 13.4315 80 30 80H94C110.569 80 123.435 64.8562 134.731 52.7353C142.034 44.8999 152.445 40 164 40C175.555 40 185.966 44.8999 193.269 52.7353C204.565 64.8562 217.431 80 234 80H298C314.569 80 328 66.5685 328 50V30Z" fill="#9D68F8"/>
</svg>
