<svg width="570" height="80" viewBox="0 0 570 80" fill="none" xmlns="http://www.w3.org/2000/svg">
<rect x="108" width="333" height="80" fill="white"/>
<path fill-rule="evenodd" clip-rule="evenodd" d="M570 40C570 17.9086 552.091 0 530 0H40C17.9086 0 0 17.9086 0 40V40C0 62.0914 17.9086 80 40 80H168.423C195.872 80 217.738 54.7022 237.945 36.1237C250.129 24.9205 266.904 18 285.421 18C303.939 18 320.713 24.9205 332.898 36.1237C353.105 54.7022 374.97 80 402.42 80H530C552.091 80 570 62.0914 570 40V40Z" fill="#9D68F8"/>
</svg>
