<svg width="90" height="90" fill="none" xmlns="http://www.w3.org/2000/svg"><path fill-rule="evenodd" clip-rule="evenodd" d="M50 80c22.091 0 40-17.909 40-40S72.091 0 50 0 10 17.909 10 40s17.909 40 40 40Z" fill="#FFCCA1"/><path d="m28.566 60.9 21.8-21.8m-20.434 5.467a4.1 4.1 0 1 0 0-8.2 4.1 4.1 0 0 0 0 8.2Zm21.801 19.066a4.1 4.1 0 1 0 0-8.2 4.1 4.1 0 0 0 0 8.2Z" stroke="#19191B" stroke-width="3" stroke-linecap="round" stroke-linejoin="round"/><path d="M40.001 83.333c18.41 0 33.334-14.924 33.334-33.333 0-18.41-14.924-33.333-33.334-33.333C21.591 16.667 6.668 31.59 6.668 50c0 18.41 14.924 33.333 33.333 33.333Z" stroke="#19191B" stroke-width="3" stroke-linecap="round" stroke-linejoin="round"/></svg>