<svg width="200" height="66" fill="none" xmlns="http://www.w3.org/2000/svg"><path d="M49.122 23.237H25.808v6.948h16.535c-.817 9.744-8.888 13.9-16.507 13.9-9.747 0-18.253-7.703-18.253-18.5 0-10.517 8.108-18.617 18.275-18.617 7.843 0 12.465 5.022 12.465 5.022l4.844-5.038S36.949 0 25.61 0C11.17 0 0 12.24 0 25.461 0 38.416 10.508 51.05 25.978 51.05c13.606 0 23.566-9.362 23.566-23.206 0-2.92-.422-4.608-.422-4.608v.002Z" fill="#4885ED"/><path d="M68.22 18.205c-9.567 0-16.423 7.511-16.423 16.272 0 8.89 6.65 16.542 16.535 16.542 8.948 0 16.279-6.87 16.279-16.35 0-10.868-8.528-16.464-16.392-16.464Zm.094 6.444c4.705 0 9.163 3.82 9.163 9.976 0 6.025-4.44 9.954-9.184 9.954-5.214 0-9.327-4.194-9.327-10.002 0-5.683 4.062-9.928 9.348-9.928Z" fill="#DB3236"/><path d="M103.938 18.205c-9.567 0-16.422 7.511-16.422 16.272 0 8.89 6.65 16.542 16.534 16.542 8.949 0 16.28-6.87 16.28-16.35 0-10.868-8.528-16.464-16.392-16.464Zm.095 6.444c4.704 0 9.162 3.82 9.162 9.976 0 6.025-4.439 9.954-9.184 9.954-5.213 0-9.326-4.194-9.326-10.002 0-5.683 4.062-9.928 9.348-9.928Z" fill="#F4C20D"/><path d="M138.968 18.222c-8.781 0-15.683 7.724-15.683 16.394 0 9.876 8.002 16.425 15.532 16.425 4.655 0 7.131-1.856 8.959-3.987v3.235c0 5.661-3.422 9.05-8.587 9.05-4.99 0-7.493-3.726-8.363-5.84l-6.278 2.636c2.227 4.73 6.711 9.663 14.693 9.663 8.73 0 15.384-5.524 15.384-17.107V19.208h-6.849v2.78c-2.106-2.28-4.986-3.766-8.808-3.766Zm.636 6.432c4.305 0 8.725 3.692 8.725 9.997 0 6.409-4.411 9.94-8.821 9.94-4.681 0-9.037-3.817-9.037-9.88 0-6.298 4.524-10.057 9.132-10.057h.001Z" fill="#4885ED"/><path d="M185.077 18.183c-8.283 0-15.237 6.619-15.237 16.385 0 10.335 7.752 16.464 16.033 16.464 6.911 0 11.153-3.798 13.685-7.2l-5.647-3.775c-1.465 2.285-3.915 4.517-8.004 4.517-4.592 0-6.704-2.526-8.012-4.972l21.904-9.13-1.137-2.674c-2.116-5.24-7.052-9.614-13.584-9.614l-.001-.001Zm.286 6.31c2.984 0 5.132 1.594 6.044 3.504l-14.627 6.141c-.631-4.754 3.853-9.645 8.583-9.645Z" fill="#DB3236"/><path d="M159.398 50.058h7.195V1.697h-7.195v48.36Z" fill="#3CBA54"/></svg>