<svg width="477" height="319" fill="none" xmlns="http://www.w3.org/2000/svg"><path d="M268.513 12.171h151.035c6.703 0 12.214 5.512 12.214 12.214v69.858c0 6.702-5.511 12.213-12.214 12.213H284.302l-18.023 25.173c-2.234 3.128-5.958 5.064-9.831 5.064V24.385c0-6.851 5.362-12.214 12.065-12.214Zm117.67 51.537a5.34 5.34 0 0 0 5.362-5.362 5.34 5.34 0 0 0-5.362-5.362 5.34 5.34 0 0 0-5.362 5.362 5.34 5.34 0 0 0 5.362 5.362Zm-39.322 0a5.34 5.34 0 0 0 5.362-5.362 5.34 5.34 0 0 0-5.362-5.362 5.34 5.34 0 0 0-5.363 5.362 5.34 5.34 0 0 0 5.363 5.362Zm-39.472 0a5.34 5.34 0 0 0 5.362-5.362 5.34 5.34 0 0 0-5.362-5.362 5.34 5.34 0 0 0-5.362 5.362c.149 2.979 2.532 5.362 5.362 5.362Z" fill="#9D68F8"/><path d="M278.642 1h150.886c6.703 0 12.214 5.511 12.214 12.214V83.07c0 6.703-5.511 12.214-12.214 12.214H294.282l-18.023 25.173c-2.234 3.127-5.958 5.064-9.83 5.064V13.214C266.429 6.51 271.94 1 278.642 1Zm117.671 51.685a5.34 5.34 0 0 0 5.362-5.362 5.34 5.34 0 0 0-5.362-5.362 5.34 5.34 0 0 0-5.363 5.362 5.34 5.34 0 0 0 5.363 5.362Zm-39.472 0a5.34 5.34 0 0 0 5.362-5.362 5.34 5.34 0 0 0-5.362-5.362 5.34 5.34 0 0 0-5.362 5.362c.149 2.98 2.532 5.362 5.362 5.362Zm-39.323 0a5.34 5.34 0 0 0 5.363-5.362 5.34 5.34 0 0 0-5.363-5.362 5.34 5.34 0 0 0-5.362 5.362c.149 2.98 2.383 5.362 5.362 5.362Z" stroke="#19191B" stroke-width="1.5" stroke-miterlimit="10" stroke-linecap="round" stroke-linejoin="round"/><path d="M465.647 195.697a5.34 5.34 0 0 0 5.362 5.362 5.34 5.34 0 0 0 5.362-5.362 5.34 5.34 0 0 0-5.362-5.362 5.34 5.34 0 0 0-5.362 5.362Zm-39.325 0a5.34 5.34 0 0 0 5.363 5.362 5.34 5.34 0 0 0 5.362-5.362 5.34 5.34 0 0 0-5.362-5.362 5.34 5.34 0 0 0-5.363 5.362Zm-39.32 0a5.34 5.34 0 0 0 5.362 5.362 5.34 5.34 0 0 0 5.363-5.362 5.34 5.34 0 0 0-5.363-5.362 5.34 5.34 0 0 0-5.362 5.362Zm78.645 35.301a5.34 5.34 0 0 0 5.362 5.362 5.34 5.34 0 0 0 5.362-5.362 5.34 5.34 0 0 0-5.362-5.362 5.34 5.34 0 0 0-5.362 5.362Zm-39.325 0a5.34 5.34 0 0 0 5.363 5.362 5.34 5.34 0 0 0 5.362-5.362 5.34 5.34 0 0 0-5.362-5.362 5.34 5.34 0 0 0-5.363 5.362Zm-39.32 0a5.34 5.34 0 0 0 5.362 5.362 5.34 5.34 0 0 0 5.363-5.362 5.34 5.34 0 0 0-5.363-5.362 5.34 5.34 0 0 0-5.362 5.362Zm78.645 35.301a5.34 5.34 0 0 0 5.362 5.362 5.34 5.34 0 0 0 5.362-5.362 5.34 5.34 0 0 0-5.362-5.362 5.34 5.34 0 0 0-5.362 5.362Zm-39.325 0a5.34 5.34 0 0 0 5.363 5.362 5.34 5.34 0 0 0 5.362-5.362 5.34 5.34 0 0 0-5.362-5.362 5.34 5.34 0 0 0-5.363 5.362Zm-39.32 0a5.34 5.34 0 0 0 5.362 5.362 5.34 5.34 0 0 0 5.363-5.362 5.34 5.34 0 0 0-5.363-5.362 5.34 5.34 0 0 0-5.362 5.362Z" fill="#fff"/><path d="M272.235 196.487c-.167.718-.298 1.29-.391 1.696l18.491-2.682.077-.223.501-1.45a1746.85 1746.85 0 0 0 1.788-5.21 1700.09 1700.09 0 0 0 5.426-16.133c1.973-5.975 3.945-12.095 5.423-17.018.74-2.462 1.354-4.62 1.783-6.308.436-1.714.663-2.881.663-3.402 0-2.942-2.089-5.369-4.963-6.716-2.87-1.345-6.385-1.54-9.045-.143-.872.487-1.888 1.734-2.996 3.682-1.095 1.926-2.234 4.45-3.382 7.372-2.295 5.842-4.608 13.225-6.673 20.481-2.064 7.253-3.878 14.368-5.176 19.671a631.869 631.869 0 0 0-1.526 6.383Z" fill="#fff" stroke="#19191B"/><path d="M290.707 195.953s15.789-45.43 15.789-50.196c0-6.405-9.086-10.278-14.746-7.299-8.043 4.469-20.555 60.325-20.555 60.325l19.512-2.83Z" stroke="#19191B" stroke-width="1.355" stroke-miterlimit="10" stroke-linecap="round" stroke-linejoin="round"/><path d="m316.307 195.378.04-.23-47.102-10.24-.063.137-.676 1.459a1598.81 1598.81 0 0 0-2.554 5.56 2423.269 2423.269 0 0 0-8.891 19.681c19.072 15.547 42.639 17.614 52.896 17.524a1704.823 1704.823 0 0 0 5.993-31.87l.357-2.021Z" fill="#fff" stroke="#19191B"/><path d="M256.448 211.89c19.513 16.087 43.791 18.023 53.92 17.874 3.873-19.512 6.554-35.003 6.554-35.003l-47.962-10.427s-5.064 10.874-12.512 27.556Z" stroke="#19191B" stroke-width="1.355" stroke-miterlimit="10" stroke-linecap="round" stroke-linejoin="round"/><path d="m312.855 182.516.085-.097-.006-.023c-.056-.18-.145-.444-.275-.769a13.405 13.405 0 0 0-1.328-2.506c-1.292-1.919-3.476-4.104-7.065-5.181-1.68-.504-3.352-.099-4.982.981-1.638 1.085-3.201 2.832-4.606 4.926-2.81 4.187-4.909 9.637-5.716 13.526v.002c-.811 3.835-.866 7.372.108 9.941.484 1.275 1.216 2.299 2.226 3.016 1.01.716 2.333 1.15 4.039 1.186 3.396.069 5.563-1.884 7.096-4.571 1.334-2.338 2.141-5.154 2.822-7.531.107-.374.211-.737.314-1.086.697-2.703 2.607-5.743 4.304-8.074a55.833 55.833 0 0 1 2.984-3.74Z" fill="#fff" stroke="#19191B"/><path d="M313.496 182.547s-1.638-6.852-9.086-9.086c-7.447-2.234-14.299 11.916-15.937 19.81-1.639 7.746-.298 14.597 6.851 14.746 7.299.149 9.235-8.49 10.725-13.554 1.34-5.213 7.447-11.916 7.447-11.916Z" stroke="#19191B" stroke-width="1.355" stroke-miterlimit="10" stroke-linecap="round" stroke-linejoin="round"/><path d="M250.344 329.709c-20.257.596-31.875-7.745-37.535-13.554l37.535 13.554Zm0 0c30.237-.745 43.493-26.96 51.09-58.835l-51.09 58.835Zm-41.315-19.08 4.155 5.194c5.587 5.727 17.073 13.977 37.145 13.386h.003c14.948-.368 25.685-7.02 33.648-17.545 7.928-10.479 13.106-24.802 16.893-40.594l-14.196-11.122-.091-.072-.05-.103c-8.146-16.737-20.591-29.335-34.536-38.83-20.699-13.947-44.866-20.968-63.878-24.499a225.193 225.193 0 0 0-23.539-3.107 172.52 172.52 0 0 0-6.825-.399c-.795-.029-1.408-.044-1.821-.052l-.267-.004-17.8 51.781 71.108 65.912.027.025.024.029Z" fill="#FE5233" stroke="#19191B"/><path d="m137.291 244.808 71.347 66.133 4.171 5.214c5.66 5.809 17.278 14.15 37.535 13.554 30.237-.745 43.493-26.96 51.09-58.835l-14.448-11.32c-8.193-16.831-20.704-29.492-34.706-39.025-41.557-28.002-96.966-28.151-96.966-28.151l-18.023 52.43Z" stroke="#19191B" stroke-width="1.355" stroke-miterlimit="10" stroke-linecap="round" stroke-linejoin="round"/><path d="M303.177 261.084c.296-1.479.597-2.984 1.049-4.493.298-1.193.587-2.351.731-3.504l.003-.023.005-.023c.297-1.338.596-2.684.896-3.882.499-2.122.893-4.243 1.273-6.289.07-.38.14-.758.211-1.133l.001-.006c.073-.367.147-.772.222-1.183v-.003c.071-.392.144-.789.216-1.154.007-.186.048-.388.078-.541l.005-.024a2.52 2.52 0 0 0 .065-.423v-.081l.026-.077a4.02 4.02 0 0 0 .128-.657l.003-.022c.033-.233.073-.515.154-.771.077-.452.188-.935.296-1.4l.002-.009c.112-.487.22-.956.292-1.385l.001-.008.001-.007c.151-.753.302-1.356.45-1.948.072-.365.145-.766.219-1.172v-.002c.075-.408.15-.821.225-1.198.076-.378.151-.717.225-1.051l.001-.002c.074-.336.148-.666.221-1.032l.006-.031.01-.029c.057-.173.089-.386.128-.658l.003-.021c.032-.221.069-.485.141-.73.003-.152.027-.387.202-.617a4.81 4.81 0 0 0 .103-.505l.002-.014c.032-.193.07-.419.14-.651v-.134l.015-.059c.066-.264.1-.532.138-.835l.001-.012c.037-.29.077-.613.159-.941l.004-.018.007-.019a4.02 4.02 0 0 0 .128-.657l.003-.021c.034-.24.075-.53.16-.791a7.11 7.11 0 0 0 .128-.757l.006-.046.023-.166c-10.842.465-28.935-2.152-50-18.968l-.155.309c-.085.245-.204.482-.305.686l-.008.015c-.115.23-.209.421-.27.604l-.012.034-.016.032c-.063.126-.129.291-.206.483l-.005.012c-.07.176-.15.375-.233.542-.724 1.539-1.445 3.182-2.202 4.907a436.574 436.574 0 0 1-1.513 3.416 213.942 213.942 0 0 1-4.025 8.945c-11.73 26.725-27.597 63.65-39.347 95.145 5.66 5.717 17.11 13.762 36.941 13.178h.002c14.948-.368 25.686-7.02 33.649-17.545 7.98-10.548 13.174-24.99 16.967-40.906l.001-.005.446-1.781v-.003c.594-2.522 1.187-5.193 1.782-7.867l.002-.013.001-.005Z" fill="#FE5233" stroke="#19191B"/><path d="M212.807 316.155c5.66 5.809 17.278 14.15 37.535 13.554 30.237-.745 43.493-26.96 51.09-58.835l.447-1.787c.596-2.532 1.191-5.214 1.787-7.895.298-1.489.596-2.979 1.043-4.468.298-1.192.596-2.383.745-3.575.297-1.341.595-2.681.893-3.873.596-2.532 1.043-5.064 1.49-7.447.149-.745.298-1.639.447-2.383 0-.298.149-.745.149-1.043.148-.447.148-1.043.297-1.489.149-.894.447-1.937.596-2.83.149-.745.298-1.341.447-1.937.149-.745.298-1.638.447-2.383.745-3.575 1.34-7.001 1.936-10.278-10.724.596-29.194-1.787-50.791-19.214-2.533 5.66-5.661 12.661-9.235 20.406a3312.551 3312.551 0 0 0-13.108 30.088" stroke="#19191B" stroke-width="1.355" stroke-miterlimit="10" stroke-linecap="round" stroke-linejoin="round"/><path d="m310.324 227.581.007-.031.009-.029c.058-.173.09-.386.129-.658l.003-.021c.031-.221.069-.485.141-.73.003-.152.026-.387.202-.617.043-.153.07-.314.102-.505l.003-.014c.032-.193.069-.419.139-.651v-.134l.015-.059c.066-.264.1-.532.138-.835l.002-.012c.036-.29.076-.613.158-.941l.005-.018.006-.019a4.02 4.02 0 0 0 .128-.657l.003-.021c.034-.24.076-.53.16-.791a7.11 7.11 0 0 0 .128-.757l.007-.046.022-.166c-10.842.465-28.934-2.152-49.999-18.968l-.155.309c-.085.245-.204.482-.306.686l-.007.015c-.115.23-.21.421-.271.604l-.011.034-.016.032a6.54 6.54 0 0 0-.206.483l-.005.012c-.07.174-.149.371-.231.537-.327.737-.665 1.482-1.006 2.237-.86 1.898-1.746 3.855-2.569 5.886 19.077 15.557 42.654 17.623 52.911 17.533.048-.226.095-.441.143-.654v-.002c.075-.336.148-.666.221-1.032Z" fill="#9D68F8" stroke="#19191B"/><path d="M256.448 211.89c19.513 16.087 43.791 18.023 53.92 17.874.149-.745.298-1.341.447-2.085.149-.447.149-1.043.298-1.49 0-.149 0-.298.149-.447.148-.446.149-.893.297-1.34v-.149c.149-.596.149-1.192.298-1.788.149-.446.149-1.042.298-1.489.149-.596.149-1.192.298-1.638-10.724.595-29.194-1.788-50.792-19.215l-.447.894c-.148.447-.446.893-.595 1.34-.149.298-.298.745-.447 1.043-1.192 2.681-2.532 5.511-3.724 8.49Z" stroke="#19191B" stroke-width="1.355" stroke-miterlimit="10" stroke-linecap="round" stroke-linejoin="round"/><path d="M307.344 208.72c2.666.561 4.958-.168 6.903-1.681 1.959-1.525 3.565-3.847 4.794-6.441 1.226-2.59 2.06-5.418 2.496-7.917.438-2.52.459-4.634.119-5.826-.404-1.413-1.832-3.187-3.664-4.372-1.831-1.185-3.902-1.682-5.608-.831-1.441.757-3.177 2.671-4.804 5.244-1.615 2.556-3.075 5.688-3.993 8.789-.92 3.111-1.277 6.133-.745 8.494.264 1.173.744 2.167 1.467 2.934.721.763 1.709 1.327 3.035 1.607Z" fill="#fff" stroke="#19191B"/><path d="M322.136 186.718c1.49 5.213-3.574 24.874-14.895 22.491-11.32-2.383-1.34-24.726 4.916-28.003 3.872-1.936 9.086 2.384 9.979 5.512Z" stroke="#19191B" stroke-width="1.355" stroke-miterlimit="10" stroke-linecap="round" stroke-linejoin="round"/><path d="m268.464 186.382.329.287a125.181 125.181 0 0 0 6.558 5.29c4.044 3.038 8.968 6.298 12.669 7.386l.002.001c3.606 1.082 6.312.562 8.27-.772 1.973-1.345 3.26-3.567 3.911-6.019.105-.456-.019-1.064-.447-1.831-.424-.762-1.112-1.614-2.015-2.52-1.802-1.81-4.394-3.765-7.225-5.551-2.828-1.783-5.874-3.384-8.576-4.491-1.35-.554-2.607-.98-3.701-1.245-1.102-.267-2.004-.361-2.661-.279-2.702.338-4.499 2.72-5.64 5.205a21.431 21.431 0 0 0-1.187 3.331 22.048 22.048 0 0 0-.287 1.208Z" fill="#fff" stroke="#19191B"/><path d="M267.919 186.569s1.639-9.682 7.597-10.427c5.958-.745 26.364 11.469 25.172 16.534-1.34 5.064-5.362 9.383-12.809 7.149-3.724-1.042-8.491-4.319-12.512-7.298" stroke="#19191B" stroke-width="1.355" stroke-miterlimit="10" stroke-linecap="round" stroke-linejoin="round"/><path d="m224.105 263.299-.001-.003c-6.953-19.602-24.141-37.18-39.652-49.883-7.747-6.345-15.059-11.459-20.434-14.987a208.814 208.814 0 0 0-6.419-4.057 129.493 129.493 0 0 0-2.226-1.318l-.077-.044a58.162 58.162 0 0 0-2.318-.28 96.74 96.74 0 0 0-6.67-.431 117.898 117.898 0 0 0-22.547 1.469c-17.929 2.929-40.03 10.97-56.835 31.401-33.33 40.525-36.609 95.17-37.397 111.491h199.719l.004-.017c.062-.261.152-.651.262-1.162.219-1.022.517-2.529.831-4.46.628-3.862 1.319-9.422 1.569-16.204.501-13.564-.761-32.004-7.809-51.515Z" fill="#FE5233" stroke="#19191B"/><path d="M155.463 192.527s-55.111-8.788-88.923 32.322c-33.811 41.11-36.79 96.668-37.535 112.308H229.64s9.086-34.854-5.064-74.028" stroke="#19191B" stroke-width="1.355" stroke-miterlimit="10" stroke-linecap="round" stroke-linejoin="round"/><path d="M86.648 265.065s-5.809 26.066-3.723 73.581" stroke="#19191B" stroke-width="1.355" stroke-miterlimit="10" stroke-linecap="round" stroke-linejoin="round"/><path d="M137.789 172.174v26.771c.036.06.088.143.155.247.152.233.385.57.704.976a18.29 18.29 0 0 0 2.993 2.99c2.735 2.173 7.022 4.359 13.224 4.359 6.127 0 10.414-2.185 13.17-4.36a18.884 18.884 0 0 0 3.029-2.992 13.931 13.931 0 0 0 .877-1.223v-26.768h-34.152Z" fill="#9D68F8" stroke="#19191B"/><path d="M137.289 171.674v27.407s4.916 8.936 17.576 8.936c12.512 0 17.576-8.936 17.576-8.936v-27.407h-35.152Z" stroke="#19191B" stroke-width="1.355" stroke-miterlimit="10" stroke-linecap="round" stroke-linejoin="round"/><path d="M140.472 169.493v22.598c.029.046.068.108.117.182.127.192.323.471.592.807a15.392 15.392 0 0 0 2.524 2.479c2.308 1.802 5.925 3.617 11.162 3.617 5.236 0 8.854-1.815 11.161-3.617a15.392 15.392 0 0 0 2.524-2.479c.269-.336.465-.615.593-.807.049-.074.088-.136.117-.182v-22.598h-28.79Z" fill="#fff" stroke="#19191B"/><path d="M139.972 168.993v23.236s4.17 7.447 14.895 7.447c10.724 0 14.895-7.447 14.895-7.447v-23.236h-29.79Z" stroke="#19191B" stroke-width="1.355" stroke-miterlimit="10" stroke-linecap="round" stroke-linejoin="round"/><path d="M189.354 223.558c7.596 3.532 15.601 3.295 21.838-.765 3.921-2.615 7.136-6.694 9.189-12.266 2.167-5.987 2.36-11.12 1.323-15.59-1.039-4.476-3.319-8.321-6.153-11.716-2.836-3.397-6.212-6.328-9.43-8.981-.612-.505-1.22-1.001-1.818-1.488-2.524-2.059-4.866-3.968-6.604-5.798-4.393-4.623-5.426-11.77-5.332-19.621.046-3.94.378-8.095.735-12.248l.107-1.252c.323-3.739.644-7.46.778-11.031.22-7.877-2.178-19.211-8.007-28.712-5.822-9.487-15.034-17.105-28.455-17.691h-.002c-12.335-.588-23.242 4.914-30.746 14.754-7.509 9.847-11.621 24.055-10.289 40.861 1.345 17.027-.702 27.001-4.001 33.409-2.846 5.529-6.613 8.365-9.77 10.743-.505.38-.995.749-1.463 1.115l-.007.005c-3.293 2.488-8.746 8.307-11.835 15.221-3.083 6.9-3.776 14.785 2.227 21.584 6.069 6.873 15.707 10.474 25.085 9.923 9.364-.549 18.426-5.234 23.397-14.884 2.449-4.824 3.644-11.288 4.04-18.312.396-7.016-.007-14.546-.722-21.476-.715-6.928-1.741-13.245-2.589-17.83a211.84 211.84 0 0 0-1.076-5.436c-.136-.642-.246-1.141-.322-1.479l-.087-.384-.022-.098-.006-.024-.002-.006v-.001l.487-.115-.487.114-.145-.619.636.005 38.875.298.979.008-.579.788-.403-.296.403.296-.001.001-.002.003-.011.014-.043.06-.169.24c-.149.213-.366.531-.639.946a66.468 66.468 0 0 0-2.199 3.61 79.244 79.244 0 0 0-5.879 12.925c-3.738 10.716-5.978 24.991-.084 39.359 4.503 10.997 11.683 18.304 19.28 21.837Z" fill="#19191B" stroke="#19191B"/><path d="M191.856 153.702c-.872 8.423 3.254 14.837 8.41 20.233 2.156 2.256 4.475 4.318 6.673 6.271.432.384.859.764 1.279 1.14 2.543 2.276 4.849 4.435 6.34 6.575 5.51 7.912 6.791 20.739-.765 32.674 2.745-2.532 5.009-5.933 6.588-10.217 2.167-5.987 2.36-11.12 1.323-15.59-1.039-4.476-3.319-8.321-6.153-11.716-2.836-3.397-6.212-6.328-9.43-8.981-.612-.505-1.22-1.001-1.818-1.488-2.524-2.059-4.866-3.968-6.604-5.798-4.349-4.578-5.405-11.629-5.335-19.388a145.88 145.88 0 0 1-.508 6.285Zm1.353-20.018c.323-3.739.644-7.46.778-11.031.22-7.877-2.178-19.211-8.007-28.712-4.824-7.86-11.975-14.438-21.919-16.796 14.711 5.743 22.098 19.4 25.623 33.862 2.559 10.498 3.1 21.477 2.924 30.294.134-2.102.311-4.234.494-6.365l.107-1.252Z" fill="#fff" stroke="#19191B"/><path d="M157.546 75.75c27.257 1.34 37.386 30.982 36.939 46.919-.447 15.938-4.915 34.855 3.575 43.792 8.49 8.937 31.428 19.81 22.789 44.089-8.788 24.278-39.323 20.406-51.239-8.788-11.916-29.046 9.086-57.644 9.086-57.644l-38.876-.298s10.725 45.728.596 65.389c-9.979 19.661-36.939 19.066-49.302 5.064-12.363-14.001 2.98-32.471 9.682-37.833 6.851-5.362 17.725-10.873 15.044-44.834-2.532-33.662 16.682-57.047 41.706-55.856Z" stroke="#19191B" stroke-width="1.355" stroke-miterlimit="10" stroke-linecap="round" stroke-linejoin="round"/><path d="M126.173 141.139c0 20.977 13.273 36.738 29.439 36.738 16.165 0 29.439-15.761 29.439-36.738 0-10.476-3.322-20.764-8.679-28.423-5.362-7.664-12.712-12.634-20.76-12.634-8.124 0-15.474 4.97-20.815 12.633-5.339 7.658-8.624 17.947-8.624 28.424Z" fill="#fff" stroke="#19191B"/><path d="M125.673 141.139c0 21.151 13.405 37.238 29.939 37.238 16.533 0 29.939-16.087 29.939-37.238s-13.406-41.557-29.939-41.557c-16.683 0-29.939 20.406-29.939 41.557Z" stroke="#19191B" stroke-width="1.355" stroke-miterlimit="10" stroke-linecap="round" stroke-linejoin="round"/><path d="M167.133 139.448h2.277v-4.565c0-.617-.521-1.138-1.138-1.138-.618 0-1.139.521-1.139 1.138v4.565Zm-28.752-12.381c.006.048.044.149.267.276.222.127.561.237 1.01.315.893.154 2.087.162 3.299.043 1.211-.118 2.401-.358 3.284-.677.443-.161.783-.332 1.007-.5.235-.176.265-.288.268-.318l.498.038-.499-.029c.006-.109-.029-.215-.202-.342-.19-.14-.509-.268-.961-.361-.895-.183-2.137-.192-3.404-.055-1.265.136-2.507.412-3.399.77-.449.18-.777.367-.976.544-.201.179-.196.274-.192.296Zm7.791 12.381v-4.565c0-.617-.521-1.138-1.139-1.138-.617 0-1.138.521-1.138 1.138v4.565h2.277Z" fill="#19191B" stroke="#19191B"/><path d="M147.121 139.948s-1.787-1.341-4.171 0" stroke="#19191B" stroke-width="1.355" stroke-miterlimit="10" stroke-linecap="round" stroke-linejoin="round"/><path d="M165.44 125.946c0 1.937 9.532 3.724 10.128 1.639.298-2.086-10.277-4.32-10.128-1.639Z" stroke="#19191B" stroke-width=".425" stroke-miterlimit="10"/><path d="M166.185 139.948s1.787-1.341 4.17 0m-12.361 9.681s.745 3.426-2.681 3.128c-3.426-.298-3.426-4.022-1.043-4.171" stroke="#19191B" stroke-width="1.355" stroke-miterlimit="10" stroke-linecap="round" stroke-linejoin="round"/><path d="m145.159 101.954.463-1.372.482 1.366-.472.166.472-.166v.001l.002.004.006.016.025.069.102.274c.092.241.231.597.419 1.052.377.91.948 2.217 1.727 3.798 1.558 3.163 3.944 7.417 7.253 11.779 6.549 8.634 16.675 17.649 31.122 19.555l.008-.06c.045-.359.106-.887.171-1.56.13-1.348.276-3.278.335-5.604.118-4.653-.11-10.875-1.485-17.172-1.377-6.3-3.895-12.641-8.334-17.567-4.428-4.914-10.795-8.452-19.943-9.113-9.134-.66-15.791 2.188-20.666 6.81-4.89 4.636-8.017 11.089-10.005 17.673-1.987 6.58-2.826 13.252-3.166 18.285a94.061 94.061 0 0 0-.219 6.089c-.002.721.007 1.29.016 1.683a7.54 7.54 0 0 0 1.139-.528c1.135-.632 2.805-1.846 4.858-4.165 4.111-4.642 9.744-13.698 15.69-31.313Z" fill="#19191B" stroke="#19191B"/><path d="M145.632 102.114s11.767 33.365 41.557 36.94c0 0 7.448-49.451-29.641-52.133-37.088-2.68-34.556 51.686-34.556 51.686s10.724-1.192 22.64-36.493Z" stroke="#19191B" stroke-width="1.355" stroke-miterlimit="10" stroke-linecap="round" stroke-linejoin="round"/><path d="M128.076 138.866v-.001.001Zm-.072 14.694v-14.8l-.03-.041a4.55 4.55 0 0 0-.368-.428 6.19 6.19 0 0 0-1.622-1.195c-1.495-.773-3.93-1.328-7.617-.244-1.686.496-2.886 1.965-3.481 3.94-.594 1.973-.558 4.386.184 6.612.741 2.223 2.174 4.229 4.342 5.435 2.093 1.164 4.925 1.613 8.592.721Z" fill="#fff" stroke="#19191B"/><path d="M126.567 136.819c-1.638-.893-4.319-1.638-8.341-.446-7.448 2.234-5.511 21.001 9.235 17.874" stroke="#19191B" stroke-width="1.355" stroke-miterlimit="10" stroke-linecap="round" stroke-linejoin="round"/><path d="M124.035 142.927s-4.319-2.979-6.851 2.085m4.168 2.681v-5.66" stroke="#19191B" stroke-width="1.355" stroke-miterlimit="10" stroke-linecap="round" stroke-linejoin="round"/><path d="m146.359 164.936.012.003.012.004c.799.267 1.751.273 2.809.273 1.499-.073 3.014-.467 4.119-1.106 1.115-.645 1.706-1.465 1.65-2.381-.061-.781-.445-1.304-1.071-1.714-.654-.428-1.546-.714-2.562-.984a66.208 66.208 0 0 0-.717-.186c-.786-.2-1.607-.41-2.342-.683-.966-.359-1.885-.861-2.457-1.697l-.006-.01c-.907-1.395-2.194-2.168-3.241-2.231-.513-.03-.961.107-1.312.41-.348.301-.646.805-.784 1.591v.15l-.007.043c-.281 1.613-.068 3.39.833 4.931.895 1.532 2.494 2.873 5.064 3.587Z" fill="#19191B" stroke="#19191B"/><path d="M146.225 165.418c.894.298 1.936.298 2.979.298 3.128-.149 6.405-1.639 6.256-4.022-.298-3.873-7.299-2.681-9.235-5.511-1.936-2.979-5.66-3.575-6.256 0v.149c-.596 3.426.894 7.596 6.256 9.086Z" stroke="#19191B" stroke-width="1.355" stroke-miterlimit="10" stroke-linecap="round" stroke-linejoin="round"/><path d="m146.36 164.936.012.003.012.004c.693.231 1.5.266 2.392.272.189-1.287.31-2.607.122-3.717-.203-1.202-.748-2.082-1.929-2.455l-.007-.003c-.642-.213-1.19-.592-1.686-.974a35.72 35.72 0 0 1-.449-.354c-.338-.269-.659-.525-1.014-.756-.492-.319-1.004-.556-1.6-.639-.531-.073-1.157-.027-1.928.23-.148 1.612.125 3.311.991 4.782.915 1.553 2.515 2.893 5.084 3.607Zm37.038-26.217-.03.041v14.8c3.667.892 6.499.443 8.592-.721 2.168-1.206 3.601-3.212 4.342-5.435.742-2.226.778-4.639.184-6.612-.595-1.975-1.796-3.444-3.482-3.94-3.686-1.084-6.121-.529-7.616.244a6.19 6.19 0 0 0-1.622 1.195c-.17.175-.291.325-.368.428Zm-.102.147c-.001 0-.001 0 0 0Z" fill="#fff" stroke="#19191B"/><path d="M183.317 138.607s2.681-4.469 10.278-2.234c7.596 2.234 5.511 21.746-10.278 17.576" stroke="#19191B" stroke-width="1.355" stroke-miterlimit="10" stroke-linecap="round" stroke-linejoin="round"/><path d="M187.336 142.927s4.319-2.979 6.852 2.085m-4.321 2.681v-5.66" stroke="#19191B" stroke-width="1.355" stroke-miterlimit="10" stroke-linecap="round" stroke-linejoin="round"/><path d="M10.214 77.415h40.053c5.107 0 9.312 4.104 9.312 9.31v39.942l-9.412-8.609H10.314c-5.107 0-9.312-4.105-9.312-9.31V86.725c-.1-5.206 4.105-9.31 9.212-9.31Z" fill="#fff" stroke="#19191B" stroke-miterlimit="10"/><path d="M27.74 102.463v-.137c.015-1.456.168-2.615.458-3.476.29-.862.701-1.56 1.235-2.093a9.98 9.98 0 0 1 1.922-1.475c.45-.275.854-.599 1.212-.972.359-.381.64-.82.847-1.315a4.12 4.12 0 0 0 .32-1.647c0-.747-.175-1.395-.526-1.944a3.533 3.533 0 0 0-1.407-1.27 4.267 4.267 0 0 0-1.956-.445 4.38 4.38 0 0 0-1.807.389 3.49 3.49 0 0 0-1.453 1.223c-.39.557-.614 1.285-.675 2.184h-2.883c.061-1.296.397-2.405 1.007-3.328a6.061 6.061 0 0 1 2.436-2.115c1.015-.488 2.14-.732 3.375-.732 1.342 0 2.509.267 3.5.8 1 .534 1.77 1.266 2.31 2.196.55.93.824 1.99.824 3.18 0 .838-.13 1.596-.389 2.275a5.608 5.608 0 0 1-1.098 1.818 7.534 7.534 0 0 1-1.716 1.418c-.67.42-1.208.862-1.612 1.327a4.188 4.188 0 0 0-.881 1.635c-.183.633-.282 1.422-.298 2.367v.137H27.74Zm1.464 6.77a1.982 1.982 0 0 1-1.453-.606 1.98 1.98 0 0 1-.606-1.452c0-.564.202-1.048.607-1.452a1.98 1.98 0 0 1 1.452-.607 1.98 1.98 0 0 1 1.453.607c.404.404.606.888.606 1.452 0 .373-.095.716-.286 1.029-.183.313-.43.564-.743.755a1.962 1.962 0 0 1-1.03.274Z" stroke="#19191B"/></svg>