<svg width="168" height="34" fill="none" xmlns="http://www.w3.org/2000/svg"><path d="M168 32.924h-4.602l-7.821-8.485-7.813 8.485h-4.557l10.081-10.97-9.531-10.305h4.588l7.217 7.825 7.188-7.825h4.558l-9.463 10.292L168 32.924Zm-51.682-10.641c0-4.724 3.142-8.991 7.949-10.798 4.814-1.808 10.343-.802 14.028 2.54 3.675 3.34 4.784 8.374 2.794 12.744-1.989 4.376-6.682 7.224-11.889 7.231-7.11 0-12.882-5.247-12.882-11.717Zm4.234-3.287c-3.165 7.019 4.55 14.031 12.264 11.154 6.217-2.32 7.837-9.634 3.082-13.955-4.746-4.315-12.801-2.842-15.346 2.8ZM99.321 33.445h.015-.015Zm-9.364-1.589V.973h3.517v11.202a14.033 14.033 0 0 1 5.862-1.09c7.111 0 12.884 4.706 12.884 11.177 0 6.466-5.786 11.175-12.899 11.183-7.202 0-9.364-1.589-9.364-1.589ZM99.32 14.28h.015-.015Zm-5.847 1.739v13.167a12.676 12.676 0 0 0 5.862 1.069c5.161 0 9.372-3.287 9.372-7.985 0-4.704-4.195-7.99-9.372-7.99-2.102.026-4.144.629-5.862 1.739ZM81.76.973v31.95h-3.52V.974h3.52Zm-11.717 0v31.95h-3.518V.974h3.518Zm-13.597 4.76c-3.624-.234-3.624-5.069 0-5.301 1.687-.103 3.126 1.109 3.126 2.65s-1.439 2.76-3.126 2.65Zm-11.603 27.19L32.547 21.749l11.12-10.127h4.98L37.512 21.748l12.296 11.176h-4.965Zm-15.822 0V.974h3.511v31.95h-3.511Zm-17.683.522C7.036 33.336 2.953 31.67 0 28.822l2.486-2.498c2.328 2.013 5.063 3.97 8.814 3.97 4.16 0 8.65-2.13 8.65-5.942 0-3.158-2.765-5.219-8.58-6.85-6.623-1.84-9.999-4.34-9.999-9.038C1.371 3.815 5.696 0 11.858 0c4.619 0 7.497 1.788 10.299 4.06l-2.44 2.473c-2.458-1.985-4.8-3.328-7.686-3.328-3.555 0-7.082 2.095-7.082 5.101 0 2.726 1.719 4.458 7.805 6.157 5.592 1.562 10.691 3.984 10.691 9.771 0 5.335-4.671 9.21-12.107 9.21Zm46.982-.521h-3.51V11.62h3.51v21.303Z" fill="#fff"/></svg>