<svg width="496" height="344" fill="none" xmlns="http://www.w3.org/2000/svg"><path d="M38.89 341.284c9.266-4.426 15.142-13.615 15.142-23.684V207.458c0-26.096 13.995-50.289 36.89-63.769l117.58-69.231c24.232-14.268 54.566-14.275 78.805-.018l117.741 69.254c22.912 13.476 36.92 37.678 36.92 63.787V317.6c0 10.069 5.876 19.258 15.143 23.684C475.059 349.855 496 337.101 496 317.6V175.661c0-26.092-13.99-50.281-36.878-63.763L287.345 10.713c-24.258-14.289-54.631-14.284-78.884.014L36.854 111.894C13.98 125.38 0 149.561 0 175.643V317.6c0 19.501 20.941 32.255 38.89 23.684Z" fill="#fff"/></svg>