<svg width="200" height="66" fill="none" xmlns="http://www.w3.org/2000/svg"><g clip-path="url(#a)"><path d="M191.207 54.49c3.934 0 6.723-.718 8.794-2.224v-6.953a13.743 13.743 0 0 1-8.297 2.433c-6.075 0-8.586-4.728-8.586-12.18 0-7.798 3.078-11.808 8.656-11.808 2.887.022 5.721.788 8.227 2.225v-7.231c-1.782-.997-4.929-1.715-9.153-1.715-10.866 0-16.514 7.81-16.514 18.761 0 12.03 5.52 18.693 16.873 18.693Zm-53.232-3.151v-6.953a21.674 21.674 0 0 1-11.225 3.36c-6.226 0-8.586-2.932-8.933-8.946h20.517v-4.508c0-12.527-5.509-17.255-14.014-17.255-10.415 0-15.298 7.95-15.298 18.831 0 12.527 6.145 18.623 17.022 18.623 4.213.166 8.38-.931 11.966-3.152h-.035ZM60.037 17.732v14.254H48.673V17.732h-8.505V53.75h8.505V38.684h11.364v15.065h8.517V17.755h-8.517v-.023ZM106.95 47.04h-3.795V17.755H78.379v3.083c0 8.807-.579 20.198-3.576 26.213h-2.65v14.926h7.87v-8.24h19.093v8.24h7.834V47.039Zm58.208 6.733h9.651l-13.655-19.41 12.012-16.618h-8.575L152.579 34.36V17.755h-8.482v36.017h8.505V36.088l12.556 17.684Zm-40.942-30.037c4.224 0 5.508 3.477 5.508 8.02v.718h-11.873c.209-5.702 2.291-8.738 6.365-8.738ZM94.684 47.039H82.649c2.314-5.446 2.997-15.25 2.997-21.485v-1.077h9.015l.023 22.562Z" fill="#000"/><path d="M33.038 53.772h-8.656v-43.04h-3.865c-7.082 0-10.796 3.582-10.796 8.878 0 6.014 2.58 8.807 7.869 12.388l4.362 2.931-12.59 18.832H0l11.294-16.827C4.791 32.3 1.134 27.768 1.134 20.108 1.134 10.513 7.788 4 20.436 4h12.59v49.76l.012.012Z" fill="#FC3F1D"/></g><defs><clipPath id="a"><path fill="#fff" d="M0 0h200v66H0z"/></clipPath></defs></svg>